<svg width="107" height="20" viewBox="0 0 107 20" fill="none" xmlns="http://www.w3.org/2000/svg">
<g clip-path="url(#clip0_5379_2174)">
<path d="M20 0H0V20H20V0Z" fill="#219653"/>
<path d="M41.668 0H21.668V20H41.668V0Z" fill="#219653"/>
<path d="M63.332 0H43.332V20H63.332V0Z" fill="#219653"/>
<path d="M85 0H65V20H85V0Z" fill="#219653"/>
<path d="M107 0H87V20H107V0Z" fill="#D1D1D1"/>
<path d="M97 0H87V20H97V0Z" fill="#219653"/>
<path d="M10 13.4792L13.0417 12.7083L14.3125 16.625L10 13.4792ZM17 8.41667H11.6458L10 3.375L8.35417 8.41667H3L7.33333 11.5417L5.6875 16.5833L10.0208 13.4583L12.6875 11.5417L17 8.41667Z" fill="white"/>
<path d="M31.668 13.4792L34.7096 12.7083L35.9805 16.625L31.668 13.4792ZM38.668 8.41667H33.3138L31.668 3.375L30.0221 8.41667H24.668L29.0013 11.5417L27.3555 16.5833L31.6888 13.4583L34.3555 11.5417L38.668 8.41667Z" fill="white"/>
<path d="M53.332 13.4792L56.3737 12.7083L57.6445 16.625L53.332 13.4792ZM60.332 8.41667H54.9779L53.332 3.375L51.6862 8.41667H46.332L50.6654 11.5417L49.0195 16.5833L53.3529 13.4583L56.0195 11.5417L60.332 8.41667Z" fill="white"/>
<path d="M75 13.4792L78.0417 12.7083L79.3125 16.625L75 13.4792ZM82 8.41667H76.6458L75 3.375L73.3542 8.41667H68L72.3333 11.5417L70.6875 16.5833L75.0208 13.4583L77.6875 11.5417L82 8.41667Z" fill="white"/>
<path d="M96.668 13.4792L99.7096 12.7083L100.98 16.625L96.668 13.4792ZM103.668 8.41667H98.3138L96.668 3.375L95.0221 8.41667H89.668L94.0013 11.5417L92.3555 16.5833L96.6888 13.4583L99.3555 11.5417L103.668 8.41667Z" fill="white"/>
</g>
<defs>
<clipPath id="clip0_5379_2174">
<rect width="106.667" height="20" fill="white"/>
</clipPath>
</defs>
</svg>
