<svg width="114" height="22" viewBox="0 0 114 22" fill="none" xmlns="http://www.w3.org/2000/svg">
<path d="M11.168 15.2516L15.7305 14.088L17.6367 20L11.168 15.2516ZM21.668 7.61006H13.6367L11.168 0L8.69922 7.61006H0.667969L7.16797 12.327L4.69922 19.9371L11.1992 15.2201L15.1992 12.327L21.668 7.61006Z" fill="#219653"/>
<path d="M33.2949 2.78125V17H30.375V2.78125H33.2949ZM37.6699 2.78125V5.07617H26.0684V2.78125H37.6699ZM41.293 8.73828V17H38.4805V6.43359H41.127L41.293 8.73828ZM44.4766 6.36523L44.4277 8.97266C44.291 8.95312 44.125 8.93685 43.9297 8.92383C43.7409 8.9043 43.5684 8.89453 43.4121 8.89453C43.015 8.89453 42.6699 8.94661 42.377 9.05078C42.0905 9.14844 41.8496 9.29492 41.6543 9.49023C41.4655 9.68555 41.3223 9.92318 41.2246 10.2031C41.1335 10.4831 41.0814 10.8021 41.0684 11.1602L40.502 10.9844C40.502 10.3008 40.5703 9.67253 40.707 9.09961C40.8438 8.52018 41.0423 8.01562 41.3027 7.58594C41.5697 7.15625 41.8952 6.82422 42.2793 6.58984C42.6634 6.35547 43.1029 6.23828 43.5977 6.23828C43.7539 6.23828 43.9134 6.2513 44.0762 6.27734C44.2389 6.29688 44.3724 6.32617 44.4766 6.36523ZM52.0547 14.4707V6.43359H54.8672V17H52.2207L52.0547 14.4707ZM52.3672 12.3027L53.1973 12.2832C53.1973 12.9863 53.1159 13.6406 52.9531 14.2461C52.7904 14.8451 52.5462 15.3659 52.2207 15.8086C51.8952 16.2448 51.485 16.5866 50.9902 16.834C50.4954 17.0749 49.9128 17.1953 49.2422 17.1953C48.7279 17.1953 48.2526 17.1237 47.8164 16.9805C47.3867 16.8307 47.0156 16.5996 46.7031 16.2871C46.3971 15.9681 46.1562 15.5612 45.9805 15.0664C45.8112 14.5651 45.7266 13.9629 45.7266 13.2598V6.43359H48.5391V13.2793C48.5391 13.5918 48.5749 13.8555 48.6465 14.0703C48.7246 14.2852 48.832 14.4609 48.9688 14.5977C49.1055 14.7344 49.265 14.832 49.4473 14.8906C49.6361 14.9492 49.8444 14.9785 50.0723 14.9785C50.6517 14.9785 51.1074 14.8613 51.4395 14.627C51.778 14.3926 52.0156 14.0736 52.1523 13.6699C52.2956 13.2598 52.3672 12.804 52.3672 12.3027ZM62.7285 14.0801C62.7285 13.8783 62.6699 13.696 62.5527 13.5332C62.4355 13.3704 62.2174 13.2207 61.8984 13.084C61.5859 12.9408 61.1335 12.8105 60.541 12.6934C60.0072 12.5762 59.5091 12.4297 59.0469 12.2539C58.5911 12.0716 58.194 11.8535 57.8555 11.5996C57.5234 11.3457 57.263 11.0462 57.0742 10.7012C56.8854 10.3496 56.791 9.94922 56.791 9.5C56.791 9.05729 56.8854 8.64062 57.0742 8.25C57.2695 7.85938 57.5462 7.51432 57.9043 7.21484C58.2689 6.90885 58.7116 6.67122 59.2324 6.50195C59.7598 6.32617 60.3522 6.23828 61.0098 6.23828C61.9277 6.23828 62.7155 6.38477 63.373 6.67773C64.0371 6.9707 64.5449 7.37435 64.8965 7.88867C65.2546 8.39648 65.4336 8.97591 65.4336 9.62695H62.6211C62.6211 9.35352 62.5625 9.10938 62.4453 8.89453C62.3346 8.67318 62.1589 8.50065 61.918 8.37695C61.6836 8.24674 61.3776 8.18164 61 8.18164C60.6875 8.18164 60.4173 8.23698 60.1895 8.34766C59.9616 8.45182 59.7858 8.59505 59.6621 8.77734C59.5449 8.95312 59.4863 9.14844 59.4863 9.36328C59.4863 9.52604 59.5189 9.67253 59.584 9.80273C59.6556 9.92643 59.7695 10.0404 59.9258 10.1445C60.082 10.2487 60.2839 10.3464 60.5312 10.4375C60.7852 10.5221 61.0977 10.6003 61.4688 10.6719C62.2305 10.8281 62.9108 11.0332 63.5098 11.2871C64.1087 11.5345 64.584 11.873 64.9355 12.3027C65.2871 12.7259 65.4629 13.2826 65.4629 13.9727C65.4629 14.4414 65.3587 14.8711 65.1504 15.2617C64.9421 15.6523 64.6426 15.9941 64.252 16.2871C63.8613 16.5736 63.3926 16.7982 62.8457 16.9609C62.3053 17.1172 61.6966 17.1953 61.0195 17.1953C60.0365 17.1953 59.2031 17.0195 58.5195 16.668C57.8424 16.3164 57.3281 15.8704 56.9766 15.3301C56.6315 14.7832 56.459 14.2233 56.459 13.6504H59.125C59.138 14.0345 59.2357 14.3438 59.418 14.5781C59.6068 14.8125 59.8444 14.9818 60.1309 15.0859C60.4238 15.1901 60.7396 15.2422 61.0781 15.2422C61.4427 15.2422 61.7454 15.1934 61.9863 15.0957C62.2272 14.9915 62.4095 14.8548 62.5332 14.6855C62.6634 14.5098 62.7285 14.3079 62.7285 14.0801ZM72.4648 6.43359V8.42578H66.3125V6.43359H72.4648ZM67.8359 3.82617H70.6484V13.8164C70.6484 14.1224 70.6875 14.3568 70.7656 14.5195C70.8503 14.6823 70.974 14.7962 71.1367 14.8613C71.2995 14.9199 71.5046 14.9492 71.752 14.9492C71.9277 14.9492 72.084 14.9427 72.2207 14.9297C72.3639 14.9102 72.4844 14.8906 72.582 14.8711L72.5918 16.9414C72.3509 17.0195 72.0905 17.0814 71.8105 17.127C71.5306 17.1725 71.2214 17.1953 70.8828 17.1953C70.2643 17.1953 69.724 17.0944 69.2617 16.8926C68.806 16.6842 68.4544 16.3522 68.207 15.8965C67.9596 15.4408 67.8359 14.8418 67.8359 14.0996V3.82617ZM76.8789 8.46484V21.0625H74.0664V6.43359H76.6738L76.8789 8.46484ZM83.5684 11.5996V11.8047C83.5684 12.5729 83.4772 13.2858 83.2949 13.9434C83.1191 14.6009 82.8587 15.1738 82.5137 15.6621C82.1686 16.1439 81.7389 16.5215 81.2246 16.7949C80.7168 17.0618 80.1309 17.1953 79.4668 17.1953C78.8223 17.1953 78.2624 17.0651 77.7871 16.8047C77.3118 16.5443 76.9115 16.1797 76.5859 15.7109C76.2669 15.2357 76.0098 14.6855 75.8145 14.0605C75.6191 13.4355 75.4694 12.765 75.3652 12.0488V11.5117C75.4694 10.7435 75.6191 10.0404 75.8145 9.40234C76.0098 8.75781 76.2669 8.20117 76.5859 7.73242C76.9115 7.25716 77.3086 6.88932 77.7773 6.62891C78.2526 6.36849 78.8092 6.23828 79.4473 6.23828C80.1178 6.23828 80.707 6.36523 81.2148 6.61914C81.7292 6.87305 82.1589 7.23763 82.5039 7.71289C82.8555 8.18815 83.1191 8.75456 83.2949 9.41211C83.4772 10.0697 83.5684 10.7988 83.5684 11.5996ZM80.7461 11.8047V11.5996C80.7461 11.1504 80.707 10.737 80.6289 10.3594C80.5573 9.97526 80.4401 9.63997 80.2773 9.35352C80.1211 9.06706 79.9128 8.8457 79.6523 8.68945C79.3984 8.52669 79.0892 8.44531 78.7246 8.44531C78.3405 8.44531 78.0117 8.50716 77.7383 8.63086C77.4714 8.75456 77.2533 8.93359 77.084 9.16797C76.9147 9.40234 76.7878 9.68229 76.7031 10.0078C76.6185 10.3333 76.5664 10.7012 76.5469 11.1113V12.4688C76.5794 12.9505 76.6706 13.3835 76.8203 13.7676C76.9701 14.1452 77.2012 14.4447 77.5137 14.666C77.8262 14.8874 78.2363 14.998 78.7441 14.998C79.1152 14.998 79.4277 14.9167 79.6816 14.7539C79.9355 14.5846 80.1406 14.3535 80.2969 14.0605C80.4596 13.7676 80.5736 13.429 80.6387 13.0449C80.7103 12.6608 80.7461 12.2474 80.7461 11.8047ZM88.2852 6.43359V17H85.4629V6.43359H88.2852ZM85.2871 3.67969C85.2871 3.26953 85.4303 2.93099 85.7168 2.66406C86.0033 2.39714 86.3874 2.26367 86.8691 2.26367C87.3444 2.26367 87.7253 2.39714 88.0117 2.66406C88.3047 2.93099 88.4512 3.26953 88.4512 3.67969C88.4512 4.08984 88.3047 4.42839 88.0117 4.69531C87.7253 4.96224 87.3444 5.0957 86.8691 5.0957C86.3874 5.0957 86.0033 4.96224 85.7168 4.69531C85.4303 4.42839 85.2871 4.08984 85.2871 3.67969ZM93.5781 2V17H90.7559V2H93.5781ZM95.4531 11.8242V11.6191C95.4531 10.8444 95.5638 10.1315 95.7852 9.48047C96.0065 8.82292 96.3288 8.25326 96.752 7.77148C97.1751 7.28971 97.696 6.91536 98.3145 6.64844C98.9329 6.375 99.6426 6.23828 100.443 6.23828C101.244 6.23828 101.957 6.375 102.582 6.64844C103.207 6.91536 103.731 7.28971 104.154 7.77148C104.584 8.25326 104.91 8.82292 105.131 9.48047C105.352 10.1315 105.463 10.8444 105.463 11.6191V11.8242C105.463 12.5924 105.352 13.3053 105.131 13.9629C104.91 14.6139 104.584 15.1836 104.154 15.6719C103.731 16.1536 103.21 16.528 102.592 16.7949C101.973 17.0618 101.264 17.1953 100.463 17.1953C99.6621 17.1953 98.9492 17.0618 98.3242 16.7949C97.7057 16.528 97.1816 16.1536 96.752 15.6719C96.3288 15.1836 96.0065 14.6139 95.7852 13.9629C95.5638 13.3053 95.4531 12.5924 95.4531 11.8242ZM98.2656 11.6191V11.8242C98.2656 12.2669 98.3047 12.6803 98.3828 13.0645C98.4609 13.4486 98.5846 13.7871 98.7539 14.0801C98.9297 14.3665 99.1576 14.5911 99.4375 14.7539C99.7174 14.9167 100.059 14.998 100.463 14.998C100.854 14.998 101.189 14.9167 101.469 14.7539C101.749 14.5911 101.973 14.3665 102.143 14.0801C102.312 13.7871 102.436 13.4486 102.514 13.0645C102.598 12.6803 102.641 12.2669 102.641 11.8242V11.6191C102.641 11.1895 102.598 10.7858 102.514 10.4082C102.436 10.0241 102.309 9.68555 102.133 9.39258C101.964 9.0931 101.739 8.85872 101.459 8.68945C101.179 8.52018 100.84 8.43555 100.443 8.43555C100.046 8.43555 99.7077 8.52018 99.4277 8.68945C99.1543 8.85872 98.9297 9.0931 98.7539 9.39258C98.5846 9.68555 98.4609 10.0241 98.3828 10.4082C98.3047 10.7858 98.2656 11.1895 98.2656 11.6191ZM112.367 6.43359V8.42578H106.215V6.43359H112.367ZM107.738 3.82617H110.551V13.8164C110.551 14.1224 110.59 14.3568 110.668 14.5195C110.753 14.6823 110.876 14.7962 111.039 14.8613C111.202 14.9199 111.407 14.9492 111.654 14.9492C111.83 14.9492 111.986 14.9427 112.123 14.9297C112.266 14.9102 112.387 14.8906 112.484 14.8711L112.494 16.9414C112.253 17.0195 111.993 17.0814 111.713 17.127C111.433 17.1725 111.124 17.1953 110.785 17.1953C110.167 17.1953 109.626 17.0944 109.164 16.8926C108.708 16.6842 108.357 16.3522 108.109 15.8965C107.862 15.4408 107.738 14.8418 107.738 14.0996V3.82617Z" fill="black"/>
</svg>
