<svg width="50" height="62" viewBox="0 0 50 62" fill="none" xmlns="http://www.w3.org/2000/svg">
<path d="M25 61C25 61 49 49 49 31V10L25 1L1 10V31C1 49 25 61 25 61Z" stroke="#00B57A" stroke-linecap="round" stroke-linejoin="round"/>
<path d="M25.0003 57.7689C25.0003 57.7689 46.2311 47.0612 46.2311 30.9997V12.2612L25.0003 4.23047L3.76953 12.2612V30.9997C3.76953 47.0612 25.0003 57.7689 25.0003 57.7689Z" stroke="#00B57A" stroke-width="2" stroke-linecap="round" stroke-linejoin="round"/>
<path d="M31.044 18.7292L35.3178 12H36.0286L31.7547 18.7292H31.044ZM31.3393 15.6646C30.9147 15.6646 30.5824 15.5015 30.3424 15.1754C30.1024 14.8492 29.9824 14.4031 29.9824 13.8369C29.9824 13.2585 30.1086 12.8154 30.3609 12.5077C30.6132 12.1938 30.9455 12.0369 31.3578 12.0369C31.7701 12.0369 32.0963 12.2 32.3363 12.5262C32.5763 12.8462 32.6963 13.2862 32.6963 13.8462C32.6963 14.4369 32.5701 14.8892 32.3178 15.2031C32.0717 15.5108 31.7455 15.6646 31.3393 15.6646ZM31.3486 15.0923C31.5455 15.0923 31.7055 15.0031 31.8286 14.8246C31.9578 14.6462 32.0224 14.32 32.0224 13.8462C32.0224 13.3785 31.9578 13.0554 31.8286 12.8769C31.7055 12.6985 31.5455 12.6092 31.3486 12.6092C31.1455 12.6092 30.9793 12.6985 30.8501 12.8769C30.7209 13.0554 30.6563 13.3785 30.6563 13.8462C30.6563 14.3138 30.7178 14.64 30.8409 14.8246C30.9701 15.0031 31.1393 15.0923 31.3486 15.0923ZM35.7332 18.7662C35.3086 18.7662 34.9763 18.6031 34.7363 18.2769C34.4963 17.9508 34.3763 17.5046 34.3763 16.9385C34.3763 16.36 34.4993 15.9138 34.7455 15.6C34.9978 15.2862 35.3332 15.1292 35.7517 15.1292C36.164 15.1292 36.4901 15.2923 36.7301 15.6185C36.9701 15.9446 37.0901 16.3908 37.0901 16.9569C37.0901 17.5354 36.964 17.9815 36.7117 18.2954C36.4655 18.6092 36.1393 18.7662 35.7332 18.7662ZM35.7424 18.1938C35.9393 18.1938 36.0993 18.1046 36.2224 17.9262C36.3455 17.7477 36.407 17.4215 36.407 16.9477C36.407 16.48 36.3455 16.1569 36.2224 15.9785C36.0993 15.8 35.9393 15.7108 35.7424 15.7108C35.5332 15.7108 35.364 15.8 35.2347 15.9785C35.1117 16.1508 35.0501 16.4738 35.0501 16.9477C35.0501 17.4215 35.1117 17.7477 35.2347 17.9262C35.364 18.1046 35.5332 18.1938 35.7424 18.1938Z" fill="#00B57A"/>
<path d="M26.8369 18.8031C26.3384 18.8031 25.9076 18.6708 25.5446 18.4062C25.1815 18.1354 24.9015 17.7477 24.7046 17.2431C24.5076 16.7323 24.4092 16.1138 24.4092 15.3877C24.4092 14.6554 24.5107 14.0369 24.7138 13.5323C24.9169 13.0277 25.1999 12.6462 25.563 12.3877C25.9323 12.1292 26.3599 12 26.8461 12C27.5784 12 28.1599 12.2985 28.5907 12.8954C29.0215 13.4862 29.2369 14.32 29.2369 15.3969C29.2369 16.1354 29.1353 16.76 28.9323 17.2708C28.7353 17.7754 28.4553 18.1569 28.0923 18.4154C27.7292 18.6738 27.3107 18.8031 26.8369 18.8031ZM26.8276 17.9908C27.2769 17.9908 27.6307 17.7877 27.8892 17.3815C28.1538 16.9754 28.2861 16.3138 28.2861 15.3969C28.2861 14.48 28.1538 13.8185 27.8892 13.4123C27.6307 13.0062 27.2769 12.8031 26.8276 12.8031C26.3784 12.8031 26.0215 13.0062 25.7569 13.4123C25.4984 13.8185 25.3692 14.48 25.3692 15.3969C25.3692 16.3138 25.4984 16.9754 25.7569 17.3815C26.0215 17.7877 26.3784 17.9908 26.8276 17.9908Z" fill="#00B57A"/>
<path d="M21.3564 18.8031C20.8579 18.8031 20.4272 18.6708 20.0641 18.4062C19.701 18.1354 19.421 17.7477 19.2241 17.2431C19.0272 16.7323 18.9287 16.1138 18.9287 15.3877C18.9287 14.6554 19.0302 14.0369 19.2333 13.5323C19.4364 13.0277 19.7195 12.6462 20.0826 12.3877C20.4518 12.1292 20.8795 12 21.3656 12C22.0979 12 22.6795 12.2985 23.1102 12.8954C23.541 13.4862 23.7564 14.32 23.7564 15.3969C23.7564 16.1354 23.6549 16.76 23.4518 17.2708C23.2549 17.7754 22.9749 18.1569 22.6118 18.4154C22.2487 18.6738 21.8302 18.8031 21.3564 18.8031ZM21.3472 17.9908C21.7964 17.9908 22.1502 17.7877 22.4087 17.3815C22.6733 16.9754 22.8056 16.3138 22.8056 15.3969C22.8056 14.48 22.6733 13.8185 22.4087 13.4123C22.1502 13.0062 21.7964 12.8031 21.3472 12.8031C20.8979 12.8031 20.541 13.0062 20.2764 13.4123C20.0179 13.8185 19.8887 14.48 19.8887 15.3969C19.8887 16.3138 20.0179 16.9754 20.2764 17.3815C20.541 17.7877 20.8979 17.9908 21.3472 17.9908Z" fill="#00B57A"/>
<path d="M16.7292 18.7296V13.9111H15.123V13.1819H15.3815C15.8246 13.1819 16.1569 13.0804 16.3784 12.8773C16.6061 12.6742 16.7354 12.4065 16.7661 12.0742H17.68V18.7296H16.7292Z" fill="#00B57A"/>
<path d="M37.1035 38.1146V34.75H39.462V35.1838H37.6066V36.1946H39.2358V36.6008H37.6066V37.6762H39.4666V38.1146H37.1035Z" fill="#00B57A"/>
<path d="M34.1016 38.1146V34.75H36.46V35.1838H34.6046V36.1946H36.2339V36.6008H34.6046V37.6762H36.4646V38.1146H34.1016Z" fill="#00B57A"/>
<path d="M32.0804 38.1146V35.1885H31.0234V34.75H33.6496V35.1885H32.5834V38.1146H32.0804Z" fill="#00B57A"/>
<path d="M27.7236 38.1146V34.75H28.3421L30.0821 37.4454H30.1144L30.0867 36.3192V34.75H30.5759V38.1146H29.9852L28.2452 35.4515H28.2175L28.2359 36.4992V38.1146H27.7236Z" fill="#00B57A"/>
<path d="M24.2119 38.1146L25.4073 34.75H26.1135L27.3088 38.1146H26.7827L26.5058 37.33H25.015L24.7381 38.1146H24.2119ZM25.135 36.9377H26.3811L26.0119 35.8992L25.7765 35.2115H25.7488L25.5135 35.8992L25.135 36.9377Z" fill="#00B57A"/>
<path d="M21.2832 38.1146V34.75H22.8524C23.2217 34.75 23.5001 34.8315 23.6878 34.9946C23.8755 35.1546 23.9694 35.3823 23.9694 35.6777C23.9694 35.8808 23.917 36.0546 23.8124 36.1992C23.7109 36.3438 23.5647 36.4408 23.374 36.49V36.5223C23.5555 36.5531 23.6863 36.6238 23.7663 36.7346C23.8494 36.8454 23.8909 36.9962 23.8909 37.1869V37.75C23.8909 37.8054 23.8924 37.8654 23.8955 37.93C23.9017 37.9915 23.9186 38.0531 23.9463 38.1146H23.4386C23.417 38.0685 23.4032 38.0146 23.397 37.9531C23.3909 37.8915 23.3878 37.8208 23.3878 37.7408V37.2746C23.3878 37.1023 23.3463 36.9731 23.2632 36.8869C23.1832 36.7977 23.0247 36.7531 22.7878 36.7531H21.7863V38.1146H21.2832ZM21.7863 36.3469H22.7832C23.0232 36.3469 23.194 36.29 23.2955 36.1762C23.4001 36.0623 23.4524 35.9177 23.4524 35.7423C23.4524 35.5423 23.3909 35.3977 23.2678 35.3085C23.1447 35.2192 22.9832 35.1746 22.7832 35.1746H21.7863V36.3469Z" fill="#00B57A"/>
<path d="M17.7715 38.1146L18.9669 34.75H19.673L20.8684 38.1146H20.3423L20.0653 37.33H18.5746L18.2976 38.1146H17.7715ZM18.6946 36.9377H19.9407L19.5715 35.8992L19.3361 35.2115H19.3084L19.073 35.8992L18.6946 36.9377Z" fill="#00B57A"/>
<path d="M16.1537 38.1562C15.7229 38.1562 15.386 38.0408 15.1429 37.81C14.8999 37.5792 14.7783 37.2654 14.7783 36.8685V34.75H15.2814V36.8592C15.2814 37.1423 15.3599 37.3546 15.5168 37.4962C15.6737 37.6346 15.8876 37.7038 16.1583 37.7038C16.4537 37.7038 16.6737 37.6285 16.8183 37.4777C16.9629 37.3238 17.0352 37.1177 17.0352 36.8592V34.75H17.5337V36.8685C17.5337 37.1331 17.4783 37.3623 17.3676 37.5562C17.2599 37.7469 17.1029 37.8946 16.8968 37.9992C16.6906 38.1038 16.4429 38.1562 16.1537 38.1562Z" fill="#00B57A"/>
<path d="M12.5903 38.156C12.2519 38.156 11.9596 38.0837 11.7134 37.939C11.4673 37.7944 11.278 37.5929 11.1457 37.3344C11.0134 37.076 10.9473 36.776 10.9473 36.4344C10.9473 36.0775 11.0165 35.7714 11.155 35.516C11.2934 35.2575 11.4873 35.059 11.7365 34.9206C11.9888 34.7821 12.2796 34.7129 12.6088 34.7129C12.895 34.7129 13.1473 34.7606 13.3657 34.856C13.5842 34.9514 13.7596 35.0852 13.8919 35.2575C14.0273 35.4298 14.1103 35.6329 14.1411 35.8667H13.6242C13.5811 35.636 13.4657 35.459 13.278 35.336C13.0934 35.2129 12.8703 35.1514 12.6088 35.1514C12.2611 35.1514 11.9827 35.2621 11.7734 35.4837C11.5642 35.7052 11.4596 36.0206 11.4596 36.4298C11.4596 36.8421 11.5627 37.1621 11.7688 37.3898C11.975 37.6144 12.2519 37.7267 12.5996 37.7267C12.9196 37.7267 13.178 37.6406 13.375 37.4683C13.575 37.2929 13.6842 37.0483 13.7027 36.7344H12.6319V36.3606H14.215V36.6052C14.215 36.9221 14.1473 37.1975 14.0119 37.4314C13.8765 37.6621 13.6873 37.8406 13.4442 37.9667C13.2011 38.0929 12.9165 38.156 12.5903 38.156Z" fill="#00B57A"/>
<rect width="45.2308" height="13.8462" transform="translate(2.38477 19.6523)" fill="white"/>
<path d="M28.6913 41.8066L23.6143 46.8836L21.3066 44.5759" stroke="#00B57A" stroke-linecap="square" stroke-linejoin="round"/>
<path d="M40.7012 30.2684V22.8662H46.0827V24.2167H42.2852V25.8717H45.5852V27.141H42.2852V28.9179H46.103V30.2684H40.7012Z" fill="#00B57A"/>
<path d="M33.2549 30.2684V22.8662H36.9103C37.7767 22.8662 38.4232 23.049 38.8497 23.4145C39.2761 23.7801 39.4893 24.3047 39.4893 24.9884C39.4893 25.4284 39.3743 25.8108 39.1441 26.1357C38.9207 26.4539 38.6093 26.6604 38.21 26.7551V26.8262C38.941 26.9684 39.3066 27.4456 39.3066 28.2579V29.4154C39.3066 29.5508 39.3133 29.693 39.3269 29.8419C39.3404 29.9841 39.3777 30.1262 39.4386 30.2684H37.8444C37.8038 30.1804 37.7733 30.0619 37.753 29.913C37.7327 29.7641 37.7226 29.5982 37.7226 29.4154V28.5321C37.7226 28.2139 37.6447 27.9702 37.489 27.801C37.3401 27.6317 37.0423 27.5471 36.5955 27.5471H34.8389V30.2684H33.2549ZM34.8389 26.2881H36.6767C37.1032 26.2881 37.4078 26.1865 37.5906 25.9834C37.7801 25.7804 37.8749 25.5197 37.8749 25.2016C37.8749 24.8293 37.7632 24.5653 37.5398 24.4096C37.3232 24.2539 37.0355 24.1761 36.6767 24.1761H34.8389V26.2881Z" fill="#00B57A"/>
<path d="M28.5569 30.3597C27.8867 30.3597 27.3181 30.2413 26.851 30.0044C26.3839 29.7674 26.0252 29.4324 25.7747 28.9991C25.531 28.5591 25.4092 28.0447 25.4092 27.4557V22.8662H26.983V27.4456C26.983 27.9465 27.1218 28.3256 27.3993 28.5828C27.6836 28.8333 28.0729 28.9585 28.567 28.9585C29.0883 28.9585 29.4809 28.8265 29.7449 28.5625C30.0156 28.2985 30.151 27.9262 30.151 27.4456V22.8662H31.7249V27.4557C31.7249 28.065 31.5929 28.5862 31.3289 29.0194C31.0716 29.4527 30.7061 29.7844 30.2323 30.0145C29.7584 30.2447 29.1999 30.3597 28.5569 30.3597Z" fill="#00B57A"/>
<path d="M20.8667 30.3593C20.1221 30.3593 19.4722 30.2104 18.9172 29.9126C18.3621 29.6147 17.9289 29.1849 17.6175 28.623C17.3061 28.0544 17.1504 27.3673 17.1504 26.5618C17.1504 25.763 17.3061 25.0827 17.6175 24.5209C17.9289 23.9523 18.3621 23.519 18.9172 23.2212C19.4722 22.9233 20.1221 22.7744 20.8667 22.7744C21.4962 22.7744 22.0581 22.8861 22.5522 23.1095C23.0532 23.3261 23.4559 23.6341 23.7605 24.0335C24.0652 24.4261 24.2513 24.8864 24.319 25.4144H22.7147C22.6267 25.0353 22.4169 24.7273 22.0852 24.4904C21.7602 24.2467 21.3541 24.1249 20.8667 24.1249C20.2304 24.1249 19.7227 24.328 19.3436 24.7341C18.9713 25.1403 18.7852 25.7495 18.7852 26.5618C18.7852 27.3809 18.9713 27.9935 19.3436 28.3996C19.7227 28.8058 20.2304 29.0089 20.8667 29.0089C21.3405 29.0089 21.7467 28.8904 22.0852 28.6535C22.4236 28.4166 22.6335 28.1018 22.7147 27.7092H24.319C24.2581 28.244 24.0719 28.711 23.7605 29.1104C23.4492 29.503 23.043 29.811 22.5421 30.0344C22.0479 30.251 21.4895 30.3593 20.8667 30.3593Z" fill="#00B57A"/>
<path d="M11.043 30.2684V22.8662H16.4245V24.2167H12.627V25.8717H15.927V27.141H12.627V28.9179H16.4448V30.2684H11.043Z" fill="#00B57A"/>
<path d="M6.81021 30.3593C5.80837 30.3593 5.04683 30.136 4.5256 29.6892C4.01114 29.2424 3.75391 28.6603 3.75391 27.9427H5.35821C5.36498 28.3083 5.48683 28.6027 5.72375 28.8261C5.96068 29.0427 6.34314 29.151 6.87114 29.151C7.27729 29.151 7.60221 29.08 7.84591 28.9378C8.0896 28.7889 8.21144 28.5655 8.21144 28.2676C8.21144 28.0307 8.16068 27.848 8.05914 27.7193C7.9576 27.584 7.7816 27.479 7.53114 27.4046C7.28068 27.3301 6.93206 27.2556 6.48529 27.1812C5.63237 27.0458 4.98929 26.8156 4.55606 26.4907C4.12283 26.159 3.90621 25.6716 3.90621 25.0286C3.90621 24.3313 4.16344 23.783 4.67791 23.3836C5.19914 22.9775 5.90652 22.7744 6.80006 22.7744C7.38221 22.7744 7.88314 22.8658 8.30283 23.0486C8.72929 23.2313 9.0576 23.4886 9.28775 23.8203C9.51791 24.152 9.63298 24.5378 9.63298 24.9778H8.03883C8.02529 24.619 7.89329 24.3618 7.64283 24.2061C7.39914 24.0504 7.10129 23.9726 6.74929 23.9726C6.37698 23.9726 6.08252 24.0504 5.86591 24.2061C5.65606 24.355 5.55114 24.5615 5.55114 24.8255C5.55114 25.0489 5.60868 25.2181 5.72375 25.3332C5.8456 25.4483 6.03852 25.5396 6.30252 25.6073C6.56652 25.6683 6.91175 25.736 7.33821 25.8104C7.6496 25.8578 7.95421 25.9221 8.25206 26.0033C8.54991 26.0846 8.82068 26.2064 9.06437 26.3689C9.30806 26.5246 9.50098 26.7446 9.64314 27.0289C9.78529 27.3064 9.85637 27.6686 9.85637 28.1153C9.85637 28.7787 9.59914 29.3203 9.08468 29.74C8.57698 30.1529 7.81883 30.3593 6.81021 30.3593Z" fill="#00B57A"/>
</svg>
