<svg width="70" height="70" viewBox="0 0 70 70" fill="none" xmlns="http://www.w3.org/2000/svg">
<path d="M58.8 40.6L53.6666 30.3333C53.2258 29.6165 52.6079 29.0252 51.8722 28.6166C51.1366 28.2079 50.3081 27.9955 49.4666 28H20.5333C19.6918 27.9955 18.8633 28.2079 18.1277 28.6166C17.3921 29.0252 16.7741 29.6165 16.3333 30.3333L11.2 40.6L5.41329 45.976C5.17813 46.1941 4.99046 46.4583 4.86199 46.7522C4.73352 47.0461 4.66701 47.3633 4.66663 47.684V67.6667C4.66663 68.2855 4.91246 68.879 5.35004 69.3166C5.78763 69.7542 6.38112 70 6.99996 70H16.3333C17.2666 70 18.6666 69.0667 18.6666 68.1333V65.3333H51.3333V67.6667C51.3333 68.6 52.2666 70 53.2 70H63C63.6188 70 64.2123 69.7542 64.6499 69.3166C65.0875 68.879 65.3333 68.2855 65.3333 67.6667V47.684C65.3329 47.3633 65.2664 47.0461 65.1379 46.7522C65.0095 46.4583 64.8218 46.1941 64.5866 45.976L58.8 40.6ZM21 32.6667H49L53.6666 42H16.3333L21 32.6667ZM23.3333 54.1333C23.3333 55.0667 21.9333 56 21 56H11.2C10.2666 56 9.33329 54.6 9.33329 53.6667V48.5333C9.79996 47.1333 10.7333 46.2 12.1333 46.6667L21.4666 48.5333C22.4 48.5333 23.3333 49.9333 23.3333 50.8667V54.1333ZM60.6666 53.6667C60.6666 54.6 59.7333 56 58.8 56H49C48.0666 56 46.6666 55.0667 46.6666 54.1333V50.8667C46.6666 49.9333 47.6 48.5333 48.5333 48.5333L57.8666 46.6667C59.2666 46.2 60.2 47.1333 60.6666 48.5333V53.6667ZM37.3333 18.6667H32.6666L28 0H42L37.3333 18.6667ZM5.13329 8.4L17.2666 1.4L22.4 20.0667L18.6666 21.9333L5.13329 8.4ZM52.7333 1.4L64.8666 8.4L51.3333 22.4L47.1333 20.0667L52.7333 1.4Z" fill="#1A2634"/>
</svg>
