<svg width="16" height="17" viewBox="0 0 16 17" fill="none" xmlns="http://www.w3.org/2000/svg">
<path d="M1 9.48167H12.17L7.29 14.3617C6.9 14.7517 6.9 15.3917 7.29 15.7817C7.68 16.1717 8.31 16.1717 8.7 15.7817L15.29 9.19167C15.3827 9.09916 15.4563 8.98927 15.5064 8.86829C15.5566 8.74732 15.5824 8.61764 15.5824 8.48667C15.5824 8.3557 15.5566 8.22602 15.5064 8.10505C15.4563 7.98407 15.3827 7.87418 15.29 7.78167L8.71 1.18167C8.61742 1.08909 8.50751 1.01565 8.38654 0.965542C8.26558 0.915437 8.13593 0.889648 8.005 0.889648C7.87407 0.889648 7.74442 0.915437 7.62346 0.965542C7.50249 1.01565 7.39258 1.08909 7.3 1.18167C7.20742 1.27425 7.13398 1.38416 7.08387 1.50513C7.03377 1.62609 7.00798 1.75574 7.00798 1.88667C7.00798 2.0176 7.03377 2.14725 7.08387 2.26821C7.13398 2.38918 7.20742 2.49909 7.3 2.59167L12.17 7.48167H1C0.45 7.48167 0 7.93167 0 8.48167C0 9.03167 0.45 9.48167 1 9.48167Z" fill="#FEFEFE"/>
</svg>
