<svg width="70" height="70" viewBox="0 0 70 70" fill="none" xmlns="http://www.w3.org/2000/svg">
<g clip-path="url(#clip0_1822_657)">
<path d="M45.7668 5.85686C45.0246 7.06465 44.3132 8.17052 43.6651 9.30681C43.4042 9.76468 43.0834 9.63842 42.722 9.54715C39.8587 8.82613 36.9436 8.55689 33.9815 8.63447C19.9763 9.00258 7.81842 18.7181 5.19984 31.6448C1.99953 47.4373 13.0264 62.4373 29.8835 65.2256C46.1232 67.9119 62.0227 57.5575 64.8357 42.3065C66.7267 32.054 63.4843 23.2937 55.5022 16.0789C55.2494 15.8508 54.9739 15.6454 54.7033 15.4355C54.6239 15.3731 54.5267 15.329 54.3776 15.2408C54.1054 15.6713 53.8558 16.082 53.5885 16.4836C52.8852 17.5438 51.5921 17.9134 50.4238 17.3096C48.7694 16.4547 47.1344 15.5633 45.5237 14.6369C44.4429 14.0163 44.0994 12.8176 44.7183 11.7802C46.1702 9.34941 47.6545 6.93535 49.1664 4.53803C49.8226 3.49604 51.1481 3.16748 52.2743 3.75007C53.9287 4.60648 55.5637 5.49483 57.1793 6.4136C58.2309 7.01293 58.5469 8.15227 58.0462 9.20794C58.0138 9.27791 57.9798 9.34636 57.9425 9.41329C57.5828 10.0567 56.8568 10.7641 56.967 11.3269C57.0788 11.9004 58.0154 12.3308 58.5907 12.8237C76.8899 28.5097 72.5083 56.6509 50.1986 66.733C29.5546 76.0637 5.01673 64.5183 0.652974 43.42C-3.15661 25.005 10.0919 7.38561 29.8608 4.60648C34.9813 3.88698 40.037 4.21859 45.0035 5.61804C45.2336 5.68345 45.4605 5.76103 45.7668 5.85686Z" fill="#1A2634"/>
<path d="M50.2667 31.293C50.312 30.7393 50.3526 30.2374 50.3931 29.7354C50.4384 29.1665 50.7836 28.7786 51.3669 28.8257C52.5126 28.9155 53.6744 29.0235 54.7827 29.2958C55.6497 29.5087 55.9138 30.1294 55.742 30.8991C55.58 31.6292 55.1473 31.9502 54.2221 31.976C53.4702 31.9973 52.7167 31.9806 51.7656 31.9806C52.0378 32.2727 52.1933 32.4841 52.3926 32.6484C54.2901 34.2076 55.0858 36.1911 55.0501 38.5291C55.0307 39.7704 55.1522 41.0131 55.123 42.2529C55.102 43.1321 54.9172 44.0083 54.8443 44.8875C54.799 45.4366 54.7358 46.0055 54.8395 46.5379C55.0777 47.764 54.9318 48.2568 53.6501 48.6295C52.0605 49.0919 50.4271 49.492 48.7808 49.6958C41.6656 50.5811 34.5131 50.6846 27.3638 50.2191C24.2235 50.0153 21.101 49.5361 17.98 49.1163C17.2509 49.0174 16.546 48.6873 15.8606 48.4013C15.146 48.1017 14.992 47.5525 15.0925 46.8254C15.1929 46.0922 15.1103 45.3347 15.099 44.5894C15.0666 42.5678 15.0422 40.5462 14.992 38.5246C14.9304 36.0649 15.8541 34.025 17.865 32.4309C17.9768 32.3411 18.0481 32.2072 18.2263 31.9821C17.3594 31.9821 16.6189 31.9958 15.8784 31.9791C14.8591 31.9563 14.4054 31.6186 14.2661 30.82C14.13 30.0381 14.4443 29.4783 15.3955 29.2365C16.3483 28.9946 17.3497 28.8623 18.3365 28.8044C19.2845 28.7497 19.5567 29.0509 19.6555 29.9666C19.7009 30.391 19.7187 30.8184 19.7528 31.2778C20.7834 31.2124 21.4364 30.6785 21.9176 29.9438C22.2838 29.384 22.6193 28.7999 22.8947 28.1975C23.935 25.9158 25.8018 24.7263 28.3733 24.3186C33.0823 23.5732 37.7668 23.5474 42.4498 24.4935C44.5596 24.9194 46.0326 26.0497 46.9481 27.8659C47.2819 28.5291 47.6319 29.1893 48.024 29.8236C48.5004 30.5948 49.1583 31.1698 50.2699 31.2915L50.2667 31.293ZM47.418 30.8884C46.6337 29.6761 46.0018 28.593 45.2596 27.583C44.3554 26.3539 43.1304 25.5294 41.5019 25.2952C37.1754 24.67 32.8522 24.6624 28.5273 25.2982C27.1321 25.5036 25.9703 26.1075 25.1244 27.1677C24.5135 27.9344 23.9545 28.7421 23.4181 29.5589C23.1637 29.9468 23.0179 30.3986 22.791 30.8884H47.418ZM35.0948 36.0314C35.0948 36.0314 35.0948 36.0208 35.0948 36.0162C32.8586 36.0162 30.6225 36.0177 28.3847 36.0162C27.0252 36.0147 26.3964 36.6916 26.6055 37.948C26.8291 39.2882 28.1222 40.3667 29.5903 40.3727C33.2038 40.388 36.8173 40.388 40.4308 40.3727C41.8875 40.3667 43.1936 39.2851 43.4334 37.9511C43.6441 36.7798 42.9862 36.036 41.7206 36.0329C39.512 36.0284 37.3018 36.0329 35.0932 36.0329L35.0948 36.0314ZM47.9122 39.1361C48.9574 38.9976 50.2132 38.8668 51.4544 38.6554C52.4802 38.4804 53.0878 37.7199 52.9744 36.8985C52.8496 35.9949 52.007 35.394 50.9359 35.461C50.534 35.4868 50.1257 35.5142 49.7352 35.604C48.5118 35.8839 47.2867 36.1607 46.0828 36.5045C45.3828 36.7053 44.942 37.186 45.023 37.9313C45.1008 38.6569 45.7085 38.841 46.3323 38.955C46.7779 39.0372 47.2365 39.0615 47.9122 39.1361ZM22.1315 39.1528C22.7635 39.0691 23.3323 39.0311 23.8783 38.9079C24.4066 38.7892 24.9478 38.6021 24.9932 37.9709C25.0402 37.335 24.7955 36.8619 24.1246 36.5775C22.4751 35.8823 20.738 35.5781 18.9523 35.4853C17.9509 35.4336 17.2201 36.0055 17.0742 36.9C16.943 37.7107 17.5101 38.4485 18.5099 38.628C19.7268 38.8455 20.96 38.987 22.1315 39.1528ZM20.3831 43.0363C20.3442 43.1184 20.3053 43.2006 20.2664 43.2812C20.5954 43.4333 20.9259 43.7193 21.2549 43.7208C30.4037 43.7451 39.5525 43.739 48.7014 43.7497C49.2393 43.7497 49.5699 43.5976 49.6671 43.0363H20.3815H20.3831ZM48.5053 44.8236L48.3627 44.5529H21.6C21.5628 44.6304 21.5239 44.7065 21.4866 44.7841C21.8172 44.9453 22.1461 45.245 22.4783 45.245C30.8202 45.2708 39.162 45.2708 47.5023 45.2465C47.8361 45.2465 48.1699 44.9696 48.5037 44.8236H48.5053ZM16.5849 45.8443C16.2705 47.4567 17.6446 48.4576 20.4447 48.3466C20.1644 46.7387 18.5148 45.6511 16.5849 45.8443ZM49.5748 48.3466C52.1447 48.4804 53.885 47.4993 53.3827 45.8397C51.5063 45.6511 49.8583 46.7372 49.5748 48.3466Z" fill="#1A2634"/>
<path d="M58.8839 6.2505C58.717 6.18813 58.4027 6.10903 58.1305 5.963C56.1665 4.91037 54.2091 3.84861 52.2565 2.78077C51.2956 2.25446 51.0039 1.45433 51.4673 0.701368C51.9356 -0.0576827 52.8155 -0.215882 53.7845 0.305871C55.7695 1.37371 57.748 2.4522 59.7282 3.52765C60.412 3.89881 60.7328 4.45099 60.5254 5.17962C60.3293 5.86869 59.8011 6.21551 58.8839 6.2505Z" fill="#1A2634"/>
<path d="M49.7141 21.075C49.5537 21.0112 49.2458 20.9184 48.9704 20.7708C47.0308 19.7304 45.096 18.6838 43.1661 17.6297C42.1841 17.0942 41.8795 16.3139 42.3251 15.5579C42.7804 14.7866 43.7138 14.6208 44.7055 15.1548C46.6662 16.2104 48.6252 17.2661 50.5762 18.3385C51.3621 18.772 51.623 19.4094 51.3718 20.1304C51.1741 20.6978 50.5227 21.11 49.7158 21.075H49.7141Z" fill="#1A2634"/>
</g>
<defs>
<clipPath id="clip0_1822_657">
<rect width="70" height="70" fill="white"/>
</clipPath>
</defs>
</svg>
