<svg width="56" height="57" viewBox="0 0 56 57" fill="none" xmlns="http://www.w3.org/2000/svg">
<rect y="0.552734" width="56" height="56" rx="16" fill="#203E5F"/>
<path d="M22.92 23.5087L21.45 22.0257M30.759 23.5087L32.229 22.0257M21.449 32.9057L22.919 31.4217M26.839 21.5317V19.5527M20.959 27.4657H19M32.875 33.3887L36.689 31.8827C36.781 31.8459 36.8599 31.7824 36.9155 31.7003C36.971 31.6182 37.0007 31.5214 37.0007 31.4222C37.0007 31.3231 36.971 31.2263 36.9155 31.1442C36.8599 31.0621 36.781 30.9986 36.689 30.9617L27.524 27.3467C27.4348 27.3122 27.3374 27.3044 27.2439 27.3244C27.1503 27.3443 27.0646 27.3911 26.9972 27.459C26.9298 27.527 26.8837 27.613 26.8645 27.7068C26.8452 27.8005 26.8538 27.8978 26.889 27.9867L30.471 37.2377C30.633 37.6577 31.221 37.6577 31.383 37.2377L32.875 33.3887Z" stroke="#FEFEFE" stroke-width="1.5" stroke-linecap="round" stroke-linejoin="round"/>
</svg>
