<svg width="70" height="70" viewBox="0 0 70 70" fill="none" xmlns="http://www.w3.org/2000/svg">
<path d="M11.6666 58.3337C10.0625 58.3337 8.6897 57.763 7.54831 56.6216C6.40498 55.4782 5.83331 54.1045 5.83331 52.5003V17.5003C5.83331 15.8962 6.40498 14.5234 7.54831 13.382C8.6897 12.2387 10.0625 11.667 11.6666 11.667H58.3333C59.9375 11.667 61.3112 12.2387 62.4546 13.382C63.5959 14.5234 64.1666 15.8962 64.1666 17.5003V52.5003C64.1666 54.1045 63.5959 55.4782 62.4546 56.6216C61.3112 57.763 59.9375 58.3337 58.3333 58.3337H11.6666ZM11.6666 23.3337H58.3333V17.5003H11.6666V23.3337ZM31.9375 48.2712L48.4166 31.792L44.1875 27.5628L31.9375 39.8128L25.8125 33.6878L21.5833 37.917L31.9375 48.2712Z" fill="#1A2634"/>
</svg>
