<svg width="20" height="21" viewBox="0 0 20 21" fill="none" xmlns="http://www.w3.org/2000/svg">
<path d="M18.3333 10.4812C18.3333 11.5756 18.1178 12.6593 17.699 13.6704C17.2802 14.6815 16.6663 15.6002 15.8924 16.3741C15.1186 17.1479 14.1999 17.7618 13.1888 18.1806C12.1777 18.5994 11.094 18.815 9.99958 18.815C8.90518 18.815 7.82149 18.5994 6.81039 18.1806C5.7993 17.7618 4.88059 17.1479 4.10673 16.3741C3.33287 15.6002 2.71901 14.6815 2.3002 13.6704C1.88139 12.6593 1.66583 11.5756 1.66583 10.4812C1.66583 8.27096 2.54385 6.15124 4.10673 4.58836C5.66961 3.02548 7.78934 2.14746 9.99958 2.14746C12.2098 2.14746 14.3296 3.02548 15.8924 4.58836C17.4553 6.15124 18.3333 8.27096 18.3333 10.4812Z" stroke="#FDE4B0" stroke-width="1.5"/>
<path d="M13.3333 10.4808C13.3333 11.575 13.2467 12.6591 13.0792 13.67C12.9125 14.6808 12.6667 15.5991 12.3567 16.3733C12.0475 17.1475 11.68 17.7608 11.2758 18.18C10.8708 18.5983 10.4375 18.8141 10 18.8141C9.5625 18.8141 9.12917 18.5983 8.72501 18.18C8.32001 17.7608 7.9525 17.1466 7.64334 16.3733C7.33334 15.5991 7.0875 14.6816 6.92 13.67C6.74909 12.6155 6.66437 11.549 6.66667 10.4808C6.66667 9.38663 6.7525 8.30246 6.92 7.29163C7.0875 6.28079 7.33334 5.36246 7.64334 4.58829C7.9525 3.81413 8.32 3.20079 8.72417 2.78163C9.12917 2.36413 9.5625 2.14746 10 2.14746C10.4375 2.14746 10.8708 2.36329 11.275 2.78163C11.68 3.20079 12.0475 3.81496 12.3567 4.58829C12.6667 5.36246 12.9125 6.27996 13.0792 7.29163C13.2475 8.30246 13.3333 9.38663 13.3333 10.4808Z" stroke="#FDE4B0" stroke-width="1.5"/>
<path d="M1.66669 10.4814H18.3334" stroke="#FDE4B0" stroke-width="1.5" stroke-linecap="round"/>
</svg>
