<svg width="26" height="26" viewBox="0 0 26 26" fill="none" xmlns="http://www.w3.org/2000/svg">
<path fill-rule="evenodd" clip-rule="evenodd" d="M22.3773 22.3757C22.9424 21.8089 23.3861 21.1277 23.6756 20.3806C23.9529 19.663 24.1436 18.8449 24.1991 17.6454C24.2545 16.4442 24.2684 16.0594 24.2684 13.0001C24.2684 9.94073 24.2545 9.55593 24.1991 8.35473C24.1436 7.15527 23.9529 6.33713 23.6756 5.61953C23.3926 4.86786 22.9489 4.187 22.3756 3.62447C21.813 3.05125 21.1322 2.60761 20.3805 2.32447C19.6629 2.04713 18.8448 1.85647 17.6453 1.801C16.4441 1.74553 16.0593 1.7334 13 1.7334C9.94067 1.7334 9.55587 1.74553 8.35467 1.80273C7.1552 1.85473 6.33707 2.0454 5.61947 2.32447C4.86818 2.60825 4.18747 3.05181 3.6244 3.62447C3.05175 4.18753 2.60819 4.86824 2.3244 5.61953C2.04707 6.33713 1.8564 7.15527 1.80094 8.35473C1.74547 9.55593 1.73334 9.94073 1.73334 13.0001C1.73334 16.0594 1.74547 16.4442 1.80267 17.6454C1.85467 18.8449 2.04534 19.663 2.3244 20.3806C2.60867 21.1329 3.0524 21.8123 3.6244 22.3757C4.18774 22.9477 4.86894 23.3914 5.61947 23.6757C6.33707 23.953 7.1552 24.1437 8.35467 24.1991C9.55587 24.2529 9.94067 24.2667 13 24.2667C16.0593 24.2667 16.4441 24.2529 17.6453 24.1974C18.8448 24.1454 19.6629 23.9547 20.3805 23.6757C21.1289 23.386 21.8101 22.9432 22.3773 22.3757ZM3.46667 11.6741V14.3261C3.4632 15.7491 3.4632 16.1183 3.50134 16.9261C3.5464 17.9418 3.60187 18.6871 3.77174 19.2487C3.93467 19.7895 4.11667 20.3407 4.71294 21.0029C5.3092 21.6667 5.88294 21.9666 6.6144 22.1885C7.3476 22.4086 8.268 22.4554 9.06707 22.4918C9.97187 22.5334 10.3324 22.5334 12.2321 22.5334H14.2827C15.7421 22.5351 16.1096 22.5369 16.9277 22.4987C17.9417 22.4519 18.6871 22.3965 19.2504 22.2283C19.7895 22.0654 20.3407 21.8817 21.0028 21.2871C21.6667 20.6909 21.9665 20.1154 22.1884 19.3839C22.4085 18.6525 22.4571 17.7321 22.4935 16.933C22.5333 16.0282 22.5333 15.6694 22.5333 13.7749V12.2322C22.5333 10.3325 22.5333 9.97367 22.4935 9.06713C22.4571 8.26806 22.4085 7.34766 22.1884 6.6162C21.9683 5.883 21.6684 5.30927 21.0028 4.713C20.3389 4.11673 19.7895 3.93473 19.2504 3.7718C18.6871 3.60367 17.9417 3.54647 16.9277 3.5014C16.0465 3.46519 15.1645 3.45363 14.2827 3.46673H12.2321C10.3324 3.46673 9.97187 3.46673 9.06707 3.5066C8.268 3.543 7.3476 3.59153 6.6144 3.81166C5.88294 4.03353 5.3092 4.3334 4.71294 4.99726C4.11667 5.66113 3.93294 6.2106 3.77174 6.7514C3.60187 7.313 3.5464 8.05833 3.50134 9.07407C3.4632 9.8818 3.4632 10.251 3.46667 11.6741ZM13 9.10007C11.9657 9.10007 10.9737 9.51096 10.2423 10.2423C9.5109 10.9737 9.1 11.9657 9.1 13.0001C9.1 14.0344 9.5109 15.0264 10.2423 15.7578C10.9737 16.4892 11.9657 16.9001 13 16.9001C14.0343 16.9001 15.0263 16.4892 15.7577 15.7578C16.4891 15.0264 16.9 14.0344 16.9 13.0001C16.9 11.9657 16.4891 10.9737 15.7577 10.2423C15.0263 9.51096 14.0343 9.10007 13 9.10007ZM7.36667 13.0001C7.36667 11.506 7.96018 10.0732 9.01664 9.0167C10.0731 7.96024 11.506 7.36673 13 7.36673C14.4941 7.36673 15.9269 7.96024 16.9834 9.0167C18.0398 10.0732 18.6333 11.506 18.6333 13.0001C18.6333 14.4941 18.0398 15.927 16.9834 16.9834C15.9269 18.0399 14.4941 18.6334 13 18.6334C11.506 18.6334 10.0731 18.0399 9.01664 16.9834C7.96018 15.927 7.36667 14.4941 7.36667 13.0001ZM19.0147 8.2854C19.3595 8.2854 19.6901 8.14843 19.9339 7.90464C20.1777 7.66084 20.3147 7.33018 20.3147 6.9854C20.3147 6.64062 20.1777 6.30996 19.9339 6.06616C19.6901 5.82236 19.3595 5.6854 19.0147 5.6854C18.6699 5.6854 18.3392 5.82236 18.0954 6.06616C17.8516 6.30996 17.7147 6.64062 17.7147 6.9854C17.7147 7.33018 17.8516 7.66084 18.0954 7.90464C18.3392 8.14843 18.6699 8.2854 19.0147 8.2854Z" fill="#FEFEFE"/>
</svg>
