<svg width="28" height="28" viewBox="0 0 28 28" fill="none" xmlns="http://www.w3.org/2000/svg">
<g clip-path="url(#clip0_199_72)">
<path fill-rule="evenodd" clip-rule="evenodd" d="M21 3.5C21.9283 3.5 22.8185 3.86875 23.4749 4.52513C24.1313 5.1815 24.5 6.07174 24.5 7V21C24.5 21.9283 24.1313 22.8185 23.4749 23.4749C22.8185 24.1313 21.9283 24.5 21 24.5H7C6.07174 24.5 5.1815 24.1313 4.52513 23.4749C3.86875 22.8185 3.5 21.9283 3.5 21V7C3.5 6.07174 3.86875 5.1815 4.52513 4.52513C5.1815 3.86875 6.07174 3.5 7 3.5H21ZM9.33333 11.6667C9.02391 11.6667 8.72717 11.7896 8.50838 12.0084C8.28958 12.2272 8.16667 12.5239 8.16667 12.8333V18.6667C8.16667 18.9761 8.28958 19.2728 8.50838 19.4916C8.72717 19.7104 9.02391 19.8333 9.33333 19.8333C9.64275 19.8333 9.9395 19.7104 10.1583 19.4916C10.3771 19.2728 10.5 18.9761 10.5 18.6667V12.8333C10.5 12.5239 10.3771 12.2272 10.1583 12.0084C9.9395 11.7896 9.64275 11.6667 9.33333 11.6667ZM12.8333 10.5C12.5239 10.5 12.2272 10.6229 12.0084 10.8417C11.7896 11.0605 11.6667 11.3572 11.6667 11.6667V18.6667C11.6667 18.9761 11.7896 19.2728 12.0084 19.4916C12.2272 19.7104 12.5239 19.8333 12.8333 19.8333C13.1428 19.8333 13.4395 19.7104 13.6583 19.4916C13.8771 19.2728 14 18.9761 14 18.6667V14.3967C14.4552 13.9016 15.0087 13.507 15.6252 13.2382C16.0137 13.0725 16.5982 13.0048 17.0042 13.1332C17.1389 13.1673 17.2588 13.2443 17.346 13.3525C17.4067 13.4342 17.5 13.6162 17.5 14V18.6667C17.5 18.9761 17.6229 19.2728 17.8417 19.4916C18.0605 19.7104 18.3572 19.8333 18.6667 19.8333C18.9761 19.8333 19.2728 19.7104 19.4916 19.4916C19.7104 19.2728 19.8333 18.9761 19.8333 18.6667V14C19.8333 13.2183 19.635 12.523 19.222 11.9653C18.842 11.4596 18.3101 11.0888 17.7042 10.9072C16.6518 10.577 15.4863 10.7602 14.7082 11.0938C14.4588 11.2005 14.2161 11.3221 13.9813 11.4578C13.9324 11.189 13.7907 10.9459 13.5809 10.7709C13.3711 10.5958 13.1066 10.5 12.8333 10.5ZM9.33333 8.16667C9.02391 8.16667 8.72717 8.28958 8.50838 8.50838C8.28958 8.72717 8.16667 9.02391 8.16667 9.33333C8.16667 9.64275 8.28958 9.9395 8.50838 10.1583C8.72717 10.3771 9.02391 10.5 9.33333 10.5C9.64275 10.5 9.9395 10.3771 10.1583 10.1583C10.3771 9.9395 10.5 9.64275 10.5 9.33333C10.5 9.02391 10.3771 8.72717 10.1583 8.50838C9.9395 8.28958 9.64275 8.16667 9.33333 8.16667Z" fill="#FEFEFE"/>
</g>
<defs>
<clipPath id="clip0_199_72">
<rect width="28" height="28" fill="white"/>
</clipPath>
</defs>
</svg>
