<svg width="56" height="57" viewBox="0 0 56 57" fill="none" xmlns="http://www.w3.org/2000/svg">
<rect y="0.552734" width="56" height="56" rx="16" fill="#203E5F"/>
<path fill-rule="evenodd" clip-rule="evenodd" d="M35.633 22.7786C35.8382 22.9465 35.9684 23.189 35.9948 23.4529C36.0213 23.7167 35.9418 23.9803 35.774 24.1856L26.774 35.1856C26.6855 35.2937 26.5754 35.3821 26.4506 35.4451C26.3259 35.508 26.1894 35.5442 26.0499 35.5511C25.9103 35.5581 25.7709 35.5358 25.6405 35.4855C25.5102 35.4353 25.3918 35.3583 25.293 35.2596L20.293 30.2596C20.1974 30.1673 20.1213 30.057 20.0689 29.935C20.0164 29.813 19.9889 29.6818 19.9877 29.549C19.9866 29.4162 20.0119 29.2845 20.0621 29.1616C20.1124 29.0387 20.1867 28.9271 20.2806 28.8332C20.3745 28.7393 20.4861 28.665 20.609 28.6148C20.7319 28.5645 20.8636 28.5392 20.9964 28.5403C21.1291 28.5415 21.2604 28.5691 21.3824 28.6215C21.5044 28.6739 21.6147 28.7501 21.707 28.8456L25.926 33.0646L34.226 22.9196C34.3939 22.7143 34.6364 22.5842 34.9003 22.5577C35.1641 22.5313 35.4277 22.6107 35.633 22.7786Z" fill="#FEFEFE"/>
</svg>
