<svg width="70" height="70" viewBox="0 0 70 70" fill="none" xmlns="http://www.w3.org/2000/svg">
<path d="M11.6667 11.667H58.3334C59.8805 11.667 61.3642 12.2816 62.4582 13.3755C63.5521 14.4695 64.1667 15.9532 64.1667 17.5003V52.5003C64.1667 54.0474 63.5521 55.5312 62.4582 56.6251C61.3642 57.7191 59.8805 58.3337 58.3334 58.3337H11.6667C10.1196 58.3337 8.63588 57.7191 7.54192 56.6251C6.44796 55.5312 5.83337 54.0474 5.83337 52.5003V17.5003C5.83337 15.9532 6.44796 14.4695 7.54192 13.3755C8.63588 12.2816 10.1196 11.667 11.6667 11.667ZM11.6667 17.5003V52.5003H32.0834V17.5003H11.6667ZM58.3334 52.5003V17.5003H54.7167C55.4167 19.0753 55.2709 20.6212 55.2709 20.7962C55.0667 22.7503 53.6959 24.792 53.2 25.5212L46.4042 32.9587L56.0875 32.9003L56.1167 36.4587L40.95 36.3712L40.8334 33.4545C40.8334 33.4545 49.7292 24.0337 50.1667 23.1878C50.575 22.3712 52.2375 17.5003 48.125 17.5003C44.5375 17.6462 44.9459 21.292 44.9459 21.292L40.4542 21.3212C40.4542 21.3212 40.4834 19.3962 41.5625 17.5003H37.9167V52.5003H45.4417L45.4125 49.992L48.2417 49.9628C48.2417 49.9628 50.8959 49.4962 50.925 46.9003C51.0417 43.9837 48.5625 43.9837 48.125 43.9837C47.7459 43.9837 45.0042 44.1295 45.0042 46.5212H40.5709C40.5709 46.5212 40.6875 40.5128 48.125 40.5128C55.7084 40.5128 55.3 46.4045 55.3 46.4045C55.3 46.4045 55.4167 50.0503 52.0625 51.4212L53.5792 52.5003H58.3334ZM26.0167 46.667H21.6417V29.7503L16.3917 31.3837V27.7962L25.55 24.5295H26.0167V46.667Z" fill="#1A2634"/>
</svg>
