<svg width="70" height="70" viewBox="0 0 70 70" fill="none" xmlns="http://www.w3.org/2000/svg">
<g clip-path="url(#clip0_1822_662)">
<path d="M47.1702 4.85136C47.977 3.45187 48.7838 2.03124 49.6107 0.621174C50.0813 -0.177932 50.4377 -0.205414 50.9621 0.528157C54.382 5.31434 57.7951 10.1069 61.206 14.8994C61.3898 15.1573 61.54 15.4385 61.7215 15.7344H40.9781C42.1031 13.7515 43.1004 11.9947 44.0977 10.2379C34.8644 6.69903 17.8928 9.09424 9.65009 23.2794C1.47016 37.3547 7.73397 54.9498 23.1996 61.6809C41.0565 69.4521 60.9685 58.6325 64.2629 42.4728C66.1117 42.8617 67.9584 43.2507 70 43.682C69.5787 46.314 68.568 48.7789 67.3309 51.1615C63.9177 57.7277 58.7745 62.7443 51.9168 66.1415C37.9011 73.0861 21.0079 70.4859 9.91005 59.7297C-0.905379 49.2461 -3.06129 33.1266 4.39701 20.2479C10.9477 8.93145 27.377 -1.13559 47.1702 4.85136Z" fill="#1A2634"/>
<path d="M17.7179 32.0255C17.124 31.6492 16.6265 31.3955 16.2074 31.0552C15.4522 30.4421 15.4903 29.6979 16.3979 29.4147C17.4781 29.0785 18.6412 28.9348 19.7819 28.8523C20.0979 28.8291 20.4565 29.3132 20.8084 29.5732C21.5703 28.1145 22.3211 26.6389 23.1055 25.1803C23.8629 23.7723 25.0104 23.0366 26.7517 22.7681C33.0738 21.7893 39.3645 21.7344 45.6664 22.8485C46.9752 23.0789 47.9321 23.6877 48.5305 24.804C49.3821 26.3916 50.2359 27.9771 51.0853 29.5605C52.0624 28.7065 54.9511 28.7107 55.9014 29.6557C56.1053 29.8586 56.1299 30.5034 55.9439 30.719C55.5092 31.2201 54.8951 31.5837 54.3124 32.0361C56.5602 34.2812 56.3182 37.1246 56.2084 39.9235C56.121 42.2088 55.935 44.4899 55.8341 46.7751C55.7759 48.0689 55.5697 48.3036 54.1847 48.3078C52.8042 48.312 51.4214 48.3078 50.0409 48.3078C48.3713 48.3078 48.3646 48.3015 48.0128 46.7265C40.0009 46.2635 31.9644 46.2847 23.9459 46.7117C23.653 47.7744 22.9493 48.3064 21.8348 48.3078C20.3422 48.3078 18.8474 48.3015 17.3549 48.3099C16.5974 48.3142 16.1447 48.0224 16.1111 47.2719C15.9654 43.8599 15.757 40.4499 15.7054 37.0379C15.6763 35.1881 16.0685 33.3869 17.7157 32.0255H17.7179ZM49.0795 29.8861C48.3422 28.5225 47.6721 27.0808 46.7981 25.7574C46.4552 25.2394 45.7 24.7596 45.059 24.6517C39.0305 23.6391 32.9796 23.5799 26.9444 24.6137C26.3662 24.7131 25.6244 25.0006 25.3443 25.4255C24.3963 26.8673 23.6231 28.4105 22.7984 29.8861H49.0795ZM22.2875 39.4394C22.8814 39.4394 23.4775 39.4606 24.0714 39.4352C25.0978 39.3908 25.36 39.0082 24.8468 38.1647C24.607 37.7715 24.1745 37.2979 23.7531 37.2176C22.2695 36.9343 20.7546 36.7694 19.2441 36.6552C19.0155 36.6383 18.509 37.1457 18.5269 37.3867C18.6233 38.7207 19.513 39.4268 20.9495 39.4415C21.3955 39.4458 21.8415 39.4415 22.2875 39.4415V39.4394ZM49.5748 39.4394C49.9849 39.4394 50.3928 39.4394 50.8029 39.4394C52.3739 39.4352 52.858 39.1033 53.3084 37.7228C53.5505 36.9766 53.3465 36.5242 52.4344 36.6214C51.0696 36.7652 49.6913 36.8645 48.3579 37.1478C47.8649 37.2514 47.3629 37.7503 47.0715 38.1922C46.5718 38.9447 46.8631 39.3802 47.7909 39.431C48.3848 39.4627 48.9809 39.4373 49.577 39.4394H49.5748ZM48.9675 42.101C49.6376 42.101 50.3144 42.1475 50.9777 42.0778C51.2466 42.0503 51.4864 41.7733 51.7397 41.6084C51.4999 41.433 51.2668 41.1138 51.0203 41.1053C49.6062 41.0567 48.1876 41.0567 46.7735 41.1032C46.5135 41.1116 46.267 41.4118 46.0137 41.5788C46.2916 41.7543 46.5538 42.0482 46.8474 42.0778C47.5466 42.1517 48.2615 42.101 48.9697 42.0989L48.9675 42.101ZM23.0315 42.101C23.7352 42.101 24.4434 42.1454 25.1404 42.0778C25.3981 42.0524 25.6267 41.7606 25.8687 41.5894C25.6244 41.4203 25.3846 41.1138 25.1336 41.1053C23.7285 41.0588 22.3188 41.0588 20.9137 41.1053C20.6694 41.1138 20.4363 41.4245 20.1965 41.5958C20.4386 41.7628 20.6672 42.0503 20.9249 42.0756C21.6219 42.1433 22.33 42.0989 23.0337 42.101H23.0315Z" fill="#1A2634"/>
</g>
<defs>
<clipPath id="clip0_1822_662">
<rect width="70" height="70" fill="white"/>
</clipPath>
</defs>
</svg>
