<svg width="70" height="70" viewBox="0 0 70 70" fill="none" xmlns="http://www.w3.org/2000/svg">
<path d="M17.2686 51.9793C20.7286 51.9271 22.5573 50.6085 23.0224 47.9143C23.4308 45.5522 22.1285 43.5481 19.3877 42.3528C21.078 38.8997 19.8483 35.1359 20.4019 31.4646H28.3019V21.0389C24.4086 20.3084 23.2765 20.7353 19.4308 24.3402C18.7751 23.4485 18.1172 22.5544 17.3776 21.5512C19.9141 19.5281 22.3168 17.2988 25.9129 17.4103C30.0693 17.5383 34.2326 17.4956 38.3891 17.4221C41.4112 17.3676 44.0294 18.3376 46.3187 20.3535C49.5858 23.2303 52.8415 26.1213 56.12 28.9815C56.5125 29.323 57.0003 29.5981 57.4858 29.7618C60.6123 30.8195 63.75 31.837 66.8833 32.8663C68.7936 33.4947 69.86 34.8063 69.9417 36.9336C70.0301 39.2626 70.0006 41.5963 69.9507 43.9276C69.9417 44.3901 69.6603 44.8881 69.3994 45.296C69.0886 45.7846 68.6507 46.183 68.2922 46.6431C67.421 47.7602 66.5815 48.9246 64.9797 48.4693C64.6598 49.4013 64.4466 50.248 64.0881 51.0212C62.5544 54.3438 59.2464 56.3005 55.757 56.0016C52.322 55.7099 49.2863 53.1414 48.381 49.5982C48.1428 48.6614 47.7752 48.4622 46.9244 48.4693C40.6103 48.5049 34.2962 48.512 27.982 48.4645C27.0881 48.4574 26.7818 48.7586 26.5481 49.629C25.4977 53.5351 22.0491 56.1273 18.2442 56.0301C17.5364 56.0111 17.2051 55.8309 17.2482 55.0198C17.3049 54.0071 17.2618 52.9896 17.2618 51.9769L17.2686 51.9793ZM31.9547 20.9654V31.3105C32.1022 31.3698 32.1703 31.4196 32.2361 31.4196C38.0148 31.4314 43.7935 31.4575 49.5699 31.4077C50.0168 31.403 50.6975 30.9357 50.8359 30.5254C50.972 30.1175 50.7111 29.3301 50.3662 29.0171C47.748 26.6336 45.089 24.2951 42.3891 22.0136C41.7969 21.5132 40.9892 21.0412 40.2654 21.0104C37.5247 20.8942 34.7749 20.963 31.9547 20.963V20.9654ZM61.1046 47.1198C61.0751 44.4992 58.9356 42.2864 56.4558 42.3173C53.9555 42.3457 51.8591 44.5774 51.8795 47.1933C51.8977 49.814 54.0281 52.0149 56.5238 51.9888C59.0241 51.9651 61.1341 49.7215 61.1046 47.1198ZM35.3716 38.2736C35.8617 38.2736 36.3563 38.3092 36.8418 38.2665C37.6359 38.1953 38.1101 37.7044 38.0738 36.8743C38.0397 36.1012 37.5587 35.6624 36.8078 35.6458C35.8662 35.6245 34.8929 35.5012 33.9899 35.698C33.5044 35.8047 32.8645 36.4356 32.7738 36.9265C32.6331 37.6854 33.2071 38.2238 34.0126 38.2736C34.4641 38.3021 34.9178 38.2783 35.3693 38.276L35.3716 38.2736Z" fill="#1A2634"/>
<path d="M14.7322 41.9233C14.7322 45.2033 14.7322 48.4382 14.7322 51.6708C14.7322 53.0535 14.7435 54.4361 14.7299 55.8188C14.7095 57.7398 13.9109 58.928 12.427 59.2909C10.9727 59.6442 9.75891 58.9233 8.88315 57.1398C8.77878 57.2702 8.66988 57.3651 8.60862 57.4861C7.82588 58.9992 6.57122 59.6537 5.17135 59.2695C3.79871 58.8924 2.96832 57.728 2.96379 56.0892C2.95244 51.8226 2.95925 47.556 2.95925 43.2894C2.95925 42.8601 2.95925 42.4285 2.95925 42.0229C0.236661 41.1241 -0.0197158 40.7802 0.00297238 37.8062C0.0301983 34.3744 -0.0537482 30.9284 0.191285 27.5109C0.400016 24.5748 2.04945 22.8482 4.84691 22.5945C7.4311 22.3597 10.0652 22.3407 12.6494 22.566C15.7236 22.8316 17.4457 24.6673 17.5977 27.8619C17.7815 31.7229 17.6975 35.6005 17.6453 39.4687C17.6272 40.8846 16.7718 41.5368 14.7299 41.9233H14.7322Z" fill="#1A2634"/>
<path d="M13.8337 15.8351C13.8382 18.7403 11.6738 21.0432 8.90126 21.0788C6.11968 21.1144 3.8327 18.7261 3.85539 15.809C3.87581 12.9417 6.1401 10.6009 8.86949 10.6222C11.6443 10.6436 13.8291 12.9369 13.8337 15.8351Z" fill="#1A2634"/>
</svg>
