<svg width="20" height="20" viewBox="0 0 20 20" fill="none" xmlns="http://www.w3.org/2000/svg">
<path d="M8.33335 16.6663H11.6667V15.833H8.33335V16.6663ZM5.83335 19.1663C5.37502 19.1663 4.9828 19.0033 4.65669 18.6772C4.33002 18.3505 4.16669 17.958 4.16669 17.4997V2.49967C4.16669 2.04134 4.33002 1.64884 4.65669 1.32217C4.9828 0.996063 5.37502 0.833008 5.83335 0.833008H14.1667C14.625 0.833008 15.0175 0.996063 15.3442 1.32217C15.6703 1.64884 15.8334 2.04134 15.8334 2.49967V17.4997C15.8334 17.958 15.6703 18.3505 15.3442 18.6772C15.0175 19.0033 14.625 19.1663 14.1667 19.1663H5.83335ZM5.83335 14.9997V17.4997H14.1667V14.9997H5.83335ZM5.83335 13.333H14.1667V4.99967H5.83335V13.333ZM5.83335 3.33301H14.1667V2.49967H5.83335V3.33301Z" fill="#FEFEFE"/>
</svg>
