<svg width="56" height="57" viewBox="0 0 56 57" fill="none" xmlns="http://www.w3.org/2000/svg">
<rect y="0.552734" width="56" height="56" rx="16" fill="#203E5F"/>
<path d="M24 21.5527H27V35.5527H24V37.5527H32V35.5527H29V21.5527H32V19.5527H24V21.5527ZM18 23.5527C17.7348 23.5527 17.4804 23.6581 17.2929 23.8456C17.1054 24.0332 17 24.2875 17 24.5527V32.5527C17 32.818 17.1054 33.0723 17.2929 33.2598C17.4804 33.4474 17.7348 33.5527 18 33.5527H24V31.5527H19V25.5527H24V23.5527H18ZM32 25.5527H37V31.5527H32V33.5527H38C38.2652 33.5527 38.5196 33.4474 38.7071 33.2598C38.8946 33.0723 39 32.818 39 32.5527V24.5527C39 24.2875 38.8946 24.0332 38.7071 23.8456C38.5196 23.6581 38.2652 23.5527 38 23.5527H32V25.5527Z" fill="#FEFEFE"/>
</svg>
