<svg width="56" height="57" viewBox="0 0 56 57" fill="none" xmlns="http://www.w3.org/2000/svg">
<rect y="0.552734" width="56" height="56" rx="16" fill="#203E5F"/>
<path d="M19 26.5527C19 22.7817 19 20.8957 20.172 19.7247C21.344 18.5537 23.229 18.5527 27 18.5527H29C32.771 18.5527 34.657 18.5527 35.828 19.7247C36.999 20.8967 37 22.7817 37 26.5527V30.5527C37 34.3237 37 36.2097 35.828 37.3807C34.656 38.5517 32.771 38.5527 29 38.5527H27C23.229 38.5527 21.343 38.5527 20.172 37.3807C19.001 36.2087 19 34.3237 19 30.5527V26.5527Z" stroke="#FEFEFE" stroke-width="1.5"/>
<path d="M24 26.5527H32M24 30.5527H29" stroke="#FEFEFE" stroke-width="1.5" stroke-linecap="round"/>
</svg>
