<svg width="70" height="70" viewBox="0 0 70 70" fill="none" xmlns="http://www.w3.org/2000/svg">
<path d="M0 34.2991C0.632786 34.2991 1.22964 34.2991 1.82649 34.2991C9.41905 34.3009 17.0116 34.3018 24.6042 34.3053C26.2869 34.3053 27.9732 34.293 29.5665 33.6646C30.237 33.3999 30.8619 33.0178 31.5569 32.6646C31.4982 32.6357 31.5376 32.6418 31.542 32.6593C31.9531 34.0888 32.3641 35.5191 32.7646 36.9512C32.8111 37.1169 32.8085 37.2992 32.8085 37.4736C32.8085 42.4088 32.8041 47.344 32.8067 52.2792C32.8085 54.8945 31.8032 57.0146 29.6945 58.5764C28.3325 59.5852 26.7716 60.0006 25.0915 60.0015C18.4192 60.0023 11.746 60.0023 5.07368 60.0023C3.49698 60.0023 1.91939 60.0023 0.342686 60.0006C0.241896 60.0006 0.141106 59.9866 0 59.9769L0 34.2991ZM18.676 50.011C18.676 49.9978 18.676 49.9847 18.676 49.9715C19.7268 49.9715 20.782 50.0303 21.8285 49.9593C23.8697 49.8208 25.3518 48.3238 25.6445 46.1994C25.9065 44.3001 24.7567 42.3755 22.9223 41.7269C21.4648 41.2116 19.9573 41.2992 18.6067 41.946C17.0484 42.6919 15.5594 43.6139 14.1325 44.5937C12.9151 45.4299 12.5365 46.8593 12.9809 48.0811C13.4436 49.3554 14.4805 50.0084 16.0475 50.011C16.924 50.0127 17.8004 50.011 18.6768 50.011H18.676Z" fill="#1A2634"/>
<path d="M0.00170898 4.33467C1.15685 4.33467 2.28044 4.30575 3.4014 4.33993C6.20161 4.42582 9.00796 4.44948 11.7994 4.66684C14.7495 4.89734 17.633 5.53188 20.3236 6.83426C22.4411 7.85882 24.2334 9.27338 25.187 11.4855C25.7391 12.7669 26.1291 14.1218 26.5314 15.4619C27.719 19.4155 28.8873 23.3761 30.0354 27.3411C30.187 27.8643 30.2282 28.434 30.2317 28.9827C30.2361 29.8109 29.8259 30.4226 29.0783 30.8004C28.1151 31.2877 27.073 31.4332 26.0187 31.4376C21.4192 31.4586 16.8196 31.4551 12.2201 31.4577C8.33573 31.4595 4.45225 31.4568 0.567886 31.4551C0.393476 31.4551 0.219065 31.4551 0.00258542 31.4551V4.33467H0.00170898Z" fill="#1A2634"/>
<path d="M60.3829 50.435C61.7843 52.6103 63.1603 54.7444 64.5363 56.8785C65.4627 58.3141 66.397 59.7436 67.3155 61.1836C68.1823 62.5429 67.8571 64.2607 66.5819 65.1433C65.262 66.0557 63.3417 65.7717 62.4285 64.4781C60.6686 61.9855 58.9403 59.4701 57.1979 56.9653C57.1182 56.8496 57.0297 56.74 56.8649 56.6638C56.8964 56.7952 56.9254 56.9285 56.9613 57.0591C57.4477 58.847 57.9376 60.6332 58.4214 62.422C58.7773 63.7375 57.9596 65.1126 56.6151 65.4755C55.2496 65.8436 53.8403 65.1003 53.4696 63.8085C52.7123 61.1722 51.9402 58.5402 51.2136 55.8951C50.8525 54.5831 50.5738 53.236 50.8412 51.8741C50.9647 51.2465 51.2145 50.6076 51.5537 50.0651C53.2925 47.2842 55.4223 44.7968 57.5082 42.2771C58.2628 41.3665 59.0025 40.4436 59.7598 39.5347C59.9035 39.3629 59.9201 39.2376 59.8045 39.0387C57.9569 35.8581 56.1173 32.6722 54.275 29.4882C54.2259 29.4031 54.162 29.326 54.0813 29.213C53.9411 29.3286 53.8184 29.425 53.7018 29.5285C52.5677 30.5381 51.4284 31.5425 50.303 32.5627C48.8744 33.8572 47.2083 34.4269 45.2828 34.3085C42.033 34.1087 38.7814 33.9396 35.5316 33.7476C33.8681 33.6495 32.5859 32.0859 32.8541 30.4961C33.0039 29.6073 33.5701 29.0122 34.3554 28.6906C34.8944 28.4697 35.5132 28.319 36.0899 28.3365C39.2275 28.4303 42.3643 28.5714 45.4993 28.7327C46.0357 28.7607 46.3748 28.6126 46.7272 28.2094C49.1119 25.4846 51.4836 22.7457 53.942 20.0866C55.9043 17.9639 59.6406 18.1357 61.3479 20.7895C61.9465 21.7203 62.4311 22.7238 62.9596 23.6993C64.9474 27.3707 66.8799 31.0727 68.9325 34.7064C70.667 37.7784 70.2323 40.5619 68.0315 43.1044C66.9369 44.3683 65.6547 45.4717 64.4399 46.6295C63.1086 47.8986 61.758 49.1457 60.3829 50.4332V50.435Z" fill="#1A2634"/>
<path d="M53.5195 14.3911C53.424 18.0099 50.5308 20.8407 47.019 20.7522C43.3458 20.6602 40.5745 17.7592 40.6727 14.1106C40.7656 10.6452 43.7192 7.81166 47.1469 7.89843C50.7736 7.99045 53.6124 10.8827 53.5195 14.3911Z" fill="#1A2634"/>
<path d="M32.8524 55.4945C32.8059 56.8022 32.8743 58.1265 32.685 59.4131C32.4063 61.3105 30.6788 62.7488 28.7577 62.7917C26.7164 62.8373 24.6717 62.8452 22.6305 62.7926C20.3456 62.7339 18.4797 60.7654 18.5656 58.5217C18.7137 58.5217 18.8662 58.5217 19.0187 58.5217C21.0179 58.5217 23.0161 58.513 25.0153 58.5235C27.9207 58.5393 30.4474 57.6006 32.5579 55.583C32.607 55.5357 32.6657 55.498 32.7191 55.4551C32.7638 55.4673 32.8085 55.4805 32.8524 55.4928V55.4945Z" fill="#1A2634"/>
</svg>
