<svg width="20" height="21" viewBox="0 0 20 21" fill="none" xmlns="http://www.w3.org/2000/svg">
<path d="M9.99 0.552734C4.47 0.552734 0 5.03273 0 10.5527C0 16.0727 4.47 20.5527 9.99 20.5527C15.52 20.5527 20 16.0727 20 10.5527C20 5.03273 15.52 0.552734 9.99 0.552734ZM10 18.5527C5.58 18.5527 2 14.9727 2 10.5527C2 6.13273 5.58 2.55273 10 2.55273C14.42 2.55273 18 6.13273 18 10.5527C18 14.9727 14.42 18.5527 10 18.5527ZM10.5 5.55273H9V11.5527L14.25 14.7027L15 13.4727L10.5 10.8027V5.55273Z" fill="#1A2634"/>
</svg>
