<svg width="70" height="70" viewBox="0 0 70 70" fill="none" xmlns="http://www.w3.org/2000/svg">
<path d="M67.699 59H2.31473C2.24015 58.9711 2.16775 58.9343 2.09028 58.9134C1.11646 58.6498 0.455415 58.0556 0.13829 57.0932C0.094124 56.9589 0.046338 56.826 0 56.6925C0 42.2024 0 27.7117 0 13.2209C0.0253411 13.1826 0.0622666 13.1473 0.0738511 13.1054C0.461207 11.7321 1.42417 11 2.84616 11C24.326 11 45.8058 11 67.2856 11C68.8039 11 69.9986 12.1819 69.9986 13.6902C69.9993 27.8914 69.9993 42.0927 69.9986 56.2939C69.9986 57.4888 69.2441 58.4989 68.0965 58.8592C67.9626 58.9011 67.8315 58.9523 67.699 59ZM2.83603 13.7985V56.195C2.98373 56.195 3.10247 56.195 3.22121 56.195C24.4107 56.195 45.6002 56.1943 66.7896 56.2022C67.1314 56.2022 67.2067 56.0982 67.206 55.7762C67.1987 41.9122 67.1994 28.0481 67.1987 14.1841C67.1987 14.0577 67.1871 13.9306 67.1806 13.7992H2.83603V13.7985Z" fill="#1A2634"/>
<path d="M21.3307 27.2406C22.1177 26.2522 22.8504 25.3164 23.602 24.3951C23.8749 24.0609 24.1993 23.7684 24.4889 23.4464C25.1651 22.6955 26.0253 22.3945 27.0165 22.3064C29.9619 22.0443 32.9137 22.0125 35.8656 22.0443C38.0333 22.0674 40.2011 22.1685 42.3681 22.2508C42.8235 22.2681 43.276 22.3555 43.7307 22.4103C44.4012 22.4912 44.9457 22.8356 45.3714 23.3186C46.3481 24.4269 47.285 25.5699 48.2349 26.7013C48.3718 26.8644 48.4905 27.0435 48.6701 27.2861C48.6404 26.8594 48.8844 26.7857 49.1516 26.7142C50.6612 26.3085 52.1715 26.3222 53.6912 26.6659C54.0952 26.7576 54.3479 26.9872 54.5224 27.341C54.7787 27.8594 54.8099 28.4117 54.7005 28.9583C54.5412 29.7575 54.0221 30.1568 53.1236 30.2225C52.6189 30.2593 52.1121 30.2622 51.6075 30.2983C51.488 30.307 51.3743 30.3871 51.2578 30.434C51.3077 30.5488 51.3338 30.6839 51.4127 30.7748C51.5539 30.9373 51.7168 31.0846 51.8862 31.2182C53.2199 32.2752 53.7998 33.6752 53.7926 35.3466C53.7774 38.8902 53.7644 42.4346 53.7513 45.9782C53.7492 46.6237 53.7513 47.2699 53.7513 47.9356H46.2424V45.6786H23.7996V47.9341H16.2668C16.2668 47.7406 16.2668 47.5536 16.2668 47.3666C16.2523 43.4259 16.2516 39.4859 16.2169 35.5452C16.2009 33.7502 16.7736 32.2528 18.2239 31.1344C18.3752 31.0174 18.5142 30.8802 18.6395 30.7344C18.7039 30.6593 18.7814 30.512 18.7495 30.4586C18.701 30.3763 18.5649 30.3091 18.4621 30.3012C17.9458 30.2637 17.4267 30.2586 16.9098 30.2225C16.0018 30.1597 15.4899 29.7734 15.3198 28.9741C15.1974 28.4016 15.238 27.8269 15.5167 27.2919C15.6854 26.9677 15.9301 26.7583 16.3066 26.6709C17.8372 26.3171 19.3599 26.307 20.8803 26.7186C21.1352 26.7879 21.3893 26.8507 21.3314 27.2406H21.3307ZM45.1998 28.1222C45.1136 27.9835 45.0673 27.9012 45.0137 27.8247C44.4454 27.0197 43.8249 26.2457 43.3202 25.4024C42.8749 24.6587 42.337 24.2428 41.4421 24.3583C41.2198 24.3872 40.9867 24.3229 40.7579 24.3208C37.6851 24.2955 34.6123 24.258 31.5395 24.2587C30.3239 24.2587 29.1075 24.3489 27.8918 24.3923C27.5602 24.4038 27.3235 24.5099 27.1215 24.8103C26.451 25.8074 25.74 26.7778 25.0464 27.759C24.974 27.8615 24.9096 27.9698 24.8111 28.1222H45.2005H45.1998ZM45.8572 37.8982C47.2416 37.8982 48.6266 37.8982 50.011 37.8982C50.5062 37.8982 50.6127 37.8282 50.7263 37.3329C50.9356 36.4195 50.8451 35.5199 50.5279 34.6455C50.3426 34.1344 50.0986 33.995 49.549 34.0809C49.0871 34.1531 48.623 34.2376 48.1756 34.3697C45.8529 35.0528 43.6475 36.0397 41.4334 37.0015C41.3147 37.0527 41.1988 37.1307 41.1083 37.2217C40.8737 37.4578 40.9541 37.7726 41.2741 37.8664C41.3979 37.9025 41.5362 37.8967 41.668 37.8967C43.0646 37.8989 44.4613 37.8982 45.8579 37.8982H45.8572ZM24.153 37.8982C25.5858 37.8982 27.0187 37.8982 28.4515 37.8982C28.6955 37.8982 28.9728 37.8505 28.9844 37.5906C28.9917 37.4173 28.7853 37.2311 28.6629 37.0585C28.6325 37.0152 28.5601 36.9986 28.5051 36.9762C26.6465 36.2217 24.7995 35.4383 22.9235 34.7293C22.1322 34.4304 21.2851 34.2679 20.4539 34.0867C19.9586 33.9784 19.69 34.112 19.5271 34.5019C19.1325 35.4462 19.042 36.4231 19.2831 37.4238C19.3642 37.7617 19.5561 37.9105 19.9268 37.9054C21.3358 37.8881 22.7447 37.8982 24.153 37.8982ZM34.9931 43.371C37.5468 43.371 40.1012 43.371 42.6548 43.371C42.775 43.371 42.8981 43.3804 43.0154 43.3602C43.284 43.314 43.4078 43.1378 43.3868 42.8728C43.3441 42.3335 42.8163 41.8332 42.2733 41.8332C37.4302 41.8303 32.5872 41.8303 27.7449 41.8332C27.2192 41.8332 26.6805 42.2707 26.5553 42.7754C26.4851 43.0591 26.6103 43.2808 26.8999 43.3458C27.0389 43.3768 27.1866 43.371 27.3307 43.3718C29.8844 43.3732 32.4388 43.3725 34.9924 43.3725L34.9931 43.371Z" fill="#1A2634"/>
</svg>
