<svg width="18" height="19" viewBox="0 0 18 19" fill="none" xmlns="http://www.w3.org/2000/svg">
<path fill-rule="evenodd" clip-rule="evenodd" d="M9 18.4814C10.1819 18.4814 11.3522 18.2487 12.4442 17.7964C13.5361 17.3441 14.5282 16.6811 15.364 15.8454C16.1997 15.0097 16.8626 14.0175 17.3149 12.9256C17.7672 11.8337 18 10.6633 18 9.48145C18 8.29955 17.7672 7.12922 17.3149 6.03729C16.8626 4.94536 16.1997 3.95321 15.364 3.11748C14.5282 2.28176 13.5361 1.61882 12.4442 1.16653C11.3522 0.714237 10.1819 0.481445 9 0.481445C6.61305 0.481445 4.32387 1.42966 2.63604 3.11748C0.948212 4.80531 0 7.0945 0 9.48145C0 11.8684 0.948212 14.1576 2.63604 15.8454C4.32387 17.5332 6.61305 18.4814 9 18.4814ZM8.768 13.1214L13.768 7.12145L12.232 5.84144L7.932 11.0004L5.707 8.77445L4.293 10.1884L7.293 13.1884L8.067 13.9624L8.768 13.1214Z" fill="#FFCB00"/>
</svg>
