<svg width="22" height="22" viewBox="0 0 22 22" fill="none" xmlns="http://www.w3.org/2000/svg">
<g clip-path="url(#clip0_1821_98703)">
<path d="M10.962 5.86673C11.5266 5.86673 11.9886 6.32873 11.9886 6.8934V11.0001C11.9886 11.5647 11.5266 12.0267 10.962 12.0267C10.3973 12.0267 9.93531 11.5647 9.93531 11.0001V6.8934C9.93531 6.32873 10.3973 5.86673 10.962 5.86673ZM10.9517 0.733398C5.28451 0.733398 0.695312 5.33287 0.695312 11.0001C0.695312 16.6673 5.28451 21.2667 10.9517 21.2667C16.6292 21.2667 21.2286 16.6673 21.2286 11.0001C21.2286 5.33287 16.6292 0.733398 10.9517 0.733398ZM10.962 19.2134C6.42411 19.2134 2.74865 15.5379 2.74865 11.0001C2.74865 6.4622 6.42411 2.78673 10.962 2.78673C15.4998 2.78673 19.1753 6.4622 19.1753 11.0001C19.1753 15.5379 15.4998 19.2134 10.962 19.2134ZM11.9886 16.1334H9.93531V14.0801H11.9886V16.1334Z" fill="#BC1B1D"/>
</g>
<defs>
<clipPath id="clip0_1821_98703">
<rect width="22" height="22" fill="white"/>
</clipPath>
</defs>
</svg>
