<svg width="30" height="30" viewBox="0 0 30 30" fill="none" xmlns="http://www.w3.org/2000/svg">
<path d="M15 25C20.5231 25 25 20.5231 25 15C25 9.47688 20.5231 5 15 5C9.47688 5 5 9.47688 5 15C5 20.5231 9.47688 25 15 25Z" stroke="#252525" stroke-width="2" stroke-linecap="round" stroke-linejoin="round"/>
<path d="M16.0607 16.0607C15.7794 16.342 15.3978 16.5 15 16.5C14.6022 16.5 14.2206 16.342 13.9393 16.0607C13.658 15.7794 13.5 15.3978 13.5 15C13.5 14.6022 13.658 14.2206 13.9393 13.9393C14.2206 13.658 14.6022 13.5 15 13.5C15.3978 13.5 15.7794 13.658 16.0607 13.9393C16.342 14.2206 16.5 14.6022 16.5 15C16.5 15.3978 16.342 15.7794 16.0607 16.0607ZM16 3.54356C17.1675 3.64547 18.3145 3.92541 19.4009 4.37539C20.7961 4.95331 22.0639 5.8004 23.1317 6.86827C24.1996 7.93615 25.0467 9.2039 25.6246 10.5991C26.0746 11.6855 26.3545 12.8325 26.4564 14H23.4448C23.2214 12.113 22.3703 10.3442 21.0131 8.98694C19.6558 7.6297 17.887 6.77863 16 6.55522V3.54356Z" stroke="#252525" stroke-width="2" stroke-linecap="round" stroke-linejoin="round"/>
</svg>
