<svg width="146" height="37" viewBox="0 0 146 37" fill="none" xmlns="http://www.w3.org/2000/svg">
<rect x="0.417969" width="145.161" height="36.2903" rx="6" fill="#00B57A"/>
<path d="M29.8013 24.2084C29.0886 24.2084 28.5765 24.7484 28.5208 25.4945H31.0539C31.0205 24.7317 30.525 24.2084 29.8013 24.2084ZM31.0762 27.276H32.5682C32.3901 28.4451 31.3211 29.2301 29.8458 29.2301C28.0086 29.2301 26.9062 28.0554 26.9062 26.1458C26.9062 24.2418 28.0197 23.0059 29.7846 23.0059C31.5216 23.0059 32.6183 24.1806 32.6183 25.9955V26.491H28.5041V26.5912C28.5041 27.443 29.0441 28.0276 29.8736 28.0276C30.4693 28.0276 30.9259 27.7325 31.0762 27.276Z" fill="white"/>
<path d="M17.2793 29.103V23.1348H18.8493V24.2148H18.8827C19.1332 23.4967 19.7735 23.0234 20.5863 23.0234C21.4492 23.0234 22.0505 23.4688 22.2509 24.2483H22.2843C22.5516 23.4967 23.2642 23.0234 24.1383 23.0234C25.3074 23.0234 26.0924 23.8251 26.0924 25.0277V29.103H24.4667V25.4341C24.4667 24.7437 24.1216 24.3652 23.4924 24.3652C22.8745 24.3652 22.4681 24.8161 22.4681 25.4786V29.103H20.9036V25.384C20.9036 24.7437 20.5418 24.3652 19.9405 24.3652C19.3225 24.3652 18.905 24.8328 18.905 25.5009V29.103H17.2793Z" fill="white"/>
<path d="M14.5674 29.1014V23.1332H16.1931V29.1014H14.5674ZM15.3802 22.4763C14.8903 22.4763 14.5117 22.1032 14.5117 21.6356C14.5117 21.1624 14.8903 20.7949 15.3802 20.7949C15.8701 20.7949 16.2487 21.1624 16.2487 21.6356C16.2487 22.1032 15.8701 22.4763 15.3802 22.4763Z" fill="white"/>
<path d="M11.6787 29.102H9.99736V22.4546H7.67578V21.0684H14.0058V22.4546H11.6787V29.102Z" fill="white"/>
<path d="M44.8651 17.7741C44.8095 17.7741 44.3028 17.7686 44.2527 17.7574V16.5048C44.3028 16.5159 44.5979 16.5159 44.6592 16.5159C45.2549 16.5159 45.5499 16.3266 45.6613 15.8534C45.6613 15.8311 45.7225 15.5917 45.7114 15.5695L43.6348 9.5957H45.4219L46.6912 14.2611H46.7191L47.9884 9.5957H49.7032L47.6488 15.6975C47.1366 17.2285 46.3906 17.7741 44.8651 17.7741Z" fill="white"/>
<path d="M39.9492 15.5628V9.59464H41.5192V10.6691H41.5526C41.7642 9.91198 42.2708 9.5 42.9723 9.5C43.1616 9.5 43.323 9.52784 43.4344 9.56124V10.992C43.3008 10.9364 43.0781 10.8974 42.8442 10.8974C42.0425 10.8974 41.5749 11.3873 41.5749 12.228V15.5628H39.9492Z" fill="white"/>
<path d="M36.2915 10.6674C35.5789 10.6674 35.0667 11.2074 35.011 11.9534H37.5442C37.5107 11.1907 37.0153 10.6674 36.2915 10.6674ZM37.5664 13.735H39.0585C38.8803 14.9041 37.8114 15.6891 36.336 15.6891C34.4988 15.6891 33.3965 14.5144 33.3965 12.6048C33.3965 10.7008 34.51 9.46484 36.2748 9.46484C38.0118 9.46484 39.1086 10.6396 39.1086 12.4545V12.95H34.9943V13.0502C34.9943 13.902 35.5343 14.4866 36.3639 14.4866C36.9596 14.4866 37.4161 14.1915 37.5664 13.735Z" fill="white"/>
<path d="M33.2132 9.5957L31.1644 15.5639H29.3272L27.2617 9.5957H29.0043L30.2458 14.1275H30.2792L31.5152 9.5957H33.2132Z" fill="white"/>
<path d="M25.0459 15.5623V9.59414H26.6716V15.5623H25.0459ZM25.8587 8.9372C25.3688 8.9372 24.9902 8.56418 24.9902 8.09653C24.9902 7.6233 25.3688 7.25586 25.8587 7.25586C26.3487 7.25586 26.7272 7.6233 26.7272 8.09653C26.7272 8.56418 26.3487 8.9372 25.8587 8.9372Z" fill="white"/>
<path d="M22.2969 15.563V7.5293H23.9225V15.563H22.2969Z" fill="white"/>
<path d="M18.6001 10.6674C17.8875 10.6674 17.3753 11.2074 17.3196 11.9534H19.8527C19.8193 11.1907 19.3238 10.6674 18.6001 10.6674ZM19.875 13.735H21.3671C21.1889 14.9041 20.12 15.6891 18.6446 15.6891C16.8074 15.6891 15.7051 14.5144 15.7051 12.6048C15.7051 10.7008 16.8185 9.46484 18.5834 9.46484C20.3204 9.46484 21.4172 10.6396 21.4172 12.4545V12.95H17.3029V13.0502C17.3029 13.902 17.8429 14.4866 18.6725 14.4866C19.2682 14.4866 19.7247 14.1915 19.875 13.735Z" fill="white"/>
<path d="M8.07617 7.5293H11.1438C13.5544 7.5293 14.9741 8.96567 14.9741 11.5155C14.9741 14.0654 13.5544 15.563 11.1438 15.563H8.07617V7.5293ZM9.75751 8.91556V14.1711H10.9434C12.4465 14.1711 13.2594 13.2581 13.2594 11.5211C13.2594 9.83974 12.4243 8.91556 10.9434 8.91556H9.75751Z" fill="white"/>
<line x1="53.5391" y1="7.25781" x2="53.5391" y2="29.349" stroke="white"/>
<path d="M133.887 16.0875C133.84 16.0875 133.415 16.0828 133.373 16.0735V15.0214C133.415 15.0308 133.662 15.0308 133.714 15.0308C134.214 15.0308 134.462 14.8718 134.556 14.4744C134.556 14.4557 134.607 14.2546 134.598 14.2359L132.854 9.21875H134.354L135.421 13.1371H135.444L136.51 9.21875H137.95L136.225 14.3434C135.795 15.6293 135.168 16.0875 133.887 16.0875Z" fill="white"/>
<path d="M130.961 14.2316V7.48438H132.326V14.2316H130.961Z" fill="white"/>
<path d="M127.855 10.1233C127.257 10.1233 126.827 10.5768 126.78 11.2034H128.907C128.879 10.5628 128.463 10.1233 127.855 10.1233ZM128.926 12.6996H130.179C130.03 13.6815 129.132 14.3408 127.893 14.3408C126.35 14.3408 125.424 13.3542 125.424 11.7504C125.424 10.1513 126.359 9.11328 127.841 9.11328C129.3 9.11328 130.221 10.0999 130.221 11.6242V12.0403H126.766V12.1245C126.766 12.8399 127.219 13.3309 127.916 13.3309C128.416 13.3309 128.8 13.083 128.926 12.6996Z" fill="white"/>
<path d="M122.642 8.06641H124.007V9.22133H124.933V10.25H124.007V12.6487C124.007 13.0321 124.194 13.2145 124.596 13.2145C124.718 13.2145 124.844 13.2051 124.928 13.1911V14.1964C124.788 14.2291 124.554 14.2525 124.278 14.2525C123.1 14.2525 122.642 13.8597 122.642 12.8825V10.25H121.936V9.22133H122.642V8.06641Z" fill="white"/>
<path d="M118.967 13.3262C119.561 13.3262 120.052 12.9381 120.052 12.3957V12.031L118.995 12.0964C118.486 12.1339 118.196 12.363 118.196 12.7183C118.196 13.0924 118.504 13.3262 118.967 13.3262ZM118.518 14.3128C117.565 14.3128 116.84 13.6956 116.84 12.7931C116.84 11.8814 117.541 11.353 118.79 11.2782L120.052 11.2034V10.8714C120.052 10.4038 119.725 10.1326 119.21 10.1326C118.701 10.1326 118.378 10.3851 118.313 10.7545H117.064C117.116 9.78192 117.943 9.11328 119.271 9.11328C120.557 9.11328 121.394 9.77725 121.394 10.7872V14.2333H120.076V13.4665H120.047C119.767 13.9995 119.145 14.3128 118.518 14.3128Z" fill="white"/>
<path d="M114.754 14.2322V9.2197H116.119V14.2322H114.754ZM115.436 8.66795C115.025 8.66795 114.707 8.35467 114.707 7.96191C114.707 7.56446 115.025 7.25586 115.436 7.25586C115.848 7.25586 116.166 7.56446 116.166 7.96191C116.166 8.35467 115.848 8.66795 115.436 8.66795Z" fill="white"/>
<path d="M110.887 14.3111C109.634 14.3111 108.844 13.3198 108.844 11.716C108.844 10.1262 109.639 9.13961 110.896 9.13961C111.621 9.13961 112.182 9.52303 112.425 10.0794H112.453V7.48438H113.819V14.2316H112.472V13.3712H112.449C112.206 13.923 111.626 14.3111 110.887 14.3111ZM111.35 10.2338C110.663 10.2338 110.242 10.8089 110.242 11.7253C110.242 12.6465 110.663 13.2122 111.35 13.2122C112.028 13.2122 112.463 12.6418 112.463 11.7253C112.463 10.8136 112.028 10.2338 111.35 10.2338Z" fill="white"/>
<path d="M105.955 10.1233C105.356 10.1233 104.926 10.5768 104.879 11.2034H107.007C106.979 10.5628 106.563 10.1233 105.955 10.1233ZM107.026 12.6996H108.279C108.129 13.6815 107.231 14.3408 105.992 14.3408C104.449 14.3408 103.523 13.3542 103.523 11.7504C103.523 10.1513 104.459 9.11328 105.941 9.11328C107.4 9.11328 108.321 10.0999 108.321 11.6242V12.0403H104.865V12.1245C104.865 12.8399 105.319 13.3309 106.016 13.3309C106.516 13.3309 106.899 13.083 107.026 12.6996Z" fill="white"/>
<path d="M95.4395 14.231V9.21852H96.758V10.1256H96.7861C96.9965 9.52244 97.5342 9.125 98.2169 9.125C98.9416 9.125 99.4466 9.49906 99.615 10.1537H99.643C99.8674 9.52244 100.466 9.125 101.2 9.125C102.182 9.125 102.841 9.79832 102.841 10.8083V14.231H101.476V11.1496C101.476 10.5698 101.186 10.2519 100.658 10.2519C100.139 10.2519 99.7973 10.6306 99.7973 11.187V14.231H98.4834V11.1075C98.4834 10.5698 98.1795 10.2519 97.6745 10.2519C97.1555 10.2519 96.8048 10.6446 96.8048 11.2057V14.231H95.4395Z" fill="white"/>
<path d="M87.1719 14.231V9.21852H88.4905V10.1256H88.5185C88.7289 9.52244 89.2666 9.125 89.9493 9.125C90.6741 9.125 91.179 9.49906 91.3474 10.1537H91.3754C91.5999 9.52244 92.1984 9.125 92.9325 9.125C93.9144 9.125 94.5737 9.79832 94.5737 10.8083V14.231H93.2083V11.1496C93.2083 10.5698 92.9184 10.2519 92.3901 10.2519C91.8711 10.2519 91.5297 10.6306 91.5297 11.187V14.231H90.2158V11.1075C90.2158 10.5698 89.9119 10.2519 89.4069 10.2519C88.8879 10.2519 88.5372 10.6446 88.5372 11.2057V14.231H87.1719Z" fill="white"/>
<path d="M86.166 14.2316H84.7539V7.48438H86.166V14.2316Z" fill="white"/>
<path d="M136.089 25.4258H136.891L136.827 28.0122H136.154L136.089 25.4258ZM136.49 29.3481C136.247 29.3481 136.055 29.1638 136.055 28.9286C136.055 28.6935 136.247 28.5091 136.49 28.5091C136.733 28.5091 136.926 28.6935 136.926 28.9286C136.926 29.1638 136.733 29.3481 136.49 29.3481Z" fill="white"/>
<path d="M134.57 29.2813V25.4258H135.351V29.2813H134.57Z" fill="white"/>
<path d="M134.043 26.416V29.2803H133.29V28.7646H133.274C133.132 29.1253 132.849 29.3337 132.416 29.3337C131.796 29.3337 131.385 28.9303 131.385 28.2623V26.416H132.165V28.0993C132.165 28.4814 132.355 28.6845 132.699 28.6845C133.047 28.6845 133.263 28.436 133.263 28.0566V26.416H134.043Z" fill="white"/>
<path d="M129.658 29.2809V27.0044H129.268V26.43H129.658V26.2136C129.658 25.6525 129.922 25.3906 130.601 25.3906C130.745 25.3906 130.908 25.4067 130.999 25.4254V25.941C130.943 25.9303 130.865 25.925 130.788 25.925C130.531 25.925 130.419 26.0372 130.419 26.2403V26.43H130.988V27.0044H130.438V29.2809H129.658Z" fill="white"/>
<path d="M126.578 27.2586C126.578 26.7135 127.051 26.3555 127.786 26.3555C128.504 26.3555 128.972 26.7188 128.983 27.2746H128.264C128.248 27.0448 128.064 26.9032 127.775 26.9032C127.505 26.9032 127.329 27.0261 127.329 27.2105C127.329 27.3521 127.452 27.4483 127.703 27.5071L128.251 27.6246C128.825 27.7529 129.058 27.98 129.058 28.4075C129.058 28.9713 128.539 29.3426 127.783 29.3426C127.019 29.3426 126.549 28.9739 126.506 28.4155H127.267C127.305 28.656 127.494 28.7949 127.804 28.7949C128.101 28.7949 128.28 28.6773 128.28 28.4903C128.28 28.346 128.184 28.2659 127.927 28.2044L127.398 28.0869C126.856 27.9639 126.578 27.6807 126.578 27.2586Z" fill="white"/>
<path d="M123.758 27.2586C123.758 26.7135 124.231 26.3555 124.965 26.3555C125.684 26.3555 126.152 26.7188 126.162 27.2746H125.444C125.428 27.0448 125.243 26.9032 124.955 26.9032C124.685 26.9032 124.508 27.0261 124.508 27.2105C124.508 27.3521 124.631 27.4483 124.883 27.5071L125.43 27.6246C126.005 27.7529 126.237 27.98 126.237 28.4075C126.237 28.9713 125.719 29.3426 124.963 29.3426C124.199 29.3426 123.728 28.9739 123.686 28.4155H124.447C124.484 28.656 124.674 28.7949 124.984 28.7949C125.281 28.7949 125.46 28.6773 125.46 28.4903C125.46 28.346 125.363 28.2659 125.107 28.2044L124.578 28.0869C124.036 27.9639 123.758 27.6807 123.758 27.2586Z" fill="white"/>
<path d="M122.05 26.9326C121.708 26.9326 121.462 27.1918 121.435 27.5498H122.651C122.635 27.1838 122.397 26.9326 122.05 26.9326ZM122.661 28.4048H123.377C123.292 28.9659 122.779 29.3426 122.071 29.3426C121.189 29.3426 120.66 28.7789 120.66 27.8624C120.66 26.9486 121.195 26.3555 122.042 26.3555C122.875 26.3555 123.402 26.9192 123.402 27.7903V28.0281H121.427V28.0762C121.427 28.485 121.686 28.7655 122.084 28.7655C122.37 28.7655 122.589 28.6239 122.661 28.4048Z" fill="white"/>
<path d="M120.384 27.483H119.66C119.615 27.1811 119.414 26.9673 119.094 26.9673C118.709 26.9673 118.469 27.2933 118.469 27.8464C118.469 28.4102 118.709 28.7308 119.097 28.7308C119.409 28.7308 119.612 28.5437 119.66 28.2311H120.387C120.347 28.9071 119.842 29.3426 119.088 29.3426C118.225 29.3426 117.678 28.7815 117.678 27.8464C117.678 26.9273 118.225 26.3555 119.083 26.3555C119.858 26.3555 120.35 26.8337 120.384 27.483Z" fill="white"/>
<path d="M117.402 27.483H116.678C116.632 27.1811 116.432 26.9673 116.111 26.9673C115.727 26.9673 115.486 27.2933 115.486 27.8464C115.486 28.4102 115.727 28.7308 116.114 28.7308C116.427 28.7308 116.63 28.5437 116.678 28.2311H117.405C117.365 28.9071 116.86 29.3426 116.106 29.3426C115.243 29.3426 114.695 28.7815 114.695 27.8464C114.695 26.9273 115.243 26.3555 116.101 26.3555C116.876 26.3555 117.367 26.8337 117.402 27.483Z" fill="white"/>
<path d="M114.293 26.416V29.2803H113.54V28.7646H113.524C113.382 29.1253 113.099 29.3337 112.666 29.3337C112.046 29.3337 111.635 28.9303 111.635 28.2623V26.416H112.415V28.0993C112.415 28.4814 112.605 28.6845 112.949 28.6845C113.297 28.6845 113.513 28.436 113.513 28.0566V26.416H114.293Z" fill="white"/>
<path d="M108.779 27.2586C108.779 26.7135 109.252 26.3555 109.987 26.3555C110.706 26.3555 111.173 26.7188 111.184 27.2746H110.465C110.449 27.0448 110.265 26.9032 109.976 26.9032C109.706 26.9032 109.53 27.0261 109.53 27.2105C109.53 27.3521 109.653 27.4483 109.904 27.5071L110.452 27.6246C111.026 27.7529 111.259 27.98 111.259 28.4075C111.259 28.9713 110.74 29.3426 109.984 29.3426C109.22 29.3426 108.75 28.9739 108.707 28.4155H109.469C109.506 28.656 109.696 28.7949 110.006 28.7949C110.302 28.7949 110.481 28.6773 110.481 28.4903C110.481 28.346 110.385 28.2659 110.128 28.2044L109.599 28.0869C109.057 27.9639 108.779 27.6807 108.779 27.2586Z" fill="white"/>
<path d="M104.588 29.281V26.4167H105.341V26.9271H105.357C105.51 26.5717 105.812 26.3633 106.252 26.3633C106.888 26.3633 107.246 26.7641 107.246 27.4347V29.281H106.466V27.5977C106.466 27.2236 106.29 27.0099 105.94 27.0099C105.59 27.0099 105.368 27.2664 105.368 27.6378V29.281H104.588Z" fill="white"/>
<path d="M102.835 26.9326C102.493 26.9326 102.247 27.1918 102.22 27.5498H103.436C103.42 27.1838 103.182 26.9326 102.835 26.9326ZM103.447 28.4048H104.163C104.077 28.9659 103.564 29.3426 102.856 29.3426C101.974 29.3426 101.445 28.7789 101.445 27.8624C101.445 26.9486 101.98 26.3555 102.827 26.3555C103.66 26.3555 104.187 26.9192 104.187 27.7903V28.0281H102.212V28.0762C102.212 28.485 102.471 28.7655 102.869 28.7655C103.155 28.7655 103.374 28.6239 103.447 28.4048Z" fill="white"/>
<path d="M99.7937 26.9326C99.4517 26.9326 99.2059 27.1918 99.1791 27.5498H100.395C100.379 27.1838 100.141 26.9326 99.7937 26.9326ZM100.406 28.4048H101.122C101.036 28.9659 100.523 29.3426 99.8151 29.3426C98.9333 29.3426 98.4043 28.7789 98.4043 27.8624C98.4043 26.9486 98.9387 26.3555 99.7857 26.3555C100.619 26.3555 101.146 26.9192 101.146 27.7903V28.0281H99.1711V28.0762C99.1711 28.485 99.4303 28.7655 99.8284 28.7655C100.114 28.7655 100.333 28.6239 100.406 28.4048Z" fill="white"/>
<path d="M96.9392 29.3267C96.5197 29.3267 96.199 29.1237 96.0414 28.7897H96.0254V29.2813H95.2559V25.4258H96.0361V26.914H96.0521C96.2097 26.5747 96.5277 26.3716 96.9365 26.3716C97.6579 26.3716 98.1014 26.9247 98.1014 27.8492C98.1014 28.771 97.6606 29.3267 96.9392 29.3267ZM96.6693 26.9969C96.2926 26.9969 96.0334 27.3362 96.0334 27.8492C96.0334 28.3675 96.2899 28.6988 96.6693 28.6988C97.0594 28.6988 97.3025 28.3729 97.3025 27.8492C97.3025 27.3282 97.0567 26.9969 96.6693 26.9969Z" fill="white"/>
<path d="M91.2831 27.2586C91.2831 26.7135 91.756 26.3555 92.4908 26.3555C93.2095 26.3555 93.6771 26.7188 93.6878 27.2746H92.969C92.953 27.0448 92.7687 26.9032 92.4801 26.9032C92.2102 26.9032 92.0339 27.0261 92.0339 27.2105C92.0339 27.3521 92.1568 27.4483 92.4079 27.5071L92.9557 27.6246C93.5301 27.7529 93.7626 27.98 93.7626 28.4075C93.7626 28.9713 93.2442 29.3426 92.4881 29.3426C91.7239 29.3426 91.2537 28.9739 91.2109 28.4155H91.9724C92.0098 28.656 92.1995 28.7949 92.5095 28.7949C92.8061 28.7949 92.9851 28.6773 92.9851 28.4903C92.9851 28.346 92.8889 28.2659 92.6324 28.2044L92.1033 28.0869C91.561 27.9639 91.2831 27.6807 91.2831 27.2586Z" fill="white"/>
<path d="M89.4384 28.7628C89.7777 28.7628 90.0582 28.5411 90.0582 28.2311V28.0227L89.4544 28.0601C89.1632 28.0815 88.9975 28.2124 88.9975 28.4155C88.9975 28.6292 89.1738 28.7628 89.4384 28.7628ZM89.1819 29.3266C88.6368 29.3266 88.2227 28.9739 88.2227 28.4582C88.2227 27.9372 88.6234 27.6353 89.3368 27.5926L90.0582 27.5498V27.3601C90.0582 27.0929 89.8712 26.9379 89.5773 26.9379C89.2861 26.9379 89.1017 27.0822 89.0643 27.2933H88.3509C88.3803 26.7375 88.8532 26.3555 89.612 26.3555C90.3468 26.3555 90.8251 26.7349 90.8251 27.312V29.2812H90.0716V28.843H90.0556C89.8953 29.1476 89.5399 29.3266 89.1819 29.3266Z" fill="white"/>
<path d="M85.1523 29.2813V25.4258H85.9192V26.9274H85.9352C86.0875 26.5667 86.4001 26.3636 86.8356 26.3636C87.4715 26.3636 87.8349 26.7751 87.8349 27.4377V29.2813H87.0547V27.6034C87.0547 27.2347 86.873 27.0102 86.5177 27.0102C86.149 27.0102 85.9325 27.2694 85.9325 27.6461V29.2813H85.1523Z" fill="white"/>
<path d="M128.429 18.918H129.209V19.5779H129.738V20.1657H129.209V21.5364C129.209 21.7555 129.316 21.8597 129.546 21.8597C129.615 21.8597 129.687 21.8544 129.735 21.8464V22.4208C129.655 22.4395 129.522 22.4529 129.364 22.4529C128.691 22.4529 128.429 22.2284 128.429 21.67V20.1657H128.025V19.5779H128.429V18.918Z" fill="white"/>
<path d="M125.066 22.4411V19.5769H125.82V20.0872H125.836C125.988 19.7318 126.29 19.5234 126.731 19.5234C127.367 19.5234 127.725 19.9242 127.725 20.5949V22.4411H126.945V20.7579C126.945 20.3838 126.768 20.17 126.418 20.17C126.068 20.17 125.847 20.4265 125.847 20.7979V22.4411H125.066Z" fill="white"/>
<path d="M123.311 20.0928C122.969 20.0928 122.723 20.3519 122.697 20.71H123.912C123.896 20.3439 123.659 20.0928 123.311 20.0928ZM123.923 21.565H124.639C124.554 22.1261 124.041 22.5028 123.333 22.5028C122.451 22.5028 121.922 21.939 121.922 21.0226C121.922 20.1088 122.456 19.5156 123.303 19.5156C124.137 19.5156 124.663 20.0794 124.663 20.9504V21.1882H122.689V21.2363C122.689 21.6451 122.948 21.9257 123.346 21.9257C123.632 21.9257 123.851 21.7841 123.923 21.565Z" fill="white"/>
<path d="M117.301 22.4411V19.5769H118.054V20.0952H118.07C118.191 19.7505 118.498 19.5234 118.888 19.5234C119.302 19.5234 119.591 19.7372 119.687 20.1113H119.703C119.831 19.7505 120.173 19.5234 120.593 19.5234C121.154 19.5234 121.53 19.9082 121.53 20.4853V22.4411H120.75V20.6804C120.75 20.3491 120.585 20.1674 120.283 20.1674C119.986 20.1674 119.791 20.3838 119.791 20.7017V22.4411H119.04V20.6563C119.04 20.3491 118.867 20.1674 118.578 20.1674C118.281 20.1674 118.081 20.3918 118.081 20.7124V22.4411H117.301Z" fill="white"/>
<path d="M114.696 23.5012C114.669 23.5012 114.426 23.4985 114.402 23.4932V22.892C114.426 22.8973 114.568 22.8973 114.597 22.8973C114.883 22.8973 115.025 22.8065 115.078 22.5794C115.078 22.5687 115.107 22.4538 115.102 22.4431L114.105 19.5762H114.963L115.572 21.8152H115.586L116.195 19.5762H117.018L116.032 22.5046C115.786 23.2393 115.428 23.5012 114.696 23.5012Z" fill="white"/>
<path d="M112.454 21.923C112.793 21.923 113.074 21.7012 113.074 21.3913V21.1829L112.47 21.2203C112.179 21.2417 112.013 21.3726 112.013 21.5757C112.013 21.7894 112.189 21.923 112.454 21.923ZM112.197 22.4868C111.652 22.4868 111.238 22.1341 111.238 21.6184C111.238 21.0974 111.639 20.7955 112.352 20.7527L113.074 20.71V20.5203C113.074 20.2531 112.887 20.0981 112.593 20.0981C112.302 20.0981 112.117 20.2424 112.08 20.4535H111.367C111.396 19.8977 111.869 19.5156 112.628 19.5156C113.362 19.5156 113.841 19.895 113.841 20.4722V22.4413H113.087V22.0032H113.071C112.911 22.3078 112.556 22.4868 112.197 22.4868Z" fill="white"/>
<path d="M109.774 19.5312C110.501 19.5312 110.947 20.0843 110.947 21.0088C110.947 21.9306 110.504 22.4864 109.788 22.4864C109.371 22.4864 109.05 22.2833 108.898 21.96H108.882V23.3761H108.102V19.5767H108.871V20.0763H108.887C109.042 19.7397 109.36 19.5312 109.774 19.5312ZM109.512 21.8585C109.902 21.8585 110.148 21.5298 110.148 21.0088C110.148 20.4905 109.902 20.1565 109.512 20.1565C109.13 20.1565 108.879 20.4958 108.879 21.0088C108.879 21.5272 109.13 21.8585 109.512 21.8585Z" fill="white"/>
<path d="M105.26 20.0928C104.918 20.0928 104.673 20.3519 104.646 20.71H105.862C105.846 20.3439 105.608 20.0928 105.26 20.0928ZM105.872 21.565H106.588C106.503 22.1261 105.99 22.5028 105.282 22.5028C104.4 22.5028 103.871 21.939 103.871 21.0226C103.871 20.1088 104.405 19.5156 105.252 19.5156C106.086 19.5156 106.612 20.0794 106.612 20.9504V21.1882H104.638V21.2363C104.638 21.6451 104.897 21.9257 105.295 21.9257C105.581 21.9257 105.8 21.7841 105.872 21.565Z" fill="white"/>
<path d="M100.793 22.4415V18.5859H101.56V20.0875H101.576C101.728 19.7268 102.041 19.5238 102.476 19.5238C103.112 19.5238 103.476 19.9352 103.476 20.5979V22.4415H102.695V20.7635C102.695 20.3948 102.514 20.1704 102.158 20.1704C101.79 20.1704 101.573 20.4295 101.573 20.8063V22.4415H100.793Z" fill="white"/>
<path d="M99.0363 18.918H99.8165V19.5779H100.345V20.1657H99.8165V21.5364C99.8165 21.7555 99.9233 21.8597 100.153 21.8597C100.223 21.8597 100.295 21.8544 100.343 21.8464V22.4208C100.263 22.4395 100.129 22.4529 99.9714 22.4529C99.2981 22.4529 99.0363 22.2284 99.0363 21.67V20.1657H98.6328V19.5779H99.0363V18.918Z" fill="white"/>
<path d="M95.75 22.4409V19.5767H96.5035V20.0923H96.5195C96.621 19.729 96.8642 19.5312 97.2008 19.5312C97.2917 19.5312 97.3692 19.5446 97.4226 19.5606V20.2473C97.3585 20.2206 97.2516 20.2019 97.1394 20.2019C96.7546 20.2019 96.5302 20.437 96.5302 20.8405V22.4409H95.75Z" fill="white"/>
<path d="M93.9949 20.0928C93.6529 20.0928 93.407 20.3519 93.3803 20.71H94.596C94.58 20.3439 94.3422 20.0928 93.9949 20.0928ZM94.6067 21.565H95.3228C95.2373 22.1261 94.7243 22.5028 94.0162 22.5028C93.1345 22.5028 92.6055 21.939 92.6055 21.0226C92.6055 20.1088 93.1398 19.5156 93.9868 19.5156C94.8205 19.5156 95.3468 20.0794 95.3468 20.9504V21.1882H93.3723V21.2363C93.3723 21.6451 93.6315 21.9257 94.0296 21.9257C94.3155 21.9257 94.5346 21.7841 94.6067 21.565Z" fill="white"/>
<path d="M91.0167 18.918H91.7969V19.5779H92.326V20.1657H91.7969V21.5364C91.7969 21.7555 91.9038 21.8597 92.1336 21.8597C92.2031 21.8597 92.2752 21.8544 92.3233 21.8464V22.4208C92.2431 22.4395 92.1095 22.4529 91.9519 22.4529C91.2786 22.4529 91.0167 22.2284 91.0167 21.67V20.1657H90.6133V19.5779H91.0167V18.918Z" fill="white"/>
<path d="M89.0639 22.4411V20.1646H88.6738V19.5901H89.0639V19.3737C89.0639 18.8126 89.3284 18.5508 90.0071 18.5508C90.1514 18.5508 90.3144 18.5668 90.4052 18.5855V19.1012C90.3491 19.0905 90.2716 19.0852 90.1941 19.0852C89.9376 19.0852 89.8254 19.1974 89.8254 19.4004V19.5901H90.3945V20.1646H89.8441V22.4411H89.0639Z" fill="white"/>
<path d="M87.7239 22.4415L87.43 21.5063H86.0753L85.7814 22.4415H84.9531L86.2917 18.5859H87.2403L88.5816 22.4415H87.7239ZM86.7433 19.3234L86.249 20.9025H87.2563L86.762 19.3234H86.7433Z" fill="white"/>
<g clip-path="url(#clip0_2358_51280)">
<path d="M78.7844 22.2819C78.6118 22.1094 78.3777 22.0124 78.1336 22.0124C77.8895 22.0124 77.6555 22.1094 77.4829 22.2819L72.3034 27.4623L69.8292 25.0203C69.6583 24.8452 69.4248 24.7451 69.1801 24.742C68.9354 24.739 68.6996 24.8333 68.5244 25.0042C68.3493 25.1751 68.2492 25.4086 68.2461 25.6532C68.2431 25.8979 68.3374 26.1338 68.5083 26.309L71.0341 28.7942C71.1925 28.965 71.3839 29.102 71.5966 29.1969C71.8094 29.2918 72.0391 29.3427 72.2721 29.3465H72.3025C72.5308 29.3473 72.757 29.3026 72.9679 29.2153C73.1789 29.1279 73.3704 28.9995 73.5313 28.8375L78.7844 23.5835C78.957 23.4109 79.0539 23.1768 79.0539 22.9327C79.0539 22.6886 78.957 22.4545 78.7844 22.2819ZM67.1709 27.4678C65.3935 27.3054 63.7017 26.6298 62.3013 25.5232C60.901 24.4165 59.8527 22.9267 59.2838 21.235C58.715 19.5432 58.6503 17.7226 59.0975 15.9948C59.5447 14.267 60.4847 12.7064 61.8028 11.5031C63.121 10.2999 64.7606 9.50576 66.522 9.21752C68.2833 8.92928 70.0905 9.15933 71.7235 9.87967C73.3564 10.6 74.7448 11.7795 75.7194 13.2747C76.6941 14.7698 77.2131 16.5161 77.2132 18.3009C77.2132 18.5835 77.1993 18.8633 77.1754 19.1395C77.1642 19.2601 77.1768 19.3819 77.2127 19.4976C77.2486 19.6134 77.307 19.7209 77.3846 19.8141C77.4622 19.9072 77.5574 19.9841 77.6648 20.0404C77.7721 20.0966 77.8895 20.1311 78.0103 20.1418C78.1309 20.154 78.2528 20.1419 78.3687 20.1063C78.4846 20.0707 78.5922 20.0123 78.6853 19.9345C78.7783 19.8567 78.8549 19.7612 78.9105 19.6534C78.966 19.5456 78.9995 19.4279 79.009 19.307C79.0384 18.9728 79.0541 18.6387 79.0541 18.3009C79.054 16.1591 78.4312 14.0635 77.2615 12.2693C76.0918 10.475 74.4257 9.05959 72.466 8.19524C70.5063 7.3309 68.3376 7.05494 66.224 7.40097C64.1103 7.74701 62.1428 8.7001 60.561 10.1442C58.9793 11.5883 57.8515 13.4612 57.315 15.5347C56.7785 17.6083 56.8565 19.7931 57.5393 21.8231C58.2222 23.8532 59.4806 25.6409 61.1612 26.9686C62.8418 28.2964 64.8722 29.1069 67.0052 29.3014C67.0337 29.3014 67.0613 29.3014 67.0889 29.3014C67.3331 29.3123 67.5715 29.2257 67.7518 29.0608C67.9321 28.8958 68.0395 28.666 68.0504 28.4219C68.0612 28.1778 67.9747 27.9393 67.8097 27.759C67.6448 27.5787 67.415 27.4713 67.1709 27.4605V27.4678ZM67.088 13.6986V17.9198L64.5963 20.4115C64.5084 20.4964 64.4383 20.598 64.39 20.7103C64.3418 20.8226 64.3164 20.9434 64.3153 21.0656C64.3143 21.1878 64.3376 21.309 64.3839 21.4222C64.4301 21.5353 64.4985 21.6381 64.5849 21.7245C64.6713 21.8109 64.7741 21.8793 64.8872 21.9255C65.0004 21.9718 65.1216 21.9951 65.2438 21.994C65.366 21.993 65.4868 21.9676 65.5991 21.9194C65.7114 21.8711 65.813 21.801 65.8979 21.7131L68.6593 18.9517C68.8319 18.7791 68.9289 18.545 68.929 18.3009V13.6986C68.929 13.4544 68.832 13.2203 68.6594 13.0477C68.4867 12.8751 68.2526 12.7781 68.0085 12.7781C67.7644 12.7781 67.5302 12.8751 67.3576 13.0477C67.185 13.2203 67.088 13.4544 67.088 13.6986Z" fill="white"/>
</g>
<defs>
<clipPath id="clip0_2358_51280">
<rect width="22.0912" height="22.0912" fill="white" transform="translate(56.9629 7.25586)"/>
</clipPath>
</defs>
</svg>
