<svg width="146" height="37" viewBox="0 0 146 37" fill="none" xmlns="http://www.w3.org/2000/svg">
<rect x="0.839844" width="145.161" height="36.2903" rx="6" fill="#00B57A"/>
<path d="M57.3763 29.1967C55.8842 29.1967 54.9434 28.0164 54.9434 26.1068C54.9434 24.2139 55.8898 23.0392 57.3874 23.0392C58.2504 23.0392 58.9184 23.4957 59.2079 24.1582H59.2413V21.0684H60.867V29.102H59.2636V28.0776H59.2358C58.9463 28.7346 58.2559 29.1967 57.3763 29.1967ZM57.9275 24.342C57.1091 24.342 56.608 25.0267 56.608 26.1179C56.608 27.2147 57.1091 27.8883 57.9275 27.8883C58.7347 27.8883 59.2525 27.2091 59.2525 26.1179C59.2525 25.0323 58.7347 24.342 57.9275 24.342Z" fill="white"/>
<path d="M51.3625 29.2301C49.5587 29.2301 48.4062 28.0721 48.4062 26.1124C48.4062 24.1806 49.5754 23.0059 51.3625 23.0059C53.1496 23.0059 54.3188 24.175 54.3188 26.1124C54.3188 28.0777 53.1663 29.2301 51.3625 29.2301ZM51.3625 27.9886C52.1586 27.9886 52.6653 27.315 52.6653 26.118C52.6653 24.9322 52.1531 24.2474 51.3625 24.2474C50.5719 24.2474 50.0542 24.9322 50.0542 26.118C50.0542 27.315 50.5608 27.9886 51.3625 27.9886Z" fill="white"/>
<path d="M41.9941 29.102V21.0684H43.592V24.1972H43.6254C43.9427 23.4456 44.5941 23.0225 45.5016 23.0225C46.8266 23.0225 47.5837 23.8799 47.5837 25.2606V29.102H45.9581V25.6057C45.9581 24.8374 45.5795 24.3698 44.8391 24.3698C44.0708 24.3698 43.6198 24.9098 43.6198 25.6948V29.102H41.9941Z" fill="white"/>
<path d="M38.3348 21.7598H39.9605V23.1349H41.0628V24.3597H39.9605V27.2158C39.9605 27.6723 40.1832 27.8894 40.662 27.8894C40.8067 27.8894 40.957 27.8783 41.0572 27.8616V29.0585C40.8902 29.0975 40.6119 29.1254 40.2834 29.1254C38.8804 29.1254 38.3348 28.6577 38.3348 27.4941V24.3597H37.4941V23.1349H38.3348V21.7598Z" fill="white"/>
<path d="M34.2446 24.2084C33.532 24.2084 33.0198 24.7484 32.9641 25.4945H35.4973C35.4639 24.7317 34.9684 24.2084 34.2446 24.2084ZM35.5195 27.276H37.0116C36.8334 28.4451 35.7645 29.2301 34.2892 29.2301C32.4519 29.2301 31.3496 28.0554 31.3496 26.1458C31.3496 24.2418 32.4631 23.0059 34.2279 23.0059C35.9649 23.0059 37.0617 24.1806 37.0617 25.9955V26.491H32.9474V26.5912C32.9474 27.443 33.4875 28.0276 34.317 28.0276C34.9127 28.0276 35.3692 27.7325 35.5195 27.276Z" fill="white"/>
<path d="M30.3682 29.102H28.8706V23.6794H28.8261L26.6437 29.0241H25.5859L23.4035 23.6794H23.3589V29.102H21.8613V21.0684H23.8099L26.0925 26.7637H26.137L28.4197 21.0684H30.3682V29.102Z" fill="white"/>
<path d="M57.5878 17.7741C57.5321 17.7741 57.0255 17.7686 56.9754 17.7574V16.5048C57.0255 16.5159 57.3206 16.5159 57.3818 16.5159C57.9775 16.5159 58.2726 16.3266 58.3839 15.8534C58.3839 15.8311 58.4452 15.5917 58.434 15.5695L56.3574 9.5957H58.1445L59.4139 14.2611H59.4417L60.7111 9.5957H62.4258L60.3715 15.6975C59.8593 17.2285 59.1133 17.7741 57.5878 17.7741Z" fill="white"/>
<path d="M52.6719 15.5628V9.59464H54.2419V10.6691H54.2753C54.4868 9.91198 54.9935 9.5 55.6949 9.5C55.8842 9.5 56.0457 9.52784 56.157 9.56124V10.992C56.0234 10.9364 55.8007 10.8974 55.5669 10.8974C54.7652 10.8974 54.2975 11.3873 54.2975 12.228V15.5628H52.6719Z" fill="white"/>
<path d="M49.0142 10.6674C48.3015 10.6674 47.7893 11.2074 47.7337 11.9534H50.2668C50.2334 11.1907 49.7379 10.6674 49.0142 10.6674ZM50.2891 13.735H51.7811C51.603 14.9041 50.534 15.6891 49.0587 15.6891C47.2215 15.6891 46.1191 14.5144 46.1191 12.6048C46.1191 10.7008 47.2326 9.46484 48.9975 9.46484C50.7345 9.46484 51.8312 10.6396 51.8312 12.4545V12.95H47.717V13.0502C47.717 13.902 48.257 14.4866 49.0865 14.4866C49.6822 14.4866 50.1388 14.1915 50.2891 13.735Z" fill="white"/>
<path d="M45.9359 9.5957L43.8871 15.5639H42.0499L39.9844 9.5957H41.727L42.9685 14.1275H43.0019L44.2378 9.5957H45.9359Z" fill="white"/>
<path d="M37.7686 15.5623V9.59414H39.3942V15.5623H37.7686ZM38.5814 8.9372C38.0915 8.9372 37.7129 8.56418 37.7129 8.09653C37.7129 7.6233 38.0915 7.25586 38.5814 7.25586C39.0713 7.25586 39.4499 7.6233 39.4499 8.09653C39.4499 8.56418 39.0713 8.9372 38.5814 8.9372Z" fill="white"/>
<path d="M35.0176 15.563V7.5293H36.6432V15.563H35.0176Z" fill="white"/>
<path d="M31.3208 10.6674C30.6082 10.6674 30.096 11.2074 30.0403 11.9534H32.5734C32.54 11.1907 32.0446 10.6674 31.3208 10.6674ZM32.5957 13.735H34.0878C33.9096 14.9041 32.8407 15.6891 31.3653 15.6891C29.5281 15.6891 28.4258 14.5144 28.4258 12.6048C28.4258 10.7008 29.5392 9.46484 31.3041 9.46484C33.0411 9.46484 34.1379 10.6396 34.1379 12.4545V12.95H30.0236V13.0502C30.0236 13.902 30.5636 14.4866 31.3932 14.4866C31.9889 14.4866 32.4454 14.1915 32.5957 13.735Z" fill="white"/>
<path d="M20.7988 7.5293H23.8664C26.2771 7.5293 27.6968 8.96567 27.6968 11.5155C27.6968 14.0654 26.2771 15.563 23.8664 15.563H20.7988V7.5293ZM22.4802 8.91556V14.1711H23.666C25.1692 14.1711 25.982 13.2581 25.982 11.5211C25.982 9.83974 25.1469 8.91556 23.666 8.91556H22.4802Z" fill="white"/>
<line x1="66.6621" y1="7.25781" x2="66.6621" y2="29.349" stroke="white"/>
<path d="M123.781 14.1563V7.37305H125.154V14.1563H123.781Z" fill="white"/>
<path d="M120.42 13.2433C121.017 13.2433 121.511 12.8531 121.511 12.3078V11.9411L120.448 12.0069C119.936 12.0445 119.644 12.2749 119.644 12.6321C119.644 13.0082 119.955 13.2433 120.42 13.2433ZM119.969 14.2351C119.01 14.2351 118.281 13.6146 118.281 12.7074C118.281 11.7907 118.986 11.2595 120.241 11.1843L121.511 11.1091V10.7753C121.511 10.3052 121.182 10.0326 120.665 10.0326C120.152 10.0326 119.828 10.2864 119.762 10.6578H118.507C118.559 9.68003 119.391 9.00781 120.726 9.00781C122.018 9.00781 122.86 9.67533 122.86 10.6907V14.1552H121.534V13.3843H121.506C121.224 13.9202 120.599 14.2351 119.969 14.2351Z" fill="white"/>
<path d="M115.715 14.2363C114.977 14.2363 114.413 13.879 114.136 13.2914H114.108V14.1563H112.754V7.37305H114.127V9.99141H114.155C114.432 9.3944 114.991 9.03714 115.711 9.03714C116.98 9.03714 117.76 10.0102 117.76 11.6367C117.76 13.2585 116.985 14.2363 115.715 14.2363ZM115.241 10.1371C114.578 10.1371 114.122 10.7341 114.122 11.6367C114.122 12.5487 114.573 13.1316 115.241 13.1316C115.927 13.1316 116.355 12.5581 116.355 11.6367C116.355 10.72 115.922 10.1371 115.241 10.1371Z" fill="white"/>
<path d="M109.514 14.2633C107.991 14.2633 107.018 13.2856 107.018 11.6309C107.018 9.99969 108.005 9.00781 109.514 9.00781C111.023 9.00781 112.01 9.99499 112.01 11.6309C112.01 13.2903 111.037 14.2633 109.514 14.2633ZM109.514 13.2151C110.186 13.2151 110.614 12.6463 110.614 11.6356C110.614 10.6343 110.181 10.0561 109.514 10.0561C108.846 10.0561 108.409 10.6343 108.409 11.6356C108.409 12.6463 108.837 13.2151 109.514 13.2151Z" fill="white"/>
<path d="M104.902 14.1563V7.37305H106.275V14.1563H104.902Z" fill="white"/>
<path d="M104.047 11.308C104.047 13.1554 102.928 14.2742 101.039 14.2742C99.0125 14.2742 97.7715 12.9486 97.7715 10.7439C97.7715 8.57209 99.0125 7.25586 101.006 7.25586C102.59 7.25586 103.784 8.19132 103.986 9.56397H102.562C102.355 8.85414 101.777 8.43107 101.01 8.43107C99.8916 8.43107 99.2193 9.28192 99.2193 10.7251C99.2193 12.1964 99.9339 13.0943 101.062 13.0943C101.988 13.0943 102.632 12.5255 102.66 11.684L102.665 11.5759H101.189V10.5417H104.047V11.308Z" fill="white"/>
<path d="M124.894 25.7441H125.678V26.4076H126.21V26.9986H125.678V28.3766C125.678 28.5969 125.786 28.7016 126.017 28.7016C126.087 28.7016 126.159 28.6963 126.207 28.6882V29.2657C126.127 29.2845 125.993 29.298 125.834 29.298C125.157 29.298 124.894 29.0723 124.894 28.5109V26.9986H124.488V26.4076H124.894V25.7441Z" fill="white"/>
<path d="M122.92 26.924C122.576 26.924 122.329 27.1845 122.302 27.5445H123.525C123.509 27.1765 123.269 26.924 122.92 26.924ZM123.535 28.4041H124.255C124.169 28.9682 123.654 29.3469 122.942 29.3469C122.055 29.3469 121.523 28.7801 121.523 27.8588C121.523 26.9401 122.061 26.3438 122.912 26.3438C123.75 26.3438 124.279 26.9105 124.279 27.7862V28.0253H122.294V28.0737C122.294 28.4846 122.555 28.7667 122.955 28.7667C123.243 28.7667 123.463 28.6243 123.535 28.4041Z" fill="white"/>
<path d="M118.459 29.2868V26.4072H119.216V26.9203H119.233C119.386 26.563 119.689 26.3535 120.132 26.3535C120.772 26.3535 121.132 26.7564 121.132 27.4307V29.2868H120.347V27.5945C120.347 27.2185 120.17 27.0036 119.818 27.0036C119.466 27.0036 119.243 27.2614 119.243 27.6348V29.2868H118.459Z" fill="white"/>
<path d="M116.455 29.2866V26.407H117.213V26.9254H117.229C117.331 26.5601 117.575 26.3613 117.914 26.3613C118.005 26.3613 118.083 26.3748 118.137 26.3909V27.0812C118.072 27.0544 117.965 27.0356 117.852 27.0356C117.465 27.0356 117.239 27.2719 117.239 27.6776V29.2866H116.455Z" fill="white"/>
<path d="M114.69 26.924C114.346 26.924 114.099 27.1845 114.072 27.5445H115.294C115.278 27.1765 115.039 26.924 114.69 26.924ZM115.305 28.4041H116.025C115.939 28.9682 115.423 29.3469 114.711 29.3469C113.825 29.3469 113.293 28.7801 113.293 27.8588C113.293 26.9401 113.83 26.3438 114.682 26.3438C115.52 26.3438 116.049 26.9105 116.049 27.7862V28.0253H114.064V28.0737C114.064 28.4846 114.324 28.7667 114.725 28.7667C115.012 28.7667 115.232 28.6243 115.305 28.4041Z" fill="white"/>
<path d="M111.695 25.7441H112.479V26.4076H113.011V26.9986H112.479V28.3766C112.479 28.5969 112.586 28.7016 112.818 28.7016C112.887 28.7016 112.96 28.6963 113.008 28.6882V29.2657C112.928 29.2845 112.793 29.298 112.635 29.298C111.958 29.298 111.695 29.0723 111.695 28.5109V26.9986H111.289V26.4076H111.695V25.7441Z" fill="white"/>
<path d="M108.316 29.2868V26.4072H109.074V26.9203H109.09C109.243 26.563 109.547 26.3535 109.99 26.3535C110.629 26.3535 110.989 26.7564 110.989 27.4307V29.2868H110.205V27.5945C110.205 27.2185 110.028 27.0036 109.676 27.0036C109.324 27.0036 109.101 27.2614 109.101 27.6348V29.2868H108.316Z" fill="white"/>
<path d="M107.009 29.2851V26.4055H107.794V29.2851H107.009ZM107.401 26.0886C107.165 26.0886 106.982 25.9086 106.982 25.683C106.982 25.4546 107.165 25.2773 107.401 25.2773C107.638 25.2773 107.821 25.4546 107.821 25.683C107.821 25.9086 107.638 26.0886 107.401 26.0886Z" fill="white"/>
<path d="M104.137 26.924C103.793 26.924 103.546 27.1845 103.519 27.5445H104.741C104.725 27.1765 104.486 26.924 104.137 26.924ZM104.752 28.4041H105.472C105.386 28.9682 104.87 29.3469 104.159 29.3469C103.272 29.3469 102.74 28.7801 102.74 27.8588C102.74 26.9401 103.277 26.3438 104.129 26.3438C104.967 26.3438 105.496 26.9105 105.496 27.7862V28.0253H103.511V28.0737C103.511 28.4846 103.772 28.7667 104.172 28.7667C104.459 28.7667 104.68 28.6243 104.752 28.4041Z" fill="white"/>
<path d="M99.6465 29.2863V25.4102H100.417V26.9198H100.434C100.587 26.5572 100.901 26.353 101.339 26.353C101.978 26.353 102.343 26.7667 102.343 27.4329V29.2863H101.559V27.5994C101.559 27.2287 101.376 27.0031 101.019 27.0031C100.648 27.0031 100.431 27.2636 100.431 27.6424V29.2863H99.6465Z" fill="white"/>
<path d="M97.8822 25.7441H98.6665V26.4076H99.1984V26.9986H98.6665V28.3766C98.6665 28.5969 98.774 28.7016 99.005 28.7016C99.0748 28.7016 99.1474 28.6963 99.1957 28.6882V29.2657C99.1151 29.2845 98.9808 29.298 98.8223 29.298C98.1454 29.298 97.8822 29.0723 97.8822 28.5109V26.9986H97.4766V26.4076H97.8822V25.7441Z" fill="white"/>
<path d="M120.296 21.889C120.638 21.889 120.92 21.6661 120.92 21.3545V21.1449L120.313 21.1825C120.02 21.204 119.853 21.3356 119.853 21.5398C119.853 21.7547 120.031 21.889 120.296 21.889ZM120.039 22.4558C119.491 22.4558 119.074 22.1012 119.074 21.5828C119.074 21.059 119.477 20.7554 120.194 20.7125L120.92 20.6695V20.4788C120.92 20.2101 120.732 20.0543 120.436 20.0543C120.143 20.0543 119.958 20.1994 119.92 20.4116H119.203C119.233 19.8529 119.708 19.4688 120.471 19.4688C121.21 19.4688 121.691 19.8502 121.691 20.4304V22.4101H120.933V21.9696H120.917C120.756 22.2758 120.399 22.4558 120.039 22.4558Z" fill="white"/>
<path d="M117.876 22.4101V19.5305H118.661V22.4101H117.876ZM118.269 19.2136C118.032 19.2136 117.85 19.0336 117.85 18.808C117.85 18.5796 118.032 18.4023 118.269 18.4023C118.505 18.4023 118.688 18.5796 118.688 18.808C118.688 19.0336 118.505 19.2136 118.269 19.2136Z" fill="white"/>
<path d="M117.588 19.5312L116.6 22.4108H115.713L114.717 19.5312H115.558L116.157 21.7178H116.173L116.769 19.5312H117.588Z" fill="white"/>
<path d="M112.1 20.049C111.756 20.049 111.509 20.3095 111.482 20.6695H112.704C112.688 20.3015 112.449 20.049 112.1 20.049ZM112.715 21.5291H113.435C113.349 22.0932 112.833 22.4719 112.121 22.4719C111.235 22.4719 110.703 21.9051 110.703 20.9838C110.703 20.0651 111.24 19.4688 112.092 19.4688C112.93 19.4688 113.459 20.0355 113.459 20.9112V21.1503H111.474V21.1987C111.474 21.6096 111.735 21.8917 112.135 21.8917C112.422 21.8917 112.643 21.7493 112.715 21.5291Z" fill="white"/>
<path d="M107.639 22.4099V19.5303H108.396V20.0433H108.412C108.565 19.6861 108.869 19.4766 109.312 19.4766C109.951 19.4766 110.311 19.8795 110.311 20.5537V22.4099H109.527V20.7176C109.527 20.3415 109.35 20.1266 108.998 20.1266C108.646 20.1266 108.423 20.3845 108.423 20.7579V22.4099H107.639Z" fill="white"/>
<path d="M106.33 22.4101V19.5305H107.114V22.4101H106.33ZM106.722 19.2136C106.485 19.2136 106.303 19.0336 106.303 18.808C106.303 18.5796 106.485 18.4023 106.722 18.4023C106.958 18.4023 107.141 18.5796 107.141 18.808C107.141 19.0336 106.958 19.2136 106.722 19.2136Z" fill="white"/>
<path d="M105.004 22.4094V18.5332H105.788V22.4094H105.004Z" fill="white"/>
<path d="M101.814 22.4099V19.5303H102.572V20.0433H102.588C102.741 19.6861 103.045 19.4766 103.488 19.4766C104.127 19.4766 104.487 19.8795 104.487 20.5537V22.4099H103.703V20.7176C103.703 20.3415 103.526 20.1266 103.174 20.1266C102.822 20.1266 102.599 20.3845 102.599 20.7579V22.4099H101.814Z" fill="white"/>
<path d="M99.4887 18.4668C100.636 18.4668 101.358 19.2377 101.358 20.4734C101.358 21.7063 100.636 22.4773 99.4887 22.4773C98.339 22.4773 97.6191 21.7063 97.6191 20.4734C97.6191 19.2377 98.339 18.4668 99.4887 18.4668ZM99.4887 19.1437C98.8548 19.1437 98.4465 19.6595 98.4465 20.4734C98.4465 21.2846 98.8521 21.7977 99.4887 21.7977C100.123 21.7977 100.528 21.2846 100.528 20.4734C100.528 19.6595 100.123 19.1437 99.4887 19.1437Z" fill="white"/>
<g clip-path="url(#clip0_2358_51279)">
<path d="M90.6805 12.2365C90.5466 11.9465 90.3214 11.7169 90.0491 11.5657C89.7768 11.4144 89.4587 11.3378 89.123 11.3378C88.5346 11.3378 87.8896 11.5735 87.3189 12.0778C86.8434 12.4973 86.4236 13.1043 86.1201 13.9117V7.96157C86.12 7.5723 85.8033 7.25586 85.4143 7.25586H75.5104C75.1207 7.25586 74.8047 7.5723 74.8047 7.96157V13.7436L73.3102 13.1806C73.0827 13.0951 72.848 13.0545 72.6171 13.0545C72.2182 13.0545 71.8326 13.1752 71.5091 13.3956C71.1853 13.6154 70.9232 13.9355 70.7749 14.3289C70.6891 14.5561 70.6484 14.7914 70.6484 15.0217C70.6484 15.4202 70.7699 15.8057 70.9896 16.1296C71.2093 16.4528 71.5298 16.7153 71.9232 16.8634L73.2488 17.3626C73.1674 17.402 73.0888 17.4474 73.0135 17.4986C72.7076 17.7072 72.4577 18.0107 72.3179 18.3834C72.2362 18.598 72.1979 18.8209 72.1979 19.0396C72.1979 19.4177 72.3118 19.7823 72.5211 20.0898C72.73 20.3961 73.0331 20.644 73.4061 20.7857L73.5045 20.8223C73.4682 20.8437 73.4322 20.8664 73.3976 20.8898C73.0897 21.0977 72.8412 21.4008 72.7014 21.7749C72.6197 21.9896 72.5814 22.212 72.5814 22.4311C72.5814 22.8096 72.6956 23.1734 72.9052 23.4797C73.1121 23.7876 73.4156 24.0358 73.788 24.1756L73.886 24.2128C73.848 24.2342 73.8117 24.2573 73.7758 24.282C73.4693 24.4892 73.2196 24.7927 73.0796 25.1651C72.9978 25.3811 72.9599 25.6039 72.9599 25.823C72.9599 26.1994 73.0742 26.5657 73.2831 26.8715C73.492 27.1782 73.7955 27.4277 74.1682 27.5675L75.4412 28.047C75.6559 28.1276 75.879 28.167 76.0978 28.167C76.4033 28.167 76.6994 28.0904 76.9638 27.952C77.3671 28.2274 77.8323 28.4878 78.3695 28.7069C79.2488 29.0657 80.313 29.3149 81.5816 29.3444C81.6619 29.3465 81.741 29.3472 81.8196 29.3472C83.055 29.3478 84.087 29.1118 84.9439 28.6832C85.5866 28.3617 86.1282 27.933 86.5812 27.4268C87.2621 26.6675 87.7457 25.7389 88.111 24.7233C88.4749 23.7104 88.7218 22.6082 88.9215 21.4878C88.9266 21.464 88.9523 21.3487 88.9941 21.1605C89.1585 20.4202 89.5709 18.5642 89.9548 16.8483C90.1467 15.9907 90.3315 15.168 90.4749 14.5379C90.5462 14.2232 90.6072 13.9564 90.6537 13.758C90.6767 13.6589 90.6961 13.5769 90.7113 13.5144C90.7255 13.4534 90.7371 13.4093 90.7401 13.3988C90.7914 13.2194 90.8164 13.0441 90.8164 12.8749C90.8168 12.6462 90.7697 12.4291 90.6805 12.2365ZM72.1714 16.2028C71.9174 16.1072 71.7153 15.9403 71.5735 15.7328C71.4321 15.5246 71.3541 15.2763 71.3541 15.0217C71.3541 14.8742 71.3799 14.725 71.4355 14.5771C71.5315 14.3235 71.6977 14.1207 71.9059 13.9789C72.1134 13.8378 72.3623 13.7595 72.617 13.7595C72.7638 13.7595 72.9137 13.7856 73.0609 13.8409L74.8046 14.4971V17.1945L72.1714 16.2028ZM73.1054 19.693C72.9755 19.5011 72.9036 19.2739 72.9036 19.0395C72.9036 18.9042 72.9277 18.7673 72.9782 18.6316C73.0657 18.3989 73.2196 18.2124 73.4102 18.0822C73.6008 17.9527 73.8294 17.8808 74.0624 17.8808C74.1977 17.8808 74.3347 17.9052 74.47 17.9554H74.4713L74.8047 18.0815L75.7447 18.4356C75.9183 18.5004 76.0648 18.6021 76.1835 18.7293C76.2228 18.7713 76.2598 18.8181 76.2937 18.8676C76.4233 19.0579 76.4942 19.2867 76.4942 19.5194C76.4942 19.655 76.4701 19.792 76.4192 19.929C76.3643 20.0758 76.2836 20.2023 76.1836 20.3095C76.1242 20.3736 76.0594 20.4282 75.9872 20.4777C75.7966 20.6076 75.5698 20.6785 75.3354 20.6785C75.1998 20.6785 75.0628 20.6544 74.9275 20.6032L74.8047 20.5564L73.6544 20.125C73.4214 20.0362 73.2349 19.8836 73.1054 19.693ZM73.4875 23.0835C73.3583 22.8926 73.2875 22.664 73.2875 22.431C73.2875 22.2954 73.3112 22.1584 73.3624 22.0234C73.4496 21.7891 73.6018 21.6043 73.7941 21.4727C73.9844 21.3431 74.2133 21.2719 74.4463 21.2719C74.565 21.2719 74.685 21.2896 74.8047 21.3302C74.8217 21.3343 74.8373 21.3418 74.8542 21.3472L76.1273 21.8267C76.147 21.8338 76.1653 21.841 76.1836 21.8498C76.3912 21.94 76.5577 22.0824 76.676 22.2574C76.8062 22.4493 76.8778 22.6769 76.8778 22.9112C76.8778 23.0468 76.8541 23.1832 76.8035 23.3188C76.8035 23.3202 76.8018 23.3216 76.8018 23.3229C76.7143 23.5548 76.5604 23.7397 76.3715 23.8682C76.1809 23.9981 75.952 24.0696 75.719 24.0696C75.5837 24.0696 75.4471 24.0459 75.3114 23.9953L74.8047 23.8044L74.0383 23.5148C73.8039 23.4274 73.6188 23.2748 73.4875 23.0835ZM77.1968 26.6626C77.1924 26.6782 77.187 26.6951 77.1816 26.7107C77.0938 26.9434 76.9412 27.1295 76.7499 27.2594C76.559 27.3893 76.3321 27.4618 76.0978 27.4618C75.9621 27.4618 75.8251 27.4378 75.6898 27.3866L74.4164 26.9067C74.1821 26.8193 73.9973 26.6653 73.8674 26.4747C73.7375 26.2844 73.6656 26.0562 73.6656 25.8229C73.6656 25.6873 73.6893 25.5489 73.7406 25.415C73.8281 25.181 73.9817 24.9941 74.1723 24.8646C74.3571 24.7385 74.5789 24.6683 74.8047 24.6642H74.8244C74.9597 24.6642 75.0967 24.6868 75.2324 24.7385L75.2877 24.7588L76.5051 25.2176C76.7394 25.3061 76.9246 25.4591 77.0558 25.6497C77.1857 25.8412 77.2566 26.0685 77.2566 26.3031C77.2565 26.4214 77.2382 26.5426 77.1968 26.6626ZM76.3772 21.1665L76.2758 21.1282C76.3124 21.1071 76.348 21.0844 76.384 21.061C76.6915 20.8535 76.9398 20.5497 77.0798 20.1773C77.1616 19.9613 77.1999 19.7378 77.1999 19.5194C77.1999 19.1416 77.0856 18.7774 76.8763 18.4709C76.7057 18.2186 76.4701 18.0049 76.1835 17.8598V9.37299H84.769V23.2524H77.5492C77.5702 23.1384 77.5834 23.0245 77.5834 22.9112C77.5834 22.5328 77.4695 22.1686 77.2606 21.8607C77.0517 21.5548 76.7482 21.3059 76.3772 21.1665ZM80.9567 24.7011C80.9567 24.9738 80.7352 25.1956 80.4625 25.1956C80.1895 25.1956 79.9685 24.9738 79.9685 24.7011C79.9685 24.4288 80.1895 24.2074 80.4625 24.2074C80.7352 24.2074 80.9567 24.4288 80.9567 24.7011ZM90.0616 13.2054C90.0504 13.2434 90.0375 13.2966 90.0178 13.378C89.9463 13.6774 89.7991 14.3221 89.6183 15.1244C89.0765 17.5295 88.2317 21.3398 88.2317 21.3398L88.23 21.3472L88.2286 21.3547C88.0543 22.3354 87.8444 23.2887 87.5578 24.1609C87.3432 24.8157 87.0855 25.4241 86.7694 25.9656C86.2946 26.7789 85.6944 27.4398 84.9008 27.9044C84.1063 28.368 83.1103 28.6409 81.8196 28.6416C81.747 28.6416 81.6731 28.6402 81.5978 28.6389C80.4122 28.6107 79.4366 28.3804 78.6363 28.0539C78.2249 27.8854 77.8604 27.6914 77.5372 27.4859C77.6637 27.3316 77.7684 27.1556 77.8417 26.9589C77.8786 26.8619 77.9068 26.7615 77.9251 26.6625C77.9397 26.5933 77.9488 26.5238 77.9543 26.455L85.4142 26.5214C85.8032 26.5214 86.1199 26.2054 86.1199 25.816V16.3998C86.2481 15.9491 86.4132 15.3679 86.6272 14.6164C86.9023 13.652 87.3316 13.008 87.786 12.6062C88.2407 12.2046 88.7237 12.0432 89.1228 12.0432C89.4273 12.0432 89.6793 12.1368 89.8465 12.2799C89.9299 12.3518 89.9943 12.4349 90.0394 12.5326C90.0842 12.6299 90.1103 12.7418 90.1107 12.8747C90.1108 12.9734 90.0962 13.0833 90.0616 13.2054Z" fill="white"/>
<path d="M80.4629 19.9935C82.0547 19.9935 83.3451 18.7032 83.3451 17.111C83.3451 15.5189 82.0547 14.2285 80.4629 14.2285C78.8704 14.2285 77.5804 15.5189 77.5801 17.111C77.5804 18.7032 78.8704 19.9935 80.4629 19.9935ZM82.1507 18.7985C81.9015 19.0474 81.599 19.2406 81.2612 19.3604C81.4233 19.1647 81.5576 18.9141 81.663 18.6241H82.3087C82.2588 18.6846 82.206 18.7432 82.1507 18.7985ZM82.4911 18.3685H81.7458C81.8414 18.028 81.8987 17.6455 81.9092 17.2389H82.8459C82.8245 17.6522 82.6967 18.0375 82.4911 18.3685ZM82.8459 16.9835H81.9082C81.8983 16.5769 81.8424 16.194 81.7464 15.8539H82.4911C82.6967 16.1849 82.8245 16.5698 82.8459 16.9835ZM82.1507 15.4239C82.206 15.4792 82.2589 15.5375 82.3087 15.5979H81.663C81.6176 15.4724 81.5667 15.3537 81.5101 15.2441C81.4368 15.1014 81.3531 14.9725 81.2618 14.862C81.5993 14.982 81.9018 15.1753 82.1507 15.4239ZM80.5907 14.728C80.6307 14.7304 80.6701 14.7331 80.7098 14.7372C80.7718 14.7657 80.8346 14.8036 80.896 14.8538C81.0838 15.0068 81.2581 15.2658 81.3904 15.5978H80.5908L80.5907 14.728ZM80.5907 15.8539H81.4789C81.581 16.1859 81.6427 16.5711 81.6539 16.9835H80.5907V15.8539ZM80.5907 17.2389H81.6528C81.6413 17.6516 81.5792 18.0365 81.4785 18.3685H80.5907V17.2389ZM80.5907 18.6241H81.3887C81.3561 18.7072 81.3212 18.7879 81.2832 18.8605C81.17 19.0799 81.0363 19.2535 80.896 19.3682C80.8346 19.4187 80.7719 19.4571 80.7098 19.4855C80.6701 19.4889 80.6307 19.4923 80.5907 19.4943V18.6241ZM78.7755 18.7985C78.7198 18.7431 78.6663 18.6845 78.6174 18.6241H79.2621C79.3082 18.75 79.3584 18.8684 79.415 18.9779C79.4889 19.1217 79.5717 19.2495 79.6636 19.3604C79.3261 19.2407 79.0237 19.0474 78.7755 18.7985ZM80.335 19.4943C80.295 19.4923 80.2554 19.4889 80.2153 19.4855C80.1533 19.4571 80.0905 19.4187 80.0288 19.3682C79.8413 19.2149 79.6677 18.9558 79.5347 18.6241H80.335V19.4943ZM80.335 18.3685H79.4462C79.3448 18.0365 79.2824 17.6509 79.2719 17.2389H80.335V18.3685ZM80.335 16.9835H79.2723C79.2828 16.5711 79.3459 16.1859 79.4473 15.8539H80.3351L80.335 16.9835ZM80.0288 14.8538C80.0905 14.8037 80.1533 14.7657 80.2153 14.7372C80.2554 14.7332 80.295 14.7304 80.335 14.7281V15.5979H79.5364C79.5689 15.5152 79.6042 15.4352 79.6422 15.3619C79.7555 15.1421 79.8888 14.9685 80.0288 14.8538ZM78.7755 15.4239C79.0237 15.1753 79.3268 14.9814 79.6639 14.862C79.5029 15.0573 79.3676 15.3086 79.2621 15.5979H78.6174C78.6663 15.5375 78.7198 15.4792 78.7755 15.4239ZM78.434 15.8539H79.1793C79.0837 16.194 79.0264 16.5769 79.0159 16.9835H78.0792C78.1009 16.5698 78.2284 16.1849 78.434 15.8539ZM79.0169 17.2389C79.0274 17.6455 79.0827 18.028 79.1793 18.3685H78.434C78.2284 18.0375 78.1009 17.6522 78.0792 17.2389H79.0169Z" fill="white"/>
</g>
<defs>
<clipPath id="clip0_2358_51279">
<rect width="22.0912" height="22.0912" fill="white" transform="translate(69.6855 7.25586)"/>
</clipPath>
</defs>
</svg>
