<svg width="30" height="31" viewBox="0 0 30 31" fill="none" xmlns="http://www.w3.org/2000/svg">
<g clip-path="url(#clip0_2062_35208)">
<path d="M18.75 18.082C18.4185 18.082 18.1005 18.2137 17.8661 18.4481C17.6317 18.6826 17.5 19.0005 17.5 19.332C17.5 19.6636 17.6317 19.9815 17.8661 20.2159C18.1005 20.4503 18.4185 20.582 18.75 20.582H20C20.3315 20.582 20.6495 20.4503 20.8839 20.2159C21.1183 19.9815 21.25 19.6636 21.25 19.332C21.25 19.0005 21.1183 18.6826 20.8839 18.4481C20.6495 18.2137 20.3315 18.082 20 18.082H18.75Z" fill="#252525"/>
<path fill-rule="evenodd" clip-rule="evenodd" d="M9.25 7.83203C10.065 6.74532 11.1219 5.86329 12.3369 5.25579C13.5519 4.6483 14.8916 4.33203 16.25 4.33203H22.5C23.4946 4.33203 24.4484 4.72712 25.1517 5.43038C25.8549 6.13364 26.25 7.08747 26.25 8.08203V24.332C26.25 24.9951 25.9866 25.631 25.5178 26.0998C25.0489 26.5686 24.413 26.832 23.75 26.832H6.25C5.58696 26.832 4.95107 26.5686 4.48223 26.0998C4.01339 25.631 3.75 24.9951 3.75 24.332V17.2483C3.75 15.896 4.18861 14.5801 5 13.4983L9.25 7.83203ZM16.25 6.83203C15.2797 6.83203 14.3228 7.05794 13.4549 7.49186C12.5871 7.92578 11.8322 8.55581 11.25 9.33203L7.5 14.332H23.75V8.08203C23.75 7.75051 23.6183 7.43257 23.3839 7.19815C23.1495 6.96373 22.8315 6.83203 22.5 6.83203H16.25ZM6.25 17.2483C6.25019 17.1092 6.25812 16.9702 6.27375 16.832H23.75V24.332H6.25V17.2483Z" fill="#252525"/>
</g>
<defs>
<clipPath id="clip0_2062_35208">
<rect width="30" height="30" fill="white" transform="translate(0 0.582031)"/>
</clipPath>
</defs>
</svg>
