<svg width="30" height="31" viewBox="0 0 30 31" fill="none" xmlns="http://www.w3.org/2000/svg">
<path d="M6.25 27.917C7.63071 27.917 8.75 26.7977 8.75 25.417C8.75 24.0363 7.63071 22.917 6.25 22.917C4.86929 22.917 3.75 24.0363 3.75 25.417C3.75 26.7977 4.86929 27.917 6.25 27.917Z" fill="#252525"/>
<path d="M12.5 7.91699C13.8807 7.91699 15 6.7977 15 5.41699C15 4.03628 13.8807 2.91699 12.5 2.91699C11.1193 2.91699 10 4.03628 10 5.41699C10 6.7977 11.1193 7.91699 12.5 7.91699Z" fill="#252525"/>
<path d="M18.75 27.917C20.1307 27.917 21.25 26.7977 21.25 25.417C21.25 24.0363 20.1307 22.917 18.75 22.917C17.3693 22.917 16.25 24.0363 16.25 25.417C16.25 26.7977 17.3693 27.917 18.75 27.917Z" fill="#252525"/>
<path d="M25 27.917C26.3807 27.917 27.5 26.7977 27.5 25.417C27.5 24.0363 26.3807 22.917 25 22.917C23.6193 22.917 22.5 24.0363 22.5 25.417C22.5 26.7977 23.6193 27.917 25 27.917Z" fill="#252525"/>
<path d="M25 15.417C26.3807 15.417 27.5 14.2977 27.5 12.917C27.5 11.5363 26.3807 10.417 25 10.417C23.6193 10.417 22.5 11.5363 22.5 12.917C22.5 14.2977 23.6193 15.417 25 15.417Z" fill="#252525"/>
<path d="M25 7.91699C26.3807 7.91699 27.5 6.7977 27.5 5.41699C27.5 4.03628 26.3807 2.91699 25 2.91699C23.6193 2.91699 22.5 4.03628 22.5 5.41699C22.5 6.7977 23.6193 7.91699 25 7.91699Z" fill="#252525"/>
<path d="M12.5 26.667H6.25C5.91848 26.667 5.60054 26.5353 5.36612 26.3009C5.1317 26.0665 5 25.7485 5 25.417C5 25.0855 5.1317 24.7675 5.36612 24.5331C5.60054 24.2987 5.91848 24.167 6.25 24.167H11.25V6.66699C11.25 6.33547 11.3817 6.01753 11.6161 5.78311C11.8505 5.54869 12.1685 5.41699 12.5 5.41699C12.8315 5.41699 13.1495 5.54869 13.3839 5.78311C13.6183 6.01753 13.75 6.33547 13.75 6.66699V25.417C13.75 25.7485 13.6183 26.0665 13.3839 26.3009C13.1495 26.5353 12.8315 26.667 12.5 26.667Z" fill="#252525"/>
<path d="M6.25 20.417C7.63071 20.417 8.75 19.2977 8.75 17.917C8.75 16.5363 7.63071 15.417 6.25 15.417C4.86929 15.417 3.75 16.5363 3.75 17.917C3.75 19.2977 4.86929 20.417 6.25 20.417Z" fill="#252525"/>
<path d="M6.25 7.91699C7.63071 7.91699 8.75 6.7977 8.75 5.41699C8.75 4.03628 7.63071 2.91699 6.25 2.91699C4.86929 2.91699 3.75 4.03628 3.75 5.41699C3.75 6.7977 4.86929 7.91699 6.25 7.91699Z" fill="#252525"/>
<path d="M6.25 17.917C5.91848 17.917 5.60054 17.7853 5.36612 17.5509C5.1317 17.3165 5 16.9985 5 16.667V6.66699C5 6.33547 5.1317 6.01753 5.36612 5.78311C5.60054 5.54869 5.91848 5.41699 6.25 5.41699C6.58152 5.41699 6.89946 5.54869 7.13388 5.78311C7.3683 6.01753 7.5 6.33547 7.5 6.66699V16.667C7.5 16.9985 7.3683 17.3165 7.13388 17.5509C6.89946 17.7853 6.58152 17.917 6.25 17.917Z" fill="#252525"/>
<path d="M25 25.417C24.6685 25.417 24.3505 25.2853 24.1161 25.0509C23.8817 24.8165 23.75 24.4985 23.75 24.167V12.917C23.75 12.5855 23.8817 12.2675 24.1161 12.0331C24.3505 11.7987 24.6685 11.667 25 11.667C25.3315 11.667 25.6495 11.7987 25.8839 12.0331C26.1183 12.2675 26.25 12.5855 26.25 12.917V24.167C26.25 24.4985 26.1183 24.8165 25.8839 25.0509C25.6495 25.2853 25.3315 25.417 25 25.417Z" fill="#252525"/>
<path d="M18.75 25.417C18.4185 25.417 18.1005 25.2853 17.8661 25.0509C17.6317 24.8165 17.5 24.4985 17.5 24.167V5.41699C17.5 5.08547 17.6317 4.76753 17.8661 4.53311C18.1005 4.29869 18.4185 4.16699 18.75 4.16699H25C25.3315 4.16699 25.6495 4.29869 25.8839 4.53311C26.1183 4.76753 26.25 5.08547 26.25 5.41699C26.25 5.74851 26.1183 6.06645 25.8839 6.30088C25.6495 6.5353 25.3315 6.66699 25 6.66699H20V24.167C20 24.4985 19.8683 24.8165 19.6339 25.0509C19.3995 25.2853 19.0815 25.417 18.75 25.417Z" fill="#252525"/>
</svg>
