<svg width="32" height="22" viewBox="0 0 32 22" fill="none" xmlns="http://www.w3.org/2000/svg">
<g clip-path="url(#clip0_2111_11010)">
<path d="M1 15.3549C1.04766 15.1181 1.08281 14.8775 1.14453 14.6447C1.70781 12.5338 3.04219 11.1783 5.14531 10.5822C5.21953 10.5611 5.29453 10.5424 5.39453 10.515C4.77031 8.47127 5.11563 6.63064 6.67578 5.14236C8.23047 3.66033 10.0781 3.40721 12.1 4.11971C12.2734 2.99236 12.7883 2.08142 13.6969 1.41267C14.3867 0.906425 15.1695 0.652519 16.0234 0.660331C17.7047 0.675175 19.3438 1.76033 19.843 3.77205C21.6523 3.59705 22.9219 4.34783 23.6445 6.06189C25.1828 5.65642 26.582 5.94002 27.6961 7.13142C28.8117 8.32439 29.0242 9.73377 28.5242 11.1885C29.0281 11.7135 29.5453 12.1783 29.9711 12.7142C30.5328 13.4213 30.8289 14.2603 30.9469 15.1588C30.9555 15.2252 30.9812 15.2892 30.9992 15.3549V16.4681C30.95 16.6947 30.9109 16.9244 30.8508 17.1478C30.2625 19.3314 28.8781 20.7572 26.6734 21.2369C24.4797 21.7142 22.6375 20.9924 21.1969 19.2642C21.1539 19.2127 21.1109 19.1603 21.0586 19.0963C20.8195 19.3228 20.6109 19.5767 20.35 19.7549C19.7977 20.1338 19.2297 20.4939 18.6453 20.8205C18.2953 21.0158 17.9531 20.8767 17.8109 20.5572C17.6695 20.2392 17.8047 19.9252 18.1812 19.7572C19.1406 19.3299 19.9242 18.6931 20.5297 17.8338C20.9289 17.2658 21.3727 17.3064 21.718 17.9135C22.5914 19.4494 23.9281 20.258 25.6867 20.1892C27.4859 20.1189 28.7836 19.1885 29.4961 17.5306C30.3539 15.5369 29.5297 13.208 27.6375 12.1439C27.0656 11.8228 27.0078 11.6314 27.3023 11.0408C27.832 9.97908 27.6297 8.7158 26.7961 7.87517C25.95 7.02127 24.6797 6.82361 23.5828 7.37439C23.1484 7.59236 22.7633 7.48689 22.6398 7.10877C22.607 7.00799 22.6016 6.89783 22.5844 6.79236C22.3961 5.62049 21.4547 4.85564 20.2734 4.9283C20.0812 4.94002 19.8867 4.98846 19.7039 5.05017C19.0891 5.25799 18.7891 5.06971 18.743 4.43299C18.6445 3.05642 17.6578 2.02517 16.2711 1.84705C15.0477 1.6908 13.7969 2.47986 13.4148 3.70486C13.2969 4.08455 13.2883 4.50877 13.2922 4.91189C13.2953 5.21111 13.3086 5.48299 13.0242 5.65877C12.7508 5.82752 12.5117 5.72127 12.2641 5.56502C10.9539 4.73924 9.58984 4.66189 8.24297 5.42283C6.90781 6.17752 6.26406 7.37596 6.28203 8.91189C6.28906 9.5158 6.46562 10.083 6.74922 10.6181C7.03516 11.1572 6.79922 11.5642 6.1875 11.6002C4.06406 11.7244 2.34609 13.4236 2.18203 15.5619C2.01875 17.6869 3.47266 19.6525 5.53594 20.0986C7.46563 20.5158 9.35078 19.6486 10.2844 17.9142C10.6156 17.2986 11.0711 17.265 11.4703 17.8322C12.057 18.6658 12.8102 19.2963 13.7391 19.7166C13.7922 19.7408 13.8453 19.7658 13.8969 19.7939C14.2031 19.9611 14.3187 20.2635 14.1883 20.5564C14.0539 20.858 13.732 20.9885 13.4031 20.8502C12.5461 20.49 11.7961 19.972 11.1547 19.2978C11.0945 19.2346 11.0367 19.1705 10.9586 19.0861C10.8875 19.1697 10.8273 19.24 10.7672 19.3103C9.23516 21.0892 7.30859 21.7853 5.04375 21.1627C2.77031 20.5385 1.45312 18.9611 1.05234 16.6306C1.04297 16.5752 1.01797 16.522 1 16.4681C1 16.097 1 15.726 1 15.3549Z" fill="#252525" stroke="#252525"/>
<path d="M16.7885 8.60742C18.4073 8.60742 19.7034 9.91133 19.6971 11.5324C19.6909 13.1363 18.394 14.427 16.7877 14.427C15.169 14.427 13.8721 13.1223 13.8799 11.502C13.8877 9.89492 15.1815 8.60742 16.7885 8.60742ZM18.5252 11.5043C18.5205 10.5465 17.7494 9.78008 16.7893 9.7793C15.8159 9.77852 15.0455 10.5535 15.051 11.5293C15.0557 12.4895 15.8244 13.2535 16.7854 13.2543C17.7573 13.2551 18.5299 12.4785 18.5252 11.5043Z" fill="#252525"/>
<path d="M11.2513 8.6082C11.7919 8.60274 12.2911 8.75039 12.7513 9.03008C13.113 9.24961 13.2185 9.58164 13.0294 9.89023C12.8497 10.184 12.5169 10.2426 12.1591 10.0387C11.5482 9.69024 10.9286 9.66758 10.3279 10.0348C9.7388 10.3949 9.46302 10.9441 9.49662 11.6371C9.54662 12.6746 10.6138 13.4848 11.5958 13.2066C11.8271 13.141 12.0435 12.9793 12.2326 12.8207C12.5326 12.5691 12.8451 12.5301 13.0951 12.7629C13.3536 13.0035 13.3458 13.3449 13.0755 13.6465C12.224 14.5957 10.649 14.6965 9.52396 13.8746C8.50052 13.127 8.07162 11.8191 8.45755 10.6223C8.84662 9.4168 9.97005 8.60664 11.2513 8.60742V8.6082Z" fill="#252525"/>
<path d="M22.4704 13.8761C22.7439 13.8761 22.9392 13.8652 23.1329 13.8785C23.4454 13.8996 23.6634 14.1253 23.6767 14.423C23.6907 14.7222 23.4978 15.0027 23.1907 15.016C22.5493 15.0425 21.9032 15.0566 21.2642 15.0097C20.7814 14.9738 20.5993 14.4558 20.8946 14.0308C21.2564 13.5105 21.6407 13.0066 22.011 12.4925C22.1071 12.3589 22.1939 12.2168 22.2735 12.0714C22.3751 11.8855 22.429 11.6855 22.1775 11.5824C21.9509 11.4894 21.8478 11.6418 21.772 11.8371C21.6376 12.1808 21.34 12.3308 21.0306 12.2277C20.7126 12.1214 20.5681 11.805 20.672 11.4425C20.9009 10.648 21.7306 10.2011 22.5181 10.4496C23.2946 10.6941 23.7235 11.5222 23.44 12.2949C23.3275 12.6011 23.1415 12.8832 22.9696 13.1644C22.8306 13.3933 22.6626 13.6058 22.4712 13.8777L22.4704 13.8761Z" fill="#252525"/>
<path d="M16.5832 20.7896C16.5832 21.1114 16.3043 21.3857 15.9863 21.3771C15.6777 21.3685 15.4168 21.1005 15.416 20.7919C15.4152 20.4638 15.6801 20.2068 16.0129 20.213C16.3324 20.2193 16.5832 20.4724 16.5832 20.7896Z" fill="#252525"/>
</g>
<defs>
<clipPath id="clip0_2111_11010">
<rect width="32" height="22" fill="white"/>
</clipPath>
</defs>
</svg>
