<svg width="24" height="20" viewBox="0 0 24 20" fill="none" xmlns="http://www.w3.org/2000/svg">
<path d="M4.5 17.5V20H0.75V8.75L3.8125 0H20.1875L23.25 8.75V20H19.5V17.5H4.5ZM4.25 6.25H19.75L18.4375 2.5H5.5625L4.25 6.25ZM6.375 13.75C6.89583 13.75 7.33875 13.5675 7.70375 13.2025C8.06875 12.8375 8.25083 12.395 8.25 11.875C8.25 11.3542 8.0675 10.9113 7.7025 10.5463C7.3375 10.1813 6.895 9.99917 6.375 10C5.85417 10 5.41125 10.1825 5.04625 10.5475C4.68125 10.9125 4.49917 11.355 4.5 11.875C4.5 12.3958 4.6825 12.8387 5.0475 13.2037C5.4125 13.5687 5.855 13.7508 6.375 13.75ZM17.625 13.75C18.1458 13.75 18.5887 13.5675 18.9538 13.2025C19.3188 12.8375 19.5008 12.395 19.5 11.875C19.5 11.3542 19.3175 10.9113 18.9525 10.5463C18.5875 10.1813 18.145 9.99917 17.625 10C17.1042 10 16.6613 10.1825 16.2963 10.5475C15.9313 10.9125 15.7492 11.355 15.75 11.875C15.75 12.3958 15.9325 12.8387 16.2975 13.2037C16.6625 13.5687 17.105 13.7508 17.625 13.75ZM3.25 15H20.75V8.75H3.25V15Z" fill="#252525"/>
</svg>
