<svg width="30" height="30" viewBox="0 0 30 30" fill="none" xmlns="http://www.w3.org/2000/svg">
<path d="M3.75 27.5H18.75M5 11.25H17.5M17.5 27.5V5C17.5 4.33696 17.2366 3.70107 16.7678 3.23223C16.2989 2.76339 15.663 2.5 15 2.5H7.5C6.83696 2.5 6.20107 2.76339 5.73223 3.23223C5.26339 3.70107 5 4.33696 5 5V27.5M17.5 16.25H20C20.663 16.25 21.2989 16.5134 21.7678 16.9822C22.2366 17.4511 22.5 18.087 22.5 18.75V21.25C22.5 21.913 22.7634 22.5489 23.2322 23.0178C23.7011 23.4866 24.337 23.75 25 23.75C25.663 23.75 26.2989 23.4866 26.7678 23.0178C27.2366 22.5489 27.5 21.913 27.5 21.25V12.2875C27.5003 11.9576 27.4352 11.6309 27.3087 11.3263C27.1821 11.0216 26.9965 10.7451 26.7625 10.5125L22.5 6.25" stroke="#252525" stroke-width="3" stroke-linecap="round" stroke-linejoin="round"/>
</svg>
