<svg width="29" height="29" viewBox="0 0 29 29" fill="none" xmlns="http://www.w3.org/2000/svg">
<path fill-rule="evenodd" clip-rule="evenodd" d="M4.18416 5.45813C4.1839 5.5515 4.15749 5.64294 4.10793 5.72208C4.05837 5.80121 3.98764 5.86489 3.90375 5.9059C3.81986 5.94691 3.72616 5.96361 3.63327 5.9541C3.54038 5.9446 3.45201 5.90927 3.37816 5.85213L0.192162 3.37413C0.132309 3.32736 0.0838972 3.26758 0.050601 3.19931C0.0173049 3.13104 0 3.05608 0 2.98013C0 2.90417 0.0173049 2.82921 0.050601 2.76095C0.0838972 2.69268 0.132309 2.63289 0.192162 2.58613L3.37816 0.106127C3.45228 0.0487715 3.54102 0.0134 3.63427 0.00404715C3.72752 -0.00530568 3.82152 0.0117367 3.90555 0.0532304C3.98958 0.0947242 4.06026 0.158999 4.10952 0.238723C4.15878 0.318447 4.18465 0.410412 4.18416 0.504127V1.98413H16.1842V0.500127C16.1841 0.406404 16.2105 0.314561 16.2601 0.235076C16.3098 0.15559 16.3808 0.091662 16.465 0.050584C16.5493 0.00950595 16.6433 -0.00706797 16.7366 0.00275286C16.8298 0.0125737 16.9183 0.0483939 16.9922 0.106127L20.1762 2.58413C20.236 2.63089 20.2844 2.69068 20.3177 2.75895C20.351 2.82721 20.3683 2.90217 20.3683 2.97813C20.3683 3.05408 20.351 3.12904 20.3177 3.19731C20.2844 3.26558 20.236 3.32536 20.1762 3.37213L16.9922 5.85213C16.9182 5.90997 16.8294 5.94581 16.7361 5.95556C16.6427 5.9653 16.5484 5.94856 16.4641 5.90724C16.3798 5.86591 16.3088 5.80169 16.2593 5.72191C16.2098 5.64213 16.1838 5.55002 16.1842 5.45613V3.98013H4.18416V5.45813ZM17.1842 9.98013H3.18416C2.91895 9.98013 2.66459 10.0855 2.47706 10.273C2.28952 10.4606 2.18416 10.7149 2.18416 10.9801V24.9801C2.18416 25.2453 2.28952 25.4997 2.47706 25.6872C2.66459 25.8748 2.91895 25.9801 3.18416 25.9801H17.1842C17.4494 25.9801 17.7037 25.8748 17.8913 25.6872C18.0788 25.4997 18.1842 25.2453 18.1842 24.9801V10.9801C18.1842 10.7149 18.0788 10.4606 17.8913 10.273C17.7037 10.0855 17.4494 9.98013 17.1842 9.98013ZM3.18416 7.98013C2.38851 7.98013 1.62545 8.2962 1.06284 8.85881C0.500233 9.42142 0.184162 10.1845 0.184162 10.9801V24.9801C0.184162 25.7758 0.500233 26.5388 1.06284 27.1014C1.62545 27.6641 2.38851 27.9801 3.18416 27.9801H17.1842C17.9798 27.9801 18.7429 27.6641 19.3055 27.1014C19.8681 26.5388 20.1842 25.7758 20.1842 24.9801V10.9801C20.1842 10.1845 19.8681 9.42142 19.3055 8.85881C18.7429 8.2962 17.9798 7.98013 17.1842 7.98013H3.18416ZM27.6622 11.9801H26.1842V23.9801H27.6622C27.7555 23.9804 27.847 24.0068 27.9261 24.0564C28.0052 24.1059 28.0689 24.1767 28.1099 24.2605C28.1509 24.3444 28.1676 24.4381 28.1581 24.531C28.1486 24.6239 28.1133 24.7123 28.0562 24.7861L25.5782 27.9721C25.5314 28.032 25.4716 28.0804 25.4033 28.1137C25.3351 28.147 25.2601 28.1643 25.1842 28.1643C25.1082 28.1643 25.0332 28.147 24.965 28.1137C24.8967 28.0804 24.8369 28.032 24.7902 27.9721L22.3102 24.7861C22.2529 24.7121 22.2176 24.6236 22.2081 24.5305C22.1987 24.4375 22.2156 24.3436 22.2568 24.2596C22.2981 24.1757 22.3621 24.105 22.4415 24.0556C22.5209 24.0062 22.6126 23.98 22.7062 23.9801H24.1842V11.9801H22.7062C22.6128 11.9799 22.5214 11.9535 22.4422 11.9039C22.3631 11.8543 22.2994 11.7836 22.2584 11.6997C22.2174 11.6158 22.2007 11.5221 22.2102 11.4292C22.2197 11.3363 22.255 11.248 22.3122 11.1741L24.7902 7.98813C24.8369 7.92827 24.8967 7.87986 24.965 7.84657C25.0332 7.81327 25.1082 7.79596 25.1842 7.79596C25.2601 7.79596 25.3351 7.81327 25.4033 7.84657C25.4716 7.87986 25.5314 7.92827 25.5782 7.98813L28.0582 11.1741C28.1154 11.2481 28.1508 11.3367 28.1602 11.4297C28.1696 11.5228 28.1527 11.6167 28.1115 11.7006C28.0702 11.7846 28.0063 11.8553 27.9268 11.9047C27.8474 11.9541 27.7557 11.9802 27.6622 11.9801Z" fill="#252525"/>
</svg>
