<svg width="30" height="31" viewBox="0 0 30 31" fill="none" xmlns="http://www.w3.org/2000/svg">
<path d="M18.0539 15.1508C17.8931 15.0972 14.1431 14.3472 12.0539 16.2758C10.2324 17.9365 10.0717 21.0972 10.0717 22.0079L9.26814 22.7043C9.16099 22.8115 9.10742 22.9722 9.10742 23.0793C9.10742 23.1865 9.16099 23.3472 9.26814 23.4543C9.37528 23.5615 9.53599 23.615 9.64314 23.615C9.75028 23.615 9.91099 23.5615 10.0181 23.4543L10.8217 22.7579C11.0896 22.8115 11.5717 22.8115 12.161 22.8115C13.5539 22.8115 15.5896 22.5972 16.8753 21.365C18.9646 19.4365 18.536 15.6329 18.536 15.4722C18.4824 15.365 18.2681 15.2043 18.0539 15.1508ZM16.1253 20.6686C15.0539 21.6865 13.1253 21.8472 11.8931 21.7936L14.6253 19.3293C14.7324 19.2222 14.786 19.0615 14.786 18.9543C14.786 18.8472 14.7324 18.6865 14.6253 18.5793C14.411 18.365 14.0896 18.365 13.8753 18.5258L11.1431 20.99C11.2503 19.8115 11.6788 18.0436 12.7503 17.0793C14.0896 15.8472 16.5003 16.0079 17.411 16.115C17.5181 17.0793 17.4646 19.4365 16.1253 20.6686Z" fill="#252525" stroke="#252525"/>
<path d="M18.7504 4.81152H8.62542C7.87542 4.81152 7.28613 5.40081 7.28613 6.15081V10.1687C7.28613 10.9187 7.87542 11.508 8.62542 11.508H18.7504C19.5004 11.508 20.0897 10.9187 20.0897 10.1687V6.15081C20.0897 5.40081 19.5004 4.81152 18.7504 4.81152ZM19.0183 10.1687C19.0183 10.3294 18.9111 10.4365 18.7504 10.4365H8.62542C8.4647 10.4365 8.35756 10.3294 8.35756 10.1687V6.15081C8.35756 5.99009 8.4647 5.88295 8.62542 5.88295H18.7504C18.9111 5.88295 19.0183 5.99009 19.0183 6.15081V10.1687Z" fill="#252525" stroke="#252525"/>
<path d="M25.0718 7.11468L24.1611 6.20396C23.9468 5.98968 23.6254 5.98968 23.4111 6.20396C23.1968 6.41825 23.1968 6.73968 23.4111 6.95396L24.1611 7.70396V10.9718L26.5183 12.579V20.7754C26.5183 21.0968 26.2504 21.3647 25.929 21.3647C25.6076 21.3647 25.3397 21.0968 25.3397 20.7754V15.4718C25.3397 14.8825 24.8576 14.4004 24.2683 14.4004H23.2504V4.22182C23.2504 3.04325 22.2861 2.02539 21.054 2.02539H6.37542C5.19685 2.02539 4.17899 2.98968 4.17899 4.22182V24.0968C4.17899 24.5254 4.28613 24.9004 4.50042 25.2218H3.69685C3.00042 25.2218 2.41113 25.8111 2.41113 26.5075V27.579C2.41113 28.2754 3.00042 28.8647 3.69685 28.8647H23.7326C24.429 28.8647 25.0183 28.2754 25.0183 27.579V26.5075C25.0183 25.8111 24.429 25.2218 23.7326 25.2218H22.8754C23.0897 24.9004 23.1968 24.5254 23.1968 24.0968V15.4718H24.2147V20.7754C24.2147 21.6861 24.9647 22.4361 25.8754 22.4361C26.7861 22.4361 27.5361 21.6861 27.5361 20.7754V9.63253L25.0718 7.11468ZM23.9468 26.454V27.5254C23.9468 27.6325 23.8397 27.7397 23.7326 27.7397H3.69685C3.5897 27.7397 3.48256 27.6325 3.48256 27.5254V26.454C3.48256 26.3468 3.5897 26.2397 3.69685 26.2397H6.37542H21.0004H23.679C23.8397 26.2397 23.9468 26.3468 23.9468 26.454ZM6.37542 25.1682C5.78613 25.1682 5.25042 24.6861 5.25042 24.0432V4.22182C5.25042 3.63253 5.73256 3.09682 6.37542 3.09682H21.0004C21.5897 3.09682 22.1254 3.57896 22.1254 4.22182V24.0968C22.1254 24.6861 21.6433 25.2218 21.0004 25.2218H6.37542V25.1682ZM25.2326 10.4361V8.82896L26.5183 10.1147V11.3468L25.2326 10.4361Z" fill="#252525" stroke="#252525" stroke-width="0.5"/>
</svg>
