<svg width="146" height="37" viewBox="0 0 146 37" fill="none" xmlns="http://www.w3.org/2000/svg">
<rect width="145.161" height="36.2903" rx="6" fill="#00B57A"/>
<path d="M45.868 21.4863H47.4937V22.8615H48.596V24.0863H47.4937V26.9423C47.4937 27.3988 47.7164 27.616 48.1952 27.616C48.3399 27.616 48.4902 27.6048 48.5904 27.5881V28.7851C48.4234 28.8241 48.1451 28.8519 47.8166 28.8519C46.4136 28.8519 45.868 28.3843 45.868 27.2207V24.0863H45.0273V22.8615H45.868V21.4863Z" fill="white"/>
<path d="M41.4921 27.7486C42.1992 27.7486 42.7837 27.2865 42.7837 26.6407V26.2064L41.5255 26.2844C40.9187 26.3289 40.5735 26.6017 40.5735 27.0248C40.5735 27.4702 40.941 27.7486 41.4921 27.7486ZM40.9577 28.9233C39.8219 28.9233 38.959 28.1884 38.959 27.1139C38.959 26.0283 39.7941 25.3992 41.2806 25.3101L42.7837 25.221V24.8257C42.7837 24.269 42.394 23.9461 41.7816 23.9461C41.1748 23.9461 40.7906 24.2467 40.7127 24.6866H39.2262C39.2875 23.5286 40.2729 22.7324 41.854 22.7324C43.385 22.7324 44.3816 23.523 44.3816 24.7255V28.8287H42.8116V27.9156H42.7782C42.4441 28.5503 41.7037 28.9233 40.9577 28.9233Z" fill="white"/>
<path d="M29.3438 28.8295V22.8613H30.9137V23.9414H30.9471C31.1977 23.2232 31.8379 22.75 32.6507 22.75C33.5137 22.75 34.115 23.1954 34.3154 23.9748H34.3488C34.616 23.2232 35.3286 22.75 36.2027 22.75C37.3719 22.75 38.1568 23.5517 38.1568 24.7542V28.8295H36.5312V25.1607C36.5312 24.4703 36.186 24.0917 35.5569 24.0917C34.9389 24.0917 34.5325 24.5427 34.5325 25.2052V28.8295H32.9681V25.1106C32.9681 24.4703 32.6062 24.0917 32.0049 24.0917C31.387 24.0917 30.9694 24.5594 30.9694 25.2275V28.8295H29.3438Z" fill="white"/>
<path d="M25.1895 28.8285V22.8603H26.7594V23.9348H26.7928C27.0044 23.1776 27.511 22.7656 28.2125 22.7656C28.4018 22.7656 28.5633 22.7935 28.6746 22.8269V24.2577C28.541 24.202 28.3183 24.163 28.0845 24.163C27.2828 24.163 26.8151 24.653 26.8151 25.4936V28.8285H25.1895Z" fill="white"/>
<path d="M21.3938 28.9567C19.5899 28.9567 18.4375 27.7987 18.4375 25.839C18.4375 23.9071 19.6066 22.7324 21.3938 22.7324C23.1809 22.7324 24.35 23.9016 24.35 25.839C24.35 27.8043 23.1976 28.9567 21.3938 28.9567ZM21.3938 27.7152C22.1899 27.7152 22.6965 27.0415 22.6965 25.8446C22.6965 24.6587 22.1843 23.9739 21.3938 23.9739C20.6032 23.9739 20.0854 24.6587 20.0854 25.8446C20.0854 27.0415 20.5921 27.7152 21.3938 27.7152Z" fill="white"/>
<path d="M14.3845 28.8286H12.7031V20.7949H17.9643V22.1812H14.3845V24.3357H17.6525V25.6663H14.3845V28.8286Z" fill="white"/>
<path d="M44.0418 7.94727H45.6675V9.3224H46.7698V10.5472H45.6675V13.4033C45.6675 13.8598 45.8902 14.0769 46.369 14.0769C46.5137 14.0769 46.6641 14.0658 46.7643 14.0491V15.246C46.5972 15.285 46.3189 15.3129 45.9904 15.3129C44.5874 15.3129 44.0418 14.8452 44.0418 13.6816V10.5472H43.2012V9.3224H44.0418V7.94727Z" fill="white"/>
<path d="M39.4551 15.2894V9.32121H41.0251V10.3957H41.0585C41.27 9.63855 41.7767 9.22656 42.4781 9.22656C42.6674 9.22656 42.8289 9.2544 42.9402 9.2878V10.7186C42.8066 10.6629 42.5839 10.624 42.3501 10.624C41.5484 10.624 41.0807 11.1139 41.0807 11.9546V15.2894H39.4551Z" fill="white"/>
<path d="M35.6574 15.4176C33.8536 15.4176 32.7012 14.2596 32.7012 12.2999C32.7012 10.3681 33.8703 9.19336 35.6574 9.19336C37.4445 9.19336 38.6137 10.3625 38.6137 12.2999C38.6137 14.2652 37.4612 15.4176 35.6574 15.4176ZM35.6574 14.1761C36.4536 14.1761 36.9602 13.5025 36.9602 12.3055C36.9602 11.1197 36.448 10.4349 35.6574 10.4349C34.8669 10.4349 34.3491 11.1197 34.3491 12.3055C34.3491 13.5025 34.8557 14.1761 35.6574 14.1761Z" fill="white"/>
<path d="M29.6336 9.22656C31.1479 9.22656 32.0777 10.379 32.0777 12.3053C32.0777 14.226 31.1535 15.384 29.6614 15.384C28.7929 15.384 28.1248 14.9609 27.8075 14.2873H27.7741V17.238H26.1484V9.32121H27.7518V10.3623H27.7852C28.1081 9.66081 28.7707 9.22656 29.6336 9.22656ZM29.088 14.0757C29.9008 14.0757 30.413 13.3909 30.413 12.3053C30.413 11.2252 29.9008 10.5293 29.088 10.5293C28.2919 10.5293 27.7685 11.2364 27.7685 12.3053C27.7685 13.3854 28.2919 14.0757 29.088 14.0757Z" fill="white"/>
<path d="M22.4907 10.3959C21.7781 10.3959 21.2659 10.9359 21.2102 11.682H23.7434C23.71 10.9192 23.2145 10.3959 22.4907 10.3959ZM23.7656 13.4635H25.2577C25.0795 14.6326 24.0106 15.4176 22.5353 15.4176C20.698 15.4176 19.5957 14.2429 19.5957 12.3333C19.5957 10.4293 20.7092 9.19336 22.474 9.19336C24.211 9.19336 25.3078 10.3681 25.3078 12.183V12.6785H21.1935V12.7787C21.1935 13.6305 21.7336 14.2151 22.5631 14.2151C23.1588 14.2151 23.6153 13.92 23.7656 13.4635Z" fill="white"/>
<path d="M14.3845 8.56975V11.1307H15.832C16.6782 11.1307 17.1737 10.6464 17.1737 9.85024C17.1737 9.07081 16.6504 8.56975 15.8153 8.56975H14.3845ZM14.3845 12.35V15.2895H12.7031V7.25586H15.9934C17.8418 7.25586 18.8996 8.23014 18.8996 9.81684C18.8996 10.8468 18.3651 11.7376 17.4409 12.0994L19.1334 15.2895H17.2294L15.7318 12.35H14.3845Z" fill="white"/>
<line x1="58.5664" y1="7.25781" x2="58.5664" y2="29.349" stroke="white"/>
<path d="M124.226 14.011C123.007 14.011 122.238 13.0465 122.238 11.4862C122.238 9.93943 123.012 8.97955 124.235 8.97955C124.94 8.97955 125.486 9.35259 125.723 9.89394H125.75V7.36914H127.079V13.9336H125.768V13.0966H125.746C125.509 13.6334 124.945 14.011 124.226 14.011ZM124.677 10.0441C124.008 10.0441 123.598 10.6036 123.598 11.4953C123.598 12.3914 124.008 12.9419 124.677 12.9419C125.336 12.9419 125.759 12.3869 125.759 11.4953C125.759 10.6082 125.336 10.0441 124.677 10.0441Z" fill="white"/>
<path d="M119.186 13.9345V9.0578H120.468V9.9358H120.496C120.669 9.31711 121.083 8.98047 121.656 8.98047C121.81 8.98047 121.942 9.00321 122.033 9.03051V10.1997C121.924 10.1542 121.742 10.1223 121.551 10.1223C120.896 10.1223 120.514 10.5226 120.514 11.2096V13.9345H119.186Z" fill="white"/>
<path d="M115.964 13.0519C116.542 13.0519 117.02 12.6744 117.02 12.1467V11.7918L115.992 11.8555C115.496 11.8919 115.214 12.1148 115.214 12.4605C115.214 12.8245 115.514 13.0519 115.964 13.0519ZM115.528 14.0118C114.6 14.0118 113.895 13.4113 113.895 12.5333C113.895 11.6462 114.577 11.1322 115.792 11.0594L117.02 10.9866V10.6636C117.02 10.2087 116.701 9.94485 116.201 9.94485C115.705 9.94485 115.391 10.1905 115.328 10.5499H114.113C114.163 9.60366 114.968 8.95312 116.26 8.95312C117.511 8.95312 118.325 9.59911 118.325 10.5817V13.9345H117.043V13.1884H117.015C116.742 13.707 116.137 14.0118 115.528 14.0118Z" fill="white"/>
<path d="M110.342 14.011C109.122 14.011 108.354 13.0465 108.354 11.4862C108.354 9.93943 109.127 8.97955 110.351 8.97955C111.056 8.97955 111.602 9.35259 111.838 9.89394H111.865V7.36914H113.194V13.9336H111.884V13.0966H111.861C111.624 13.6334 111.06 14.011 110.342 14.011ZM110.792 10.0441C110.123 10.0441 109.714 10.6036 109.714 11.4953C109.714 12.3914 110.123 12.9419 110.792 12.9419C111.452 12.9419 111.875 12.3869 111.875 11.4953C111.875 10.6082 111.452 10.0441 110.792 10.0441Z" fill="white"/>
<path d="M103.162 13.9345V9.05778H104.445V9.92668H104.472C104.732 9.32163 105.246 8.9668 105.996 8.9668C107.079 8.9668 107.689 9.64917 107.689 10.791V13.9345H106.36V11.0685C106.36 10.4316 106.06 10.0677 105.464 10.0677C104.868 10.0677 104.49 10.5044 104.49 11.1368V13.9345H103.162Z" fill="white"/>
<path d="M99.9429 13.0519C100.521 13.0519 100.998 12.6744 100.998 12.1467V11.7918L99.9702 11.8555C99.4744 11.8919 99.1923 12.1148 99.1923 12.4605C99.1923 12.8245 99.4926 13.0519 99.9429 13.0519ZM99.5062 14.0118C98.5782 14.0118 97.873 13.4113 97.873 12.5333C97.873 11.6462 98.5554 11.1322 99.7701 11.0594L100.998 10.9866V10.6636C100.998 10.2087 100.68 9.94485 100.179 9.94485C99.6836 9.94485 99.3697 10.1905 99.306 10.5499H98.0914C98.1414 9.60366 98.9467 8.95312 100.239 8.95312C101.49 8.95312 102.304 9.59911 102.304 10.5817V13.9345H101.021V13.1884H100.994C100.721 13.707 100.116 14.0118 99.5062 14.0118Z" fill="white"/>
<path d="M95.1459 7.93359H96.4743V9.05724H97.375V10.0581H96.4743V12.3918C96.4743 12.7648 96.6562 12.9422 97.0475 12.9422C97.1658 12.9422 97.2886 12.9331 97.3705 12.9195V13.8976C97.234 13.9294 97.0065 13.9522 96.7381 13.9522C95.5917 13.9522 95.1459 13.57 95.1459 12.6193V10.0581H94.459V9.05724H95.1459V7.93359Z" fill="white"/>
<path d="M88.7734 12.0643H90.0973C90.1609 12.6057 90.725 12.9605 91.4529 12.9605C92.1853 12.9605 92.6857 12.6103 92.6857 12.128C92.6857 11.7004 92.3718 11.4639 91.5803 11.2864L90.725 11.0999C89.515 10.8406 88.919 10.2265 88.919 9.2666C88.919 8.05652 89.9653 7.25586 91.4302 7.25586C92.9587 7.25586 93.9186 8.04287 93.9413 9.23021H92.6539C92.6084 8.67521 92.1216 8.33857 91.4347 8.33857C90.7569 8.33857 90.302 8.66156 90.302 9.14832C90.302 9.5532 90.6204 9.78066 91.3756 9.95353L92.1717 10.1218C93.4864 10.4039 94.0596 10.968 94.0596 11.9688C94.0596 13.2426 93.0269 14.0478 91.3983 14.0478C89.8198 14.0478 88.8144 13.2972 88.7734 12.0643Z" fill="white"/>
<path d="M104.273 25.1465H105.032V25.7886H105.547V26.3605H105.032V27.694C105.032 27.9072 105.136 28.0086 105.36 28.0086C105.428 28.0086 105.498 28.0034 105.545 27.9956V28.5545C105.467 28.5727 105.337 28.5857 105.183 28.5857C104.528 28.5857 104.273 28.3673 104.273 27.824V26.3605H103.881V25.7886H104.273V25.1465Z" fill="white"/>
<path d="M102.228 28.0687C102.558 28.0687 102.831 27.853 102.831 27.5514V27.3487L102.243 27.3851C101.96 27.4059 101.799 27.5332 101.799 27.7308C101.799 27.9388 101.97 28.0687 102.228 28.0687ZM101.978 28.6172C101.448 28.6172 101.045 28.2741 101.045 27.7724C101.045 27.2655 101.435 26.9717 102.129 26.9301L102.831 26.8886V26.704C102.831 26.444 102.649 26.2933 102.363 26.2933C102.08 26.2933 101.9 26.4336 101.864 26.639H101.17C101.198 26.0983 101.658 25.7266 102.397 25.7266C103.112 25.7266 103.577 26.0957 103.577 26.6572V28.5731H102.844V28.1467H102.828C102.672 28.4431 102.326 28.6172 101.978 28.6172Z" fill="white"/>
<path d="M96.5566 28.575V25.7883H97.2897V26.2926H97.3053C97.4223 25.9573 97.7212 25.7363 98.1008 25.7363C98.5037 25.7363 98.7844 25.9443 98.878 26.3082H98.8936C99.0184 25.9573 99.3511 25.7363 99.7593 25.7363C100.305 25.7363 100.672 26.1107 100.672 26.6722V28.575H99.9126V26.8619C99.9126 26.5396 99.7515 26.3628 99.4577 26.3628C99.1692 26.3628 98.9794 26.5734 98.9794 26.8827V28.575H98.2489V26.8385C98.2489 26.5396 98.08 26.3628 97.7992 26.3628C97.5107 26.3628 97.3157 26.5812 97.3157 26.8931V28.575H96.5566Z" fill="white"/>
<path d="M94.6172 28.575V25.7883H95.3503V26.29H95.3659C95.4646 25.9365 95.7012 25.7441 96.0287 25.7441C96.1171 25.7441 96.1925 25.7571 96.2445 25.7727V26.4408C96.1821 26.4148 96.0781 26.3966 95.9689 26.3966C95.5946 26.3966 95.3763 26.6254 95.3763 27.0179V28.575H94.6172Z" fill="white"/>
<path d="M92.8452 28.6328C92.0029 28.6328 91.4648 28.0921 91.4648 27.1771C91.4648 26.2751 92.0107 25.7266 92.8452 25.7266C93.6796 25.7266 94.2256 26.2725 94.2256 27.1771C94.2256 28.0947 93.6874 28.6328 92.8452 28.6328ZM92.8452 28.0531C93.2169 28.0531 93.4535 27.7386 93.4535 27.1797C93.4535 26.626 93.2143 26.3063 92.8452 26.3063C92.4761 26.3063 92.2343 26.626 92.2343 27.1797C92.2343 27.7386 92.4709 28.0531 92.8452 28.0531Z" fill="white"/>
<path d="M89.5722 28.5753H88.7871V24.8242H91.2437V25.4715H89.5722V26.4775H91.0981V27.0988H89.5722V28.5753Z" fill="white"/>
<path d="M131.812 18.4902H132.572V19.1323H133.086V19.7042H132.572V21.0378C132.572 21.2509 132.675 21.3523 132.899 21.3523C132.967 21.3523 133.037 21.3471 133.084 21.3393V21.8982C133.006 21.9164 132.876 21.9294 132.722 21.9294C132.067 21.9294 131.812 21.7111 131.812 21.1678V19.7042H131.42V19.1323H131.812V18.4902Z" fill="white"/>
<path d="M128.541 21.9188V19.1321H129.274V19.6286H129.29C129.438 19.2828 129.732 19.0801 130.161 19.0801C130.779 19.0801 131.128 19.47 131.128 20.1225V21.9188H130.368V20.2811C130.368 19.9171 130.197 19.7092 129.856 19.7092C129.516 19.7092 129.3 19.9587 129.3 20.3201V21.9188H128.541Z" fill="white"/>
<path d="M126.832 19.6357C126.499 19.6357 126.26 19.8879 126.234 20.2362H127.417C127.402 19.8801 127.17 19.6357 126.832 19.6357ZM127.428 21.0681H128.124C128.041 21.614 127.542 21.9805 126.853 21.9805C125.995 21.9805 125.48 21.432 125.48 20.5404C125.48 19.6513 126 19.0742 126.824 19.0742C127.635 19.0742 128.148 19.6227 128.148 20.4702V20.7015H126.227V20.7483C126.227 21.146 126.479 21.419 126.866 21.419C127.144 21.419 127.357 21.2812 127.428 21.0681Z" fill="white"/>
<path d="M120.988 21.9188V19.1321H121.721V19.6364H121.737C121.854 19.301 122.153 19.0801 122.532 19.0801C122.935 19.0801 123.216 19.288 123.31 19.652H123.325C123.45 19.301 123.783 19.0801 124.191 19.0801C124.737 19.0801 125.103 19.4544 125.103 20.0159V21.9188H124.344V20.2057C124.344 19.8833 124.183 19.7066 123.889 19.7066C123.601 19.7066 123.411 19.9171 123.411 20.2265V21.9188H122.681V20.1823C122.681 19.8833 122.512 19.7066 122.231 19.7066C121.942 19.7066 121.747 19.9249 121.747 20.2369V21.9188H120.988Z" fill="white"/>
<path d="M120.493 19.1328V21.9195H119.76V21.4178H119.744C119.606 21.7687 119.331 21.9715 118.91 21.9715C118.307 21.9715 117.906 21.579 117.906 20.9291V19.1328H118.665V20.7705C118.665 21.1423 118.85 21.3398 119.185 21.3398C119.523 21.3398 119.734 21.0981 119.734 20.7289V19.1328H120.493Z" fill="white"/>
<path d="M117.549 20.1712H116.845C116.801 19.8775 116.606 19.6695 116.294 19.6695C115.919 19.6695 115.685 19.9867 115.685 20.5248C115.685 21.0733 115.919 21.3852 116.296 21.3852C116.601 21.3852 116.798 21.2032 116.845 20.8991H117.552C117.513 21.5568 117.022 21.9805 116.289 21.9805C115.449 21.9805 114.916 21.4346 114.916 20.5248C114.916 19.6305 115.449 19.0742 116.283 19.0742C117.037 19.0742 117.516 19.5395 117.549 20.1712Z" fill="white"/>
<path d="M113.246 21.9805C112.403 21.9805 111.865 21.4398 111.865 20.5248C111.865 19.6227 112.411 19.0742 113.246 19.0742C114.08 19.0742 114.626 19.6201 114.626 20.5248C114.626 21.4424 114.088 21.9805 113.246 21.9805ZM113.246 21.4008C113.617 21.4008 113.854 21.0863 113.854 20.5274C113.854 19.9737 113.615 19.6539 113.246 19.6539C112.876 19.6539 112.635 19.9737 112.635 20.5274C112.635 21.0863 112.871 21.4008 113.246 21.4008Z" fill="white"/>
<path d="M108.305 18.168H109.737C110.863 18.168 111.526 18.8386 111.526 20.0292C111.526 21.2198 110.863 21.9191 109.737 21.9191H108.305V18.168ZM109.09 18.8153V21.2692H109.643C110.345 21.2692 110.725 20.8429 110.725 20.0318C110.725 19.2468 110.335 18.8153 109.643 18.8153H109.09Z" fill="white"/>
<path d="M105.475 19.6357C105.142 19.6357 104.903 19.8879 104.877 20.2362H106.06C106.044 19.8801 105.813 19.6357 105.475 19.6357ZM106.07 21.0681H106.767C106.684 21.614 106.184 21.9805 105.496 21.9805C104.638 21.9805 104.123 21.432 104.123 20.5404C104.123 19.6513 104.643 19.0742 105.467 19.0742C106.278 19.0742 106.79 19.6227 106.79 20.4702V20.7015H104.869V20.7483C104.869 21.146 105.121 21.419 105.509 21.419C105.787 21.419 106 21.2812 106.07 21.0681Z" fill="white"/>
<path d="M102.955 21.9191V18.168H103.714V21.9191H102.955Z" fill="white"/>
<path d="M101.411 21.9633C101.003 21.9633 100.691 21.7657 100.538 21.4408H100.522V21.9191H99.7734V18.168H100.533V19.6159H100.548C100.701 19.2858 101.011 19.0882 101.409 19.0882C102.11 19.0882 102.542 19.6263 102.542 20.5257C102.542 21.4226 102.113 21.9633 101.411 21.9633ZM101.149 19.6965C100.782 19.6965 100.53 20.0266 100.53 20.5257C100.53 21.0301 100.779 21.3524 101.149 21.3524C101.528 21.3524 101.765 21.0353 101.765 20.5257C101.765 20.0188 101.526 19.6965 101.149 19.6965Z" fill="white"/>
<path d="M97.9133 21.4164C98.2434 21.4164 98.5163 21.2006 98.5163 20.8991V20.6963L97.9289 20.7327C97.6455 20.7535 97.4843 20.8809 97.4843 21.0785C97.4843 21.2864 97.6559 21.4164 97.9133 21.4164ZM97.6637 21.9649C97.1334 21.9649 96.7305 21.6218 96.7305 21.1201C96.7305 20.6131 97.1204 20.3194 97.8145 20.2778L98.5163 20.2362V20.0516C98.5163 19.7917 98.3344 19.6409 98.0484 19.6409C97.7651 19.6409 97.5857 19.7813 97.5493 19.9867H96.8552C96.8838 19.446 97.344 19.0742 98.0822 19.0742C98.7971 19.0742 99.2624 19.4434 99.2624 20.0049V21.9207H98.5293V21.4944H98.5137C98.3578 21.7907 98.012 21.9649 97.6637 21.9649Z" fill="white"/>
<path d="M95.1738 18.4902H95.9328V19.1323H96.4476V19.7042H95.9328V21.0378C95.9328 21.2509 96.0368 21.3523 96.2604 21.3523C96.328 21.3523 96.3982 21.3471 96.445 21.3393V21.8982C96.367 21.9164 96.237 21.9294 96.0836 21.9294C95.4285 21.9294 95.1738 21.7111 95.1738 21.1678V19.7042H94.7812V19.1323H95.1738V18.4902Z" fill="white"/>
<path d="M93.1968 21.9805C92.3545 21.9805 91.8164 21.4398 91.8164 20.5248C91.8164 19.6227 92.3623 19.0742 93.1968 19.0742C94.0312 19.0742 94.5771 19.6201 94.5771 20.5248C94.5771 21.4424 94.039 21.9805 93.1968 21.9805ZM93.1968 21.4008C93.5685 21.4008 93.8051 21.0863 93.8051 20.5274C93.8051 19.9737 93.5659 19.6539 93.1968 19.6539C92.8276 19.6539 92.5859 19.9737 92.5859 20.5274C92.5859 21.0863 92.8224 21.4008 93.1968 21.4008Z" fill="white"/>
<path d="M88.7871 18.168H90.313C91.0825 18.168 91.6128 18.6801 91.6128 19.4521C91.6128 20.2216 91.0643 20.7363 90.274 20.7363H89.5722V21.9191H88.7871V18.168ZM89.5722 18.7893V20.1228H90.1025C90.5522 20.1228 90.8147 19.8837 90.8147 19.4547C90.8147 19.0284 90.5548 18.7893 90.1051 18.7893H89.5722Z" fill="white"/>
<g clip-path="url(#clip0_2358_51281)">
<path d="M76.2151 21.7124C75.8644 21.6913 75.0214 21.7413 74.177 21.9017C73.6886 21.4074 73.2657 20.7846 72.9519 20.271C73.9573 17.3802 73.3206 16.5586 72.4635 16.5586C71.7905 16.5586 71.4544 17.2689 71.5292 18.0536C71.5671 18.4487 71.9016 19.2787 72.3134 20.0672C72.0608 20.7316 71.6099 21.8546 71.1624 22.6672C70.6386 22.8264 70.1893 23.0033 69.8669 23.1525C68.2608 23.8994 68.1317 24.8967 68.4659 25.3193C69.1005 26.1221 70.4525 25.4295 71.8091 23.0033C72.7379 22.7392 73.9598 22.3873 74.07 22.3873C74.0827 22.3873 74.1001 22.3914 74.1202 22.3979C74.7973 22.9949 75.597 23.6785 76.2551 23.7685C77.2074 23.8994 77.7496 23.2087 77.712 22.7792C77.6747 22.3495 77.4237 21.785 76.2151 21.7124ZM70.203 24.3295C69.8105 24.7962 69.1756 25.2439 68.9515 25.095C68.7272 24.9458 68.6899 24.5163 69.1945 24.0304C69.6987 23.545 70.5428 23.2931 70.6697 23.2459C70.8196 23.1901 70.8568 23.2459 70.8568 23.3207C70.8568 23.3955 70.5952 23.8622 70.203 24.3295ZM71.9217 18.0533C71.8842 17.586 71.9773 17.1379 72.3698 17.0821C72.7617 17.0256 72.9489 17.474 72.7995 18.2023C72.65 18.9315 72.5749 19.4165 72.5004 19.4733C72.4257 19.5292 72.3515 19.342 72.3515 19.342C72.2016 19.0429 71.959 18.52 71.9217 18.0533ZM72.0713 22.4428C72.2764 22.1061 72.7996 20.7433 72.7996 20.7433C72.9116 20.949 73.7891 21.9941 73.7891 21.9941C73.7891 21.9941 72.4443 22.2936 72.0713 22.4428ZM76.1421 23.0399C75.582 22.966 74.6297 22.2926 74.6297 22.2926C74.4991 22.2368 75.6733 22.0773 76.1242 22.1062C76.7035 22.1437 76.9089 22.3867 76.9089 22.6294C76.9089 22.8723 76.7035 23.1147 76.1421 23.0399Z" fill="white"/>
<path d="M80.9583 11.7512L76.8521 7.64468L76.4632 7.25586H75.9128H67.5386C65.5614 7.25586 63.9528 8.86476 63.9528 10.8427V11.117H63.4219V15.4066H63.9528V25.048C63.9528 27.0256 65.5614 28.6345 67.5387 28.6345H77.7606C79.7385 28.6345 81.3471 27.0256 81.3471 25.048V12.6905V12.1403L80.9583 11.7512ZM77.7606 27.3063H67.5386C66.2912 27.3063 65.2803 26.2954 65.2803 25.048V15.4066H71.8488V11.1169H65.2803V10.8426C65.2803 9.59489 66.2912 8.58359 67.5386 8.58359H75.595V11.1262C75.595 12.1654 76.4381 13.0079 77.4773 13.0079H80.0196V25.0479C80.0196 26.2954 79.0083 27.3063 77.7606 27.3063ZM65.3734 14.1908V12.2052C65.3734 12.1701 65.4019 12.1415 65.437 12.1415H66.0678C66.1718 12.1415 66.2677 12.1586 66.3533 12.1921C66.438 12.2253 66.5125 12.2719 66.5746 12.3309C66.6373 12.3901 66.6854 12.4621 66.7179 12.5447C66.7505 12.6256 66.7673 12.7141 66.7673 12.8075C66.7673 12.9028 66.7505 12.9918 66.7176 13.0719C66.685 13.152 66.6369 13.223 66.5749 13.2829C66.5131 13.3425 66.4383 13.3893 66.3527 13.4219C66.2677 13.4545 66.1718 13.4709 66.0678 13.4709H65.8016V14.1908C65.8016 14.2259 65.7731 14.2544 65.738 14.2544H65.4371C65.4019 14.2544 65.3734 14.2259 65.3734 14.1908ZM67.319 14.1908V12.2052C67.319 12.1701 67.3475 12.1415 67.3826 12.1415H68.0798C68.2123 12.1415 68.329 12.1636 68.4274 12.207C68.527 12.2513 68.616 12.3218 68.6924 12.4162C68.7318 12.4658 68.7631 12.5207 68.7858 12.5797C68.8078 12.6371 68.8246 12.6992 68.8354 12.7637C68.846 12.8276 68.8522 12.8965 68.8543 12.9707C68.8562 13.0414 68.8571 13.1174 68.8571 13.1981C68.8571 13.2784 68.8562 13.3545 68.8543 13.4252C68.8522 13.4991 68.846 13.5683 68.8354 13.6325C68.8246 13.6971 68.8078 13.7588 68.7858 13.8162C68.7628 13.8758 68.7315 13.9307 68.6927 13.9794C68.6157 14.0747 68.5266 14.1451 68.4273 14.1889C68.3299 14.2323 68.2129 14.2543 68.0798 14.2543H67.3825C67.3475 14.2544 67.319 14.2259 67.319 14.1908ZM70.642 13.0173C70.6771 13.0173 70.7056 13.0458 70.7056 13.0809V13.3515C70.7056 13.3865 70.6771 13.4151 70.642 13.4151H69.8802V14.1909C69.8802 14.2259 69.8516 14.2545 69.8166 14.2545H69.5156C69.4805 14.2545 69.452 14.2259 69.452 14.1909V12.2053C69.452 12.1702 69.4805 12.1416 69.5156 12.1416H70.6702C70.7052 12.1416 70.7338 12.1702 70.7338 12.2053V12.4758C70.7338 12.5109 70.7053 12.5395 70.6702 12.5395H69.8802V13.0173L70.642 13.0173Z" fill="white"/>
<path d="M66.2631 13.0055C66.3137 12.9599 66.3382 12.895 66.3382 12.8072C66.3382 12.7197 66.3137 12.6548 66.2631 12.6092C66.2104 12.562 66.1409 12.5391 66.0503 12.5391H65.8008V13.0755H66.0503C66.1408 13.0756 66.2104 13.0526 66.2631 13.0055Z" fill="white"/>
<path d="M68.2156 13.832C68.2628 13.8143 68.3034 13.7858 68.3398 13.7448C68.3792 13.7008 68.404 13.6375 68.4136 13.5565C68.4245 13.4643 68.4297 13.3439 68.4297 13.1987C68.4297 13.0532 68.4245 12.9327 68.4136 12.8409C68.404 12.7596 68.3792 12.6963 68.34 12.6526C68.3038 12.6116 68.2618 12.5825 68.216 12.5653C68.1666 12.5464 68.1101 12.5371 68.0472 12.5371H67.748V13.8599H68.0472C68.1098 13.86 68.1666 13.8506 68.2156 13.832Z" fill="white"/>
</g>
<defs>
<clipPath id="clip0_2358_51281">
<rect width="21.3786" height="21.3786" fill="white" transform="translate(61.6953 7.25586)"/>
</clipPath>
</defs>
</svg>
