<svg width="30" height="31" viewBox="0 0 30 31" fill="none" xmlns="http://www.w3.org/2000/svg">
<g clip-path="url(#clip0_2111_10639)">
<path fill-rule="evenodd" clip-rule="evenodd" d="M4.33475 21.5137C4.95225 20.3162 6.2585 19.5137 7.83975 19.7125C9.35725 19.9025 11.0747 20.1875 12.8022 20.62C15.611 21.3225 18.0285 22.745 19.6935 23.9375L20.1935 24.3062L20.4235 24.4812L20.8435 24.8137L21.2072 25.1137L21.641 25.4912C22.696 26.43 21.9785 27.9637 20.786 28.0762L20.646 28.0825H9.90225C9.01835 28.0824 8.14452 27.8949 7.33844 27.5323C6.53237 27.1696 5.81237 26.6401 5.226 25.9787L5.02225 25.7362L4.77225 25.425C3.806 24.2162 3.72475 22.6962 4.33475 21.5137ZM7.52975 22.1925C7.02975 22.13 6.7135 22.3562 6.556 22.66C6.47326 22.8271 6.43594 23.013 6.44779 23.199C6.45964 23.3851 6.52024 23.5648 6.6235 23.72L6.72475 23.8637L6.97475 24.1762C7.3005 24.5832 7.70751 24.9178 8.16982 25.1586C8.63212 25.3995 9.13956 25.5413 9.65975 25.575L9.90225 25.5825H17.6785C16.241 24.6162 14.3322 23.5787 12.196 23.045C10.6589 22.6688 9.1007 22.3833 7.52975 22.1925ZM23.7497 3.08249C24.5247 3.08249 25.0922 3.50499 25.4497 3.96249C25.791 4.39624 26.0122 4.93749 26.166 5.45749C26.4785 6.51124 26.6247 7.86624 26.681 9.21874C26.7272 10.3575 26.711 11.5637 26.6522 12.6887L26.5998 13.5137C26.5122 14.7237 26.3747 15.7825 26.2197 16.4787C25.5535 19.4762 24.3885 21.2875 23.0847 22.275C21.836 23.22 20.3885 23.425 19.441 22.95C19.0272 22.7437 18.626 22.3725 18.2935 21.9875C17.8937 21.518 17.5571 20.9981 17.2922 20.4412C16.7097 19.2225 16.351 17.575 16.9385 15.8125C17.3022 14.7212 18.0035 14.0412 18.621 13.5325L19.0185 13.2125C19.7222 12.6525 20.3072 12.1725 20.756 11.2737C20.8722 11.0412 20.9572 10.5737 20.9772 9.77999L20.981 9.40124L20.971 8.46875C20.9647 8.09374 20.9585 7.69749 20.9622 7.31375C20.971 6.50125 21.0222 5.53874 21.3372 4.75499C21.5047 4.33874 21.7722 3.90374 22.2085 3.57374C22.654 3.24456 23.1959 3.07186 23.7497 3.08249ZM23.6285 5.76999C23.5247 6.08499 23.4697 6.595 23.4622 7.33875V7.69124L23.4735 8.5525C23.4797 8.97124 23.486 9.4125 23.476 9.84C23.456 10.6425 23.381 11.615 22.9922 12.3912C22.4485 13.4812 21.751 14.1875 21.1297 14.7162L20.7672 15.0162L20.576 15.1675C19.8322 15.76 19.4897 16.0637 19.311 16.6025C18.981 17.59 19.161 18.5562 19.5485 19.3625C19.7397 19.7662 19.9735 20.1062 20.1897 20.3575C20.2897 20.475 20.376 20.5587 20.4385 20.615L20.5322 20.695L20.651 20.69C20.8172 20.6762 21.1435 20.61 21.576 20.2825C22.2597 19.7637 23.196 18.5637 23.7797 15.9362C23.8322 15.6975 23.8847 15.3912 23.9335 15.035L24.0035 14.4637C24.016 14.3637 24.026 14.26 24.036 14.1537L24.0947 13.4912L24.1435 12.7812L24.1635 12.4125L24.1922 11.655C24.2162 10.8772 24.2133 10.0988 24.1835 9.32125C24.1297 8.0375 23.9935 6.92499 23.7685 6.16749C23.7298 6.03193 23.683 5.90003 23.6285 5.76999Z" fill="#252525"/>
</g>
<defs>
<clipPath id="clip0_2111_10639">
<rect width="30" height="30" fill="white" transform="translate(0 0.582031)"/>
</clipPath>
</defs>
</svg>
