<svg width="50" height="62" viewBox="0 0 50 62" fill="none" xmlns="http://www.w3.org/2000/svg">
<path d="M25.1543 61C25.1543 61 49.1543 49 49.1543 31V10L25.1543 1L1.1543 10V31C1.1543 49 25.1543 61 25.1543 61Z" stroke="#00B57A" stroke-linecap="round" stroke-linejoin="round"/>
<path d="M25.3851 57.7689C25.3851 57.7689 46.6158 47.0612 46.6158 30.9997V12.2612L25.3851 4.23047L4.1543 12.2612V30.9997C4.1543 47.0612 25.3851 57.7689 25.3851 57.7689Z" stroke="#00B57A" stroke-width="2" stroke-linecap="round" stroke-linejoin="round"/>
<path d="M37.7871 28.6693V25.3047H38.4056L40.1456 28.0001H40.1779L40.1502 26.8739V25.3047H40.6394V28.6693H40.0486L38.3086 26.0062H38.281L38.2994 27.0539V28.6693H37.7871Z" fill="#00B57A"/>
<path d="M35.5407 28.7107C35.2084 28.7107 34.9176 28.6414 34.6684 28.503C34.4192 28.3614 34.2253 28.163 34.0869 27.9076C33.9515 27.6491 33.8838 27.343 33.8838 26.9891C33.8838 26.6322 33.9515 26.326 34.0869 26.0707C34.2253 25.8122 34.4192 25.6137 34.6684 25.4753C34.9176 25.3368 35.2084 25.2676 35.5407 25.2676C35.8761 25.2676 36.1669 25.3368 36.413 25.4753C36.6623 25.6137 36.8561 25.8122 36.9946 26.0707C37.133 26.326 37.2023 26.6322 37.2023 26.9891C37.2023 27.346 37.133 27.6537 36.9946 27.9122C36.8561 28.1676 36.6623 28.3645 36.413 28.503C36.1638 28.6414 35.873 28.7107 35.5407 28.7107ZM35.5407 28.2768C35.8915 28.2768 36.1699 28.1645 36.3761 27.9399C36.5822 27.7122 36.6853 27.3953 36.6853 26.9891C36.6853 26.5799 36.5822 26.263 36.3761 26.0383C36.1699 25.8137 35.8915 25.7014 35.5407 25.7014C35.1899 25.7014 34.9115 25.8137 34.7053 26.0383C34.5023 26.263 34.4007 26.5799 34.4007 26.9891C34.4007 27.3953 34.5038 27.7122 34.7099 27.9399C34.9161 28.1645 35.193 28.2768 35.5407 28.2768Z" fill="#00B57A"/>
<path d="M32.7842 28.6693V25.3047H33.2873V28.6693H32.7842Z" fill="#00B57A"/>
<path d="M30.763 28.6693V25.7431H29.7061V25.3047H32.3322V25.7431H31.2661V28.6693H30.763Z" fill="#00B57A"/>
<path d="M28.1037 28.7107C27.7745 28.7107 27.4853 28.6414 27.2361 28.503C26.9899 28.3614 26.7976 28.163 26.6591 27.9076C26.5237 27.6491 26.4561 27.343 26.4561 26.9891C26.4561 26.6322 26.5237 26.326 26.6591 26.0707C26.7976 25.8122 26.9899 25.6137 27.2361 25.4753C27.4853 25.3368 27.7745 25.2676 28.1037 25.2676C28.3807 25.2676 28.6268 25.3153 28.8422 25.4107C29.0607 25.506 29.2376 25.6414 29.373 25.8168C29.5114 25.9922 29.5976 26.1968 29.6314 26.4307H29.1237C29.0776 26.2183 28.9637 26.0445 28.7822 25.9091C28.6037 25.7707 28.3776 25.7014 28.1037 25.7014C27.7561 25.7014 27.4807 25.8137 27.2776 26.0383C27.0745 26.263 26.973 26.5799 26.973 26.9891C26.973 27.3983 27.0745 27.7153 27.2776 27.9399C27.4807 28.1645 27.7561 28.2768 28.1037 28.2768C28.3745 28.2768 28.6022 28.2091 28.7868 28.0737C28.9714 27.9353 29.0837 27.7537 29.1237 27.5291L29.6314 27.5337C29.6037 27.7707 29.5207 27.9783 29.3822 28.1568C29.2468 28.3322 29.0684 28.4691 28.8468 28.5676C28.6284 28.663 28.3807 28.7107 28.1037 28.7107Z" fill="#00B57A"/>
<path d="M23.7607 28.6693V25.3047H26.1192V25.7385H24.2638V26.7493H25.8931V27.1555H24.2638V28.2308H26.1238V28.6693H23.7607Z" fill="#00B57A"/>
<path d="M21.7395 28.6693V25.7431H20.6826V25.3047H23.3088V25.7431H22.2426V28.6693H21.7395Z" fill="#00B57A"/>
<path d="M18.9499 28.7107C18.6176 28.7107 18.3268 28.6414 18.0776 28.503C17.8284 28.3614 17.6345 28.163 17.496 27.9076C17.3607 27.6491 17.293 27.343 17.293 26.9891C17.293 26.6322 17.3607 26.326 17.496 26.0707C17.6345 25.8122 17.8284 25.6137 18.0776 25.4753C18.3268 25.3368 18.6176 25.2676 18.9499 25.2676C19.2853 25.2676 19.576 25.3368 19.8222 25.4753C20.0714 25.6137 20.2653 25.8122 20.4037 26.0707C20.5422 26.326 20.6114 26.6322 20.6114 26.9891C20.6114 27.346 20.5422 27.6537 20.4037 27.9122C20.2653 28.1676 20.0714 28.3645 19.8222 28.503C19.573 28.6414 19.2822 28.7107 18.9499 28.7107ZM18.9499 28.2768C19.3007 28.2768 19.5791 28.1645 19.7853 27.9399C19.9914 27.7122 20.0945 27.3953 20.0945 26.9891C20.0945 26.5799 19.9914 26.263 19.7853 26.0383C19.5791 25.8137 19.3007 25.7014 18.9499 25.7014C18.5991 25.7014 18.3207 25.8137 18.1145 26.0383C17.9114 26.263 17.8099 26.5799 17.8099 26.9891C17.8099 27.3953 17.913 27.7122 18.1191 27.9399C18.3253 28.1645 18.6022 28.2768 18.9499 28.2768Z" fill="#00B57A"/>
<path d="M14.2197 28.6693V25.3047H15.789C16.1582 25.3047 16.4366 25.3862 16.6243 25.5493C16.812 25.7093 16.9059 25.937 16.9059 26.2324C16.9059 26.4355 16.8536 26.6093 16.749 26.7539C16.6474 26.8985 16.5013 26.9955 16.3105 27.0447V27.077C16.492 27.1078 16.6228 27.1785 16.7028 27.2893C16.7859 27.4001 16.8274 27.5508 16.8274 27.7416V28.3047C16.8274 28.3601 16.829 28.4201 16.832 28.4847C16.8382 28.5462 16.8551 28.6078 16.8828 28.6693H16.3751C16.3536 28.6231 16.3397 28.5693 16.3336 28.5078C16.3274 28.4462 16.3243 28.3755 16.3243 28.2955V27.8293C16.3243 27.657 16.2828 27.5278 16.1997 27.4416C16.1197 27.3524 15.9613 27.3078 15.7243 27.3078H14.7228V28.6693H14.2197ZM14.7228 26.9016H15.7197C15.9597 26.9016 16.1305 26.8447 16.232 26.7308C16.3366 26.617 16.389 26.4724 16.389 26.297C16.389 26.097 16.3274 25.9524 16.2043 25.8631C16.0813 25.7739 15.9197 25.7293 15.7197 25.7293H14.7228V26.9016Z" fill="#00B57A"/>
<path d="M11.1543 28.6693V25.3047H12.5158C12.8728 25.3047 13.1574 25.3985 13.3697 25.5862C13.582 25.7708 13.6881 26.0339 13.6881 26.3755C13.6881 26.5908 13.6405 26.7801 13.5451 26.9431C13.4528 27.1031 13.3189 27.2278 13.1435 27.317C12.9681 27.4062 12.7574 27.4493 12.5112 27.4462H11.6574V28.6693H11.1543ZM12.4374 25.7385H11.6574V27.0447H12.4374C12.6558 27.0478 12.8328 26.9955 12.9681 26.8878C13.1066 26.7801 13.1758 26.6139 13.1758 26.3893C13.1758 26.1647 13.1066 26.0001 12.9681 25.8955C12.8328 25.7908 12.6558 25.7385 12.4374 25.7385Z" fill="#00B57A"/>
<path d="M32.8037 22.8996V12.1328H35.1077V20.8614H39.8929V22.8996H32.8037Z" fill="#00B57A"/>
<path d="M26.6477 23.0326C25.1905 23.0326 24.0828 22.7077 23.3246 22.0578C22.5763 21.408 22.2021 20.5612 22.2021 19.5175H24.5357C24.5455 20.0492 24.7228 20.4775 25.0674 20.8025C25.412 21.1175 25.9683 21.2751 26.7363 21.2751C27.3271 21.2751 27.7997 21.1717 28.1541 20.9649C28.5086 20.7483 28.6858 20.4234 28.6858 19.9902C28.6858 19.6455 28.612 19.3797 28.4643 19.1926C28.3166 18.9957 28.0606 18.8431 27.6963 18.7348C27.332 18.6265 26.8249 18.5182 26.1751 18.4098C24.9345 18.2129 23.9991 17.8782 23.3689 17.4055C22.7388 16.9231 22.4237 16.2142 22.4237 15.2788C22.4237 14.2646 22.7978 13.4671 23.5461 12.8862C24.3043 12.2954 25.3332 12 26.6329 12C27.4797 12 28.2083 12.1329 28.8188 12.3988C29.4391 12.6646 29.9166 13.0388 30.2514 13.5212C30.5861 14.0037 30.7535 14.5649 30.7535 15.2049H28.4348C28.4151 14.6831 28.2231 14.3089 27.8588 14.0825C27.5043 13.856 27.0711 13.7428 26.5591 13.7428C26.0175 13.7428 25.5892 13.856 25.2741 14.0825C24.9689 14.2991 24.8163 14.5994 24.8163 14.9834C24.8163 15.3083 24.9 15.5545 25.0674 15.7218C25.2446 15.8892 25.5252 16.0222 25.9092 16.1206C26.2932 16.2092 26.7954 16.3077 27.4157 16.416C27.8686 16.4849 28.3117 16.5785 28.7449 16.6966C29.1781 16.8148 29.572 16.992 29.9265 17.2283C30.2809 17.4548 30.5615 17.7748 30.7683 18.1883C30.9751 18.592 31.0785 19.1188 31.0785 19.7686C31.0785 20.7335 30.7043 21.5212 29.956 22.1317C29.2175 22.7323 28.1148 23.0326 26.6477 23.0326Z" fill="#00B57A"/>
<path d="M16.7102 23.0326C15.253 23.0326 14.1453 22.7077 13.3871 22.0578C12.6388 21.408 12.2646 20.5612 12.2646 19.5175H14.5982C14.608 20.0492 14.7853 20.4775 15.1299 20.8025C15.4745 21.1175 16.0308 21.2751 16.7988 21.2751C17.3896 21.2751 17.8622 21.1717 18.2166 20.9649C18.5711 20.7483 18.7483 20.4234 18.7483 19.9902C18.7483 19.6455 18.6745 19.3797 18.5268 19.1926C18.3791 18.9957 18.1231 18.8431 17.7588 18.7348C17.3945 18.6265 16.8874 18.5182 16.2376 18.4098C14.997 18.2129 14.0616 17.8782 13.4314 17.4055C12.8013 16.9231 12.4862 16.2142 12.4862 15.2788C12.4862 14.2646 12.8603 13.4671 13.6086 12.8862C14.3668 12.2954 15.3957 12 16.6954 12C17.5422 12 18.2708 12.1329 18.8813 12.3988C19.5016 12.6646 19.9791 13.0388 20.3139 13.5212C20.6486 14.0037 20.816 14.5649 20.816 15.2049H18.4973C18.4776 14.6831 18.2856 14.3089 17.9213 14.0825C17.5668 13.856 17.1336 13.7428 16.6216 13.7428C16.08 13.7428 15.6517 13.856 15.3366 14.0825C15.0314 14.2991 14.8788 14.5994 14.8788 14.9834C14.8788 15.3083 14.9625 15.5545 15.1299 15.7218C15.3071 15.8892 15.5877 16.0222 15.9717 16.1206C16.3557 16.2092 16.8579 16.3077 17.4782 16.416C17.9311 16.4849 18.3742 16.5785 18.8074 16.6966C19.2406 16.8148 19.6345 16.992 19.989 17.2283C20.3434 17.4548 20.624 17.7748 20.8308 18.1883C21.0376 18.592 21.141 19.1188 21.141 19.7686C21.141 20.7335 20.7668 21.5212 20.0185 22.1317C19.28 22.7323 18.1773 23.0326 16.7102 23.0326Z" fill="#00B57A"/>
<path d="M37.9268 39.7455V36.3809H40.2852V36.8147H38.4298V37.8255H40.0591V38.2316H38.4298V39.307H40.2898V39.7455H37.9268Z" fill="#00B57A"/>
<path d="M35.9056 39.7455V36.8193H34.8486V36.3809H37.4748V36.8193H36.4086V39.7455H35.9056Z" fill="#00B57A"/>
<path d="M33.052 39.7455V36.8193H31.9951V36.3809H34.6213V36.8193H33.5551V39.7455H33.052Z" fill="#00B57A"/>
<path d="M28.6953 39.7455V36.3809H29.3138L31.0538 39.0762H31.0861L31.0584 37.9501V36.3809H31.5476V39.7455H30.9568L29.2168 37.0824H29.1892L29.2076 38.1301V39.7455H28.6953Z" fill="#00B57A"/>
<path d="M25.1846 39.7455L26.38 36.3809H27.0861L28.2815 39.7455H27.7553L27.4784 38.9609H25.9876L25.7107 39.7455H25.1846ZM26.1076 38.5686H27.3538L26.9846 37.5301L26.7492 36.8424H26.7215L26.4861 37.5301L26.1076 38.5686Z" fill="#00B57A"/>
<path d="M22.2549 39.7455V36.3809H23.8241C24.1933 36.3809 24.4718 36.4624 24.6595 36.6255C24.8472 36.7855 24.941 37.0132 24.941 37.3086C24.941 37.5116 24.8887 37.6855 24.7841 37.8301C24.6826 37.9747 24.5364 38.0716 24.3457 38.1209V38.1532C24.5272 38.1839 24.658 38.2547 24.738 38.3655C24.821 38.4762 24.8626 38.627 24.8626 38.8178V39.3809C24.8626 39.4362 24.8641 39.4962 24.8672 39.5609C24.8733 39.6224 24.8903 39.6839 24.918 39.7455H24.4103C24.3887 39.6993 24.3749 39.6455 24.3687 39.5839C24.3626 39.5224 24.3595 39.4516 24.3595 39.3716V38.9055C24.3595 38.7332 24.318 38.6039 24.2349 38.5178C24.1549 38.4286 23.9964 38.3839 23.7595 38.3839H22.758V39.7455H22.2549ZM22.758 37.9778H23.7549C23.9949 37.9778 24.1657 37.9209 24.2672 37.807C24.3718 37.6932 24.4241 37.5486 24.4241 37.3732C24.4241 37.1732 24.3626 37.0286 24.2395 36.9393C24.1164 36.8501 23.9549 36.8055 23.7549 36.8055H22.758V37.9778Z" fill="#00B57A"/>
<path d="M18.7432 39.7455L19.9385 36.3809H20.6447L21.8401 39.7455H21.3139L21.037 38.9609H19.5462L19.2693 39.7455H18.7432ZM19.6662 38.5686H20.9124L20.5432 37.5301L20.3078 36.8424H20.2801L20.0447 37.5301L19.6662 38.5686Z" fill="#00B57A"/>
<path d="M17.1254 39.787C16.6946 39.787 16.3577 39.6716 16.1146 39.4409C15.8715 39.2101 15.75 38.8962 15.75 38.4993V36.3809H16.2531V38.4901C16.2531 38.7732 16.3315 38.9855 16.4885 39.127C16.6454 39.2655 16.8592 39.3347 17.13 39.3347C17.4254 39.3347 17.6454 39.2593 17.79 39.1086C17.9346 38.9547 18.0069 38.7486 18.0069 38.4901V36.3809H18.5054V38.4993C18.5054 38.7639 18.45 38.9932 18.3392 39.187C18.2315 39.3778 18.0746 39.5255 17.8685 39.6301C17.6623 39.7347 17.4146 39.787 17.1254 39.787Z" fill="#00B57A"/>
<path d="M13.562 39.7878C13.2236 39.7878 12.9313 39.7155 12.6851 39.5709C12.4389 39.4263 12.2497 39.2247 12.1174 38.9663C11.9851 38.7078 11.9189 38.4078 11.9189 38.0663C11.9189 37.7093 11.9882 37.4032 12.1266 37.1478C12.2651 36.8893 12.4589 36.6909 12.7082 36.5524C12.9605 36.414 13.2513 36.3447 13.5805 36.3447C13.8666 36.3447 14.1189 36.3924 14.3374 36.4878C14.5559 36.5832 14.7313 36.717 14.8636 36.8893C14.9989 37.0616 15.082 37.2647 15.1128 37.4986H14.5959C14.5528 37.2678 14.4374 37.0909 14.2497 36.9678C14.0651 36.8447 13.842 36.7832 13.5805 36.7832C13.2328 36.7832 12.9543 36.894 12.7451 37.1155C12.5359 37.337 12.4313 37.6524 12.4313 38.0617C12.4313 38.474 12.5343 38.794 12.7405 39.0217C12.9466 39.2463 13.2236 39.3586 13.5713 39.3586C13.8913 39.3586 14.1497 39.2724 14.3466 39.1001C14.5466 38.9247 14.6559 38.6801 14.6743 38.3663H13.6036V37.9924H15.1866V38.237C15.1866 38.554 15.1189 38.8293 14.9836 39.0632C14.8482 39.294 14.6589 39.4724 14.4159 39.5986C14.1728 39.7247 13.8882 39.7878 13.562 39.7878Z" fill="#00B57A"/>
<path d="M28.561 34.2074L30.698 30.8428H31.0533L28.9164 34.2074H28.561ZM28.7087 32.6751C28.4964 32.6751 28.3303 32.5935 28.2103 32.4305C28.0903 32.2674 28.0303 32.0443 28.0303 31.7612C28.0303 31.472 28.0934 31.2505 28.2195 31.0966C28.3457 30.9397 28.5118 30.8612 28.718 30.8612C28.9241 30.8612 29.0872 30.9428 29.2072 31.1059C29.3272 31.2659 29.3872 31.4859 29.3872 31.7659C29.3872 32.0612 29.3241 32.2874 29.198 32.4443C29.0749 32.5982 28.9118 32.6751 28.7087 32.6751ZM28.7134 32.3889C28.8118 32.3889 28.8918 32.3443 28.9534 32.2551C29.018 32.1659 29.0503 32.0028 29.0503 31.7659C29.0503 31.532 29.018 31.3705 28.9534 31.2812C28.8918 31.192 28.8118 31.1474 28.7134 31.1474C28.6118 31.1474 28.5287 31.192 28.4641 31.2812C28.3995 31.3705 28.3672 31.532 28.3672 31.7659C28.3672 31.9997 28.398 32.1628 28.4595 32.2551C28.5241 32.3443 28.6087 32.3889 28.7134 32.3889ZM30.9057 34.2259C30.6934 34.2259 30.5272 34.1443 30.4072 33.9812C30.2872 33.8182 30.2272 33.5951 30.2272 33.312C30.2272 33.0228 30.2887 32.7997 30.4118 32.6428C30.538 32.4859 30.7057 32.4074 30.9149 32.4074C31.121 32.4074 31.2841 32.4889 31.4041 32.652C31.5241 32.8151 31.5841 33.0382 31.5841 33.3212C31.5841 33.6105 31.521 33.8335 31.3949 33.9905C31.2718 34.1474 31.1087 34.2259 30.9057 34.2259ZM30.9103 33.9397C31.0087 33.9397 31.0887 33.8951 31.1503 33.8059C31.2118 33.7166 31.2426 33.5535 31.2426 33.3166C31.2426 33.0828 31.2118 32.9212 31.1503 32.832C31.0887 32.7428 31.0087 32.6982 30.9103 32.6982C30.8057 32.6982 30.721 32.7428 30.6564 32.832C30.5949 32.9182 30.5641 33.0797 30.5641 33.3166C30.5641 33.5535 30.5949 33.7166 30.6564 33.8059C30.721 33.8951 30.8057 33.9397 30.9103 33.9397Z" fill="#00B57A"/>
<path d="M26.458 34.2443C26.2088 34.2443 25.9934 34.1782 25.8118 34.0459C25.6303 33.9105 25.4903 33.7166 25.3918 33.4643C25.2934 33.2089 25.2441 32.8997 25.2441 32.5366C25.2441 32.1705 25.2949 31.8612 25.3964 31.6089C25.498 31.3566 25.6395 31.1659 25.8211 31.0366C26.0057 30.9074 26.2195 30.8428 26.4626 30.8428C26.8288 30.8428 27.1195 30.992 27.3349 31.2905C27.5503 31.5859 27.658 32.0028 27.658 32.5412C27.658 32.9105 27.6072 33.2228 27.5057 33.4782C27.4072 33.7305 27.2672 33.9212 27.0857 34.0505C26.9041 34.1797 26.6949 34.2443 26.458 34.2443ZM26.4534 33.8382C26.678 33.8382 26.8549 33.7366 26.9841 33.5335C27.1164 33.3305 27.1826 32.9997 27.1826 32.5412C27.1826 32.0828 27.1164 31.752 26.9841 31.5489C26.8549 31.3459 26.678 31.2443 26.4534 31.2443C26.2288 31.2443 26.0503 31.3459 25.918 31.5489C25.7888 31.752 25.7241 32.0828 25.7241 32.5412C25.7241 32.9997 25.7888 33.3305 25.918 33.5335C26.0503 33.7366 26.2288 33.8382 26.4534 33.8382Z" fill="#00B57A"/>
<path d="M23.7178 34.2443C23.4685 34.2443 23.2531 34.1782 23.0716 34.0459C22.8901 33.9105 22.7501 33.7166 22.6516 33.4643C22.5531 33.2089 22.5039 32.8997 22.5039 32.5366C22.5039 32.1705 22.5547 31.8612 22.6562 31.6089C22.7578 31.3566 22.8993 31.1659 23.0808 31.0366C23.2654 30.9074 23.4793 30.8428 23.7224 30.8428C24.0885 30.8428 24.3793 30.992 24.5947 31.2905C24.8101 31.5859 24.9178 32.0028 24.9178 32.5412C24.9178 32.9105 24.867 33.2228 24.7654 33.4782C24.667 33.7305 24.527 33.9212 24.3454 34.0505C24.1639 34.1797 23.9547 34.2443 23.7178 34.2443ZM23.7131 33.8382C23.9378 33.8382 24.1147 33.7366 24.2439 33.5335C24.3762 33.3305 24.4424 32.9997 24.4424 32.5412C24.4424 32.0828 24.3762 31.752 24.2439 31.5489C24.1147 31.3459 23.9378 31.2443 23.7131 31.2443C23.4885 31.2443 23.3101 31.3459 23.1778 31.5489C23.0485 31.752 22.9839 32.0828 22.9839 32.5412C22.9839 32.9997 23.0485 33.3305 23.1778 33.5335C23.3101 33.7366 23.4885 33.8382 23.7131 33.8382Z" fill="#00B57A"/>
<path d="M21.4046 34.2076V31.7983H20.6016V31.4337H20.7308C20.9523 31.4337 21.1185 31.383 21.2293 31.2814C21.3431 31.1799 21.4077 31.046 21.4231 30.8799H21.88V34.2076H21.4046Z" fill="#00B57A"/>
<path d="M29.9735 42.5566L24.8966 47.6336L22.5889 45.3259" stroke="#00B57A" stroke-linecap="square" stroke-linejoin="round"/>
</svg>
