<svg width="132" height="20" viewBox="0 0 132 20" fill="none" xmlns="http://www.w3.org/2000/svg">
<path d="M9.92484 15.8701L16.0584 19.572L14.4307 12.5949L19.8497 7.90042L12.7137 7.28509L9.92484 0.714844L7.13596 7.28509L0 7.90042L5.40904 12.5949L3.79129 19.572L9.92484 15.8701Z" fill="#00B57A"/>
<path d="M37.7744 15.8701L43.908 19.572L42.2803 12.5949L47.6993 7.90042L40.5633 7.28509L37.7744 0.714844L34.9856 7.28509L27.8496 7.90042L33.2586 12.5949L31.6409 19.572L37.7744 15.8701Z" fill="#00B57A"/>
<path d="M65.6241 15.8701L71.7576 19.572L70.1299 12.5949L75.5489 7.90042L68.4129 7.28509L65.6241 0.714844L62.8352 7.28509L55.6992 7.90042L61.1083 12.5949L59.4905 19.572L65.6241 15.8701Z" fill="#00B57A"/>
<path d="M93.4737 15.8701L99.6072 19.572L97.9795 12.5949L103.399 7.90042L96.2625 7.28509L93.4737 0.714844L90.6848 7.28509L83.5488 7.90042L88.9579 12.5949L87.3401 19.572L93.4737 15.8701Z" fill="#00B57A"/>
<path d="M121.323 15.8701L127.457 19.572L125.829 12.5949L131.248 7.90042L124.112 7.28509L121.323 0.714844L118.534 7.28509L111.398 7.90042L116.807 12.5949L115.19 19.572L121.323 15.8701Z" fill="#00B57A"/>
</svg>
