<svg width="30" height="31" viewBox="0 0 30 31" fill="none" xmlns="http://www.w3.org/2000/svg">
<path d="M27.25 17.9212C26.7322 20.4497 25.4451 22.7562 23.5651 24.5245C21.6851 26.2929 19.3042 27.4365 16.7487 27.7987V25.2674C18.636 24.9308 20.3869 24.0596 21.7935 22.7571C23.2001 21.4546 24.2033 19.7758 24.6838 17.9199L27.25 17.9212ZM5.315 17.9212C5.79006 19.7558 6.77604 21.4179 8.15834 22.7144C9.54063 24.0108 11.2625 24.8883 13.1237 25.2449V27.7799C10.5938 27.3948 8.24268 26.2432 6.38753 24.4804C4.53238 22.7175 3.26237 20.4282 2.74875 17.9212H5.315ZM22.4988 14.1699V16.6699H21.2488C19.9659 16.6699 18.7322 17.163 17.8027 18.0471C16.8733 18.9312 16.3191 20.1387 16.255 21.4199L16.25 21.6699V22.9199H13.75V21.6699C13.75 20.3871 13.257 19.1534 12.3728 18.2239C11.4887 17.2944 10.2812 16.7403 9 16.6762L8.75 16.6699H7.5V14.1699H22.4988ZM14.9987 2.91992C21.4812 2.91992 26.8113 7.85367 27.4375 14.1699H24.9225C24.6197 11.7515 23.4441 9.52694 21.6168 7.91414C19.7894 6.30134 17.436 5.41133 14.9987 5.41133C12.5615 5.41133 10.2081 6.30134 8.38071 7.91414C6.55336 9.52694 5.37783 11.7515 5.075 14.1699H2.5625C3.19 7.85367 8.51875 2.91992 15 2.91992H14.9987Z" fill="#252525"/>
</svg>
