<svg width="30" height="30" viewBox="0 0 30 30" fill="none" xmlns="http://www.w3.org/2000/svg">
<path d="M3.75 8.125V5.625C3.75 5.04375 3.75 4.75375 3.7975 4.5125C3.89388 4.02731 4.13204 3.58161 4.48182 3.23182C4.83161 2.88204 5.27731 2.64388 5.7625 2.5475C6.00375 2.5 6.29375 2.5 6.875 2.5C7.45625 2.5 7.74625 2.5 7.9875 2.5475C8.47269 2.64388 8.91839 2.88204 9.26818 3.23182C9.61796 3.58161 9.85612 4.02731 9.9525 4.5125C10 4.75375 10 5.04375 10 5.625V5.9375H20V5.625C20 5.04375 20 4.75375 20.0475 4.5125C20.1439 4.02731 20.382 3.58161 20.7318 3.23182C21.0816 2.88204 21.5273 2.64388 22.0125 2.5475C22.2537 2.5 22.5438 2.5 23.125 2.5C23.7062 2.5 23.9963 2.5 24.2375 2.5475C24.7227 2.64388 25.1684 2.88204 25.5182 3.23182C25.868 3.58161 26.1061 4.02731 26.2025 4.5125C26.25 4.75375 26.25 5.04375 26.25 5.625V8.125C26.25 8.70625 26.25 8.99625 26.2025 9.2375C26.1061 9.72269 25.868 10.1684 25.5182 10.5182C25.1684 10.868 24.7227 11.1061 24.2375 11.2025C23.9963 11.25 23.7062 11.25 23.125 11.25C22.5438 11.25 22.2537 11.25 22.0125 11.2025C21.5273 11.1061 21.0816 10.868 20.7318 10.5182C20.382 10.1684 20.1439 9.72269 20.0475 9.2375C20 8.99625 20 8.70625 20 8.125V7.8125H15.9375V22.1875H20V21.875C20 21.2938 20 21.0037 20.0475 20.7625C20.1439 20.2773 20.382 19.8316 20.7318 19.4818C21.0816 19.132 21.5273 18.8939 22.0125 18.7975C22.2537 18.75 22.5438 18.75 23.125 18.75C23.7062 18.75 23.9963 18.75 24.2375 18.7975C24.7227 18.8939 25.1684 19.132 25.5182 19.4818C25.868 19.8316 26.1061 20.2773 26.2025 20.7625C26.25 21.0037 26.25 21.2938 26.25 21.875V24.375C26.25 24.9562 26.25 25.2463 26.2025 25.4875C26.1061 25.9727 25.868 26.4184 25.5182 26.7682C25.1684 27.118 24.7227 27.3561 24.2375 27.4525C23.9963 27.5 23.7062 27.5 23.125 27.5C22.5438 27.5 22.2537 27.5 22.0125 27.4525C21.5273 27.3561 21.0816 27.118 20.7318 26.7682C20.382 26.4184 20.1439 25.9727 20.0475 25.4875C20 25.2463 20 24.9562 20 24.375V24.0625H10V24.375C10 24.9562 10 25.2463 9.9525 25.4875C9.85612 25.9727 9.61796 26.4184 9.26818 26.7682C8.91839 27.118 8.47269 27.3561 7.9875 27.4525C7.74625 27.5 7.45625 27.5 6.875 27.5C6.29375 27.5 6.00375 27.5 5.7625 27.4525C5.27731 27.3561 4.83161 27.118 4.48182 26.7682C4.13204 26.4184 3.89388 25.9727 3.7975 25.4875C3.75 25.2463 3.75 24.9562 3.75 24.375V21.875C3.75 21.2938 3.75 21.0037 3.7975 20.7625C3.89388 20.2773 4.13204 19.8316 4.48182 19.4818C4.83161 19.132 5.27731 18.8939 5.7625 18.7975C6.00375 18.75 6.29375 18.75 6.875 18.75C7.45625 18.75 7.74625 18.75 7.9875 18.7975C8.47269 18.8939 8.91839 19.132 9.26818 19.4818C9.61796 19.8316 9.85612 20.2773 9.9525 20.7625C10 21.0037 10 21.2938 10 21.875V22.1875H14.0625V7.8125H10V8.125C10 8.70625 10 8.99625 9.9525 9.2375C9.85612 9.72269 9.61796 10.1684 9.26818 10.5182C8.91839 10.868 8.47269 11.1061 7.9875 11.2025C7.74625 11.25 7.45625 11.25 6.875 11.25C6.29375 11.25 6.00375 11.25 5.7625 11.2025C5.27731 11.1061 4.83161 10.868 4.48182 10.5182C4.13204 10.1684 3.89388 9.72269 3.7975 9.2375C3.75 8.99625 3.75 8.70625 3.75 8.125Z" fill="#252525"/>
</svg>
