<svg width="30" height="31" viewBox="0 0 30 31" fill="none" xmlns="http://www.w3.org/2000/svg">
<path fill-rule="evenodd" clip-rule="evenodd" d="M6.2525 7.12828C5.3 9.24328 4.6875 12.232 4.6875 15.582C4.6875 18.932 5.3 21.9208 6.2525 24.0358C7.24375 26.2395 8.42 27.1445 9.375 27.1445C10.33 27.1445 11.5063 26.2395 12.4975 24.0358C13.45 21.9208 14.0625 18.932 14.0625 15.582C14.0625 12.232 13.45 9.24328 12.4975 7.12828C11.5063 4.92453 10.33 4.01953 9.375 4.01953C8.42 4.01953 7.24375 4.92453 6.2525 7.12828ZM12.7987 4.01953C13.3488 4.68953 13.8188 5.49453 14.2075 6.35828C15.2913 8.76703 15.9375 12.0295 15.9375 15.582C15.9375 19.1345 15.2913 22.397 14.2075 24.8058C13.8188 25.6695 13.3475 26.4745 12.7987 27.1445H20.625C21.58 27.1445 22.7562 26.2395 23.7475 24.0358C24.7 21.9208 25.3125 18.932 25.3125 15.582C25.3125 12.232 24.7 9.24328 23.7475 7.12828C22.7562 4.92453 21.58 4.01953 20.625 4.01953H12.7987ZM9.375 2.14453H20.625C22.7775 2.14453 24.4125 4.03828 25.4575 6.35828C26.5412 8.76703 27.1875 12.0295 27.1875 15.582C27.1875 19.1345 26.5412 22.397 25.4575 24.8058C24.4137 27.1258 22.7775 29.0195 20.625 29.0195H9.375C7.2225 29.0195 5.5875 27.1258 4.5425 24.8058C3.45875 22.397 2.8125 19.1345 2.8125 15.582C2.8125 12.0295 3.45875 8.76703 4.5425 6.35828C5.5875 4.03828 7.2225 2.14453 9.375 2.14453ZM8.95875 10.507C8.6425 11.7695 8.4375 13.5633 8.4375 15.582C8.4375 17.5995 8.6425 19.3945 8.95875 20.657C9.0925 21.1945 9.2375 21.5983 9.375 21.8733C9.5125 21.5983 9.6575 21.1945 9.79125 20.6583C10.0575 19.5945 10.245 18.1533 10.2975 16.5195H10C9.75136 16.5195 9.5129 16.4208 9.33709 16.2449C9.16127 16.0691 9.0625 15.8307 9.0625 15.582C9.0625 15.3334 9.16127 15.0949 9.33709 14.9191C9.5129 14.7433 9.75136 14.6445 10 14.6445H10.2975C10.245 13.0108 10.0575 11.5695 9.79125 10.507C9.69532 10.0882 9.55581 9.68056 9.375 9.29078C9.2375 9.56578 9.0925 9.97078 8.95875 10.507ZM9.16875 8.96703C9.16447 8.96435 9.16066 8.96097 9.1575 8.95703L9.16875 8.96703ZM9.58125 22.1945C9.58553 22.1972 9.58934 22.2006 9.5925 22.2045L9.58125 22.1945ZM7.8375 8.19453C8.09125 7.76578 8.58 7.14453 9.375 7.14453C10.17 7.14453 10.6587 7.76578 10.9125 8.19453C11.2025 8.68578 11.4313 9.33203 11.61 10.0508C11.9725 11.502 12.1875 13.457 12.1875 15.582C12.1875 17.707 11.9725 19.662 11.61 21.112C11.4313 21.8308 11.2025 22.4783 10.9125 22.9695C10.6587 23.3983 10.17 24.0195 9.375 24.0195C8.58 24.0195 8.09125 23.3983 7.8375 22.9695C7.5475 22.4783 7.31875 21.832 7.14 21.112C6.7775 19.662 6.5625 17.707 6.5625 15.582C6.5625 13.457 6.7775 11.502 7.14 10.0508C7.31875 9.33328 7.5475 8.68578 7.8375 8.19453Z" fill="#252525"/>
</svg>
