<svg width="30" height="31" viewBox="0 0 30 31" fill="none" xmlns="http://www.w3.org/2000/svg">
<g clip-path="url(#clip0_2062_35605)">
<path d="M27.5003 7.91992H1.66699V18.8366C1.66699 20.6699 3.08366 22.0866 4.91699 22.0866H5.83366V20.4199H4.91699C4.08366 20.4199 3.41699 19.7533 3.33366 18.8366V12.9199H21.667V18.8366C21.667 19.6699 21.0003 20.3366 20.0837 20.4199H19.167V22.0866H20.0837C21.8337 22.0866 23.2503 20.6699 23.2503 18.8366V9.58659H27.417C27.917 9.58659 28.2503 9.25326 28.2503 8.75326C28.2503 8.25326 28.0003 7.91992 27.5003 7.91992Z" fill="#252525"/>
<path d="M12.5003 16.4199C9.83366 16.4199 7.66699 18.5866 7.66699 21.2533C7.66699 23.9199 9.83366 26.0866 12.5003 26.0866C15.167 26.0866 17.3337 23.9199 17.3337 21.2533C17.3337 18.5866 15.167 16.4199 12.5003 16.4199ZM13.3337 22.0866H11.667V20.4199H13.3337V22.0866Z" fill="#252525"/>
</g>
<defs>
<clipPath id="clip0_2062_35605">
<rect width="30" height="30" fill="white" transform="translate(0 0.419922)"/>
</clipPath>
</defs>
</svg>
