<svg width="30" height="30" viewBox="0 0 30 30" fill="none" xmlns="http://www.w3.org/2000/svg">
<path d="M2.5 5C2.5 3.61929 3.61929 2.5 5 2.5C6.38071 2.5 7.5 3.61929 7.5 5C7.5 6.04918 6.8537 6.94741 5.9375 7.31827V14.0625H14.0625V7.31827C13.1462 6.94741 12.5 6.04918 12.5 5C12.5 3.61929 13.6193 2.5 15 2.5C16.3807 2.5 17.5 3.61929 17.5 5C17.5 6.04918 16.8538 6.94741 15.9375 7.31827V14.0625H20C21.205 14.0625 22.0145 14.0605 22.6183 13.9794C23.1951 13.9018 23.442 13.7677 23.6049 13.6049C23.7677 13.442 23.9018 13.1951 23.9794 12.6182C24.0605 12.0145 24.0625 11.205 24.0625 10V7.31827C23.1462 6.94741 22.5 6.04918 22.5 5C22.5 3.61929 23.6192 2.5 25 2.5C26.3808 2.5 27.5 3.61929 27.5 5C27.5 6.04918 26.8538 6.94741 25.9375 7.31827V10.065C25.9375 11.1881 25.9376 12.1246 25.8376 12.8681C25.7321 13.6529 25.5 14.3614 24.9306 14.9306C24.3614 15.5 23.6529 15.7321 22.8681 15.8376C22.1246 15.9376 21.1881 15.9375 20.065 15.9375H15.9375V22.6817C16.8538 23.0526 17.5 23.9509 17.5 25C17.5 26.3808 16.3807 27.5 15 27.5C13.6193 27.5 12.5 26.3808 12.5 25C12.5 23.9509 13.1462 23.0526 14.0625 22.6817V15.9375H5.9375V22.6817C6.8537 23.0526 7.5 23.9509 7.5 25C7.5 26.3808 6.38071 27.5 5 27.5C3.61929 27.5 2.5 26.3808 2.5 25C2.5 23.9509 3.1463 23.0526 4.0625 22.6817V7.31827C3.1463 6.94741 2.5 6.04918 2.5 5Z" fill="#252525"/>
<path fill-rule="evenodd" clip-rule="evenodd" d="M21.5625 18.75C21.5625 18.2322 21.9822 17.8125 22.5 17.8125H25.3571C27.0765 17.8125 28.4375 19.2299 28.4375 20.9375C28.4375 22.2856 27.5891 23.453 26.3858 23.8846L28.2995 27.0105C28.5699 27.452 28.4311 28.0293 27.9895 28.2995C27.548 28.5699 26.9707 28.4311 26.7005 27.9895L24.2961 24.0625H23.4375V27.5C23.4375 28.0177 23.0177 28.4375 22.5 28.4375C21.9822 28.4375 21.5625 28.0177 21.5625 27.5V18.75ZM23.4375 22.1875H25.3571C26.0047 22.1875 26.5625 21.6461 26.5625 20.9375C26.5625 20.2289 26.0047 19.6875 25.3571 19.6875H23.4375V22.1875Z" fill="#252525"/>
</svg>
