<svg width="293" height="32" viewBox="0 0 293 32" fill="none" xmlns="http://www.w3.org/2000/svg">
<path d="M16.5 24.4025L23.6696 22.5409L26.6652 32L16.5 24.4025ZM33 12.1761H20.3795L16.5 0L12.6205 12.1761H0L10.2143 19.7233L6.33482 31.8994L16.5491 24.3522L22.8348 19.7233L33 12.1761Z" fill="#219653"/>
<path d="M49.7539 6.9375V24H46.8359V6.9375H49.7539ZM55.1094 6.9375V9.28125H41.5273V6.9375H55.1094ZM59.0703 13.7344V24H56.2461V11.3203H58.9414L59.0703 13.7344ZM62.9492 11.2383L62.9258 13.8633C62.7539 13.832 62.5664 13.8086 62.3633 13.793C62.168 13.7773 61.9727 13.7695 61.7773 13.7695C61.293 13.7695 60.8672 13.8398 60.5 13.9805C60.1328 14.1133 59.8242 14.3086 59.5742 14.5664C59.332 14.8164 59.1445 15.1211 59.0117 15.4805C58.8789 15.8398 58.8008 16.2422 58.7773 16.6875L58.1328 16.7344C58.1328 15.9375 58.2109 15.1992 58.3672 14.5195C58.5234 13.8398 58.7578 13.2422 59.0703 12.7266C59.3906 12.2109 59.7891 11.8086 60.2656 11.5195C60.75 11.2305 61.3086 11.0859 61.9414 11.0859C62.1133 11.0859 62.2969 11.1016 62.4922 11.1328C62.6953 11.1641 62.8477 11.1992 62.9492 11.2383ZM72.3477 21.0117V11.3203H75.1836V24H72.5117L72.3477 21.0117ZM72.7461 18.375L73.6953 18.3516C73.6953 19.2031 73.6016 19.9883 73.4141 20.707C73.2266 21.418 72.9375 22.0391 72.5469 22.5703C72.1562 23.0938 71.6562 23.5039 71.0469 23.8008C70.4375 24.0898 69.707 24.2344 68.8555 24.2344C68.2383 24.2344 67.6719 24.1445 67.1562 23.9648C66.6406 23.7852 66.1953 23.5078 65.8203 23.1328C65.4531 22.7578 65.168 22.2695 64.9648 21.668C64.7617 21.0664 64.6602 20.3477 64.6602 19.5117V11.3203H67.4844V19.5352C67.4844 19.9961 67.5391 20.3828 67.6484 20.6953C67.7578 21 67.9062 21.2461 68.0938 21.4336C68.2812 21.6211 68.5 21.7539 68.75 21.832C69 21.9102 69.2656 21.9492 69.5469 21.9492C70.3516 21.9492 70.9844 21.793 71.4453 21.4805C71.9141 21.1602 72.2461 20.7305 72.4414 20.1914C72.6445 19.6523 72.7461 19.0469 72.7461 18.375ZM85.1914 20.5664C85.1914 20.2852 85.1211 20.0312 84.9805 19.8047C84.8398 19.5703 84.5703 19.3594 84.1719 19.1719C83.7812 18.9844 83.2031 18.8125 82.4375 18.6562C81.7656 18.5078 81.1484 18.332 80.5859 18.1289C80.0312 17.918 79.5547 17.6641 79.1562 17.3672C78.7578 17.0703 78.4492 16.7188 78.2305 16.3125C78.0117 15.9062 77.9023 15.4375 77.9023 14.9062C77.9023 14.3906 78.0156 13.9023 78.2422 13.4414C78.4688 12.9805 78.793 12.5742 79.2148 12.2227C79.6367 11.8711 80.1484 11.5938 80.75 11.3906C81.3594 11.1875 82.0391 11.0859 82.7891 11.0859C83.8516 11.0859 84.7617 11.2656 85.5195 11.625C86.2852 11.9766 86.8711 12.457 87.2773 13.0664C87.6836 13.668 87.8867 14.3477 87.8867 15.1055H85.0625C85.0625 14.7695 84.9766 14.457 84.8047 14.168C84.6406 13.8711 84.3906 13.6328 84.0547 13.4531C83.7188 13.2656 83.2969 13.1719 82.7891 13.1719C82.3047 13.1719 81.9023 13.25 81.582 13.4062C81.2695 13.5547 81.0352 13.75 80.8789 13.9922C80.7305 14.2344 80.6562 14.5 80.6562 14.7891C80.6562 15 80.6953 15.1914 80.7734 15.3633C80.8594 15.5273 81 15.6797 81.1953 15.8203C81.3906 15.9531 81.6562 16.0781 81.9922 16.1953C82.3359 16.3125 82.7656 16.4258 83.2812 16.5352C84.25 16.7383 85.082 17 85.7773 17.3203C86.4805 17.6328 87.0195 18.0391 87.3945 18.5391C87.7695 19.0312 87.957 19.6562 87.957 20.4141C87.957 20.9766 87.8359 21.4922 87.5938 21.9609C87.3594 22.4219 87.0156 22.8242 86.5625 23.168C86.1094 23.5039 85.5664 23.7656 84.9336 23.9531C84.3086 24.1406 83.6055 24.2344 82.8242 24.2344C81.6758 24.2344 80.7031 24.0312 79.9062 23.625C79.1094 23.2109 78.5039 22.6836 78.0898 22.043C77.6836 21.3945 77.4805 20.7227 77.4805 20.0273H80.2109C80.2422 20.5508 80.3867 20.9688 80.6445 21.2812C80.9102 21.5859 81.2383 21.8086 81.6289 21.9492C82.0273 22.082 82.4375 22.1484 82.8594 22.1484C83.3672 22.1484 83.793 22.082 84.1367 21.9492C84.4805 21.8086 84.7422 21.6211 84.9219 21.3867C85.1016 21.1445 85.1914 20.8711 85.1914 20.5664ZM96.2422 11.3203V13.3828H89.0938V11.3203H96.2422ZM91.1562 8.21484H93.9805V20.4961C93.9805 20.8867 94.0352 21.1875 94.1445 21.3984C94.2617 21.6016 94.4219 21.7383 94.625 21.8086C94.8281 21.8789 95.0664 21.9141 95.3398 21.9141C95.5352 21.9141 95.7227 21.9023 95.9023 21.8789C96.082 21.8555 96.2266 21.832 96.3359 21.8086L96.3477 23.9648C96.1133 24.0352 95.8398 24.0977 95.5273 24.1523C95.2227 24.207 94.8711 24.2344 94.4727 24.2344C93.8242 24.2344 93.25 24.1211 92.75 23.8945C92.25 23.6602 91.8594 23.2812 91.5781 22.7578C91.2969 22.2344 91.1562 21.5391 91.1562 20.6719V8.21484ZM101.258 13.7578V28.875H98.4336V11.3203H101.035L101.258 13.7578ZM109.52 17.543V17.7891C109.52 18.7109 109.41 19.5664 109.191 20.3555C108.98 21.1367 108.664 21.8203 108.242 22.4062C107.828 22.9844 107.316 23.4336 106.707 23.7539C106.098 24.0742 105.395 24.2344 104.598 24.2344C103.809 24.2344 103.117 24.0898 102.523 23.8008C101.938 23.5039 101.441 23.0859 101.035 22.5469C100.629 22.0078 100.301 21.375 100.051 20.6484C99.8086 19.9141 99.6367 19.1094 99.5352 18.2344V17.2852C99.6367 16.3555 99.8086 15.5117 100.051 14.7539C100.301 13.9961 100.629 13.3438 101.035 12.7969C101.441 12.25 101.938 11.8281 102.523 11.5312C103.109 11.2344 103.793 11.0859 104.574 11.0859C105.371 11.0859 106.078 11.2422 106.695 11.5547C107.312 11.8594 107.832 12.2969 108.254 12.8672C108.676 13.4297 108.992 14.1094 109.203 14.9062C109.414 15.6953 109.52 16.5742 109.52 17.543ZM106.695 17.7891V17.543C106.695 16.957 106.641 16.4141 106.531 15.9141C106.422 15.4062 106.25 14.9609 106.016 14.5781C105.781 14.1953 105.48 13.8984 105.113 13.6875C104.754 13.4688 104.32 13.3594 103.812 13.3594C103.312 13.3594 102.883 13.4453 102.523 13.6172C102.164 13.7812 101.863 14.0117 101.621 14.3086C101.379 14.6055 101.191 14.9531 101.059 15.3516C100.926 15.7422 100.832 16.168 100.777 16.6289V18.9023C100.871 19.4648 101.031 19.9805 101.258 20.4492C101.484 20.918 101.805 21.293 102.219 21.5742C102.641 21.8477 103.18 21.9844 103.836 21.9844C104.344 21.9844 104.777 21.875 105.137 21.6562C105.496 21.4375 105.789 21.1367 106.016 20.7539C106.25 20.3633 106.422 19.9141 106.531 19.4062C106.641 18.8984 106.695 18.3594 106.695 17.7891ZM114.945 11.3203V24H112.109V11.3203H114.945ZM111.922 7.99219C111.922 7.5625 112.062 7.20703 112.344 6.92578C112.633 6.63672 113.031 6.49219 113.539 6.49219C114.039 6.49219 114.434 6.63672 114.723 6.92578C115.012 7.20703 115.156 7.5625 115.156 7.99219C115.156 8.41406 115.012 8.76562 114.723 9.04688C114.434 9.32812 114.039 9.46875 113.539 9.46875C113.031 9.46875 112.633 9.32812 112.344 9.04688C112.062 8.76562 111.922 8.41406 111.922 7.99219ZM121.062 6V24H118.227V6H121.062ZM123.617 17.8008V17.5312C123.617 16.6172 123.75 15.7695 124.016 14.9883C124.281 14.1992 124.664 13.5156 125.164 12.9375C125.672 12.3516 126.289 11.8984 127.016 11.5781C127.75 11.25 128.578 11.0859 129.5 11.0859C130.43 11.0859 131.258 11.25 131.984 11.5781C132.719 11.8984 133.34 12.3516 133.848 12.9375C134.355 13.5156 134.742 14.1992 135.008 14.9883C135.273 15.7695 135.406 16.6172 135.406 17.5312V17.8008C135.406 18.7148 135.273 19.5625 135.008 20.3438C134.742 21.125 134.355 21.8086 133.848 22.3945C133.34 22.9727 132.723 23.4258 131.996 23.7539C131.27 24.0742 130.445 24.2344 129.523 24.2344C128.594 24.2344 127.762 24.0742 127.027 23.7539C126.301 23.4258 125.684 22.9727 125.176 22.3945C124.668 21.8086 124.281 21.125 124.016 20.3438C123.75 19.5625 123.617 18.7148 123.617 17.8008ZM126.441 17.5312V17.8008C126.441 18.3711 126.5 18.9102 126.617 19.418C126.734 19.9258 126.918 20.3711 127.168 20.7539C127.418 21.1367 127.738 21.4375 128.129 21.6562C128.52 21.875 128.984 21.9844 129.523 21.9844C130.047 21.9844 130.5 21.875 130.883 21.6562C131.273 21.4375 131.594 21.1367 131.844 20.7539C132.094 20.3711 132.277 19.9258 132.395 19.418C132.52 18.9102 132.582 18.3711 132.582 17.8008V17.5312C132.582 16.9688 132.52 16.4375 132.395 15.9375C132.277 15.4297 132.09 14.9805 131.832 14.5898C131.582 14.1992 131.262 13.8945 130.871 13.6758C130.488 13.4492 130.031 13.3359 129.5 13.3359C128.969 13.3359 128.508 13.4492 128.117 13.6758C127.734 13.8945 127.418 14.1992 127.168 14.5898C126.918 14.9805 126.734 15.4297 126.617 15.9375C126.5 16.4375 126.441 16.9688 126.441 17.5312ZM143.586 11.3203V13.3828H136.438V11.3203H143.586ZM138.5 8.21484H141.324V20.4961C141.324 20.8867 141.379 21.1875 141.488 21.3984C141.605 21.6016 141.766 21.7383 141.969 21.8086C142.172 21.8789 142.41 21.9141 142.684 21.9141C142.879 21.9141 143.066 21.9023 143.246 21.8789C143.426 21.8555 143.57 21.832 143.68 21.8086L143.691 23.9648C143.457 24.0352 143.184 24.0977 142.871 24.1523C142.566 24.207 142.215 24.2344 141.816 24.2344C141.168 24.2344 140.594 24.1211 140.094 23.8945C139.594 23.6602 139.203 23.2812 138.922 22.7578C138.641 22.2344 138.5 21.5391 138.5 20.6719V8.21484Z" fill="black"/>
<rect x="161" y="4" width="24.973" height="24.973" fill="#1BB578"/>
<path d="M173.04 21.6388L177.497 20.4973L179.359 26.2974L173.04 21.6388ZM183.297 14.1419H175.452L173.04 6.67578L170.628 14.1419H162.783L169.133 18.7696L166.721 26.2357L173.07 21.608L176.978 18.7696L183.297 14.1419Z" fill="white"/>
<rect x="187.756" y="4" width="24.973" height="24.973" fill="#1BB578"/>
<path d="M199.796 21.6388L204.253 20.4973L206.115 26.2974L199.796 21.6388ZM210.053 14.1419H202.207L199.796 6.67578L197.384 14.1419H189.539L195.888 18.7696L193.477 26.2357L199.826 21.608L203.734 18.7696L210.053 14.1419Z" fill="white"/>
<rect x="214.514" y="4" width="24.973" height="24.973" fill="#1BB578"/>
<path d="M226.554 21.6388L231.01 20.4973L232.873 26.2974L226.554 21.6388ZM236.81 14.1419H228.965L226.554 6.67578L224.142 14.1419H216.297L222.646 18.7696L220.235 26.2357L226.584 21.608L230.491 18.7696L236.81 14.1419Z" fill="white"/>
<rect x="241.27" y="4" width="24.973" height="24.973" fill="#1BB578"/>
<path d="M253.309 21.6388L257.766 20.4973L259.628 26.2974L253.309 21.6388ZM263.566 14.1419H255.721L253.309 6.67578L250.898 14.1419H243.053L249.402 18.7696L246.991 26.2357L253.34 21.608L257.247 18.7696L263.566 14.1419Z" fill="white"/>
<rect x="268.027" y="4" width="24.973" height="24.973" fill="#1BB578"/>
<path d="M280.067 21.6388L284.524 20.4973L286.386 26.2974L280.067 21.6388ZM290.324 14.1419H282.479L280.067 6.67578L277.656 14.1419H269.811L276.16 18.7696L273.748 26.2357L280.098 21.608L284.005 18.7696L290.324 14.1419Z" fill="white"/>
</svg>
