<svg width="30" height="30" viewBox="0 0 30 30" fill="none" xmlns="http://www.w3.org/2000/svg">
<path d="M7.5 23.75H22.5L20.7188 11.25H9.28125L7.5 23.75ZM15 8.75C15.3542 8.75 15.6513 8.63 15.8913 8.39C16.1313 8.15 16.2508 7.85333 16.25 7.5C16.25 7.14583 16.13 6.84875 15.89 6.60875C15.65 6.36875 15.3533 6.24917 15 6.25C14.6458 6.25 14.3488 6.37 14.1087 6.61C13.8687 6.85 13.7492 7.14667 13.75 7.5C13.75 7.85417 13.87 8.15125 14.11 8.39125C14.35 8.63125 14.6467 8.75083 15 8.75ZM4.625 26.25L7.125 8.75H11.4688C11.4063 8.54167 11.3542 8.33833 11.3125 8.14C11.2708 7.94167 11.25 7.72833 11.25 7.5C11.25 6.45833 11.6146 5.57292 12.3438 4.84375C13.0729 4.11458 13.9583 3.75 15 3.75C16.0417 3.75 16.9271 4.11458 17.6562 4.84375C18.3854 5.57292 18.75 6.45833 18.75 7.5C18.75 7.72917 18.7292 7.94292 18.6875 8.14125C18.6458 8.33958 18.5938 8.5425 18.5312 8.75H22.875L25.375 26.25H4.625Z" fill="#252525"/>
</svg>
