<svg width="30" height="31" viewBox="0 0 30 31" fill="none" xmlns="http://www.w3.org/2000/svg">
<path d="M15 28.082C21.9036 28.082 27.5 22.4856 27.5 15.582C27.5 8.67847 21.9036 3.08203 15 3.08203C8.09644 3.08203 2.5 8.67847 2.5 15.582C2.5 22.4856 8.09644 28.082 15 28.082Z" stroke="#252525" stroke-width="1.5"/>
<path d="M15 23.082C19.1421 23.082 22.5 19.7242 22.5 15.582C22.5 11.4399 19.1421 8.08203 15 8.08203C10.8579 8.08203 7.5 11.4399 7.5 15.582C7.5 19.7242 10.8579 23.082 15 23.082Z" stroke="#252525" stroke-width="1.5"/>
<path d="M15 18.082C16.3807 18.082 17.5 16.9627 17.5 15.582C17.5 14.2013 16.3807 13.082 15 13.082C13.6193 13.082 12.5 14.2013 12.5 15.582C12.5 16.9627 13.6193 18.082 15 18.082Z" stroke="#252525" stroke-width="1.5"/>
<path d="M7.5 15.5819H12.5M17.5 15.5819H22.5M11.25 22.0769L13.75 17.7469M16.25 13.4169L18.75 9.08691M18.75 22.0769L16.25 17.7469M13.75 13.4169L11.25 9.08691" stroke="#252525" stroke-width="1.5" stroke-linecap="round"/>
</svg>
