<svg width="31" height="30" viewBox="0 0 31 30" fill="none" xmlns="http://www.w3.org/2000/svg">
<g clip-path="url(#clip0_41_2184)">
<path d="M30.5 15C30.5 6.71484 23.7852 0 15.5 0C7.21484 0 0.5 6.71484 0.5 15C0.5 22.4883 5.98438 28.6934 13.1562 29.8184V19.3359H9.34766V15H13.1562V11.6953C13.1562 7.93652 15.3945 5.85938 18.8223 5.85938C20.4629 5.85938 22.1797 6.15234 22.1797 6.15234V9.84375H20.2871C18.4238 9.84375 17.8438 11.001 17.8438 12.1875V15H22.0039L21.3389 19.3359H17.8438V29.8184C25.0156 28.6934 30.5 22.4883 30.5 15Z" fill="#D5B002"/>
<path d="M21.3389 19.3359L22.0039 15H17.8438V12.1875C17.8438 11.001 18.4238 9.84375 20.2871 9.84375H22.1797V6.15234C22.1797 6.15234 20.4629 5.85938 18.8223 5.85938C15.3945 5.85938 13.1562 7.93652 13.1562 11.6953V15H9.34766V19.3359H13.1562V29.8184C13.9209 29.9385 14.7031 30 15.5 30C16.2969 30 17.0791 29.9385 17.8438 29.8184V19.3359H21.3389Z" fill="white"/>
</g>
<defs>
<clipPath id="clip0_41_2184">
<rect width="30" height="30" fill="white" transform="translate(0.5)"/>
</clipPath>
</defs>
</svg>
