<svg width="31" height="30" viewBox="0 0 31 30" fill="none" xmlns="http://www.w3.org/2000/svg">
<path d="M0.5 15C0.5 6.71573 7.21573 0 15.5 0C23.7843 0 30.5 6.71573 30.5 15C30.5 23.2843 23.7843 30 15.5 30C7.21573 30 0.5 23.2843 0.5 15Z" fill="#D5B002"/>
<g clip-path="url(#clip0_154_480)">
<path d="M10.6364 21.0031V14.8212L8.71919 13.0673L7 12.094V19.9122C7 20.5158 7.48906 21.0031 8.09094 21.0031H10.6364Z" fill="white"/>
<path d="M19.3636 21.0031H21.9091C22.5128 21.0031 23 20.514 23 19.9122V12.0941L21.0528 13.2089L19.3636 14.8212V21.0031Z" fill="white"/>
<path d="M10.6364 14.8212L10.3755 12.4058L10.6364 10.094L15 13.3667L19.3636 10.094L19.6554 12.281L19.3636 14.8212L15 18.094L10.6364 14.8212Z" fill="white"/>
<path d="M19.3636 10.094V14.8212L23 12.094V10.6394C23 9.29037 21.46 8.52131 20.3819 9.33037L19.3636 10.094Z" fill="white"/>
<path d="M7 12.094L8.67244 13.3484L10.6364 14.8213V10.094L9.61812 9.33038C8.53812 8.52126 7 9.29038 7 10.6394V12.094Z" fill="white"/>
</g>
<defs>
<clipPath id="clip0_154_480">
<rect width="16" height="12.0625" fill="white" transform="translate(7 9)"/>
</clipPath>
</defs>
</svg>
