<svg width="30" height="30" viewBox="0 0 30 30" fill="none" xmlns="http://www.w3.org/2000/svg">
<path d="M0 15C0 6.71573 6.71573 0 15 0C23.2843 0 30 6.71573 30 15C30 23.2843 23.2843 30 15 30C6.71573 30 0 23.2843 0 15Z" fill="#D5B002"/>
<path d="M15.001 12C14.2054 12 13.4423 12.3161 12.8797 12.8787C12.3171 13.4413 12.001 14.2044 12.001 15C12.001 15.7956 12.3171 16.5587 12.8797 17.1213C13.4423 17.6839 14.2054 18 15.001 18C15.7966 18 16.5597 17.6839 17.1223 17.1213C17.6849 16.5587 18.001 15.7956 18.001 15C18.001 14.2044 17.6849 13.4413 17.1223 12.8787C16.5597 12.3161 15.7966 12 15.001 12ZM15.001 10C16.3271 10 17.5989 10.5268 18.5365 11.4645C19.4742 12.4021 20.001 13.6739 20.001 15C20.001 16.3261 19.4742 17.5979 18.5365 18.5355C17.5989 19.4732 16.3271 20 15.001 20C13.6749 20 12.4031 19.4732 11.4655 18.5355C10.5278 17.5979 10.001 16.3261 10.001 15C10.001 13.6739 10.5278 12.4021 11.4655 11.4645C12.4031 10.5268 13.6749 10 15.001 10ZM21.501 9.75C21.501 10.0815 21.3693 10.3995 21.1349 10.6339C20.9005 10.8683 20.5825 11 20.251 11C19.9195 11 19.6015 10.8683 19.3671 10.6339C19.1327 10.3995 19.001 10.0815 19.001 9.75C19.001 9.41848 19.1327 9.10054 19.3671 8.86612C19.6015 8.6317 19.9195 8.5 20.251 8.5C20.5825 8.5 20.9005 8.6317 21.1349 8.86612C21.3693 9.10054 21.501 9.41848 21.501 9.75ZM15.001 7C12.527 7 12.123 7.007 10.972 7.058C10.188 7.095 9.662 7.2 9.174 7.39C8.76583 7.54037 8.39672 7.78063 8.094 8.093C7.78127 8.39562 7.54066 8.76474 7.39 9.173C7.2 9.663 7.095 10.188 7.059 10.971C7.007 12.075 7 12.461 7 15C7 17.475 7.007 17.878 7.058 19.029C7.095 19.812 7.2 20.339 7.389 20.826C7.559 21.261 7.759 21.574 8.091 21.906C8.428 22.242 8.741 22.443 9.171 22.609C9.665 22.8 10.191 22.906 10.971 22.942C12.075 22.994 12.461 23 15 23C17.475 23 17.878 22.993 19.029 22.942C19.811 22.905 20.337 22.8 20.826 22.611C21.2342 22.4606 21.6033 22.2204 21.906 21.908C22.243 21.572 22.444 21.259 22.61 20.828C22.8 20.336 22.906 19.81 22.942 19.028C22.994 17.925 23 17.538 23 15C23 12.526 22.993 12.122 22.942 10.971C22.905 10.189 22.799 9.661 22.61 9.173C22.4596 8.76483 22.2194 8.39572 21.907 8.093C21.6044 7.78027 21.2353 7.53966 20.827 7.389C20.337 7.199 19.811 7.094 19.029 7.058C17.926 7.006 17.54 7 15 7M15 5C17.717 5 18.056 5.01 19.123 5.06C20.187 5.11 20.913 5.277 21.55 5.525C22.21 5.779 22.766 6.123 23.322 6.678C23.8307 7.17773 24.2242 7.78247 24.475 8.45C24.722 9.087 24.89 9.813 24.94 10.878C24.987 11.944 25 12.283 25 15C25 17.717 24.99 18.056 24.94 19.122C24.89 20.188 24.722 20.912 24.475 21.55C24.2242 22.2175 23.8307 22.8223 23.322 23.322C22.8223 23.8307 22.2175 24.2242 21.55 24.475C20.913 24.722 20.187 24.89 19.123 24.94C18.056 24.987 17.717 25 15 25C12.283 25 11.944 24.99 10.877 24.94C9.813 24.89 9.088 24.722 8.45 24.475C7.78247 24.2242 7.17773 23.8307 6.678 23.322C6.16931 22.8223 5.77582 22.2175 5.525 21.55C5.277 20.913 5.11 20.187 5.06 19.122C5.012 18.056 5 17.717 5 15C5 12.283 5.01 11.944 5.06 10.878C5.11 9.812 5.277 9.088 5.525 8.45C5.77582 7.78247 6.16931 7.17773 6.678 6.678C7.17773 6.16931 7.78247 5.77582 8.45 5.525C9.087 5.277 9.812 5.11 10.877 5.06C11.945 5.013 12.284 5 15.001 5" fill="white"/>
</svg>
