<svg width="31" height="30" viewBox="0 0 31 30" fill="none" xmlns="http://www.w3.org/2000/svg">
<path d="M0.5 15C0.5 6.71573 7.21573 0 15.5 0C23.7843 0 30.5 6.71573 30.5 15C30.5 23.2843 23.7843 30 15.5 30C7.21573 30 0.5 23.2843 0.5 15Z" fill="#D5B002"/>
<path fill-rule="evenodd" clip-rule="evenodd" d="M11.3242 9.26419C11.3242 10.2449 10.586 11.0296 9.40074 11.0296H9.37902C8.23779 11.0296 7.5 10.2449 7.5 9.26419C7.5 8.26275 8.26026 7.5 9.42315 7.5C10.586 7.5 11.3022 8.26275 11.3242 9.26419ZM11.1003 12.4237V22.6372H7.70101V12.4237H11.1003ZM23.3595 22.6372L23.3596 16.7811C23.3596 13.6439 21.6826 12.1838 19.4457 12.1838C17.6409 12.1838 16.8328 13.1752 16.3817 13.8706V12.4239H12.9819C13.0267 13.3823 12.9819 22.6375 12.9819 22.6375H16.3817V16.9334C16.3817 16.6281 16.4037 16.3236 16.4936 16.1051C16.7393 15.4953 17.2987 14.8639 18.2378 14.8639C19.4684 14.8639 19.9603 15.8005 19.9603 17.173V22.6372H23.3595Z" fill="white"/>
</svg>
