<svg width="30" height="30" viewBox="0 0 30 30" fill="none" xmlns="http://www.w3.org/2000/svg">
<path d="M0 15C0 6.71573 6.71573 0 15 0C23.2843 0 30 6.71573 30 15C30 23.2843 23.2843 30 15 30C6.71573 30 0 23.2843 0 15Z" fill="#D5B002"/>
<g clip-path="url(#clip0_473_1885)">
<path d="M24.8741 17.425C24.6741 19.875 22.5991 21.775 20.1241 21.75H17.4991L12.4991 25V21.75L17.4991 18.5H20.1241C20.8991 18.525 21.5491 17.95 21.6491 17.175C21.7991 14.675 21.7991 12.175 21.5991 9.675C21.5491 8.975 20.9741 8.45 20.2991 8.4C18.5991 8.325 16.7991 8.25 14.9991 8.25C13.1991 8.25 11.3991 8.3 9.69911 8.425C8.99911 8.475 8.44911 9 8.39911 9.7C8.22411 12.2 8.19911 14.7 8.34911 17.2C8.42411 17.975 9.09911 18.525 9.87411 18.5H12.4991V21.75H9.87411C8.68155 21.7657 7.52756 21.3277 6.6457 20.5248C5.76383 19.7218 5.21994 18.6138 5.12411 17.425C4.94911 14.75 4.97411 12.1 5.17411 9.425C5.26569 8.31573 5.75282 7.2763 6.54671 6.49617C7.34061 5.71604 8.3884 5.24716 9.49911 5.175C11.2491 5.05 13.1241 5 14.9991 5C16.8741 5 18.7491 5.05 20.5241 5.2C21.6348 5.27216 22.6826 5.74104 23.4765 6.52117C24.2704 7.3013 24.7575 8.34073 24.8491 9.45C25.0241 12.1 25.0491 14.775 24.8741 17.425Z" fill="white"/>
</g>
<defs>
<clipPath id="clip0_473_1885">
<rect width="20" height="20" fill="white" transform="translate(5 5)"/>
</clipPath>
</defs>
</svg>
