<svg width="31" height="30" viewBox="0 0 31 30" fill="none" xmlns="http://www.w3.org/2000/svg">
<path d="M15.5 29.8771C23.7843 29.8771 30.5 23.1888 30.5 14.9385C30.5 6.68821 23.7843 0 15.5 0C7.21573 0 0.5 6.68821 0.5 14.9385C0.5 23.1888 7.21573 29.8771 15.5 29.8771Z" fill="white"/>
<path d="M15.5 0C7.21605 0 0.5 6.68853 0.5 14.9385C0.5 21.2705 4.45062 26.6803 10.0309 28.8566C9.89506 27.6762 9.78395 25.8566 10.0802 24.5656C10.3519 23.3975 11.8333 17.1393 11.8333 17.1393C11.8333 17.1393 11.3889 16.2418 11.3889 14.9262C11.3889 12.8484 12.5988 11.2992 14.1049 11.2992C15.3889 11.2992 16.0062 12.2582 16.0062 13.4016C16.0062 14.6803 15.1914 16.5984 14.7593 18.3811C14.4012 19.8689 15.5123 21.0861 16.9815 21.0861C19.6481 21.0861 21.6975 18.2828 21.6975 14.25C21.6975 10.6721 19.1173 8.17623 15.4259 8.17623C11.1543 8.17623 8.64815 11.3607 8.64815 14.6557C8.64815 15.9344 9.14198 17.3115 9.75926 18.0615C9.88272 18.209 9.89506 18.3443 9.85802 18.4918C9.74691 18.959 9.48765 19.9795 9.43827 20.1885C9.37654 20.459 9.21605 20.5205 8.9321 20.3852C7.05556 19.5123 5.88272 16.7951 5.88272 14.5943C5.88272 9.88525 9.31481 5.55738 15.7963 5.55738C20.9938 5.55738 25.0432 9.2459 25.0432 14.1885C25.0432 19.3402 21.784 23.4836 17.2654 23.4836C15.7469 23.4836 14.3148 22.6967 13.8333 21.7623C13.8333 21.7623 13.0802 24.6148 12.8951 25.3156C12.5617 26.6189 11.6481 28.2418 11.0309 29.2377C12.4383 29.668 13.9198 29.9016 15.4753 29.9016C23.7593 29.9016 30.4753 23.2131 30.4753 14.9631C30.5 6.68852 23.784 0 15.5 0Z" fill="#D5B002"/>
</svg>
