<svg width="31" height="30" viewBox="0 0 31 30" fill="none" xmlns="http://www.w3.org/2000/svg">
<rect x="0.5" width="30" height="30" rx="15" fill="#D5B002"/>
<path d="M23.3866 22.6018L17.6977 13.6613L23.3112 7.48624C23.4382 7.34313 23.5036 7.15575 23.4933 6.96472C23.483 6.77369 23.3979 6.59441 23.2563 6.46575C23.1147 6.33708 22.9281 6.26941 22.737 6.27739C22.5459 6.28538 22.3656 6.36838 22.2352 6.50841L16.888 12.39L13.2084 6.60746C13.1428 6.50419 13.0522 6.41914 12.9449 6.3602C12.8377 6.30127 12.7173 6.27035 12.595 6.27031H8.23288C8.10253 6.27025 7.97455 6.30523 7.86236 6.3716C7.75017 6.43797 7.65789 6.53328 7.59517 6.64756C7.53246 6.76184 7.50163 6.89087 7.5059 7.02115C7.51017 7.15144 7.54939 7.27818 7.61946 7.3881L13.3084 16.3277L7.69489 22.5073C7.62933 22.5777 7.57841 22.6605 7.54506 22.7507C7.51172 22.8409 7.49662 22.9369 7.50063 23.033C7.50465 23.1292 7.5277 23.2235 7.56846 23.3107C7.60922 23.3978 7.66686 23.476 7.73806 23.5407C7.80926 23.6054 7.89259 23.6553 7.98323 23.6876C8.07387 23.7199 8.17 23.7338 8.26607 23.7286C8.36214 23.7235 8.45623 23.6993 8.54288 23.6575C8.62953 23.6157 8.70703 23.5571 8.77087 23.4851L14.1181 17.6036L17.7977 23.3861C17.8638 23.4885 17.9547 23.5727 18.0619 23.6308C18.1691 23.6889 18.2892 23.7192 18.4111 23.7187H22.7732C22.9034 23.7187 23.0312 23.6837 23.1433 23.6173C23.2553 23.551 23.3475 23.4558 23.4102 23.3417C23.4729 23.2275 23.5038 23.0987 23.4996 22.9685C23.4955 22.8384 23.4565 22.7117 23.3866 22.6018ZM18.8101 22.2647L9.55696 7.72434H12.1924L21.4491 22.2647H18.8101Z" fill="white"/>
</svg>
