<svg width="31" height="30" viewBox="0 0 31 30" fill="none" xmlns="http://www.w3.org/2000/svg">
<path d="M15.5 30C23.7843 30 30.5 23.2843 30.5 15C30.5 6.71573 23.7843 0 15.5 0C7.21573 0 0.5 6.71573 0.5 15C0.5 23.2843 7.21573 30 15.5 30Z" fill="#D5B002"/>
<path fill-rule="evenodd" clip-rule="evenodd" d="M15.9944 23.3453H15.9907C14.4979 23.3448 13.0311 22.9703 11.7283 22.2597L7 23.5L8.26538 18.878C7.48483 17.5253 7.07411 15.9909 7.07478 14.4189C7.07674 9.50106 11.078 5.5 15.9943 5.5C18.3804 5.50103 20.6199 6.42992 22.3039 8.11588C23.9879 9.80176 24.9148 12.0427 24.9138 14.4259C24.9119 19.3427 20.9122 23.3433 15.9944 23.3453ZM11.9474 20.6449L12.2181 20.8056C13.3564 21.481 14.6611 21.8384 15.9914 21.839H15.9944C20.0805 21.839 23.4062 18.5132 23.4078 14.4254C23.4086 12.4445 22.6382 10.5819 21.2385 9.18062C19.8389 7.77931 17.9775 7.00721 15.9973 7.00652C11.9081 7.00652 8.58236 10.3319 8.58074 14.4194C8.58016 15.8202 8.97211 17.1845 9.71421 18.3648L9.89048 18.6453L9.14155 21.381L11.9474 20.6449ZM20.1828 16.3463C20.3382 16.4214 20.4432 16.4721 20.488 16.547C20.5437 16.6399 20.5437 17.0861 20.3581 17.6068C20.1723 18.1274 19.2819 18.6025 18.8537 18.6665C18.4697 18.7239 17.9838 18.7478 17.45 18.5781C17.1263 18.4754 16.7112 18.3383 16.1794 18.1087C14.0901 17.2065 12.6781 15.1815 12.4113 14.7988C12.3926 14.772 12.3795 14.7532 12.3722 14.7435L12.3704 14.7411C12.2525 14.5837 11.4622 13.5293 11.4622 12.438C11.4622 11.4114 11.9665 10.8733 12.1986 10.6256C12.2145 10.6087 12.2291 10.5931 12.2422 10.5788C12.4465 10.3556 12.688 10.2998 12.8365 10.2998C12.9851 10.2998 13.1338 10.3012 13.2637 10.3077C13.2797 10.3085 13.2964 10.3084 13.3136 10.3083C13.4435 10.3076 13.6054 10.3066 13.7651 10.6903C13.8266 10.838 13.9165 11.0569 14.0113 11.2878C14.2031 11.7546 14.415 12.2705 14.4523 12.3451C14.508 12.4567 14.5451 12.5868 14.4708 12.7356C14.4597 12.7579 14.4494 12.779 14.4395 12.7991C14.3837 12.913 14.3427 12.9968 14.248 13.1074C14.2107 13.1508 14.1722 13.1977 14.1338 13.2446C14.0571 13.3379 13.9804 13.4313 13.9137 13.4978C13.8021 13.609 13.6859 13.7295 13.816 13.9527C13.946 14.1758 14.3932 14.9056 15.0558 15.4966C15.768 16.1318 16.387 16.4003 16.7007 16.5364C16.762 16.563 16.8116 16.5845 16.848 16.6027C17.0708 16.7143 17.2008 16.6957 17.3309 16.547C17.4609 16.3982 17.888 15.8962 18.0365 15.6731C18.1851 15.45 18.3337 15.4872 18.538 15.5615C18.7423 15.636 19.838 16.1751 20.0609 16.2866C20.1044 16.3084 20.1451 16.3281 20.1828 16.3463Z" fill="#FDFDFD"/>
</svg>
