<svg width="33" height="32" viewBox="0 0 33 32" fill="none" xmlns="http://www.w3.org/2000/svg">
<g clip-path="url(#clip0_3453_996)">
<path d="M32.1909 25.1426C32.1909 26.1874 31.3541 27.0343 30.3218 27.0343H2.44082C1.40857 27.0344 0.571777 26.1874 0.571777 25.1426V6.85733C0.571777 5.81264 1.40857 4.9657 2.44082 4.9657H30.3218C31.3541 4.9657 32.1909 5.81264 32.1909 6.85733V25.1426Z" fill="#306FC5"/>
<path d="M5.1781 13.7968H6.12284L5.6506 12.5799L5.1781 13.7968Z" fill="white"/>
<path d="M10.2024 17.8817V18.4468H11.7913V19.0553H10.2024V19.7074H11.963L12.7789 18.7945L12.006 17.8817H10.2024Z" fill="white"/>
<path d="M22.6124 12.5799L22.097 13.7968H23.0848L22.6124 12.5799Z" fill="white"/>
<path d="M14.7972 20.0547V17.5776L13.6807 18.7945L14.7972 20.0547Z" fill="white"/>
<path d="M16.9014 18.273C16.8584 18.0123 16.6864 17.8817 16.4287 17.8817H15.5271V18.664H16.4719C16.7295 18.664 16.9014 18.5337 16.9014 18.273Z" fill="white"/>
<path d="M19.9069 18.5773C19.9928 18.5337 20.0359 18.4032 20.0359 18.2731C20.0789 18.0994 19.9928 18.0123 19.9069 17.9688C19.8213 17.9253 19.6923 17.9253 19.5636 17.9253H18.7046V18.6208H19.5636C19.6922 18.6208 19.8212 18.6208 19.9069 18.5773Z" fill="white"/>
<path d="M26.0904 11.4499V11.9714L25.833 11.4499H23.8149V11.9714L23.5571 11.4499H20.8089C20.3365 11.4499 19.9499 11.5369 19.6065 11.7107V11.4499H17.6742V11.4934V11.7107C17.4596 11.537 17.2019 11.4499 16.8584 11.4499H9.9448L9.47224 12.5364L8.99999 11.4499H7.45418H6.81V11.9714L6.59527 11.4499H6.55229H4.70585L3.84688 13.4924L2.85934 15.7088L2.84119 15.7523H2.85934H5.0494H5.07682L5.09238 15.7088L5.35015 15.057H5.90836L6.16601 15.7523H8.65638V15.7088V15.2308L8.87123 15.7523H10.1164L10.331 15.2308V15.7088V15.7523H11.3187H16.257H16.3V14.6223H16.3861C16.4719 14.6223 16.4719 14.6223 16.4719 14.7528V15.7088H19.5637V15.4481C19.8213 15.5786 20.2075 15.7088 20.7229 15.7088H22.0113L22.269 15.0136H22.87L23.1276 15.7088H25.6181V15.2743V15.0571L26.0048 15.7088H26.0904H26.1335H28.0229V11.4499H26.0905H26.0904ZM11.5335 15.1006H11.104H10.8464V14.84V12.7103L10.8035 12.81V12.8088L9.80449 15.1006H9.77287H9.5432H9.17161L8.14109 12.7103V15.1006H6.68118L6.38061 14.4487H4.92045L4.61982 15.1006H3.86498L5.1353 12.0584H6.20874L7.41107 14.9701V12.0584H7.66865H8.54874L8.569 12.102H8.57048L9.11226 13.2953L9.50133 14.1895L9.5151 14.1444L10.3739 12.0585H11.5335V15.1006H11.5335ZM14.4966 12.7103H12.8218V13.2752H14.4536V13.8836H12.8218V14.4922H14.4966V15.1439H12.0919V12.0585H14.4966V12.7103ZM17.5594 13.8309C17.5605 13.8319 17.5619 13.8326 17.5633 13.8335C17.5795 13.8509 17.5934 13.8683 17.6053 13.885C17.6875 13.9941 17.754 14.1565 17.7574 14.3945C17.7576 14.3986 17.7578 14.4026 17.758 14.4068C17.758 14.4091 17.7585 14.4112 17.7585 14.4136C17.7585 14.415 17.7584 14.4161 17.7584 14.4174C17.7593 14.4413 17.76 14.4658 17.76 14.4922V15.1006H17.116V14.7528C17.116 14.579 17.116 14.3182 16.987 14.1444C16.9464 14.1033 16.9053 14.0763 16.8606 14.057C16.7963 14.0148 16.6743 14.0141 16.4719 14.0141H15.6987V15.1006H14.9688V12.0585H16.6007C16.987 12.0585 17.2447 12.0585 17.4595 12.1888C17.6699 12.3167 17.797 12.5288 17.8018 12.8646C17.7919 13.3271 17.4985 13.5808 17.2876 13.6664C17.2876 13.6664 17.4309 13.6956 17.5594 13.8309ZM19.0054 15.1006H18.2753V12.0584H19.0054V15.1006ZM27.379 15.1006H26.4341L25.0601 12.7971V14.7093L25.0556 14.7048V15.1025H24.3301V15.1006H23.6L23.3424 14.4488H21.8393L21.5817 15.144H20.7658C20.4225 15.144 19.9928 15.0571 19.7353 14.7964C19.4776 14.5356 19.3489 14.188 19.3489 13.6231C19.3489 13.1885 19.4347 12.7536 19.7353 12.4061C19.9498 12.1451 20.3365 12.0585 20.8087 12.0585H21.496V12.7103H20.8087C20.5511 12.7103 20.4225 12.7536 20.2504 12.8842C20.1218 13.0145 20.0359 13.2752 20.0359 13.5794C20.0359 13.9271 20.0788 14.1444 20.2504 14.3182C20.3795 14.4488 20.5511 14.4923 20.7658 14.4923H21.0664L22.0539 12.1021H22.4836H23.1275L24.3301 15.0138V14.8653V13.8837V13.7969V12.1021H25.4035L26.6486 14.2315V12.1021H27.3789V15.1007H27.379V15.1006Z" fill="white"/>
<path d="M16.9471 13.3255C16.9596 13.3119 16.971 13.2965 16.9806 13.2789C17.0195 13.2166 17.0641 13.1043 17.0401 12.9511C17.0391 12.9371 17.0366 12.9241 17.0336 12.9115C17.0328 12.908 17.0329 12.905 17.032 12.9015L17.0315 12.9015C17.0102 12.8271 16.9557 12.7813 16.9012 12.7536C16.8152 12.7103 16.6863 12.7103 16.5576 12.7103H15.6986V13.4057H16.5576C16.6863 13.4057 16.8152 13.4057 16.9012 13.3621C16.9142 13.3555 16.9256 13.3465 16.9367 13.3363L16.9368 13.3369C16.9368 13.3369 16.9413 13.3322 16.9471 13.3255Z" fill="white"/>
<path d="M29.9124 19.4465C29.9124 19.1423 29.8266 18.838 29.6978 18.6208V16.6652H29.6959V16.5346C29.6959 16.5346 27.896 16.5346 27.6281 16.5346C27.3603 16.5346 27.0353 16.7953 27.0353 16.7953V16.5346H25.0601C24.7594 16.5346 24.3732 16.6216 24.2012 16.7953V16.5346H20.6801V16.6652V16.7953C20.4226 16.5781 19.9499 16.5346 19.7353 16.5346H17.4165V16.6651V16.7952C17.2018 16.5781 16.6863 16.5345 16.4285 16.5345H13.8524L13.2511 17.1865L12.6928 16.5345H12.513H12.2205H8.82825V16.6651V17.0084V20.9241H12.6071L13.228 20.2955L13.7662 20.9241H13.8093H15.9867H16.0854H16.1284H16.1711V20.4895V19.9246H16.3859C16.6863 19.9246 17.0729 19.9246 17.3735 19.794V20.8804V20.9675H19.3059V20.8804V19.8375H19.3916C19.5206 19.8375 19.5206 19.8375 19.5206 19.9679V20.8804V20.9675H25.3604C25.7472 20.9675 26.1334 20.8804 26.3481 20.7066V20.8804V20.9675H28.1947C28.5809 20.9675 28.9677 20.9241 29.2253 20.7501C29.6207 20.5101 29.8699 20.0851 29.9069 19.5783C29.9087 19.5633 29.9108 19.5483 29.9122 19.5333L29.9097 19.5308C29.9113 19.5027 29.9124 19.4749 29.9124 19.4465ZM16.386 19.1858H15.527V19.3159V19.5768V19.8376V20.3156H14.1156L13.2941 19.3595L13.2912 19.3626L13.2511 19.3159L12.3064 20.3156H9.5582V17.2736H12.3494L13.112 18.1189L13.2723 18.2959L13.294 18.2731L14.1959 17.2736H16.4717C16.9134 17.2736 17.408 17.384 17.5954 17.8388C17.618 17.9288 17.6311 18.029 17.6311 18.1427C17.6311 19.0118 17.0299 19.1858 16.386 19.1858ZM20.6801 19.1423C20.7659 19.2723 20.8089 19.4465 20.8089 19.7073V20.3156H20.079V19.9246C20.079 19.7505 20.079 19.4465 19.95 19.3159C19.8643 19.1858 19.6923 19.1858 19.4348 19.1858H18.662V20.3156H17.932V17.2301H19.5637C19.907 17.2301 20.2075 17.2301 20.4226 17.3603C20.6372 17.4908 20.8089 17.7081 20.8089 18.0558C20.8089 18.5338 20.5084 18.7945 20.2936 18.8816C20.5084 18.9681 20.6372 19.0553 20.6801 19.1423ZM23.6431 17.8817H21.9682V18.4467H23.6V19.0553H21.9682V19.6638H23.6431V20.3156H21.2384V17.23H23.6431V17.8817ZM25.4465 20.3156H24.0724V19.6638H25.4465C25.5751 19.6638 25.6612 19.6638 25.7473 19.5768C25.7903 19.5333 25.833 19.4465 25.833 19.3595C25.833 19.2724 25.7903 19.1859 25.7473 19.1423C25.7042 19.0989 25.6182 19.0554 25.4894 19.0554C24.8023 19.0119 23.9864 19.0554 23.9864 18.0994C23.9864 17.6648 24.2441 17.1866 25.0171 17.1866H26.4341V17.9253H25.103C24.9742 17.9253 24.8882 17.9253 24.8022 17.9688C24.7166 18.0124 24.7166 18.0994 24.7166 18.1862C24.7166 18.3166 24.8022 18.3601 24.8881 18.4033C24.9742 18.4468 25.06 18.4468 25.1458 18.4468H25.5323C25.9189 18.4468 26.1764 18.5338 26.3482 18.7076C26.4771 18.8381 26.563 19.0554 26.563 19.3595C26.563 20.0112 26.1765 20.3156 25.4465 20.3156ZM29.1395 20.0112C28.9679 20.1853 28.6672 20.3156 28.2376 20.3156H26.8638V19.6638H28.2375C28.3664 19.6638 28.4525 19.6638 28.5383 19.5768C28.5811 19.5333 28.6242 19.4465 28.6242 19.3595C28.6242 19.2724 28.5811 19.1859 28.5383 19.1423C28.4953 19.0989 28.4095 19.0554 28.2807 19.0554C27.5938 19.0119 26.7777 19.0554 26.7777 18.0995C26.7777 17.6864 27.0112 17.3133 27.5871 17.2025C27.6559 17.1928 27.7287 17.1866 27.8083 17.1866H29.2255V17.9253H28.2807H27.9372H27.8942C27.7654 17.9253 27.6796 17.9253 27.5938 17.9688C27.5506 18.0124 27.5076 18.0994 27.5076 18.1862C27.5076 18.3166 27.5506 18.3601 27.6796 18.4033C27.7654 18.4468 27.8513 18.4468 27.9372 18.4468H27.9799H28.3236C28.5112 18.4468 28.6532 18.4703 28.783 18.5165C28.902 18.56 29.2957 18.7383 29.3838 19.2036C29.3915 19.2523 29.3971 19.3032 29.3971 19.3595C29.3971 19.6203 29.3112 19.8376 29.1395 20.0112Z" fill="white"/>
</g>
<defs>
<clipPath id="clip0_3453_996">
<rect width="31.6191" height="32" fill="white" transform="translate(0.571777)"/>
</clipPath>
</defs>
</svg>
