<svg width="32" height="32" viewBox="0 0 32 32" fill="none" xmlns="http://www.w3.org/2000/svg">
<path d="M8 14.6666C8 10.8954 8 9.00977 9.17157 7.8382C10.3431 6.66663 12.2288 6.66663 16 6.66663H20C23.7712 6.66663 25.6568 6.66663 26.8284 7.8382C28 9.00977 28 10.8954 28 14.6666V21.3333C28 25.1045 28 26.9901 26.8284 28.1617C25.6568 29.3333 23.7712 29.3333 20 29.3333H16C12.2288 29.3333 10.3431 29.3333 9.17157 28.1617C8 26.9901 8 25.1045 8 21.3333V14.6666Z" stroke="#A2A2A2" stroke-width="2"/>
<path d="M8 25.3333C5.79087 25.3333 4 23.5425 4 21.3333V13.3333C4 8.30497 4 5.79083 5.56209 4.22872C7.1242 2.66663 9.63835 2.66663 14.6667 2.66663H20C22.2092 2.66663 24 4.45749 24 6.66663" stroke="#A2A2A2" stroke-width="2"/>
</svg>
