<svg width="26" height="19" viewBox="0 0 26 19" fill="none" xmlns="http://www.w3.org/2000/svg">
<path d="M22.12 0H3.88C2.85004 0.00264772 1.86317 0.413655 1.13582 1.14288C0.408462 1.87211 -3.40322e-06 2.86004 0 3.89V15.11C-3.40322e-06 16.14 0.408462 17.1279 1.13582 17.8571C1.86317 18.5863 2.85004 18.9974 3.88 19H22.12C23.15 18.9974 24.1368 18.5863 24.8642 17.8571C25.5915 17.1279 26 16.14 26 15.11V3.89C26 2.86004 25.5915 1.87211 24.8642 1.14288C24.1368 0.413655 23.15 0.00264772 22.12 0ZM3.88 2H22.12C22.6195 2.00264 23.0977 2.20293 23.45 2.55709C23.8023 2.91125 24 3.39047 24 3.89V5H2V3.89C1.99999 3.39047 2.19774 2.91125 2.55003 2.55709C2.90231 2.20293 3.38048 2.00264 3.88 2ZM22.12 17H3.88C3.38048 16.9974 2.90231 16.7971 2.55003 16.4429C2.19774 16.0888 1.99999 15.6095 2 15.11V7H24V15.11C24 15.6095 23.8023 16.0888 23.45 16.4429C23.0977 16.7971 22.6195 16.9974 22.12 17Z" fill="#A2A2A2"/>
<path d="M21 13H16C15.7348 13 15.4804 13.1054 15.2929 13.2929C15.1054 13.4804 15 13.7348 15 14C15 14.2652 15.1054 14.5196 15.2929 14.7071C15.4804 14.8946 15.7348 15 16 15H21C21.2652 15 21.5196 14.8946 21.7071 14.7071C21.8946 14.5196 22 14.2652 22 14C22 13.7348 21.8946 13.4804 21.7071 13.2929C21.5196 13.1054 21.2652 13 21 13Z" fill="#A2A2A2"/>
</svg>
