<svg width="33" height="32" viewBox="0 0 33 32" fill="none" xmlns="http://www.w3.org/2000/svg">
<g clip-path="url(#clip0_3453_993)">
<path d="M17.4723 13.44C18.9566 13.44 20.1599 14.5845 20.1599 15.9984V16C20.1599 17.4139 18.9566 18.56 17.4723 18.56C15.9879 18.56 14.7847 17.4139 14.7847 16V15.9984C14.7847 14.5845 15.9879 13.44 17.4723 13.44Z" fill="#F47216"/>
<path d="M13.246 13.44C13.671 13.44 14.0274 13.5272 14.4614 13.7373V14.8483C14.0504 14.4644 13.694 14.3037 13.2226 14.3037C12.296 14.3037 11.5675 15.0368 11.5675 15.9662C11.5675 16.9463 12.2736 17.6358 13.2685 17.6358C13.7164 17.6358 14.0662 17.4835 14.4614 17.1057V18.2172C14.012 18.4194 13.648 18.4992 13.2226 18.4992C11.7183 18.4992 10.5494 17.3959 10.5494 15.9731C10.5493 14.5655 11.7493 13.44 13.246 13.44ZM8.57534 13.4706C9.13065 13.4706 9.63867 13.6522 10.0635 14.0073L9.54657 14.6542C9.28922 14.3785 9.04585 14.2623 8.74997 14.2623C8.32414 14.2623 8.01407 14.4939 8.01407 14.7988C8.01407 15.0602 8.18808 15.1985 8.7809 15.4081C9.90459 15.8008 10.2377 16.1491 10.2377 16.9181C10.2377 17.8552 9.51738 18.5076 8.49089 18.5076C7.73911 18.5076 7.19266 18.2246 6.73748 17.5862L7.37561 16.9988C7.6031 17.4191 7.98267 17.6444 8.4539 17.6444C8.8946 17.6444 9.22087 17.3539 9.22087 16.9617C9.22087 16.7584 9.12199 16.5841 8.9247 16.4609C8.82534 16.4025 8.62853 16.3155 8.2418 16.1852C7.31395 15.866 6.99566 15.5247 6.99566 14.8578C6.99561 14.0655 7.67923 13.4706 8.57534 13.4706ZM19.8642 13.555H20.9433L22.294 16.8063L23.6621 13.555H24.7331L22.5451 18.52H22.0134L19.8642 13.555ZM5.3775 13.5624H6.36542V18.4031H5.3775V13.5624ZM25.1797 13.5624H27.9814V14.3826H26.1669V15.4571H27.9145V16.2769H26.1669V17.5835H27.9814V18.4031H25.1797V13.5624ZM30.739 16.3638C31.4831 16.2191 31.8925 15.7327 31.8925 14.9916C31.8925 14.0853 31.2396 13.5625 30.1001 13.5625H28.6355V18.4032H29.6222V16.4585H29.7511L31.1185 18.4031H32.3333L30.739 16.3638ZM29.9109 15.7908H29.6222V14.3249H29.9265C30.5417 14.3249 30.8761 14.5714 30.8761 15.0424C30.8762 15.5291 30.5418 15.7908 29.9109 15.7908ZM2.2038 13.5624H0.753784V18.4031H2.19625C2.96318 18.4031 3.51718 18.2301 4.00333 17.8443C4.58114 17.3873 4.92276 16.6985 4.92276 15.9861C4.92281 14.5576 3.80595 13.5624 2.2038 13.5624ZM3.35794 17.1989C3.04753 17.4666 2.64435 17.5835 2.00608 17.5835H1.74089V14.3826H2.00604C2.64431 14.3826 3.03157 14.4919 3.35789 14.7741C3.69956 15.0649 3.90507 15.5155 3.90507 15.9792C3.90512 16.4437 3.69956 16.908 3.35794 17.1989Z" fill="black"/>
</g>
<defs>
<clipPath id="clip0_3453_993">
<rect width="31.6191" height="32" fill="white" transform="translate(0.714233)"/>
</clipPath>
</defs>
</svg>
