<svg width="33" height="32" viewBox="0 0 33 32" fill="none" xmlns="http://www.w3.org/2000/svg">
<g clip-path="url(#clip0_3453_987)">
<path d="M6.60547 28.3139V26.6675C6.60547 26.0364 6.22587 25.6248 5.57514 25.6248C5.24977 25.6248 4.89729 25.7345 4.65326 26.0913C4.46346 25.7894 4.19232 25.6248 3.78561 25.6248C3.51448 25.6248 3.24334 25.7071 3.02642 26.0089V25.6796H2.45703V28.3139H3.02642V26.8596C3.02642 26.3931 3.27045 26.1736 3.65005 26.1736C4.02964 26.1736 4.21944 26.4205 4.21944 26.8596V28.3139H4.78883V26.8596C4.78883 26.3931 5.05997 26.1736 5.41245 26.1736C5.79205 26.1736 5.98185 26.4205 5.98185 26.8596V28.3139H6.60547ZM15.0379 25.6796H14.116V24.8839H13.5466V25.6796H13.0315V26.201H13.5466V27.4084C13.5466 28.0121 13.7907 28.3688 14.4414 28.3688C14.6854 28.3688 14.9566 28.2865 15.1464 28.1767L14.9837 27.6828C14.821 27.7926 14.6312 27.82 14.4956 27.82C14.2245 27.82 14.116 27.6554 14.116 27.381V26.201H15.0379V25.6796ZM19.8642 25.6248C19.5388 25.6248 19.3219 25.7894 19.1863 26.0089V25.6796H18.6169V28.3139H19.1863V26.8322C19.1863 26.3931 19.3761 26.1461 19.7286 26.1461C19.8371 26.1461 19.9726 26.1736 20.0811 26.201L20.2438 25.6522C20.1353 25.6248 19.9726 25.6248 19.8642 25.6248ZM12.5705 25.8992C12.2994 25.7071 11.9198 25.6248 11.5131 25.6248C10.8624 25.6248 10.4285 25.9541 10.4285 26.4754C10.4285 26.9145 10.7539 27.1614 11.3233 27.2438L11.5944 27.2712C11.8927 27.3261 12.0554 27.4084 12.0554 27.5456C12.0554 27.7377 11.8385 27.8749 11.4589 27.8749C11.0793 27.8749 10.781 27.7377 10.5912 27.6005L10.3201 28.0395C10.6183 28.2591 11.025 28.3688 11.4317 28.3688C12.1909 28.3688 12.6248 28.0121 12.6248 27.5182C12.6248 27.0517 12.2723 26.8047 11.73 26.7224L11.4589 26.6949C11.2148 26.6675 11.025 26.6126 11.025 26.448C11.025 26.2559 11.2148 26.1461 11.5131 26.1461C11.8385 26.1461 12.1638 26.2833 12.3265 26.3657L12.5705 25.8992ZM27.7001 25.6248C27.3748 25.6248 27.1578 25.7894 27.0223 26.0089V25.6796H26.4529V28.3139H27.0223V26.8322C27.0223 26.3931 27.2121 26.1461 27.5646 26.1461C27.673 26.1461 27.8086 26.1736 27.917 26.201L28.0797 25.6522C27.9713 25.6248 27.8086 25.6248 27.7001 25.6248ZM20.4336 26.9968C20.4336 27.7926 20.9759 28.3688 21.8164 28.3688C22.196 28.3688 22.4671 28.2865 22.7383 28.067L22.4671 27.6005C22.2502 27.7651 22.0333 27.8475 21.7893 27.8475C21.3283 27.8475 21.003 27.5182 21.003 26.9968C21.003 26.5029 21.3283 26.1736 21.7893 26.1461C22.0333 26.1461 22.2502 26.2285 22.4671 26.3931L22.7383 25.9266C22.4671 25.7071 22.196 25.6248 21.8164 25.6248C20.9759 25.6248 20.4336 26.201 20.4336 26.9968ZM25.6937 26.9968V25.6796H25.1243V26.0089C24.9345 25.762 24.6634 25.6248 24.3109 25.6248C23.5788 25.6248 23.0094 26.201 23.0094 26.9968C23.0094 27.7926 23.5788 28.3688 24.3109 28.3688C24.6905 28.3688 24.9616 28.2316 25.1243 27.9847V28.3139H25.6937V26.9968ZM23.6059 26.9968C23.6059 26.5303 23.9042 26.1461 24.3922 26.1461C24.8532 26.1461 25.1785 26.5029 25.1785 26.9968C25.1785 27.4633 24.8532 27.8475 24.3922 27.8475C23.9042 27.82 23.6059 27.4633 23.6059 26.9968ZM16.8003 25.6248C16.0411 25.6248 15.4988 26.1736 15.4988 26.9968C15.4988 27.82 16.0411 28.3688 16.8274 28.3688C17.207 28.3688 17.5866 28.2591 17.8849 28.0121L17.6137 27.6005C17.3968 27.7651 17.1257 27.8749 16.8545 27.8749C16.5021 27.8749 16.1496 27.7103 16.0682 27.2438H17.9933V27.0242C18.0204 26.1736 17.5324 25.6248 16.8003 25.6248ZM16.8003 26.1187C17.1528 26.1187 17.3968 26.3382 17.451 26.7498H16.0954C16.1496 26.3931 16.3936 26.1187 16.8003 26.1187ZM30.9267 26.9968V24.6369H30.3573V26.0089C30.1675 25.762 29.8964 25.6248 29.5439 25.6248C28.8118 25.6248 28.2424 26.201 28.2424 26.9968C28.2424 27.7926 28.8118 28.3688 29.5439 28.3688C29.9235 28.3688 30.1946 28.2316 30.3573 27.9847V28.3139H30.9267V26.9968ZM28.8389 26.9968C28.8389 26.5303 29.1372 26.1461 29.6252 26.1461C30.0862 26.1461 30.4115 26.5029 30.4115 26.9968C30.4115 27.4633 30.0862 27.8475 29.6252 27.8475C29.1372 27.82 28.8389 27.4633 28.8389 26.9968ZM9.80491 26.9968V25.6796H9.23552V26.0089C9.04572 25.762 8.77458 25.6248 8.4221 25.6248C7.69002 25.6248 7.12063 26.201 7.12063 26.9968C7.12063 27.7926 7.69002 28.3688 8.4221 28.3688C8.8017 28.3688 9.07284 28.2316 9.23552 27.9847V28.3139H9.80491V26.9968ZM7.69002 26.9968C7.69002 26.5303 7.98828 26.1461 8.47633 26.1461C8.93727 26.1461 9.26263 26.5029 9.26263 26.9968C9.26263 27.4633 8.93727 27.8475 8.47633 27.8475C7.98828 27.82 7.69002 27.4633 7.69002 26.9968Z" fill="black"/>
<path d="M20.9216 5.67542H12.3807V21.2068H20.9216V5.67542Z" fill="#FF5F00"/>
<path d="M12.923 13.4411C12.923 10.2855 14.3872 7.48651 16.6376 5.67543C14.9837 4.35828 12.8959 3.5625 10.6183 3.5625C5.22265 3.5625 0.8573 7.98044 0.8573 13.4411C0.8573 18.9018 5.22265 23.3198 10.6183 23.3198C12.8959 23.3198 14.9837 22.524 16.6376 21.2068C14.3872 19.4232 12.923 16.5968 12.923 13.4411Z" fill="#EB001B"/>
<path d="M32.445 13.4411C32.445 18.9018 28.0796 23.3198 22.684 23.3198C20.4064 23.3198 18.3186 22.524 16.6647 21.2068C18.9422 19.3957 20.3793 16.5968 20.3793 13.4411C20.3793 10.2855 18.9151 7.48651 16.6647 5.67543C18.3186 4.35828 20.4064 3.5625 22.684 3.5625C28.0796 3.5625 32.445 8.00788 32.445 13.4411Z" fill="#F79E1B"/>
</g>
<defs>
<clipPath id="clip0_3453_987">
<rect width="31.6191" height="32" fill="white" transform="translate(0.8573)"/>
</clipPath>
</defs>
</svg>
