<svg width="28" height="32" viewBox="0 0 28 32" fill="none" xmlns="http://www.w3.org/2000/svg">
<path d="M9.26388 16.0358L12.4218 19.2493L18.7376 12.8222M26.6323 16.0358C26.6323 23.2037 18.0112 28.3977 15.0135 29.9873C14.6893 30.1592 14.5271 30.2452 14.3023 30.2897C14.127 30.3244 13.8744 30.3244 13.6991 30.2897C13.4743 30.2452 13.3121 30.1592 12.988 29.9873C9.99013 28.3977 1.36914 23.2037 1.36914 16.0358V9.95833C1.36914 8.6737 1.36914 8.0314 1.5756 7.47927C1.75799 6.9915 2.05437 6.55629 2.43913 6.21124C2.87467 5.82065 3.46567 5.59513 4.64767 5.14406L13.1137 1.91339C13.4419 1.78812 13.606 1.72549 13.7749 1.70065C13.9246 1.67864 14.0768 1.67864 14.2265 1.70065C14.3955 1.72549 14.5595 1.78812 14.8878 1.91339L23.3538 5.14406C24.5358 5.59513 25.1268 5.82065 25.5622 6.21124C25.947 6.55629 26.2434 6.9915 26.4258 7.47927C26.6323 8.0314 26.6323 8.6737 26.6323 9.95833V16.0358Z" stroke="#00B57A" stroke-width="2" stroke-linecap="round" stroke-linejoin="round"/>
</svg>
