<svg width="112" height="17" viewBox="0 0 112 17" fill="none" xmlns="http://www.w3.org/2000/svg">
<path d="M8.46932 12.9326L13.7034 16.0917L12.3144 10.1378L16.9386 6.13178L10.8492 5.60669L8.46932 0L6.08944 5.60669L0 6.13178L4.61578 10.1378L3.23528 16.0917L8.46932 12.9326Z" fill="#1E1E1E"/>
<path d="M32.2345 12.9326L37.4685 16.0916L36.0795 10.1377L40.7038 6.13172L34.6143 5.60663L32.2345 -6.10352e-05L29.8546 5.60663L23.7651 6.13172L28.3809 10.1377L27.0004 16.0916L32.2345 12.9326Z" fill="#1E1E1E"/>
<path d="M56.0001 12.9326L61.2341 16.0916L59.8452 10.1377L64.4694 6.13172L58.38 5.60663L56.0001 -6.10352e-05L53.6202 5.60663L47.5308 6.13172L52.1465 10.1377L50.766 16.0916L56.0001 12.9326Z" fill="#1E1E1E"/>
<path d="M79.7652 12.9326L84.9993 16.0916L83.6103 10.1377L88.2345 6.13172L82.1451 5.60663L79.7652 -6.10352e-05L77.3853 5.60663L71.2959 6.13172L75.9117 10.1377L74.5312 16.0916L79.7652 12.9326Z" fill="#1E1E1E"/>
<path d="M103.531 12.9326L108.765 16.0916L107.376 10.1377L112 6.13172L105.911 5.60663L103.531 -6.10352e-05L101.151 5.60663L95.0615 6.13172L99.6773 10.1377L98.2968 16.0916L103.531 12.9326Z" fill="#1E1E1E"/>
</svg>
