<svg width="112" height="17" viewBox="0 0 112 17" fill="none" xmlns="http://www.w3.org/2000/svg">
<path d="M8.46932 12.9326L13.7034 16.0917L12.3144 10.1378L16.9386 6.13178L10.8492 5.60669L8.46932 0L6.08944 5.60669L0 6.13178L4.61578 10.1378L3.23528 16.0917L8.46932 12.9326Z" fill="white"/>
<path d="M32.2345 12.9325L37.4685 16.0916L36.0795 10.1376L40.7038 6.13166L34.6143 5.60656L32.2345 -0.00012207L29.8546 5.60656L23.7651 6.13166L28.3809 10.1376L27.0004 16.0916L32.2345 12.9325Z" fill="white"/>
<path d="M56.0001 12.9325L61.2341 16.0916L59.8452 10.1376L64.4694 6.13166L58.38 5.60656L56.0001 -0.00012207L53.6202 5.60656L47.5308 6.13166L52.1465 10.1376L50.766 16.0916L56.0001 12.9325Z" fill="white"/>
<path d="M79.7652 12.9325L84.9993 16.0916L83.6103 10.1376L88.2345 6.13166L82.1451 5.60656L79.7652 -0.00012207L77.3853 5.60656L71.2959 6.13166L75.9117 10.1376L74.5312 16.0916L79.7652 12.9325Z" fill="white"/>
<path d="M103.531 12.9325L108.765 16.0916L107.376 10.1376L112 6.13166L105.911 5.60656L103.531 -0.00012207L101.151 5.60656L95.0615 6.13166L99.6773 10.1376L98.2968 16.0916L103.531 12.9325Z" fill="white"/>
</svg>
