<svg width="32" height="32" viewBox="0 0 32 32" fill="none" xmlns="http://www.w3.org/2000/svg">
<g clip-path="url(#clip0_3453_979)">
<path d="M13.7026 21.0216H11.1414L12.7433 10.9969H15.3044L13.7026 21.0216Z" fill="#00579F"/>
<path d="M22.9873 11.2419C22.4821 11.0391 21.6808 10.8152 20.6901 10.8152C18.1608 10.8152 16.3797 12.1802 16.3688 14.1317C16.3477 15.5715 17.644 16.3712 18.6134 16.8513C19.6043 17.3419 19.9412 17.6621 19.9412 18.0994C19.9311 18.771 19.1405 19.0805 18.4031 19.0805C17.3805 19.0805 16.8326 18.9209 16 18.5473L15.6627 18.3871L15.3043 20.6375C15.905 20.9144 17.0118 21.1602 18.1608 21.171C20.8482 21.171 22.5978 19.8271 22.6185 17.7474C22.6287 16.6063 21.9443 15.7318 20.4686 15.0173C19.5728 14.5586 19.0242 14.2493 19.0242 13.78C19.0347 13.3534 19.4882 12.9164 20.4994 12.9164C21.3321 12.895 21.9439 13.0975 22.4073 13.3002L22.639 13.4067L22.9873 11.2419Z" fill="#00579F"/>
<path d="M26.3913 17.4702C26.6023 16.8943 27.4139 14.6653 27.4139 14.6653C27.4032 14.6867 27.6244 14.0788 27.7509 13.7056L27.9299 14.5694C27.9299 14.5694 28.4149 16.969 28.5202 17.4702C28.1199 17.4702 26.8972 17.4702 26.3913 17.4702ZM29.5528 10.9969H27.5717C26.9608 10.9969 26.4967 11.178 26.2331 11.8286L22.4287 21.0214H25.1161C25.1161 21.0214 25.5586 19.7841 25.6537 19.5177C25.9485 19.5177 28.5628 19.5177 28.942 19.5177C29.0156 19.8696 29.2477 21.0214 29.2477 21.0214H31.6191L29.5528 10.9969Z" fill="#00579F"/>
<path d="M9.00213 10.9969L6.49386 17.8328L6.21977 16.4464C5.75604 14.8466 4.30169 13.1086 2.67871 12.2443L4.9762 21.0109H7.68462L11.7104 10.9969H9.00213Z" fill="#00579F"/>
<path d="M4.16474 10.9969H0.043988L0.00183105 11.1994C3.21627 12.0313 5.34514 14.0366 6.21979 16.4468L5.32399 11.8395C5.17651 11.1993 4.72328 11.018 4.16474 10.9969Z" fill="#FAA61A"/>
</g>
<defs>
<clipPath id="clip0_3453_979">
<rect width="31.6191" height="32" fill="white"/>
</clipPath>
</defs>
</svg>
