<svg width="24" height="24" viewBox="0 0 24 24" fill="none" xmlns="http://www.w3.org/2000/svg">
<path d="M15.2992 15C15.2992 15.3183 15.1728 15.6235 14.9477 15.8485C14.7227 16.0736 14.4175 16.2 14.0992 16.2C13.781 16.2 13.4757 16.0736 13.2507 15.8485C13.0256 15.6235 12.8992 15.3183 12.8992 15C12.8992 14.6818 13.0256 14.3765 13.2507 14.1515C13.4757 13.9264 13.781 13.8 14.0992 13.8C14.4175 13.8 14.7227 13.9264 14.9477 14.1515C15.1728 14.3765 15.2992 14.6818 15.2992 15ZM11.0992 15C11.0992 15.3183 10.9728 15.6235 10.7477 15.8485C10.5227 16.0736 10.2175 16.2 9.89922 16.2C9.58096 16.2 9.27573 16.0736 9.05069 15.8485C8.82565 15.6235 8.69922 15.3183 8.69922 15C8.69922 14.6818 8.82565 14.3765 9.05069 14.1515C9.27573 13.9264 9.58096 13.8 9.89922 13.8C10.2175 13.8 10.5227 13.9264 10.7477 14.1515C10.9728 14.3765 11.0992 14.6818 11.0992 15Z" fill="#60A5FA"/>
<path fill-rule="evenodd" clip-rule="evenodd" d="M12.0008 9.60001C13.1147 9.60001 14.183 9.15751 14.9706 8.36986C15.7583 7.58221 16.2008 6.51392 16.2008 5.40001C16.2008 4.2861 15.7583 3.21782 14.9706 2.43016C14.183 1.64251 13.1147 1.20001 12.0008 1.20001C10.8869 1.20001 9.81859 1.64251 9.03093 2.43016C8.24328 3.21782 7.80078 4.2861 7.80078 5.40001C7.80078 6.51392 8.24328 7.58221 9.03093 8.36986C9.81859 9.15751 10.8869 9.60001 12.0008 9.60001ZM12.0008 3.60001C12.4782 3.60001 12.936 3.78965 13.2736 4.12722C13.6111 4.46479 13.8008 4.92262 13.8008 5.40001C13.8008 5.8774 13.6111 6.33524 13.2736 6.6728C12.936 7.01037 12.4782 7.20001 12.0008 7.20001C11.5234 7.20001 11.0656 7.01037 10.728 6.6728C10.3904 6.33524 10.2008 5.8774 10.2008 5.40001C10.2008 4.92262 10.3904 4.46479 10.728 4.12722C11.0656 3.78965 11.5234 3.60001 12.0008 3.60001Z" fill="#60A5FA"/>
<path d="M12.0016 16.8C12.6381 16.8 13.2485 17.0529 13.6986 17.503C14.1487 17.953 14.4016 18.5635 14.4016 19.2V21C14.4016 21.6365 14.1487 22.247 13.6986 22.6971C13.2485 23.1472 12.6381 23.4 12.0016 23.4C11.365 23.4 10.7546 23.1472 10.3045 22.6971C9.85442 22.247 9.60156 21.6365 9.60156 21V19.2C9.60156 18.5635 9.85442 17.953 10.3045 17.503C10.7546 17.0529 11.365 16.8 12.0016 16.8Z" fill="#60A5FA"/>
<path fill-rule="evenodd" clip-rule="evenodd" d="M18 13.2C18 11.6087 17.3679 10.0826 16.2426 8.95737C15.1174 7.83215 13.5913 7.20001 12 7.20001C10.4087 7.20001 8.88258 7.83215 7.75736 8.95737C6.63214 10.0826 6 11.6087 6 13.2V16.2C6 16.9957 6.31607 17.7587 6.87868 18.3213C7.44129 18.8839 8.20435 19.2 9 19.2H15C15.7956 19.2 16.5587 18.8839 17.1213 18.3213C17.6839 17.7587 18 16.9957 18 16.2V13.2ZM8.4 13.2C8.4 12.2452 8.77928 11.3296 9.45442 10.6544C10.1295 9.9793 11.0452 9.60001 12 9.60001C12.9548 9.60001 13.8705 9.9793 14.5456 10.6544C15.2207 11.3296 15.6 12.2452 15.6 13.2V16.2C15.6 16.3591 15.5368 16.5118 15.4243 16.6243C15.3117 16.7368 15.1591 16.8 15 16.8H9C8.84087 16.8 8.68826 16.7368 8.57574 16.6243C8.46321 16.5118 8.4 16.3591 8.4 16.2V13.2Z" fill="#60A5FA"/>
<path d="M18.6008 5.4C18.2825 5.4 17.9773 5.27357 17.7523 5.04853C17.5272 4.82348 17.4008 4.51826 17.4008 4.2C17.4008 3.88174 17.5272 3.57652 17.7523 3.35147C17.9773 3.12643 18.2825 3 18.6008 3H21.0008C21.319 3 21.6243 3.12643 21.8493 3.35147C22.0744 3.57652 22.2008 3.88174 22.2008 4.2C22.2008 4.51826 22.0744 4.82348 21.8493 5.04853C21.6243 5.27357 21.319 5.4 21.0008 5.4H18.6008ZM3.00078 5.4C2.68252 5.4 2.3773 5.27357 2.15225 5.04853C1.92721 4.82348 1.80078 4.51826 1.80078 4.2C1.80078 3.88174 1.92721 3.57652 2.15225 3.35147C2.3773 3.12643 2.68252 3 3.00078 3H5.40078C5.71904 3 6.02427 3.12643 6.24931 3.35147C6.47435 3.57652 6.60078 3.88174 6.60078 4.2C6.60078 4.51826 6.47435 4.82348 6.24931 5.04853C6.02427 5.27357 5.71904 5.4 5.40078 5.4H3.00078Z" fill="#60A5FA"/>
<path d="M4.09375 4.85522L4.66495 3.10922L10.0937 4.14482L9.52135 5.89202L4.09375 4.85522ZM13.9097 4.14482L14.4822 5.89202L19.9097 4.85522L19.3385 3.10922L13.9097 4.14482Z" fill="#60A5FA"/>
</svg>
