<svg width="20" height="21" viewBox="0 0 20 21" fill="none" xmlns="http://www.w3.org/2000/svg">
<path d="M9 15.3203H11V9.32031H9V15.3203ZM10 7.32031C10.2833 7.32031 10.521 7.22431 10.713 7.03231C10.905 6.84031 11.0007 6.60298 11 6.32031C10.9993 6.03765 10.9033 5.80031 10.712 5.60831C10.5207 5.41631 10.2833 5.32031 10 5.32031C9.71667 5.32031 9.47933 5.41631 9.288 5.60831C9.09667 5.80031 9.00067 6.03765 9 6.32031C8.99933 6.60298 9.09533 6.84065 9.288 7.03331C9.48067 7.22598 9.718 7.32165 10 7.32031ZM10 20.3203C8.61667 20.3203 7.31667 20.0576 6.1 19.5323C4.88334 19.007 3.825 18.2946 2.925 17.3953C2.025 16.496 1.31267 15.4376 0.788001 14.2203C0.263335 13.003 0.000667933 11.703 1.26582e-06 10.3203C-0.000665401 8.93765 0.262001 7.63765 0.788001 6.42031C1.314 5.20298 2.02633 4.14465 2.925 3.24531C3.82367 2.34598 4.882 1.63365 6.1 1.10831C7.318 0.582979 8.618 0.320313 10 0.320312C11.382 0.320312 12.682 0.582979 13.9 1.10831C15.118 1.63365 16.1763 2.34598 17.075 3.24531C17.9737 4.14465 18.6863 5.20298 19.213 6.42031C19.7397 7.63765 20.002 8.93765 20 10.3203C19.998 11.703 19.7353 13.003 19.212 14.2203C18.6887 15.4376 17.9763 16.496 17.075 17.3953C16.1737 18.2946 15.1153 19.0073 13.9 19.5333C12.6847 20.0593 11.3847 20.3216 10 20.3203ZM10 18.3203C12.2333 18.3203 14.125 17.5453 15.675 15.9953C17.225 14.4453 18 12.5536 18 10.3203C18 8.08698 17.225 6.19531 15.675 4.64531C14.125 3.09531 12.2333 2.32031 10 2.32031C7.76667 2.32031 5.875 3.09531 4.325 4.64531C2.775 6.19531 2 8.08698 2 10.3203C2 12.5536 2.775 14.4453 4.325 15.9953C5.875 17.5453 7.76667 18.3203 10 18.3203Z" fill="#5185E3"/>
</svg>
