<svg width="24" height="25" viewBox="0 0 24 25" fill="none" xmlns="http://www.w3.org/2000/svg">
<path fill-rule="evenodd" clip-rule="evenodd" d="M11.3853 15.4093L11.0253 8.09082H12.9753L12.6003 15.4108L11.3853 15.4093ZM11.9763 18.2608C11.851 18.2637 11.7265 18.2403 11.6108 18.1923C11.4951 18.1442 11.3907 18.0725 11.3043 17.9818C11.2143 17.8961 11.1431 17.7927 11.0951 17.678C11.047 17.5634 11.0233 17.4401 11.0253 17.3158C11.0253 17.0548 11.1183 16.8318 11.3043 16.6468C11.391 16.5566 11.4955 16.4855 11.6112 16.438C11.7269 16.3905 11.8512 16.3676 11.9763 16.3708C12.2293 16.3708 12.4493 16.4618 12.6363 16.6438C12.8223 16.8258 12.9153 17.0498 12.9153 17.3158C12.9171 17.4409 12.8929 17.565 12.844 17.6802C12.7952 17.7954 12.7229 17.8991 12.6318 17.9848C12.547 18.0729 12.4451 18.1429 12.3324 18.1903C12.2197 18.2378 12.0986 18.2618 11.9763 18.2608ZM3.00028 21.3208C2.74001 21.3209 2.48421 21.2532 2.25802 21.1245C2.03182 20.9957 1.84302 20.8103 1.71016 20.5865C1.5773 20.3627 1.50496 20.1082 1.50025 19.848C1.49553 19.5878 1.55861 19.3308 1.68328 19.1023L10.6833 2.60232C10.8123 2.36567 11.0027 2.16816 11.2344 2.03055C11.4662 1.89294 11.7307 1.82031 12.0003 1.82031C12.2698 1.82031 12.5344 1.89294 12.7661 2.03055C12.9979 2.16816 13.1883 2.36567 13.3173 2.60232L22.3173 19.1023C22.4419 19.3308 22.505 19.5878 22.5003 19.848C22.4956 20.1082 22.4233 20.3627 22.2904 20.5865C22.1575 20.8103 21.9687 20.9957 21.7425 21.1245C21.5163 21.2532 21.2605 21.3209 21.0003 21.3208H3.00028ZM3.00028 19.8208H21.0003L12.0003 3.32082L3.00028 19.8208Z" fill="#5185E3"/>
</svg>
