<svg width="24" height="25" viewBox="0 0 24 25" fill="none" xmlns="http://www.w3.org/2000/svg">
<path d="M9.07512 1.82036C7.63678 1.81546 6.22862 2.23269 5.02512 3.02036L9.82512 7.82036C9.98497 7.95675 10.1159 8.12375 10.2102 8.31153C10.3046 8.49931 10.3604 8.70407 10.3743 8.91374C10.3883 9.12341 10.3602 9.33376 10.2916 9.5324C10.2231 9.73104 10.1155 9.91395 9.97511 10.0704C9.81871 10.2107 9.6358 10.3183 9.43716 10.3869C9.23852 10.4554 9.02817 10.4836 8.8185 10.4696C8.60883 10.4556 8.40407 10.3998 8.21629 10.3055C8.02851 10.2112 7.86151 10.0802 7.72511 9.92036L2.77512 5.12036C1.91928 6.37971 1.47393 7.87295 1.50012 9.39536C1.50802 11.4019 2.30863 13.3241 3.72751 14.743C5.14639 16.1618 7.06853 16.9625 9.07512 16.9704C9.73175 16.9732 10.3864 16.8977 11.0251 16.7454L16.0501 21.7704C16.7563 22.4765 17.714 22.8732 18.7126 22.8732C19.7112 22.8732 20.669 22.4765 21.3751 21.7704C22.0813 21.0642 22.478 20.1065 22.478 19.1079C22.478 18.1092 22.0813 17.1515 21.3751 16.4454L16.3501 11.4204C16.5025 10.7816 16.578 10.127 16.5751 9.47036C16.5951 8.47289 16.4158 7.48147 16.0478 6.55414C15.6799 5.62682 15.1306 4.78222 14.4322 4.06982C13.7337 3.35741 12.9002 2.79152 11.9803 2.40526C11.0605 2.01901 10.0728 1.82016 9.07512 1.82036ZM15.0751 9.39536C15.0741 9.92829 14.9984 10.4585 14.8501 10.9704L14.6251 11.7954L15.2251 12.3954L20.2501 17.4204C20.4641 17.623 20.6344 17.8672 20.7505 18.1381C20.8666 18.4089 20.926 18.7007 20.9251 18.9954C20.9336 19.2911 20.8776 19.5852 20.761 19.8572C20.6444 20.1291 20.4701 20.3725 20.2501 20.5704C20.047 20.7837 19.8026 20.9535 19.5319 21.0695C19.2612 21.1855 18.9697 21.2454 18.6751 21.2454C18.3806 21.2454 18.0891 21.1855 17.8183 21.0695C17.5476 20.9535 17.3033 20.7837 17.1001 20.5704L12.0751 15.5454L11.4751 14.9454L10.6501 15.1704C10.1382 15.3186 9.60805 15.3944 9.07512 15.3954C7.48142 15.3909 5.95058 14.7732 4.80012 13.6704C4.2183 13.1229 3.75756 12.4597 3.44755 11.7234C3.13754 10.9871 2.98512 10.1941 3.00012 9.39536C3.00088 8.83776 3.07656 8.2828 3.22512 7.74536L6.52512 11.0454C6.80396 11.3488 7.14042 11.5937 7.51488 11.7658C7.88934 11.9378 8.29431 12.0337 8.70618 12.0476C9.11805 12.0616 9.52858 11.9934 9.91383 11.8471C10.2991 11.7008 10.6514 11.4792 10.9501 11.1954C11.234 10.8966 11.4555 10.5443 11.6018 10.1591C11.7482 9.77382 11.8163 9.36329 11.8024 8.95142C11.7884 8.53955 11.6926 8.13458 11.5205 7.76012C11.3485 7.38566 11.1036 7.0492 10.8001 6.77036L7.50011 3.47036C7.98531 3.31755 8.49144 3.24164 9.00011 3.24536C10.5938 3.24978 12.1247 3.86749 13.2751 4.97036C14.426 6.1563 15.0713 7.74281 15.0751 9.39536Z" fill="#5185E3"/>
</svg>
