<svg width="54" height="54" viewBox="0 0 54 54" fill="none" xmlns="http://www.w3.org/2000/svg">
<path d="M22.02 22L15.575 16.8825C14.825 16.2525 14.45 15.94 14.5375 15.615C14.6225 15.29 15.105 15.205 16.0675 15.04L19 14.525C20.1175 14.33 20.2575 14.0425 19.76 13.025L16.65 6.67504C16.035 5.41504 15.725 4.78504 16.0075 4.52004C16.29 4.25254 16.895 4.60004 18.1075 5.29504L23.335 8.30004C24.235 8.81754 24.325 8.79254 24.79 7.85754L26.9 3.61504C27.45 2.51004 27.725 1.95754 28.09 2.00254C28.4575 2.04754 28.59 2.65254 28.8575 3.85754L30.5575 11.5575C30.7825 12.5675 31.0425 12.7075 31.9925 12.2975L37.665 9.85254C38.6525 9.42754 39.145 9.21505 39.395 9.46005C39.645 9.70505 39.445 10.2075 39.045 11.21L34.515 22M28.235 22L26.985 18.25M2 29.5H13.8625C15.7825 30.7525 17.3925 30.925 19.4375 31.965C21.975 33.45 23.1825 35.75 23.17 39.5C23.17 42 23.495 44.55 22.705 45.925C21.8 47.5 16.2425 46.995 15.7425 46.995C15.7425 49.75 13.7275 52 10.7425 52C8.0025 52 5.765 49.75 5.765 46.995M13.8625 29.4975C11.3025 27.8275 9.9 24.7175 8.33 22.1975C6.15 18.4475 3.165 17.2475 2.03 17.01M5.765 46.995C5.7663 45.6741 6.29024 44.4074 7.22238 43.4715C8.15452 42.5357 9.41912 42.0066 10.74 42C13.725 42 15.74 44.375 15.74 46.995M5.765 46.995H2M40.14 29.4925H52M40.14 29.4925C38.2175 30.7475 36.61 30.9175 34.565 31.96C32.025 33.445 30.82 35.745 30.83 39.4975C30.83 41.9975 30.505 44.5475 31.2975 45.9225C32.2025 47.4975 37.76 46.9925 38.26 46.9925M40.14 29.4925C42.6975 27.82 44.1025 24.71 45.67 22.1925C47.85 18.4425 50.8375 17.24 51.97 17M38.26 46.9925C38.26 49.75 40.275 52 43.26 52C45.9975 52 48.235 49.75 48.235 46.9925M38.26 46.9925C38.26 44.3725 40.275 41.9975 43.26 41.9975C44.5809 42.0042 45.8455 42.5332 46.7776 43.469C47.7098 44.4049 48.2337 45.6716 48.235 46.9925M48.235 46.9925H52" stroke="black" stroke-width="3" stroke-linecap="round" stroke-linejoin="round"/>
</svg>
