<svg width="24" height="24" viewBox="0 0 24 24" fill="none" xmlns="http://www.w3.org/2000/svg">
<path fill-rule="evenodd" clip-rule="evenodd" d="M10.9735 3.00201C11.032 3.26059 10.9855 3.53183 10.8441 3.75611C10.7027 3.98038 10.478 4.13933 10.2195 4.19801C10.0232 4.24266 9.82876 4.2947 9.63646 4.35401C9.51098 4.39275 9.3791 4.4064 9.24835 4.39417C9.1176 4.38194 8.99053 4.34408 8.87441 4.28275C8.75829 4.22141 8.65539 4.13781 8.57158 4.03671C8.48777 3.93561 8.4247 3.81899 8.38596 3.69351C8.34722 3.56803 8.33357 3.43615 8.3458 3.3054C8.35803 3.17465 8.39589 3.04759 8.45722 2.93147C8.51855 2.81535 8.60216 2.71244 8.70326 2.62864C8.80436 2.54483 8.92098 2.48175 9.04646 2.44301C9.28646 2.36834 9.52979 2.30334 9.77646 2.24801C9.90456 2.21888 10.0372 2.21527 10.1667 2.2374C10.2962 2.25953 10.42 2.30697 10.5312 2.37699C10.6424 2.44701 10.7386 2.53825 10.8145 2.64549C10.8904 2.75274 10.9444 2.87388 10.9735 3.00201ZM13.0235 3.00201C13.0821 2.74346 13.2411 2.51879 13.4654 2.3774C13.6896 2.23601 13.9609 2.18947 14.2195 2.24801C18.6735 3.25801 21.9995 7.24001 21.9995 12C21.9995 17.523 17.5215 22 11.9995 22C7.23846 22 3.25646 18.675 2.24646 14.221C2.19462 13.965 2.24501 13.6989 2.38686 13.4795C2.52871 13.2602 2.75075 13.105 3.00551 13.0473C3.26026 12.9895 3.52749 13.0338 3.75006 13.1705C3.97262 13.3073 4.13284 13.5257 4.19646 13.779C4.51467 15.1728 5.20056 16.4558 6.18276 17.4946C7.16496 18.5334 8.40758 19.29 9.78134 19.6857C11.1551 20.0814 12.6098 20.1018 13.9941 19.7447C15.3784 19.3876 16.6417 18.6661 17.6526 17.6552C18.6635 16.6443 19.385 15.381 19.7422 13.9967C20.0993 12.6124 20.0789 11.1576 19.6832 9.78389C19.2874 8.41013 18.5308 7.16751 17.492 6.18531C16.4532 5.20311 15.1702 4.51723 13.7765 4.19901C13.5179 4.14012 13.2933 3.98093 13.1521 3.75645C13.0109 3.53197 12.9646 3.2606 13.0235 3.00201ZM6.61246 4.72001C6.70189 4.8163 6.77146 4.92927 6.81721 5.05247C6.86295 5.17567 6.88396 5.30667 6.87903 5.438C6.87411 5.56932 6.84335 5.69838 6.78852 5.81781C6.73368 5.93724 6.65585 6.04469 6.55946 6.13401C6.41146 6.27068 6.26912 6.41268 6.13246 6.56001C5.9508 6.74903 5.70218 6.85915 5.44012 6.86667C5.17807 6.87419 4.92354 6.77849 4.73135 6.6002C4.53915 6.4219 4.42466 6.17526 4.41252 5.91337C4.40039 5.65149 4.49158 5.39532 4.66646 5.20001C4.83646 5.01601 5.01379 4.83834 5.19846 4.66701C5.29475 4.57758 5.40772 4.508 5.53092 4.46226C5.65412 4.41652 5.78512 4.39551 5.91644 4.40043C6.04777 4.40536 6.17683 4.43611 6.29626 4.49095C6.41568 4.54578 6.52313 4.62362 6.61246 4.72001ZM11.9985 6.00001C12.2637 6.00001 12.518 6.10537 12.7056 6.2929C12.8931 6.48044 12.9985 6.73479 12.9985 7.00001V11.586L15.7055 14.293C15.8876 14.4816 15.9884 14.7342 15.9861 14.9964C15.9839 15.2586 15.8787 15.5094 15.6933 15.6948C15.5079 15.8802 15.2571 15.9854 14.9949 15.9877C14.7327 15.99 14.4801 15.8892 14.2915 15.707L11.2915 12.707C11.1039 12.5195 10.9985 12.2652 10.9985 12V7.00001C10.9985 6.73479 11.1038 6.48044 11.2914 6.2929C11.4789 6.10537 11.7332 6.00001 11.9985 6.00001ZM3.69146 8.38801C3.94485 8.46615 4.15683 8.64173 4.28079 8.87614C4.40474 9.11055 4.43052 9.3846 4.35246 9.63801C4.29314 9.83031 4.24111 10.0248 4.19646 10.221C4.13284 10.4744 3.97262 10.6928 3.75006 10.8295C3.52749 10.9662 3.26026 11.0105 3.00551 10.9527C2.75075 10.895 2.52871 10.7399 2.38686 10.5205C2.24501 10.3012 2.19462 10.035 2.24646 9.77901C2.30246 9.53234 2.36746 9.28901 2.44146 9.04901C2.5196 8.79562 2.69518 8.58364 2.92959 8.45968C3.164 8.33572 3.43804 8.30994 3.69146 8.38801Z" fill="#60A5FA"/>
</svg>
