<svg width="24" height="25" viewBox="0 0 24 25" fill="none" xmlns="http://www.w3.org/2000/svg">
<g clip-path="url(#clip0_324_8)">
<path d="M4.92375 8.83539C4.92375 5.09677 7.95465 2.06587 11.6933 2.06587C15.4319 2.06587 18.4628 5.09677 18.4628 8.83539C18.4628 9.74251 18.2843 10.6078 17.9606 11.398L18.0782 11.4232C18.5439 11.5233 18.9921 11.6921 19.4081 11.9241C19.7908 10.969 20.0013 9.92713 20.0013 8.83539C20.0013 4.24689 16.2818 0.527344 11.6933 0.527344C7.10476 0.527344 3.38522 4.24689 3.38522 8.83539C3.38522 10.4625 3.85293 11.9801 4.66158 13.262C5.15086 13.0221 5.67969 12.8732 6.22226 12.8226C5.37639 11.6655 4.92152 10.2687 4.92375 8.83539ZM17.232 8.83539C17.232 9.65573 17.0535 10.4342 16.7335 11.1346L15.6934 10.9118V8.83539C15.69 8.31008 15.5831 7.79059 15.3789 7.30658C15.1747 6.82257 14.8772 6.38353 14.5033 6.0145C14.1294 5.64548 13.6865 5.35371 13.1999 5.15586C12.7133 4.95801 12.1924 4.85794 11.6671 4.86137C11.1418 4.86481 10.6223 4.97168 10.1383 5.17588C9.6543 5.38008 9.21525 5.67761 8.84623 6.05149C8.4772 6.42537 8.18544 6.86827 7.98758 7.35491C7.78973 7.84155 7.68966 8.36239 7.6931 8.8877V12.6663C7.0666 12.0121 6.61011 11.2143 6.36361 10.3427C6.11711 9.47112 6.08814 8.55237 6.27922 7.66698C6.4703 6.78158 6.87561 5.95656 7.45964 5.26421C8.04366 4.57186 8.78857 4.0333 9.6291 3.69573C10.4696 3.35817 11.3801 3.23189 12.2808 3.32797C13.1815 3.42405 14.0448 3.73956 14.7952 4.24684C15.5456 4.75413 16.1602 5.4377 16.585 6.23768C17.0098 7.03765 17.232 7.92961 17.232 8.83539ZM10.4624 8.83539C10.4624 8.50896 10.5921 8.19589 10.8229 7.96507C11.0538 7.73425 11.3668 7.60457 11.6933 7.60457C12.0197 7.60457 12.3328 7.73425 12.5636 7.96507C12.7944 8.19589 12.9241 8.50896 12.9241 8.83539V12.5279C12.9241 12.8909 13.1776 13.2042 13.5321 13.2799L17.4972 14.131C17.7634 14.1882 18.0151 14.2991 18.2369 14.4569C18.4587 14.6148 18.646 14.8163 18.7872 15.0491C18.9284 15.2818 19.0206 15.541 19.0582 15.8106C19.0957 16.0803 19.0778 16.3548 19.0056 16.6173L17.5932 21.7535C17.5363 21.9602 17.419 22.1453 17.2563 22.285C17.0936 22.4247 16.8929 22.5126 16.6799 22.5375L12.8385 22.9874C12.7911 22.9911 12.7439 22.9776 12.7056 22.9492C12.6356 22.9016 12.58 22.8356 12.545 22.7584C11.6619 20.8679 9.40886 18.8112 4.98036 16.7767C5.05348 16.5539 5.17071 16.3481 5.32509 16.1716C5.47946 15.9951 5.6678 15.8515 5.87887 15.7494C6.08995 15.6473 6.31943 15.5887 6.55363 15.5772C6.78782 15.5657 7.02194 15.6015 7.242 15.6825L9.42732 16.4868C9.54361 16.5296 9.66851 16.5437 9.79141 16.5279C9.91431 16.5121 10.0316 16.4668 10.1332 16.3959C10.2349 16.325 10.3179 16.2306 10.3752 16.1208C10.4325 16.0109 10.4624 15.8888 10.4624 15.7649V8.83539ZM11.6933 6.06604C10.9588 6.06604 10.2544 6.35781 9.73504 6.87717C9.21569 7.39652 8.92392 8.10091 8.92392 8.83539V14.6621L7.7731 14.2387C5.84194 13.5279 3.74031 14.7483 3.4006 16.7785C3.35787 17.0382 3.40217 17.3048 3.5266 17.5367C3.65103 17.7687 3.84862 17.953 4.08863 18.061C8.57683 20.0839 10.4858 21.9855 11.1511 23.4089C11.452 24.0533 12.1499 24.617 13.0176 24.5154L16.859 24.0656C17.3763 24.0051 17.8637 23.7915 18.2588 23.4523C18.654 23.1131 18.9388 22.6636 19.077 22.1615L20.4893 17.0247C20.617 16.5603 20.6485 16.0747 20.5819 15.5977C20.5153 15.1206 20.3521 14.6622 20.1022 14.2505C19.8522 13.8388 19.5209 13.4825 19.1284 13.2033C18.7359 12.9241 18.2906 12.728 17.8197 12.6269L14.4626 11.9063V8.83539C14.4626 8.10091 14.1708 7.39652 13.6515 6.87717C13.1321 6.35781 12.4277 6.06604 11.6933 6.06604Z" fill="#989898"/>
</g>
<defs>
<clipPath id="clip0_324_8">
<rect width="24" height="24" fill="white" transform="translate(0 0.527344)"/>
</clipPath>
</defs>
</svg>
