<svg width="24" height="25" viewBox="0 0 24 25" fill="none" xmlns="http://www.w3.org/2000/svg">
<path d="M15 4.32031V2.32031M15 4.32031V6.32031M15 4.32031H10.5M3 10.3203V19.3203C3 19.8507 3.21071 20.3595 3.58579 20.7345C3.96086 21.1096 4.46957 21.3203 5 21.3203H19C19.5304 21.3203 20.0391 21.1096 20.4142 20.7345C20.7893 20.3595 21 19.8507 21 19.3203V10.3203M3 10.3203H21M3 10.3203V6.32031C3 5.78988 3.21071 5.28117 3.58579 4.9061C3.96086 4.53103 4.46957 4.32031 5 4.32031H7M21 10.3203V6.32031C21 5.78988 20.7893 5.28117 20.4142 4.9061C20.0391 4.53103 19.5304 4.32031 19 4.32031H18.5M7 2.32031V6.32031" stroke="#5185E3" stroke-width="1.5" stroke-linecap="round" stroke-linejoin="round"/>
</svg>
