<svg width="24" height="24" viewBox="0 0 24 24" fill="none" xmlns="http://www.w3.org/2000/svg">
<path d="M22.9363 5.70384C22.6061 5.44368 21.7205 5.23488 21.0576 5.07936L20.1605 4.95936V2.79072L20.6198 2.78352C21.0504 3.00192 21.6705 3.36 21.7027 3.84H23.4326C23.4005 2.88 22.6714 2.27424 22.0224 1.79328C21.5918 1.47408 21.1205 1.30368 20.1605 1.20048V0H19.2005V1.16352C18.2405 1.25568 17.9304 1.49472 17.497 1.88496C16.9301 2.3952 16.6776 3.03552 16.6776 3.8064C16.6776 4.6512 16.919 5.27184 17.4993 5.66928C17.8238 5.8944 18.2405 6.10368 19.2005 6.2976V8.6472C18.7205 8.56224 18.7195 8.58384 18.5501 8.38272C18.3869 8.18784 18.3422 7.68 18.2866 7.68H16.5701C16.5701 8.64 16.8298 9.09984 17.4797 9.612C17.9482 9.98112 18.2405 10.0464 19.2005 10.1434V11.04H20.1605V10.1587C21.1205 10.0661 21.936 9.82176 22.4049 9.42144C23.0136 8.9016 23.5113 8.24832 23.5113 7.46208C23.5109 6.69504 23.4494 6.10944 22.9363 5.70384ZM18.7291 4.36656C18.4498 4.2144 18.3422 3.984 18.3422 3.67632C18.3422 3.34128 18.4349 3.0792 18.7181 2.892C18.8673 2.7936 18.7205 2.72208 19.2005 2.67456V4.56576C18.7205 4.4928 18.8347 4.42656 18.7291 4.36656ZM20.8137 8.60016C20.7331 8.628 20.1605 8.65008 20.1605 8.66976V6.6696C21.1205 6.75216 21.0466 6.84096 21.2059 6.93744C21.456 7.09296 21.5817 7.31472 21.5817 7.5984C21.5814 8.0864 21.3254 8.42032 20.8137 8.60016ZM18.4901 14.4H18.2246L15.2755 9.06C15.1483 8.82912 14.8277 8.64 14.5637 8.64H5.61599C5.35199 8.64 5.03135 8.82912 4.90415 9.06L1.95503 14.4H1.69007C1.16159 14.4 0.480469 14.832 0.480469 15.36V20.16C0.480469 20.688 1.16159 21.12 1.69007 21.12H2.40047V22.56C2.40047 23.352 3.29807 24 4.09007 24H4.57007C5.36207 24 5.76047 23.352 5.76047 22.56V21.12H13.9205V22.56C13.9205 23.352 14.8176 24 15.6101 24H16.0901C16.8821 24 17.2805 23.352 17.2805 22.56V21.12H18.4901C19.0181 21.12 19.2005 20.688 19.2005 20.16V15.36C19.2005 14.832 19.0176 14.4 18.4901 14.4ZM3.37007 18.24C3.05181 18.24 2.74658 18.1136 2.52154 17.8885C2.2965 17.6635 2.17007 17.3583 2.17007 17.04C2.17007 16.7217 2.2965 16.4165 2.52154 16.1915C2.74658 15.9664 3.05181 15.84 3.37007 15.84C3.68833 15.84 3.99355 15.9664 4.2186 16.1915C4.44364 16.4165 4.57007 16.7217 4.57007 17.04C4.57007 17.3583 4.44364 17.6635 4.2186 17.8885C3.99355 18.1136 3.68833 18.24 3.37007 18.24ZM4.33007 14.4L6.27551 10.5096C6.39311 10.273 6.70607 10.08 6.97007 10.08H13.2101C13.4741 10.08 13.7865 10.273 13.9046 10.5096L15.8501 14.4H4.33007ZM16.8101 18.24C16.4918 18.24 16.1866 18.1136 15.9615 17.8885C15.7365 17.6635 15.6101 17.3583 15.6101 17.04C15.6101 16.7217 15.7365 16.4165 15.9615 16.1915C16.1866 15.9664 16.4918 15.84 16.8101 15.84C17.1283 15.84 17.4336 15.9664 17.6586 16.1915C17.8836 16.4165 18.0101 16.7217 18.0101 17.04C18.0101 17.3583 17.8836 17.6635 17.6586 17.8885C17.4336 18.1136 17.1283 18.24 16.8101 18.24Z" fill="#5185E3"/>
</svg>
