<svg width="24" height="25" viewBox="0 0 24 25" fill="none" xmlns="http://www.w3.org/2000/svg">
<path d="M19 3.02734H5C3.89543 3.02734 3 3.92277 3 5.02734V19.0273C3 20.1319 3.89543 21.0273 5 21.0273H19C20.1046 21.0273 21 20.1319 21 19.0273V5.02734C21 3.92277 20.1046 3.02734 19 3.02734Z" stroke="white" stroke-width="2" stroke-linecap="round" stroke-linejoin="round"/>
<path d="M8.5 10.0273C9.32843 10.0273 10 9.35577 10 8.52734C10 7.69892 9.32843 7.02734 8.5 7.02734C7.67157 7.02734 7 7.69892 7 8.52734C7 9.35577 7.67157 10.0273 8.5 10.0273Z" stroke="white" stroke-width="2" stroke-linecap="round" stroke-linejoin="round"/>
<path d="M21 15.0273L16 10.0273L5 21.0273" stroke="white" stroke-width="2" stroke-linecap="round" stroke-linejoin="round"/>
</svg>
