<svg width="174" height="174" viewBox="0 0 174 174" fill="none" xmlns="http://www.w3.org/2000/svg">
<g clip-path="url(#clip0_325_315)">
<path d="M160.166 66.9987V140.332C160.166 142.1 159.464 143.796 158.213 145.046C156.963 146.296 155.267 146.999 153.499 146.999C151.731 146.999 150.036 146.296 148.785 145.046C147.535 143.796 146.833 142.1 146.833 140.332V113.665C146.833 108.361 144.726 103.274 140.975 99.5232C137.224 95.7725 132.137 93.6654 126.833 93.6654H106.833V13.6654C106.833 10.1291 105.428 6.73776 102.927 4.23727C100.427 1.73679 97.0356 0.332031 93.4993 0.332031H13.4993C9.96313 0.332031 6.57174 1.73679 4.07126 4.23727C1.57077 6.73776 0.166016 10.1291 0.166016 13.6654V160.332C0.166016 163.868 1.57077 167.26 4.07126 169.76C6.57174 172.261 9.96313 173.665 13.4993 173.665H93.4993C97.0356 173.665 100.427 172.261 102.927 169.76C105.428 167.26 106.833 163.868 106.833 160.332V106.999H126.833C128.601 106.999 130.296 107.701 131.547 108.951C132.797 110.202 133.499 111.897 133.499 113.665V140.332C133.499 145.636 135.606 150.723 139.357 154.474C143.108 158.225 148.195 160.332 153.499 160.332C158.804 160.332 163.891 158.225 167.641 154.474C171.392 150.723 173.499 145.636 173.499 140.332V53.6654C173.499 50.1291 172.095 46.7378 169.594 44.2373C167.094 41.7368 163.702 40.332 160.166 40.332V20.1987C160.131 18.4538 159.413 16.7922 158.167 15.5706C156.92 14.3491 155.245 13.665 153.499 13.6654C152.571 13.6807 151.655 13.886 150.809 14.2687C149.963 14.6513 149.205 15.2032 148.58 15.8903C147.955 16.5773 147.478 17.3851 147.178 18.2636C146.877 19.1422 146.76 20.073 146.833 20.9987V53.6654C146.833 56.3024 147.615 58.8803 149.08 61.073C150.545 63.2656 152.627 64.9746 155.064 65.9838C157.5 66.9929 160.181 67.257 162.767 66.7425C165.354 66.228 167.729 64.9582 169.594 63.0935C171.459 61.2288 172.729 58.853 173.243 56.2666C173.758 53.6802 173.494 50.9993 172.484 48.5629C171.475 46.1266 169.766 44.0442 167.574 42.5791C165.381 41.114 162.803 40.332 160.166 40.332V66.9987ZM93.4993 73.6654C93.4993 75.4335 92.797 77.1292 91.5467 78.3794C90.2965 79.6296 88.6008 80.332 86.8327 80.332H20.166C18.3979 80.332 16.7022 79.6296 15.452 78.3794C14.2017 77.1292 13.4993 75.4335 13.4993 73.6654V33.6654C13.4993 31.8973 14.2017 30.2016 15.452 28.9513C16.7022 27.7011 18.3979 26.9987 20.166 26.9987H86.8327C88.6008 26.9987 90.2965 27.7011 91.5467 28.9513C92.797 30.2016 93.4993 31.8973 93.4993 33.6654V73.6654Z" fill="#61E2CB"/>
</g>
<defs>
<clipPath id="clip0_325_315">
<rect width="173" height="174" fill="white" transform="translate(0.5)"/>
</clipPath>
</defs>
</svg>
