<svg width="24" height="24" viewBox="0 0 24 24" fill="none" xmlns="http://www.w3.org/2000/svg">
<path d="M6.5 16C6.91667 16 7.271 15.8543 7.563 15.563C7.855 15.2717 8.00067 14.9173 8 14.5C7.99933 14.0827 7.85367 13.7287 7.563 13.438C7.27233 13.1473 6.918 13.0013 6.5 13C6.082 12.9987 5.728 13.1447 5.438 13.438C5.148 13.7313 5.002 14.0853 5 14.5C4.998 14.9147 5.144 15.269 5.438 15.563C5.732 15.857 6.086 16.0027 6.5 16ZM15.5 16C15.8333 16 16.1333 15.9 16.4 15.7C16.6667 15.5 16.8417 15.2417 16.925 14.925C16.5917 14.8583 16.275 14.7457 15.975 14.587C15.675 14.4283 15.4 14.2243 15.15 13.975L14.525 13.35C14.3583 13.4833 14.2293 13.65 14.138 13.85C14.0467 14.05 14.0007 14.2667 14 14.5C14 14.9167 14.146 15.271 14.438 15.563C14.73 15.855 15.084 16.0007 15.5 16ZM2 12.35C2 12.2333 2.00833 12.1167 2.025 12C2.04167 11.8833 2.06667 11.775 2.1 11.675L4.1 6C4.2 5.7 4.37933 5.45833 4.638 5.275C4.89667 5.09167 5.184 5 5.5 5H8C8.28333 5 8.52067 5.096 8.712 5.288C8.90333 5.48 8.99933 5.71733 9 6C9.00067 6.28267 8.90467 6.52033 8.712 6.713C8.51933 6.90567 8.282 7.00133 8 7H5.85L4.8 10H11C11.2833 10 11.521 10.096 11.713 10.288C11.905 10.48 12.0007 10.7173 12 11C11.9993 11.2827 11.9033 11.5203 11.712 11.713C11.5207 11.9057 11.2833 12.0013 11 12H4V17H18V16C18 15.7167 18.096 15.4793 18.288 15.288C18.48 15.0967 18.7173 15.0007 19 15C19.2827 14.9993 19.5203 15.0953 19.713 15.288C19.9057 15.4807 20.0013 15.718 20 16V19.5C20 19.9167 19.8543 20.271 19.563 20.563C19.2717 20.855 18.9173 21.0007 18.5 21C18.0827 20.9993 17.7287 20.8537 17.438 20.563C17.1473 20.2723 17.0013 19.918 17 19.5V19H5V19.5C5 19.9167 4.85433 20.271 4.563 20.563C4.27167 20.855 3.91733 21.0007 3.5 21C3.08267 20.9993 2.72867 20.8537 2.438 20.563C2.14733 20.2723 2.00133 19.918 2 19.5V12.35ZM15 6C15.2833 6 15.521 5.90433 15.713 5.713C15.905 5.52167 16.0007 5.284 16 5C15.9993 4.716 15.9033 4.47867 15.712 4.288C15.5207 4.09733 15.2833 4.00133 15 4C14.7167 3.99867 14.4793 4.09467 14.288 4.288C14.0967 4.48133 14.0007 4.71867 14 5C13.9993 5.28133 14.0953 5.519 14.288 5.713C14.4807 5.907 14.718 6.00267 15 6ZM16.55 12.55L11.45 7.45C11.3167 7.31667 11.2083 7.154 11.125 6.962C11.0417 6.77 11 6.57467 11 6.376V2.5C11 2.08333 11.146 1.72933 11.438 1.438C11.73 1.14667 12.084 1.00067 12.5 1H16.375C16.575 1 16.771 1.04167 16.963 1.125C17.155 1.20833 17.3173 1.31667 17.45 1.45L22.55 6.55C22.8333 6.83333 22.975 7.18767 22.975 7.613C22.975 8.03833 22.8333 8.39233 22.55 8.675L18.675 12.55C18.3917 12.8333 18.0377 12.975 17.613 12.975C17.1883 12.975 16.834 12.8333 16.55 12.55ZM17.625 10.8L20.8 7.625L16.175 3H13V6.175L17.625 10.8Z" fill="#60A5FA"/>
</svg>
