<svg width="24" height="24" viewBox="0 0 24 24" fill="none" xmlns="http://www.w3.org/2000/svg">
<path d="M12 22C11.7167 22 11.4793 21.904 11.288 21.712C11.0967 21.52 11.0007 21.2827 11 21V19H5C4.71667 19 4.47934 18.904 4.288 18.712C4.09667 18.52 4.00067 18.2827 4 18C3.99934 17.7173 4.09534 17.48 4.288 17.288C4.48067 17.096 4.718 17 5 17H19C19.2833 17 19.521 17.096 19.713 17.288C19.905 17.48 20.0007 17.7173 20 18C19.9993 18.2827 19.9033 18.5203 19.712 18.713C19.5207 18.9057 19.2833 19.0013 19 19H13V21C13 21.2833 12.904 21.521 12.712 21.713C12.52 21.905 12.2827 22.0007 12 22ZM9 11.5C9.28334 11.5 9.521 11.404 9.713 11.212C9.905 11.02 10.0007 10.7827 10 10.5C9.99934 10.2173 9.90334 9.98 9.712 9.788C9.52067 9.596 9.28334 9.5 9 9.5C8.71667 9.5 8.47934 9.596 8.288 9.788C8.09667 9.98 8.00067 10.2173 8 10.5C7.99934 10.7827 8.09534 11.0203 8.288 11.213C8.48067 11.4057 8.718 11.5013 9 11.5ZM15 11.5C15.2833 11.5 15.521 11.404 15.713 11.212C15.905 11.02 16.0007 10.7827 16 10.5C15.9993 10.2173 15.9033 9.98 15.712 9.788C15.5207 9.596 15.2833 9.5 15 9.5C14.7167 9.5 14.4793 9.596 14.288 9.788C14.0967 9.98 14.0007 10.2173 14 10.5C13.9993 10.7827 14.0953 11.0203 14.288 11.213C14.4807 11.4057 14.718 11.5013 15 11.5ZM6 16C5.71667 16 5.47934 15.904 5.288 15.712C5.09667 15.52 5.00067 15.2827 5 15V8.925C5 8.80833 5.00834 8.696 5.025 8.588C5.04167 8.48 5.06667 8.37567 5.1 8.275L6.45 4.35C6.58334 3.95 6.825 3.625 7.175 3.375C7.525 3.125 7.91667 3 8.35 3H15.65C16.0833 3 16.475 3.125 16.825 3.375C17.175 3.625 17.4167 3.95 17.55 4.35L18.9 8.275C18.9333 8.375 18.9583 8.47933 18.975 8.588C18.9917 8.69667 19 8.809 19 8.925V15C19 15.2833 18.9043 15.521 18.713 15.713C18.5217 15.905 18.284 16.0007 18 16C17.716 15.9993 17.4787 15.9033 17.288 15.712C17.0973 15.5207 17.0013 15.2833 17 15V14H7V15C7 15.2833 6.904 15.521 6.712 15.713C6.52 15.905 6.28267 16.0007 6 16ZM7.65 7H16.35L15.65 5H8.35L7.65 7ZM7 12H17V9H7V12Z" fill="#60A5FA"/>
</svg>
