<svg width="50" height="51" viewBox="0 0 50 51" fill="none" xmlns="http://www.w3.org/2000/svg">
<path d="M27.7064 6.91211L45.6939 38.0663C45.9681 38.5413 46.1125 39.0802 46.1125 39.6288C46.1125 40.1773 45.9682 40.7162 45.6939 41.1912C45.4196 41.6663 45.0251 42.0608 44.5501 42.3351C44.075 42.6094 43.5362 42.7538 42.9876 42.7538H7.01262C6.46407 42.7538 5.92519 42.6094 5.45014 42.3351C4.97509 42.0608 4.58061 41.6663 4.30635 41.1912C4.03208 40.7162 3.88769 40.1773 3.8877 39.6288C3.8877 39.0802 4.03209 38.5413 4.30637 38.0663L22.2939 6.91211C23.496 4.82878 26.5022 4.82878 27.7064 6.91211ZM25.0001 31.6038C24.4476 31.6038 23.9177 31.8233 23.527 32.214C23.1363 32.6047 22.9168 33.1346 22.9168 33.6871C22.9168 34.2396 23.1363 34.7695 23.527 35.1602C23.9177 35.551 24.4476 35.7704 25.0001 35.7704C25.5527 35.7704 26.0826 35.551 26.4733 35.1602C26.864 34.7695 27.0835 34.2396 27.0835 33.6871C27.0835 33.1346 26.864 32.6047 26.4733 32.214C26.0826 31.8233 25.5527 31.6038 25.0001 31.6038ZM25.0001 17.0204C24.4898 17.0205 23.9973 17.2079 23.616 17.5469C23.2347 17.886 22.9911 18.3533 22.9314 18.86L22.9168 19.1038V27.4371C22.9174 27.9681 23.1207 28.4788 23.4852 28.865C23.8497 29.2511 24.3479 29.4834 24.878 29.5146C25.4081 29.5457 25.9301 29.3732 26.3373 29.0324C26.7445 28.6916 27.0062 28.2081 27.0689 27.6809L27.0835 27.4371V19.1038C27.0835 18.5512 26.864 18.0213 26.4733 17.6306C26.0826 17.2399 25.5527 17.0204 25.0001 17.0204Z" fill="#5185E3"/>
</svg>
