<svg width="24" height="24" viewBox="0 0 24 24" fill="none" xmlns="http://www.w3.org/2000/svg">
<g clip-path="url(#clip0_755_210)">
<path d="M5 19C3.61667 19 2.43767 18.5123 1.463 17.537C0.488334 16.5617 0.000667349 15.3827 6.82594e-07 14C-0.000665984 12.6173 0.487001 11.4383 1.463 10.463C2.439 9.48767 3.618 9 5 9H16.6L14.6 7H11V5H15.4L19.45 9.05C20.75 9.15 21.8333 9.675 22.7 10.625C23.5667 11.575 24 12.7 24 14C24 15.3833 23.5123 16.5627 22.537 17.538C21.5617 18.5133 20.3827 19.0007 19 19C17.6173 18.9993 16.4383 18.5117 15.463 17.537C14.4877 16.5623 14 15.3833 14 14C14 13.7 14.021 13.404 14.063 13.112C14.105 12.82 14.184 12.5327 14.3 12.25L11.55 15H9.9C9.66667 16.1667 9.09167 17.125 8.175 17.875C7.25833 18.625 6.2 19 5 19ZM19 17C19.8333 17 20.5417 16.7083 21.125 16.125C21.7083 15.5417 22 14.8333 22 14C22 13.1667 21.7083 12.4583 21.125 11.875C20.5417 11.2917 19.8333 11 19 11C18.1667 11 17.4583 11.2917 16.875 11.875C16.2917 12.4583 16 13.1667 16 14C16 14.8333 16.2917 15.5417 16.875 16.125C17.4583 16.7083 18.1667 17 19 17ZM5 17C5.63333 17 6.20433 16.8167 6.713 16.45C7.22167 16.0833 7.584 15.6 7.8 15H5V13H7.8C7.58333 12.4 7.221 11.9167 6.713 11.55C6.205 11.1833 5.634 11 5 11C4.16667 11 3.45833 11.2917 2.875 11.875C2.29167 12.4583 2 13.1667 2 14C2 14.8333 2.29167 15.5417 2.875 16.125C3.45833 16.7083 4.16667 17 5 17Z" fill="#60A5FA"/>
</g>
<defs>
<clipPath id="clip0_755_210">
<rect width="24" height="24" fill="white"/>
</clipPath>
</defs>
</svg>
