<svg width="24" height="25" viewBox="0 0 24 25" fill="none" xmlns="http://www.w3.org/2000/svg">
<path d="M4.75 17.7773C4.94891 17.7773 5.13968 17.8564 5.28033 17.997C5.42098 18.1377 5.5 18.3284 5.5 18.5273V20.7773C5.5 20.9153 5.612 21.0273 5.75 21.0273H18.25C18.3163 21.0273 18.3799 21.001 18.4268 20.9541C18.4737 20.9072 18.5 20.8436 18.5 20.7773V18.5273C18.5 18.3284 18.579 18.1377 18.7197 17.997C18.8603 17.8564 19.0511 17.7773 19.25 17.7773C19.4489 17.7773 19.6397 17.8564 19.7803 17.997C19.921 18.1377 20 18.3284 20 18.5273V20.7773C20 21.2415 19.8156 21.6866 19.4874 22.0148C19.1592 22.343 18.7141 22.5273 18.25 22.5273H5.75C5.28587 22.5273 4.84075 22.343 4.51256 22.0148C4.18437 21.6866 4 21.2415 4 20.7773V18.5273C4 18.3284 4.07902 18.1377 4.21967 17.997C4.36032 17.8564 4.55109 17.7773 4.75 17.7773Z" fill="#989898"/>
<path d="M5.21983 10.4973C5.36045 10.3569 5.55108 10.278 5.74983 10.278C5.94858 10.278 6.1392 10.3569 6.27983 10.4973L11.2498 15.4663V3.27734C11.2498 3.07843 11.3288 2.88767 11.4695 2.74701C11.6102 2.60636 11.8009 2.52734 11.9998 2.52734C12.1987 2.52734 12.3895 2.60636 12.5302 2.74701C12.6708 2.88767 12.7498 3.07843 12.7498 3.27734V15.4663L17.7198 10.4973C17.8604 10.3568 18.051 10.2778 18.2498 10.2778C18.4486 10.2778 18.6393 10.3568 18.7798 10.4973C18.9204 10.6379 18.9994 10.8286 18.9994 11.0273C18.9994 11.2261 18.9204 11.4168 18.7798 11.5573L12.5298 17.8073C12.3892 17.9478 12.1986 18.0267 11.9998 18.0267C11.8011 18.0267 11.6105 17.9478 11.4698 17.8073L5.21983 11.5573C5.07938 11.4167 5.00049 11.2261 5.00049 11.0273C5.00049 10.8286 5.07938 10.638 5.21983 10.4973Z" fill="#989898"/>
</svg>
