<svg width="45" height="38" viewBox="0 0 45 38" fill="none" xmlns="http://www.w3.org/2000/svg">
<path d="M28.73 31.8407L28.6006 32.0847L28.8563 32.1892C30.3156 32.786 32.1407 33.1475 34.4118 33.1475C39.4565 33.1475 42.2921 31.3517 43.7977 29.2471L43.7979 29.2468C44.5811 28.149 45.0712 26.8696 45.222 25.5296L45.2221 25.5284C45.2357 25.4022 45.2449 25.2755 45.2498 25.1486L45.25 25.1486V25.139V24.9563C45.25 24.4021 45.1408 23.8533 44.9287 23.3412C44.7166 22.8291 44.4057 22.3639 44.0138 21.9719C43.6219 21.58 43.1566 21.2691 42.6446 21.057C42.1325 20.8449 41.5837 20.7358 41.0294 20.7358H28.7735H28.2421L28.5809 21.1451C29.1943 21.8863 29.6543 22.7526 29.9227 23.7009L29.9742 23.8828H30.1632H41.0294C41.3141 23.8828 41.5872 23.9959 41.7885 24.1972C41.9898 24.3986 42.1029 24.6716 42.1029 24.9563V25.0868L42.0914 25.2023C42.0914 25.203 42.0913 25.2037 42.0912 25.2044C41.9964 26.0017 41.7024 26.7622 41.2362 27.4159L41.2361 27.416C40.4255 28.5538 38.6289 30.0005 34.4118 30.0005C32.4999 30.0005 31.0877 29.7027 30.0407 29.2752L29.7841 29.1704L29.7063 29.4364C29.4933 30.1636 29.1843 30.9841 28.73 31.8407ZM28.0438 26.5147L28.0441 26.5147V26.5022V26.2799C28.0441 24.8095 27.46 23.3993 26.4203 22.3596C25.3806 21.3199 23.9704 20.7358 22.5 20.7358H5.29412C3.82373 20.7358 2.41356 21.3199 1.37383 22.3596C0.33411 23.3993 -0.25 24.8095 -0.25 26.2799V26.5022H-0.250192L-0.249808 26.512C-0.243546 26.6716 -0.23262 26.8309 -0.217043 26.9898L-0.217058 26.9898L-0.216762 26.9926C-0.0251013 28.75 0.598778 30.4326 1.59917 31.8902L1.59965 31.8909C3.50894 34.6527 7.17606 37.1181 13.8971 37.1181C20.6181 37.1181 24.2852 34.6526 26.1945 31.8881L26.1949 31.8875C27.1949 30.4308 27.8188 28.7491 28.0109 26.9926L28.011 26.9927L28.0117 26.9839L28.0381 26.6266L28.0382 26.6266L28.0385 26.6206L28.0438 26.5147ZM24.8948 26.4716L24.8944 26.479V26.4863C24.8944 26.518 24.8904 26.5798 24.88 26.679C24.7409 27.9066 24.3029 29.0814 23.6045 30.1006C22.3688 31.8867 19.7489 33.971 13.8971 33.971C8.04539 33.971 5.42547 31.8868 4.18973 30.1007C3.49173 29.0822 3.05386 27.9082 2.9144 26.6814L2.89706 26.4758V26.4387V26.2799C2.89706 25.6441 3.14961 25.0344 3.59914 24.5849C4.04868 24.1354 4.65838 23.8828 5.29412 23.8828H22.5C23.1357 23.8828 23.7454 24.1354 24.195 24.5849C24.6445 25.0344 24.8971 25.6441 24.8971 26.2799V26.434L24.8948 26.4716ZM8.19118 9.73575C8.19118 8.22246 8.79233 6.77115 9.86239 5.70109C10.9325 4.63103 12.3838 4.02987 13.8971 4.02987C15.4104 4.02987 16.8617 4.63103 17.9317 5.70109C19.0018 6.77115 19.6029 8.22246 19.6029 9.73575C19.6029 11.249 19.0018 12.7004 17.9317 13.7704C16.8617 14.8405 15.4104 15.4416 13.8971 15.4416C12.3838 15.4416 10.9325 14.8405 9.86239 13.7704C8.79233 12.7004 8.19118 11.249 8.19118 9.73575ZM13.8971 0.882812C11.5491 0.882812 9.29733 1.81553 7.63708 3.47578C5.97683 5.13603 5.04412 7.38781 5.04412 9.73575C5.04412 12.0837 5.97683 14.3355 7.63708 15.9957C9.29733 17.656 11.5491 18.5887 13.8971 18.5887C16.245 18.5887 18.4968 17.656 20.157 15.9957C21.8173 14.3355 22.75 12.0837 22.75 9.73575C22.75 7.38781 21.8173 5.13603 20.157 3.47578C18.4968 1.81553 16.245 0.882812 13.8971 0.882812ZM30.6912 11.721C30.6912 10.7343 31.0832 9.78794 31.7809 9.09019C32.4787 8.39245 33.425 8.00046 34.4118 8.00046C35.3985 8.00046 36.3449 8.39245 37.0426 9.09019C37.7404 9.78794 38.1324 10.7343 38.1324 11.721C38.1324 12.7078 37.7404 13.6542 37.0426 14.3519C36.3449 15.0496 35.3985 15.4416 34.4118 15.4416C33.425 15.4416 32.4787 15.0496 31.7809 14.3519C31.0832 13.6542 30.6912 12.7078 30.6912 11.721ZM34.4118 4.8534C32.5904 4.8534 30.8435 5.57695 29.5556 6.86489C28.2677 8.15282 27.5441 9.89963 27.5441 11.721C27.5441 13.5425 28.2677 15.2893 29.5556 16.5772C30.8435 17.8651 32.5904 18.5887 34.4118 18.5887C36.2332 18.5887 37.98 17.8651 39.2679 16.5772C40.5559 15.2893 41.2794 13.5425 41.2794 11.721C41.2794 9.89963 40.5559 8.15282 39.2679 6.86489C37.98 5.57695 36.2332 4.8534 34.4118 4.8534Z" fill="black" stroke="black" stroke-width="0.5"/>
</svg>
