<svg width="24" height="24" viewBox="0 0 24 24" fill="none" xmlns="http://www.w3.org/2000/svg">
<g clip-path="url(#clip0_755_237)">
<path d="M14.5379 14.3077C14.5379 14.5525 14.4406 14.7873 14.2675 14.9604C14.0944 15.1335 13.8596 15.2308 13.6148 15.2308C13.37 15.2308 13.1352 15.1335 12.9621 14.9604C12.789 14.7873 12.6917 14.5525 12.6917 14.3077C12.6917 14.0629 12.789 13.8281 12.9621 13.655C13.1352 13.4819 13.37 13.3846 13.6148 13.3846C13.8596 13.3846 14.0944 13.4819 14.2675 13.655C14.4406 13.8281 14.5379 14.0629 14.5379 14.3077ZM11.3071 14.3077C11.3071 14.5525 11.2098 14.7873 11.0367 14.9604C10.8636 15.1335 10.6288 15.2308 10.384 15.2308C10.1392 15.2308 9.90441 15.1335 9.7313 14.9604C9.55819 14.7873 9.46094 14.5525 9.46094 14.3077C9.46094 14.0629 9.55819 13.8281 9.7313 13.655C9.90441 13.4819 10.1392 13.3846 10.384 13.3846C10.6288 13.3846 10.8636 13.4819 11.0367 13.655C11.2098 13.8281 11.3071 14.0629 11.3071 14.3077Z" fill="#60A5FA"/>
<path fill-rule="evenodd" clip-rule="evenodd" d="M12.0003 10.1538C12.8572 10.1538 13.6789 9.81346 14.2848 9.20757C14.8907 8.60169 15.2311 7.77993 15.2311 6.92308C15.2311 6.06622 14.8907 5.24446 14.2848 4.63858C13.6789 4.03269 12.8572 3.69231 12.0003 3.69231C11.1434 3.69231 10.3217 4.03269 9.7158 4.63858C9.10992 5.24446 8.76953 6.06622 8.76953 6.92308C8.76953 7.77993 9.10992 8.60169 9.7158 9.20757C10.3217 9.81346 11.1434 10.1538 12.0003 10.1538ZM12.0003 5.53846C12.3675 5.53846 12.7197 5.68434 12.9794 5.944C13.239 6.20367 13.3849 6.55585 13.3849 6.92308C13.3849 7.2903 13.239 7.64248 12.9794 7.90215C12.7197 8.16181 12.3675 8.30769 12.0003 8.30769C11.6331 8.30769 11.2809 8.16181 11.0212 7.90215C10.7616 7.64248 10.6157 7.2903 10.6157 6.92308C10.6157 6.55585 10.7616 6.20367 11.0212 5.944C11.2809 5.68434 11.6331 5.53846 12.0003 5.53846Z" fill="#60A5FA"/>
<path d="M11.9985 15.6923C12.4881 15.6923 12.9577 15.8868 13.3039 16.233C13.6501 16.5793 13.8447 17.0488 13.8447 17.5385V18.9231C13.8447 19.4127 13.6501 19.8823 13.3039 20.2285C12.9577 20.5747 12.4881 20.7692 11.9985 20.7692C11.5089 20.7692 11.0393 20.5747 10.6931 20.2285C10.3468 19.8823 10.1523 19.4127 10.1523 18.9231V17.5385C10.1523 17.0488 10.3468 16.5793 10.6931 16.233C11.0393 15.8868 11.5089 15.6923 11.9985 15.6923Z" fill="#60A5FA"/>
<path fill-rule="evenodd" clip-rule="evenodd" d="M16.6136 12.9231C16.6136 11.699 16.1273 10.5251 15.2618 9.65951C14.3962 8.79396 13.2223 8.30769 11.9982 8.30769C10.7741 8.30769 9.60018 8.79396 8.73463 9.65951C7.86907 10.5251 7.38281 11.699 7.38281 12.9231V15.2308C7.38281 15.8428 7.62594 16.4298 8.05872 16.8626C8.4915 17.2953 9.07847 17.5385 9.6905 17.5385H14.3059C14.9179 17.5385 15.5049 17.2953 15.9377 16.8626C16.3705 16.4298 16.6136 15.8428 16.6136 15.2308V12.9231ZM9.22897 12.9231C9.22897 12.1886 9.52072 11.4843 10.0401 10.9649C10.5594 10.4456 11.2638 10.1538 11.9982 10.1538C12.7326 10.1538 13.437 10.4456 13.9563 10.9649C14.4757 11.4843 14.7674 12.1886 14.7674 12.9231V15.2308C14.7674 15.3532 14.7188 15.4706 14.6322 15.5571C14.5457 15.6437 14.4283 15.6923 14.3059 15.6923H9.6905C9.5681 15.6923 9.4507 15.6437 9.36415 15.5571C9.27759 15.4706 9.22897 15.3532 9.22897 15.2308V12.9231Z" fill="#60A5FA"/>
<path d="M17.0754 6.92307C16.8306 6.92307 16.5958 6.82582 16.4227 6.65271C16.2496 6.4796 16.1523 6.24481 16.1523 6C16.1523 5.75518 16.2496 5.52039 16.4227 5.34728C16.5958 5.17417 16.8306 5.07692 17.0754 5.07692H18.9216C19.1664 5.07692 19.4012 5.17417 19.5743 5.34728C19.7474 5.52039 19.8447 5.75518 19.8447 6C19.8447 6.24481 19.7474 6.4796 19.5743 6.65271C19.4012 6.82582 19.1664 6.92307 18.9216 6.92307H17.0754ZM5.07542 6.92307C4.83061 6.92307 4.59582 6.82582 4.42271 6.65271C4.2496 6.4796 4.15234 6.24481 4.15234 6C4.15234 5.75518 4.2496 5.52039 4.42271 5.34728C4.59582 5.17417 4.83061 5.07692 5.07542 5.07692H6.92157C7.16639 5.07692 7.40118 5.17417 7.57429 5.34728C7.7474 5.52039 7.84465 5.75518 7.84465 6C7.84465 6.24481 7.7474 6.4796 7.57429 6.65271C7.40118 6.82582 7.16639 6.92307 6.92157 6.92307H5.07542Z" fill="#60A5FA"/>
<path d="M5.91797 6.504L6.35735 5.16092L10.5334 5.95753L10.093 7.30153L5.91797 6.504ZM13.4687 5.95753L13.909 7.30153L18.0841 6.504L17.6447 5.16092L13.4687 5.95753Z" fill="#60A5FA"/>
<path fill-rule="evenodd" clip-rule="evenodd" d="M12 22.1538C17.6077 22.1538 22.1538 17.6077 22.1538 12C22.1538 6.39231 17.6077 1.84615 12 1.84615C6.39231 1.84615 1.84615 6.39231 1.84615 12C1.84615 17.6077 6.39231 22.1538 12 22.1538ZM12 24C18.6277 24 24 18.6277 24 12C24 5.37231 18.6277 0 12 0C5.37231 0 0 5.37231 0 12C0 18.6277 5.37231 24 12 24Z" fill="#60A5FA"/>
</g>
<defs>
<clipPath id="clip0_755_237">
<rect width="24" height="24" fill="white"/>
</clipPath>
</defs>
</svg>
