<svg width="50" height="50" viewBox="0 0 50 50" fill="none" xmlns="http://www.w3.org/2000/svg">
<path d="M43.8899 10.418C45.1232 12.4138 45.8336 14.7638 45.8336 17.2784C45.8336 24.5201 39.9378 30.3909 32.6669 30.3909C31.3419 30.3909 28.3211 30.0867 26.8524 28.8659L25.0149 30.6951C23.4836 32.2201 24.7086 32.2201 25.3211 33.4388C25.3211 33.4388 26.8524 35.5742 25.3211 37.7096C24.4024 38.9284 21.8294 40.6346 18.8919 37.7096L18.2794 38.318C18.2794 38.318 20.1149 40.4534 18.5857 42.5888C17.6669 43.8076 15.2169 45.0263 13.0732 42.893L10.9315 45.0263C9.46069 46.4909 7.66486 45.6367 6.95236 45.0263L5.11278 43.1971C3.39819 41.4888 4.39819 39.6388 5.11278 38.9263L21.0336 23.0721C21.0336 23.0721 19.5024 20.6346 19.5024 17.2805C19.5024 10.0388 25.3982 4.16797 32.669 4.16797C34.3753 4.16797 36.0044 4.49089 37.5003 5.07839" stroke="black" stroke-width="3" stroke-linecap="round" stroke-linejoin="round"/>
<path d="M37.2606 17.282C37.2579 18.4973 36.7726 19.6616 35.9116 20.5192C35.0505 21.3767 33.8842 21.8572 32.6689 21.855C32.0671 21.8563 31.4708 21.7391 30.9142 21.5101C30.3576 21.281 29.8516 20.9445 29.425 20.5199C28.9984 20.0953 28.6597 19.5908 28.4281 19.0352C28.1965 18.4797 28.0766 17.8839 28.0752 17.282C28.0763 16.68 28.196 16.084 28.4275 15.5282C28.6589 14.9724 28.9977 14.4677 29.4242 14.0428C29.8508 13.618 30.357 13.2813 30.9137 13.0521C31.4704 12.8229 32.0669 12.7057 32.6689 12.707C33.2708 12.7059 33.8671 12.8234 34.4235 13.0527C34.98 13.2821 35.4859 13.6187 35.9123 14.0436C36.3387 14.4684 36.6772 14.9731 36.9085 15.5287C37.1399 16.0844 37.2595 16.6801 37.2606 17.282Z" stroke="black" stroke-width="3"/>
</svg>
