<svg width="24" height="24" viewBox="0 0 24 24" fill="none" xmlns="http://www.w3.org/2000/svg">
<path d="M14 4C17.771 4 19.657 4 20.828 5.172C21.999 6.344 22 8.229 22 12V13M10 4C6.229 4 4.343 4 3.172 5.172C2.001 6.344 2 8.229 2 12C2 15.771 2 17.657 3.172 18.828C4.344 19.999 6.229 20 10 20H13M10 16H6" stroke="#60A5FA" stroke-width="2" stroke-linecap="round"/>
<path d="M18 20C19.6569 20 21 18.6569 21 17C21 15.3431 19.6569 14 18 14C16.3431 14 15 15.3431 15 17C15 18.6569 16.3431 20 18 20Z" stroke="#60A5FA" stroke-width="2"/>
<path d="M20.5 19.5L21.5 20.5M2 10H7M22 10H11" stroke="#60A5FA" stroke-width="2" stroke-linecap="round"/>
</svg>