<svg width="24" height="24" viewBox="0 0 24 24" fill="none" xmlns="http://www.w3.org/2000/svg">
<path d="M22 21V9.61C22 8.288 22 7.626 21.656 7.114C21.312 6.602 20.703 6.356 19.486 5.864L13.486 3.444C12.752 3.148 12.386 3 12 3C11.614 3 11.248 3.148 10.514 3.444L4.514 5.864C3.297 6.356 2.688 6.602 2.344 7.114C2 7.626 2 8.288 2 9.61V21M16 19V21M8 19V21" stroke="#60A5FA" stroke-width="1.5" stroke-linecap="round" stroke-linejoin="round"/>
<path d="M7.5 14L7.743 13.03C8.106 11.575 8.288 10.847 8.831 10.424C9.373 10 10.123 10 11.623 10H12.377C13.877 10 14.627 10 15.169 10.424C15.712 10.847 15.894 11.574 16.257 13.03L16.5 14M8.5 16.49V16.5M15.5 16.49V16.5M17 14H7C6.73478 14 6.48043 14.1054 6.29289 14.2929C6.10536 14.4804 6 14.7348 6 15V18C6 18.2652 6.10536 18.5196 6.29289 18.7071C6.48043 18.8946 6.73478 19 7 19H17C17.2652 19 17.5196 18.8946 17.7071 18.7071C17.8946 18.5196 18 18.2652 18 18V15C18 14.7348 17.8946 14.4804 17.7071 14.2929C17.5196 14.1054 17.2652 14 17 14Z" stroke="#60A5FA" stroke-width="1.5" stroke-linecap="round" stroke-linejoin="round"/>
</svg>
