<svg width="31" height="29" viewBox="0 0 31 29" fill="none" xmlns="http://www.w3.org/2000/svg">
<path d="M21.5875 18.6797L20.8291 19.4347C20.8291 19.4347 19.0241 21.228 14.0991 16.3314C9.17414 11.4347 10.9791 9.64135 10.9791 9.64135L11.4558 9.16468C12.6341 7.99468 12.7458 6.11469 11.7175 4.74135L9.61747 1.93635C8.34414 0.236351 5.88581 0.0113511 4.42747 1.46135L1.81081 4.06135C1.08914 4.78135 0.605805 5.71135 0.664138 6.74468C0.814138 9.38968 2.0108 15.078 8.68414 21.7147C15.7625 28.7514 22.4041 29.0314 25.1191 28.778C25.9791 28.698 26.7258 28.2614 27.3275 27.6614L29.6941 25.308C31.2941 23.7197 30.8441 20.9947 28.7975 19.883L25.6141 18.1514C24.2708 17.423 22.6375 17.6364 21.5875 18.6797Z" fill="#0673BA"/>
</svg>
