<svg width="21" height="21" viewBox="0 0 21 21" fill="none" xmlns="http://www.w3.org/2000/svg">
<path d="M10.1504 11.7745C9.54003 11.7745 8.94342 11.5938 8.43595 11.2553C7.92849 10.9167 7.53297 10.4355 7.29941 9.87247C7.06585 9.30945 7.00474 8.68993 7.12381 8.09224C7.24288 7.49454 7.53677 6.94553 7.96834 6.51461C8.3999 6.0837 8.94974 5.79025 9.54834 5.67136C10.1469 5.55247 10.7674 5.61349 11.3313 5.8467C11.8951 6.0799 12.3771 6.47483 12.7161 6.98153C13.0552 7.48823 13.2362 8.08394 13.2362 8.69335C13.2352 9.51023 12.9098 10.2934 12.3313 10.871C11.7528 11.4486 10.9685 11.7736 10.1504 11.7745ZM10.1504 6.84463C9.78416 6.84463 9.42619 6.95306 9.12171 7.1562C8.81724 7.35933 8.57992 7.64806 8.43979 7.98587C8.29965 8.32368 8.26299 8.6954 8.33443 9.05401C8.40587 9.41263 8.58221 9.74204 8.84114 10.0006C9.10008 10.2591 9.42999 10.4352 9.78914 10.5065C10.1483 10.5779 10.5206 10.5413 10.8589 10.4013C11.1972 10.2614 11.4864 10.0245 11.6898 9.72044C11.8933 9.41642 12.0019 9.05899 12.0019 8.69335C12.0014 8.20319 11.8061 7.73324 11.459 7.38665C11.1119 7.04005 10.6413 6.84512 10.1504 6.84463Z" fill="#787878"/>
<path d="M10.1504 19.1694L4.94394 13.0385C4.87159 12.9464 4.8 12.8537 4.72916 12.7605C3.83981 11.5908 3.35936 10.162 3.36152 8.69336C3.36152 6.89555 4.07677 5.17138 5.34992 3.90015C6.62308 2.62891 8.34985 1.91473 10.1504 1.91473C11.9509 1.91473 13.6776 2.62891 14.9508 3.90015C16.224 5.17138 16.9392 6.89555 16.9392 8.69336C16.9414 10.1613 16.4611 11.5895 15.5722 12.7587L15.5716 12.7605C15.5716 12.7605 15.3864 13.0033 15.3586 13.036L10.1504 19.1694ZM5.71416 12.018C5.7154 12.018 5.85858 12.2078 5.89129 12.2484L10.1504 17.264L14.415 12.2417C14.4421 12.2078 14.5866 12.0167 14.5872 12.0161C15.3137 11.0604 15.7063 9.89319 15.7049 8.69336C15.7049 7.22243 15.1197 5.81174 14.078 4.77164C13.0363 3.73153 11.6235 3.14721 10.1504 3.14721C8.67721 3.14721 7.2644 3.73153 6.22273 4.77164C5.18106 5.81174 4.59585 7.22243 4.59585 8.69336C4.59456 9.89394 4.987 11.0618 5.71416 12.018Z" fill="#787878"/>
</svg>
