<svg width="41" height="41" viewBox="0 0 41 41" fill="none" xmlns="http://www.w3.org/2000/svg">
<g clip-path="url(#clip0_549_134)">
<path d="M40.7085 25.5888C40.3085 30.4888 36.1585 34.2888 31.2085 34.2388H25.9585L15.9585 40.7388V34.2388L25.9585 27.7388H31.2085C32.7585 27.7888 34.0585 26.6388 34.2585 25.0888C34.5585 20.0888 34.5585 15.0888 34.1585 10.0888C34.0585 8.68877 32.9085 7.63877 31.5585 7.53877C28.1585 7.38877 24.5585 7.23877 20.9585 7.23877C17.3585 7.23877 13.7585 7.33877 10.3585 7.58877C8.95854 7.68877 7.85854 8.73877 7.75854 10.1388C7.40854 15.1388 7.35854 20.1388 7.65854 25.1388C7.80854 26.6888 9.15854 27.7888 10.7085 27.7388H15.9585V34.2388H10.7085C8.32342 34.2701 6.01545 33.3942 4.25171 31.7883C2.48798 30.1824 1.4002 27.9664 1.20854 25.5888C0.858536 20.2388 0.908536 14.9388 1.30854 9.58877C1.49169 7.37023 2.46596 5.29136 4.05375 3.7311C5.64154 2.17085 7.73713 1.23309 9.95854 1.08877C13.4585 0.83877 17.2085 0.73877 20.9585 0.73877C24.7085 0.73877 28.4585 0.83877 32.0085 1.13877C34.2299 1.28309 36.3255 2.22085 37.9133 3.7811C39.5011 5.34136 40.4754 7.42023 40.6585 9.63877C41.0085 14.9388 41.0585 20.2888 40.7085 25.5888Z" fill="white"/>
</g>
<defs>
<clipPath id="clip0_549_134">
<rect width="40" height="40" fill="white" transform="translate(0.960205 0.73877)"/>
</clipPath>
</defs>
</svg>
