<svg width="22" height="22" viewBox="0 0 22 22" fill="none" xmlns="http://www.w3.org/2000/svg">
<path d="M9.43246 3.53779L1.66829 16.4995C1.50821 16.7767 1.42351 17.091 1.42261 17.4111C1.42172 17.7312 1.50466 18.046 1.66318 18.3241C1.82171 18.6022 2.05029 18.834 2.32619 18.9963C2.60209 19.1587 2.91569 19.2459 3.23579 19.2495H18.7641C19.0842 19.2459 19.3978 19.1587 19.6737 18.9963C19.9496 18.834 20.1782 18.6022 20.3367 18.3241C20.4953 18.046 20.5782 17.7312 20.5773 17.4111C20.5764 17.091 20.4917 16.7767 20.3316 16.4995L12.5675 3.53779C12.404 3.26839 12.174 3.04565 11.8994 2.89107C11.6248 2.73648 11.315 2.65527 11 2.65527C10.6849 2.65527 10.3751 2.73648 10.1005 2.89107C9.82596 3.04565 9.59587 3.26839 9.43246 3.53779Z" stroke="#D23535" stroke-width="2" stroke-linecap="round" stroke-linejoin="round"/>
<path d="M11 8.25V11.9167" stroke="#D23535" stroke-width="2" stroke-linecap="round" stroke-linejoin="round"/>
<path d="M11 15.584H11.0083" stroke="#D23535" stroke-width="2" stroke-linecap="round" stroke-linejoin="round"/>
</svg>
