<svg width="36" height="36" viewBox="0 0 36 36" fill="none" xmlns="http://www.w3.org/2000/svg">
<path d="M34.1401 26.76L33.3001 26.58C32.8801 26.52 32.5801 26.22 32.4001 25.86C32.2201 25.44 32.2801 25.08 32.5201 24.72L33.0601 24C33.2401 23.7601 33.1802 23.4001 33.0002 23.2201L31.8001 22.02C31.6712 21.9234 31.5251 21.8618 31.3801 21.853V3.00002C31.3801 1.98 30.6002 1.20002 29.5801 1.20002H21.7801C21.7801 0.54 21.2401 0 20.5801 0H12.1801C11.5201 0 10.9801 0.54 10.9801 1.20002H3.18013C2.1601 1.20002 1.38013 1.98 1.38013 3.00002V34.2C1.38013 35.22 2.1601 36 3.18013 36H25.8601H27.5401C27.8401 36 28.0801 35.76 28.3801 35.46L28.5002 34.8C28.5601 34.38 28.8601 34.08 29.2201 33.9C29.5802 33.72 30.0001 33.78 30.3601 34.02L30.9001 34.38C31.1401 34.56 31.5001 34.5 31.6801 34.32L32.8801 33.12C33.0601 32.88 33.1201 32.58 32.9401 32.34L32.4601 31.62C32.2201 31.26 32.1601 30.84 32.3401 30.48C32.5201 30.0601 32.8201 29.82 33.2401 29.76L34.1401 29.64C34.38 29.58 34.6201 29.34 34.6201 29.04V27.36C34.6201 27.06 34.4401 26.82 34.1401 26.76ZM12.1801 5.99998H20.5801C21.2402 5.99998 21.7802 5.45998 21.7802 4.79995H28.0202V20.2739C27.9469 20.2402 27.8661 20.22 27.7802 20.22H26.1001C25.909 20.22 25.7425 20.2932 25.6311 20.4238C25.5363 20.5055 25.4682 20.6194 25.4401 20.76L25.2002 21.9C25.167 22.1325 25.06 22.328 24.9102 22.487C24.8016 22.5882 24.6751 22.6725 24.5401 22.74C24.1202 22.86 23.7602 22.86 23.4002 22.62L22.4402 21.9599C22.2002 21.7799 21.8402 21.8399 21.6602 22.0199L21.0302 22.6499L20.4602 23.2199C20.4132 23.2552 20.3756 23.2976 20.3466 23.3445C20.2104 23.5365 20.1796 23.8458 20.3402 24.0599L20.8802 24.7799C21.1201 25.1399 21.1802 25.5599 21.0002 25.9199C20.9327 26.0548 20.8484 26.1814 20.7471 26.2899C20.5882 26.4397 20.3926 26.5466 20.1602 26.5798L19.3202 26.7598C19.1795 26.7879 19.0658 26.8559 18.984 26.9508C18.8534 27.0622 18.7801 27.2287 18.7801 27.4198V29.0997C18.7801 29.2909 18.8534 29.4574 18.984 29.5687C19.0657 29.6636 19.1795 29.7316 19.3202 29.7598L20.2201 29.8798C20.4526 29.913 20.6481 30.0199 20.8071 30.1697C20.9084 30.2783 20.9927 30.4048 21.0602 30.5398C21.2402 30.8998 21.1802 31.3198 20.9401 31.6798L20.4601 32.3998H4.98013V4.80002H10.9801C10.9801 5.45998 11.5201 5.99998 12.1801 5.99998ZM29.8201 2.39998C30.1801 2.39998 30.4201 2.63995 30.4201 2.99995V22.32L30.3601 22.38C30.0001 22.62 29.5802 22.68 29.2201 22.5C29.132 22.4622 29.0524 22.4189 28.9802 22.3706V4.80002C28.9802 4.14 28.4402 3.6 27.7801 3.6H21.7801V2.39998H29.8201ZM12.1801 1.20002H20.5801V1.8V4.19998V4.79995H12.1801V4.19998V1.8V1.20002ZM2.58008 34.2V3.00002C2.58008 2.64002 2.82006 2.40005 3.18006 2.40005H10.9801V3.6H4.98013C4.3201 3.6 3.7801 4.14 3.7801 4.80002V32.4C3.7801 33.06 4.3201 33.6 4.98013 33.6H20.9401L21.7201 34.38C21.9001 34.56 22.2601 34.62 22.5001 34.44L23.2201 33.9C23.5801 33.66 24.0001 33.6 24.3601 33.78C24.7201 33.96 25.0201 34.26 25.0801 34.68L25.1058 34.8H3.18013C2.82013 34.8 2.58008 34.56 2.58008 34.2ZM33.1201 28.68L32.7001 28.74C31.9201 28.86 31.2001 29.3399 30.9001 30.12C30.6001 30.84 30.6602 31.74 31.1401 32.4L31.4401 32.7L30.9601 33.18L30.8401 33.1201C30.1201 32.5801 29.2801 32.5201 28.5001 32.82C27.7201 33.18 27.1801 33.8401 27.0601 34.68V34.8H26.4001L26.28 34.3801C26.16 33.6001 25.62 32.9401 24.84 32.64C24.0601 32.34 23.22 32.46 22.56 32.9401L22.26 33.18L21.78 32.7L21.96 32.4C22.44 31.74 22.5 30.9 22.1999 30.12C21.8999 29.4 21.24 28.86 20.3999 28.74L19.98 28.68V28.02L20.3999 27.8999C21.1799 27.7799 21.8399 27.2399 22.14 26.4599C22.44 25.68 22.32 24.8399 21.8399 24.1799L21.6 23.8799L22.08 23.3999L22.62 23.7599C23.28 24.2399 24.12 24.2999 24.84 23.9998C25.6199 23.6998 26.1 23.0399 26.28 22.2598L26.4 21.5998H27.06L27.12 22.0798C27.24 22.8598 27.78 23.5798 28.5 23.8798C29.22 24.1798 30.12 24.1198 30.78 23.6398L31.1023 23.425L31.56 23.9399L31.32 24.2399C30.84 24.8999 30.7201 25.7399 31.02 26.5199C31.32 27.2399 31.98 27.7799 32.76 27.9599L33.12 28.0199V28.68H33.1201Z" fill="#008751"/>
<path d="M26.5801 25.2C24.9001 25.2 23.5801 26.5199 23.5801 28.2C23.5801 29.88 24.9001 31.2 26.5801 31.2C28.2601 31.2 29.5801 29.88 29.5801 28.2C29.5801 26.5199 28.2601 25.2 26.5801 25.2ZM26.5801 30C25.5601 30 24.7801 29.22 24.7801 28.2C24.7801 27.18 25.5601 26.4 26.5801 26.4C27.6001 26.4 28.3801 27.18 28.3801 28.2C28.3801 29.2199 27.6001 30 26.5801 30Z" fill="#008751"/>
<path d="M8.34005 12.5399C7.44005 12.5399 6.78003 13.2599 6.78003 14.0999V16.4399C6.78003 17.3399 7.44005 17.9999 8.34005 17.9999H9.25651C9.52468 19.0321 10.467 19.7999 11.5801 19.7999C12.693 19.7999 13.6354 19.0321 13.9036 17.9999H18.8566C19.1247 19.0321 20.0671 19.7999 21.1801 19.7999C22.2931 19.7999 23.2355 19.0321 23.5036 17.9999H24.4201C25.3201 17.9999 25.9801 17.3399 26.0401 16.4399V14.0999C26.0401 13.1999 25.3201 12.5399 24.4801 12.5399H23.2021L20.8801 9.2999C20.5201 8.7599 19.9201 8.45988 19.2601 8.45988H16.6638C16.5816 8.42121 16.4862 8.3999 16.3801 8.3999C16.2739 8.3999 16.1786 8.42128 16.0964 8.45988H13.5001C12.8401 8.45988 12.2401 8.7599 11.8801 9.2999L9.55808 12.5399H8.34005ZM11.5801 18.5999C10.92 18.5999 10.38 18.0599 10.38 17.3998C10.38 16.7398 10.92 16.1998 11.5801 16.1998C12.2401 16.1998 12.7801 16.7398 12.7801 17.3998C12.7801 18.0599 12.2401 18.5999 11.5801 18.5999ZM21.1801 18.5999C20.5201 18.5999 19.9801 18.0599 19.9801 17.3998C19.9801 16.7398 20.5201 16.1998 21.1801 16.1998C21.8401 16.1998 22.3801 16.7398 22.3801 17.3998C22.3801 18.0599 21.8401 18.5999 21.1801 18.5999ZM24.8401 14.0999V16.4399C24.8401 16.6199 24.6601 16.7999 24.4801 16.7999H23.5201C23.2201 15.7798 22.4401 14.9999 21.3001 14.9999C21.2783 14.9999 21.2565 15.0007 21.2348 15.0013C21.2166 15.0008 21.1985 14.9999 21.1801 14.9999C20.0671 14.9999 19.1247 15.7677 18.8566 16.7999H13.9801C13.6801 15.7798 12.7801 14.9999 11.6401 14.9999C11.6291 14.9999 11.6184 15.0004 11.6075 15.0006C11.5983 15.0005 11.5893 14.9999 11.5801 14.9999C10.4671 14.9999 9.52475 15.7677 9.25658 16.7999H8.34012C8.16012 16.7999 7.98012 16.6199 7.98012 16.4399V14.0999C7.98012 13.9199 8.16012 13.7399 8.34012 13.7399H9.51026C9.58986 13.7777 9.67936 13.7998 9.78012 13.7998H22.9801C23.0809 13.7998 23.1704 13.7777 23.25 13.7399H24.4801C24.6601 13.7399 24.8401 13.9199 24.8401 14.0999ZM19.8601 9.89988L21.7374 12.5399H16.9801V9.59993H19.2C19.5001 9.59986 19.7401 9.71988 19.8601 9.89988ZM12.7801 9.89988C12.9601 9.71988 13.2001 9.59986 13.4401 9.59986H15.7801V12.5398H10.9614L12.7801 9.89988Z" fill="#008751"/>
<path d="M16.38 22.8H7.38001C7.02001 22.8 6.78003 23.04 6.78003 23.4C6.78003 23.76 7.02001 24 7.38001 24H16.38C16.74 24 16.98 23.76 16.98 23.4C16.98 23.04 16.74 22.8 16.38 22.8Z" fill="#008751"/>
<path d="M16.38 25.8H7.38001C7.02001 25.8 6.78003 26.04 6.78003 26.4C6.78003 26.76 7.02001 27.0001 7.38001 27.0001H16.38C16.74 27.0001 16.98 26.7601 16.98 26.4001C16.98 26.0401 16.74 25.8 16.38 25.8Z" fill="#008751"/>
<path d="M16.38 28.8H7.38001C7.02001 28.8 6.78003 29.04 6.78003 29.4C6.78003 29.76 7.02001 30 7.38001 30H16.38C16.74 30 16.98 29.76 16.98 29.4C16.98 29.04 16.74 28.8 16.38 28.8Z" fill="#008751"/>
</svg>
