<svg width="36" height="36" viewBox="0 0 36 36" fill="none" xmlns="http://www.w3.org/2000/svg">
<path d="M31.2 1.20002H23.4C23.4 0.54 22.86 0 22.2 0H13.8C13.14 0 12.6 0.54 12.6 1.20002H4.8C3.77998 1.20002 3 1.98 3 3.00002V34.2C3 35.22 3.77998 36 4.8 36H31.2C32.2201 36 33 35.22 33 34.2V3.00002C33 1.98 32.22 1.20002 31.2 1.20002ZM13.8 5.99998H22.2C22.8601 5.99998 23.4 5.45998 23.4 4.79995H29.4V32.4H6.6V4.80002H12.6C12.6 5.45998 13.14 5.99998 13.8 5.99998ZM13.8 1.20002H22.2V1.8V4.19998V4.79995H13.8V4.19998V1.8V1.20002ZM31.8 34.2C31.8 34.56 31.56 34.8 31.2 34.8H4.8C4.44 34.8 4.20002 34.56 4.20002 34.2V3.00002C4.20002 2.64002 4.44 2.40005 4.8 2.40005H12.6V3.6H6.6C5.93998 3.6 5.39998 4.14 5.39998 4.80002V32.4C5.39998 33.06 5.93998 33.6 6.6 33.6H29.4C30.0601 33.6 30.6 33.06 30.6 32.4V4.80002C30.6 4.14 30.0601 3.6 29.4 3.6H23.4V2.39998H31.2C31.56 2.39998 31.7999 2.63995 31.7999 2.99995V34.2H31.8Z" fill="#008751"/>
<path d="M27.36 23.52C27.06 23.28 26.7 23.4 26.52 23.64L24.0269 27.1303L23.34 26.1C23.16 25.7999 22.8 25.74 22.5 25.92C22.2 26.1 22.14 26.46 22.32 26.76L23.4593 28.4689C23.5034 28.5517 23.5659 28.6245 23.64 28.68C23.6895 28.7048 23.7389 28.7292 23.7884 28.7497C23.8257 28.7665 23.864 28.7792 23.9029 28.7878C23.9066 28.7886 23.9103 28.7895 23.9141 28.7903C23.9244 28.7924 23.9346 28.7942 23.9449 28.7955C23.9632 28.7981 23.9816 28.8 24 28.8C24.0825 28.8 24.1649 28.7865 24.2416 28.7554C24.2811 28.7467 24.3205 28.74 24.36 28.74C24.5162 28.6463 24.6067 28.5035 24.6328 28.346L27.48 24.3599C27.72 24.06 27.6 23.7 27.36 23.52Z" fill="#008751"/>
<path d="M9.95993 12.54C9.05993 12.54 8.3999 13.26 8.3999 14.1V16.44C8.3999 17.34 9.05993 18 9.95993 18H10.8764C11.1446 19.0321 12.0869 19.8 13.1999 19.8C14.313 19.8 15.2553 19.0321 15.5235 18H20.4764C20.7446 19.0321 21.6869 19.8 22.8 19.8C23.913 19.8 24.8553 19.0321 25.1235 18H26.04C26.94 18 27.6 17.34 27.66 16.44V14.1C27.66 13.2 26.94 12.54 26.1 12.54H24.865L22.5 9.23993C22.14 8.69993 21.54 8.3999 20.8799 8.3999H15.1199C14.4599 8.3999 13.8599 8.69993 13.4999 9.23993L11.1349 12.5399H9.95993V12.54ZM13.1999 18.5999C12.5399 18.5999 11.9999 18.0599 11.9999 17.3999C11.9999 16.7399 12.5399 16.1999 13.1999 16.1999C13.8599 16.1999 14.4 16.7399 14.4 17.3999C14.4 18.0599 13.8599 18.5999 13.1999 18.5999ZM22.8 18.5999C22.14 18.5999 21.6 18.0599 21.6 17.3999C21.6 16.7399 22.14 16.1999 22.8 16.1999C23.46 16.1999 24 16.7399 24 17.3999C24 18.0599 23.4599 18.5999 22.8 18.5999ZM26.46 14.0999V16.4399C26.46 16.6199 26.28 16.7999 26.1 16.7999H25.14C24.84 15.7799 24.06 14.9999 22.92 14.9999C22.8981 14.9999 22.8764 15.0008 22.8547 15.0013C22.8365 15.0009 22.8183 14.9999 22.8 14.9999C21.687 14.9999 20.7446 15.7678 20.4764 16.7999H15.6C15.3 15.7799 14.4 14.9999 13.26 14.9999C13.249 14.9999 13.2382 15.0005 13.2273 15.0006C13.2182 15.0006 13.2092 14.9999 13.2 14.9999C12.087 14.9999 11.1446 15.7678 10.8764 16.7999H9.96C9.78 16.7999 9.6 16.6199 9.6 16.4399V14.0999C9.6 13.9199 9.78 13.7399 9.96 13.7399H11.4H24.6H26.1C26.28 13.7399 26.46 13.9199 26.46 14.0999ZM21.4799 9.83997L23.4 12.54H18.5999V9.53995H20.8199C21.1199 9.53995 21.36 9.65997 21.4799 9.83997ZM14.4 9.83997C14.5799 9.65997 14.8199 9.53995 15.06 9.53995H17.4V12.54H12.54L14.4 9.83997Z" fill="#008751"/>
<path d="M17.9999 22.8H8.99988C8.63988 22.8 8.3999 23.04 8.3999 23.4C8.3999 23.76 8.63988 24 8.99988 24H17.9999C18.3599 24 18.5999 23.76 18.5999 23.4C18.5999 23.04 18.3599 22.8 17.9999 22.8Z" fill="#008751"/>
<path d="M17.9999 25.8H8.99988C8.63988 25.8 8.3999 26.04 8.3999 26.4C8.3999 26.76 8.63988 27.0001 8.99988 27.0001H17.9999C18.3599 27.0001 18.5999 26.7601 18.5999 26.4001C18.5999 26.0401 18.3599 25.8 17.9999 25.8Z" fill="#008751"/>
<path d="M17.9999 28.8H8.99988C8.63988 28.8 8.3999 29.04 8.3999 29.4C8.3999 29.76 8.63988 30 8.99988 30H17.9999C18.3599 30 18.5999 29.76 18.5999 29.4C18.5999 29.04 18.3599 28.8 17.9999 28.8Z" fill="#008751"/>
</svg>
