<svg width="36" height="36" viewBox="0 0 36 36" fill="none" xmlns="http://www.w3.org/2000/svg">
<g clip-path="url(#clip0_17_126)">
<path d="M21.9417 6.12523C21.8032 5.84054 21.4603 5.72199 21.1755 5.8603C20.8908 5.99874 20.7722 6.34173 20.9106 6.62649C21.5114 7.86244 21.7402 9.12807 21.5907 10.3883C21.3691 12.2558 20.1437 13.2218 19.122 13.7082C19.1522 13.4858 19.1674 13.2506 19.1674 13.003C19.1674 11.9379 18.6084 11.2764 18.0679 10.6368C17.5099 9.97646 16.9829 9.35286 16.9253 8.18623C16.9151 7.97966 16.7944 7.79452 16.6093 7.70185C16.4243 7.60932 16.2037 7.62359 16.0323 7.73926C14.6316 8.68391 13.8344 9.81734 13.6628 11.108C13.5191 12.1893 13.8514 13.1834 14.2449 13.9344C12.8311 13.429 11.5673 12.3579 11.526 10.5448C11.4856 8.76603 12.2775 8.02501 13.28 7.08683C14.4272 6.0133 15.8296 4.70105 16.0738 1.56413C17.0316 2.18429 18.6591 3.37827 19.9071 5.01528C20.0991 5.26707 20.4588 5.31544 20.7106 5.12356C20.9624 4.93154 21.0108 4.57189 20.8189 4.3201C18.7911 1.66053 15.9261 0.130179 15.8051 0.0663352C15.6274 -0.027532 15.4135 -0.0214148 15.2415 0.0823664C15.0695 0.186077 14.9643 0.372335 14.9643 0.573288C14.9643 3.94048 13.7098 5.11442 12.4965 6.24969C11.4302 7.24749 10.3276 8.27933 10.3797 10.5708C10.4104 11.92 10.9691 13.0949 11.9956 13.9686C12.8849 14.7256 14.117 15.2299 15.4646 15.3886C15.4871 15.3912 15.5095 15.3924 15.5318 15.3924C15.742 15.3924 15.938 15.2766 16.0382 15.0876C16.1489 14.8786 16.1199 14.623 15.9652 14.4441C15.642 14.0706 14.6028 12.737 14.7992 11.2588C14.8948 10.5399 15.278 9.87064 15.9416 9.26152C16.2076 10.2117 16.7415 10.8436 17.1921 11.3767C17.6732 11.9461 18.0208 12.3574 18.0208 13.0029C18.0208 13.5575 17.924 14.0267 17.7407 14.3601C17.6303 14.5608 17.6501 14.8079 17.7909 14.9886C17.9317 15.1693 18.1665 15.2487 18.388 15.1908C20.8355 14.5509 22.4583 12.8061 22.7291 10.5233C22.9052 9.04165 22.6402 7.56179 21.9417 6.12523Z" fill="#008751" stroke="#008751" stroke-width="0.3"/>
<path d="M7.89772 30.2449C6.84247 30.2449 5.98389 31.1034 5.98389 32.1587C5.98389 33.214 6.84247 34.0726 7.89772 34.0726C8.95304 34.0726 9.81163 33.214 9.81163 32.1587C9.81163 31.1034 8.95304 30.2449 7.89772 30.2449ZM7.89772 32.9261C7.47465 32.9261 7.1304 32.5818 7.1304 32.1587C7.1304 31.7356 7.47465 31.3914 7.89772 31.3914C8.32086 31.3914 8.66511 31.7356 8.66511 32.1587C8.66511 32.5818 8.32086 32.9261 7.89772 32.9261Z" fill="#008751" stroke="#008751" stroke-width="0.3"/>
<path d="M27.9049 30.2449C26.8496 30.2449 25.991 31.1034 25.991 32.1587C25.991 33.214 26.8496 34.0726 27.9049 34.0726C28.9601 34.0726 29.8186 33.214 29.8186 32.1587C29.8186 31.1034 28.9601 30.2449 27.9049 30.2449ZM27.9049 32.9261C27.4817 32.9261 27.1375 32.5818 27.1375 32.1587C27.1375 31.7356 27.4817 31.3914 27.9049 31.3914C28.3279 31.3914 28.6721 31.7356 28.6721 32.1587C28.6721 32.5818 28.3279 32.9261 27.9049 32.9261Z" fill="#008751" stroke="#008751" stroke-width="0.3"/>
<path d="M32.7377 25.9937C32.4259 25.938 32.1282 26.1455 32.0726 26.4572L31.7751 28.123C31.7195 28.4347 31.927 28.7325 32.2387 28.7882C32.2728 28.7943 32.3066 28.7972 32.3402 28.7972C32.6126 28.7972 32.8543 28.6021 32.9039 28.3246L33.2013 26.6588C33.2569 26.347 33.0494 26.0493 32.7377 25.9937Z" fill="#008751" stroke="#008751" stroke-width="0.3"/>
<path d="M34.6085 29.9636H34.3102L34.8464 26.9587C34.9965 26.119 34.7826 25.2507 34.2596 24.5766C33.7364 23.9025 32.9482 23.4798 32.0971 23.4168L26.8622 23.0291L26.15 20.8944C25.2542 18.2063 22.7486 16.4001 19.9149 16.4001H10.8345C9.4662 16.4001 8.12879 16.8771 7.0689 17.7432C6.82372 17.9435 6.78737 18.3047 6.98776 18.5498C7.18808 18.7949 7.5492 18.8314 7.79438 18.631C8.50285 18.0521 9.36502 17.6893 10.2676 17.5813V22.9994H5.64043C5.69654 22.871 5.74456 22.7392 5.78154 22.6045L6.20279 21.0763C6.31374 20.673 6.47644 20.2862 6.68633 19.9269C6.84601 19.6535 6.75383 19.3024 6.48052 19.1428C6.20722 18.983 5.85615 19.0753 5.6964 19.3486C5.43631 19.7939 5.23472 20.2728 5.09754 20.7719L4.67623 22.3002C4.60395 22.5633 4.47015 22.8105 4.29078 23.0137C4.24613 23.0639 4.20345 23.1073 4.15669 23.1494C3.99919 23.2937 3.82158 23.4073 3.62787 23.4871C2.52129 23.9451 1.80629 25.0149 1.80629 26.2127V29.9636H1.39137C1.07476 29.9636 0.818115 30.2202 0.818115 30.5368C0.818115 30.8534 1.07476 31.1101 1.39137 31.1101H1.80629V32.3709C1.80629 32.6875 2.06293 32.9442 2.37954 32.9442H4.1375C4.50221 34.6954 6.06062 36.0001 7.89795 36.0001C9.73479 36.0001 11.293 34.6954 11.6577 32.9443H20.1403C20.4569 32.9443 20.7135 32.6876 20.7135 32.371C20.7135 32.0544 20.4569 31.7977 20.1403 31.7977H11.7213C11.5387 29.8485 9.89405 28.3177 7.89795 28.3177C6.59562 28.3177 5.44327 28.9696 4.74823 29.9636H2.95273V26.2127C2.95273 25.4805 3.38979 24.8265 4.06536 24.5469C4.31208 24.4452 4.54278 24.3101 4.75238 24.146H26.4182L32.0126 24.5602C32.5482 24.5999 33.0246 24.8553 33.354 25.2796C33.6832 25.7038 33.8124 26.2285 33.7178 26.7572L33.1457 29.9636H31.0544C30.3595 28.9697 29.2073 28.3177 27.9052 28.3177C25.9087 28.3177 24.2637 29.8485 24.0812 31.7977H22.1659C21.8493 31.7977 21.5926 32.0544 21.5926 32.371C21.5926 32.6876 21.8493 32.9443 22.1659 32.9443H24.1449C24.5097 34.6953 26.0682 36 27.9054 36C29.7422 36 31.3003 34.6953 31.6651 32.9443H33.2986C33.5763 32.9443 33.8141 32.7451 33.8629 32.4717L34.1058 31.1102H34.6088C34.9254 31.1102 35.182 30.8535 35.182 30.5369C35.1819 30.2203 34.9252 29.9636 34.6085 29.9636ZM7.89795 29.4643C9.38358 29.4643 10.5923 30.673 10.5923 32.1587C10.5923 32.2169 10.5904 32.276 10.5866 32.3341V32.3344C10.4961 33.7471 9.31517 34.8536 7.89809 34.8536C6.48052 34.8536 5.29927 33.747 5.20871 32.3337C5.20498 32.2759 5.20308 32.2169 5.20308 32.1586C5.20287 30.673 6.4119 29.4643 7.89795 29.4643ZM4.2031 31.1102C4.14003 31.332 4.09601 31.5616 4.07394 31.7977H2.95273V31.1102H4.2031ZM18.3875 22.9995V22.3773C18.3875 22.0607 18.1309 21.804 17.8143 21.804C17.4976 21.804 17.241 22.0607 17.241 22.3773V22.9995H11.4141V17.5467H17.241V20.5811C17.241 20.8977 17.4976 21.1543 17.8143 21.1543C18.1309 21.1543 18.3875 20.8977 18.3875 20.5811V17.5467H19.9147C22.254 17.5467 24.3226 19.0376 25.0622 21.2571L25.6436 22.9995H18.3875ZM30.5938 32.3337L30.5938 32.3344C30.5033 33.7471 29.3223 34.8536 27.9052 34.8536C26.4877 34.8536 25.3064 33.747 25.2159 32.3337C25.2121 32.2763 25.2102 32.2173 25.2102 32.1586C25.2102 30.673 26.4192 29.4643 27.9053 29.4643C29.3909 29.4643 30.5996 30.673 30.5996 32.1586C30.5995 32.2174 30.5976 32.2763 30.5938 32.3337ZM32.8184 31.7978H31.7286C31.7065 31.5617 31.6625 31.332 31.5995 31.1102H32.9411L32.8184 31.7978Z" fill="#008751" stroke="#008751" stroke-width="0.3"/>
</g>
<defs>
<clipPath id="clip0_17_126">
<rect width="36" height="36" fill="white"/>
</clipPath>
</defs>
</svg>
