<svg width="36" height="37" viewBox="0 0 36 37" fill="none" xmlns="http://www.w3.org/2000/svg">
<g clip-path="url(#clip0_17_237)">
<path d="M33.48 29.3001C33.12 29.2401 32.82 29.4801 32.76 29.7801C32.1 33.0801 29.46 35.3001 26.28 35.3001C23.2347 35.3001 20.5997 33.3068 19.6921 30.5001H22.5V29.3001H19.0147C18.9365 29.2853 18.8563 29.2848 18.78 29.3001H17.7V34.1001H18.9V31.873C20.1968 34.6514 23.0434 36.5001 26.22 36.5001C30.06 36.5001 33.12 33.9201 33.96 30.0201C34.02 29.6601 33.78 29.3601 33.48 29.3001Z" fill="#008751"/>
<path d="M33.3 22.1V24.7406C31.9597 22.0363 29.2685 20.3 26.2201 20.3C22.5601 20.3 19.3201 22.7 18.3001 26.1801C18.2401 26.4801 18.4201 26.8401 18.72 26.9001C19.02 26.96 19.32 26.78 19.44 26.4801C20.2801 23.6001 23.1601 21.5001 26.2201 21.5001C28.9516 21.5001 31.384 23.1419 32.4317 25.7H29.7V26.9001H34.5001V22.1H33.3Z" fill="#008751"/>
<path d="M5.1 4.1C4.43998 4.1 3.89998 4.64 3.89998 5.30002V32.9C3.89998 33.56 4.43998 34.1 5.1 34.1H15.9C16.26 34.1 16.5 33.86 16.5 33.5C16.5 33.14 16.26 32.9001 15.9 32.9001H5.1V5.30002H11.1C11.1 5.96005 11.64 6.50005 12.3 6.50005H20.7C21.36 6.50005 21.9 5.96005 21.9 5.30002H27.9V18.5C27.9 18.86 28.14 19.1 28.5 19.1C28.86 19.1 29.1 18.86 29.1 18.5V5.30002C29.1 4.64 28.56 4.1 27.9 4.1H21.9V2.89998H29.7C30.06 2.89998 30.3 3.13995 30.3 3.49995V18.5C30.3 18.86 30.54 19.1 30.9 19.1C31.26 19.1 31.5 18.86 31.5 18.5V3.50002C31.5 2.48 30.72 1.70002 29.7 1.70002H21.9C21.9 1.04 21.36 0.5 20.7 0.5H12.3C11.64 0.5 11.1 1.04 11.1 1.70002H3.3C2.27998 1.70002 1.5 2.48 1.5 3.50002V34.7C1.5 35.72 2.27998 36.5 3.3 36.5H15.9C16.26 36.5 16.5 36.26 16.5 35.9C16.5 35.54 16.26 35.3 15.9 35.3H3.3C2.94 35.3 2.70002 35.0601 2.70002 34.7001V3.50002C2.70002 3.14002 2.94 2.90005 3.3 2.90005H11.1V4.1H5.1ZM12.3 1.70002H20.7V2.3V4.69998V5.29995H12.3V4.69998V2.3V1.70002Z" fill="#008751"/>
<path d="M23.322 13.0399L21 9.7999C20.64 9.2599 20.04 8.95988 19.38 8.95988H16.7837C16.7015 8.92121 16.6061 8.8999 16.5 8.8999C16.3938 8.8999 16.2985 8.92128 16.2162 8.95988H13.6199C12.9599 8.95988 12.36 9.2599 11.9999 9.7999L9.67795 13.0399H8.45993C7.55993 13.0399 6.8999 13.7599 6.8999 14.5999V16.9399C6.8999 17.8399 7.55993 18.4999 8.45993 18.4999H9.37638C9.64455 19.5321 10.5869 20.2999 11.6999 20.2999C12.8129 20.2999 13.7553 19.5321 14.0235 18.4999H18.9764C19.2446 19.5321 20.1869 20.2999 21.3 20.2999C22.413 20.2999 23.3554 19.5321 23.6235 18.4999H24.54C25.44 18.4999 26.1 17.8399 26.16 16.9399V14.5999C26.16 13.6999 25.44 13.0399 24.6 13.0399H23.322ZM19.9799 10.3999L21.8573 13.0399H17.0999V10.0999H19.3199C19.6199 10.0999 19.8599 10.2199 19.9799 10.3999ZM12.8999 10.3999C13.0799 10.2199 13.3199 10.0999 13.56 10.0999H15.9V13.0398H11.0813L12.8999 10.3999ZM11.6999 19.0999C11.0399 19.0999 10.4999 18.5599 10.4999 17.8998C10.4999 17.2398 11.0399 16.6998 11.6999 16.6998C12.3599 16.6998 12.8999 17.2398 12.8999 17.8998C12.8999 18.5599 12.3599 19.0999 11.6999 19.0999ZM21.2999 19.0999C20.6399 19.0999 20.0999 18.5599 20.0999 17.8998C20.0999 17.2398 20.6399 16.6998 21.2999 16.6998C21.9599 16.6998 22.4999 17.2399 22.4999 17.8999C22.4999 18.5599 21.9599 19.0999 21.2999 19.0999ZM24.96 14.5999V16.9399C24.96 17.1199 24.78 17.2999 24.6 17.2999H23.64C23.34 16.2798 22.56 15.4999 21.42 15.4999C21.3981 15.4999 21.3764 15.5007 21.3547 15.5013C21.3365 15.5008 21.3183 15.4999 21.3 15.4999C20.1869 15.4999 19.2446 16.2677 18.9764 17.2999H14.1C13.7999 16.2798 12.8999 15.4999 11.76 15.4999C11.749 15.4999 11.7382 15.5004 11.7273 15.5006C11.7182 15.5005 11.7092 15.4999 11.7 15.4999C10.5869 15.4999 9.64462 16.2677 9.37645 17.2999H8.45993C8.27993 17.2999 8.09993 17.1199 8.09993 16.9399V14.5999C8.09993 14.4199 8.27993 14.2399 8.45993 14.2399H9.63007C9.70966 14.2777 9.79917 14.2998 9.89993 14.2998H23.0999C23.2007 14.2998 23.2902 14.2777 23.3698 14.2399H24.5999C24.78 14.2399 24.96 14.4199 24.96 14.5999Z" fill="#008751"/>
<path d="M16.5001 23.3H7.50012C7.14012 23.3 6.90015 23.54 6.90015 23.9C6.90015 24.26 7.14012 24.5 7.50012 24.5H16.5001C16.8601 24.5 17.1001 24.26 17.1001 23.9C17.1001 23.54 16.8601 23.3 16.5001 23.3Z" fill="#008751"/>
<path d="M16.5001 26.3H7.50012C7.14012 26.3 6.90015 26.54 6.90015 26.9C6.90015 27.26 7.14012 27.5 7.50012 27.5H16.5001C16.8601 27.5 17.1001 27.26 17.1001 26.9C17.1001 26.54 16.8601 26.3 16.5001 26.3Z" fill="#008751"/>
<path d="M16.5001 29.3H7.50012C7.14012 29.3 6.90015 29.54 6.90015 29.9C6.90015 30.26 7.14012 30.5 7.50012 30.5H16.5001C16.8601 30.5 17.1001 30.26 17.1001 29.9C17.1001 29.54 16.8601 29.3 16.5001 29.3Z" fill="#008751"/>
</g>
<defs>
<clipPath id="clip0_17_237">
<rect width="36" height="36" fill="white" transform="translate(0 0.5)"/>
</clipPath>
</defs>
</svg>
