<svg width="36" height="36" viewBox="0 0 36 36" fill="none" xmlns="http://www.w3.org/2000/svg">
<g clip-path="url(#clip0_17_151)">
<path d="M34.32 34.98L31.001 31.432C32.0582 30.2628 32.7 28.71 32.7 27C32.7 25.5788 32.2566 24.2665 31.5 23.1924V3.00002C31.5 1.98 30.72 1.20002 29.7 1.20002H21.9C21.9 0.54 21.36 0 20.7 0H12.3C11.64 0 11.1 0.54 11.1 1.20002H3.3C2.27998 1.20002 1.5 1.98 1.5 3.00002V34.2C1.5 35.22 2.27998 36 3.3 36H28.5C28.86 36 29.1 35.76 29.1 35.4V32.8864C29.4638 32.7015 29.8077 32.4837 30.1284 32.2373L33.48 35.8201C33.6 35.9401 33.7199 36.0001 33.8999 36.0001C34.02 36.0001 34.2 35.9401 34.3199 35.8201C34.56 35.58 34.56 35.22 34.32 34.98ZM26.1001 32.4C23.1 32.4 20.7 30 20.7 27C20.7 24.6605 22.1596 22.6862 24.2251 21.93C24.2332 21.9273 24.241 21.9241 24.249 21.9213C24.2588 21.9178 24.2689 21.9149 24.2787 21.9113C24.6655 21.7829 25.0741 21.697 25.5 21.6599C25.5716 21.6361 25.6526 21.6219 25.7357 21.6133C25.8562 21.6054 25.9774 21.5999 26.1 21.5999C26.1892 21.5999 26.2778 21.6024 26.3658 21.6065C26.3728 21.6069 26.3797 21.6071 26.3866 21.6074C27.6626 21.6729 28.8159 22.1744 29.7032 22.9665C29.964 23.2031 30.2042 23.4679 30.42 23.7599C30.4363 23.7843 30.4562 23.8063 30.4785 23.8264C31.1214 24.7153 31.5 25.81 31.5 27C31.5 30 29.1 32.4 26.1001 32.4ZM12.3 5.99998H20.7C21.36 5.99998 21.9 5.45998 21.9 4.79995H27.9V20.64C27.855 20.6295 27.8098 20.6194 27.7644 20.6095C27.7002 20.593 27.6356 20.5775 27.5707 20.5629C27.5452 20.5572 27.5196 20.5517 27.494 20.5463C27.4172 20.5299 27.3399 20.5145 27.262 20.5009C27.2529 20.4993 27.2437 20.4979 27.2346 20.4964C27.1511 20.482 27.067 20.4693 26.9824 20.4581C26.9761 20.4573 26.9699 20.4564 26.9637 20.4555C26.877 20.4443 26.7896 20.4351 26.7018 20.4272C26.6892 20.4261 26.6767 20.4249 26.6641 20.4239C26.5786 20.4167 26.4926 20.4111 26.4061 20.4071C26.3932 20.4066 26.3803 20.4062 26.3674 20.4057C26.2786 20.4022 26.1896 20.3999 26.1 20.3999C25.445 20.3999 24.8134 20.4945 24.2173 20.67C21.4981 21.4167 19.5624 23.8512 19.5032 26.801C19.5025 26.8233 19.502 26.8456 19.5016 26.868C19.5013 26.892 19.4999 26.9158 19.4999 26.94V27C19.4999 27.0664 19.5012 27.1325 19.5031 27.1984C19.5034 27.2076 19.5038 27.2168 19.5041 27.2261C19.5755 29.371 20.6574 31.2484 22.2923 32.4H5.1V4.80002H11.1C11.1 5.45998 11.64 5.99998 12.3 5.99998ZM29.7 2.39998C30.06 2.39998 30.3 2.63995 30.3 2.99995V21.8987C30.249 21.8567 30.1971 21.8156 30.1448 21.7752C29.8207 21.5201 29.4707 21.2972 29.1 21.1097V4.80002C29.1 4.14 28.56 3.6 27.9 3.6H21.9V2.39998H29.7ZM12.3 1.20002H20.7V1.8V4.19998V4.79995H12.3V4.19998V1.8V1.20002ZM27.9 34.8H3.3C2.94 34.8 2.70002 34.56 2.70002 34.2V3.00002C2.70002 2.64002 2.94 2.40005 3.3 2.40005H11.1V3.6H5.1C4.43998 3.6 3.89998 4.14 3.89998 4.80002V32.4C3.89998 33.06 4.43998 33.6 5.1 33.6H26.1H27.9V34.8Z" fill="#008751"/>
<path d="M8.45993 12.5399C7.55993 12.5399 6.8999 13.2599 6.8999 14.0999V16.4399C6.8999 17.3399 7.55993 17.9999 8.45993 17.9999H9.37638C9.64455 19.0321 10.5869 19.7999 11.6999 19.7999C12.8129 19.7999 13.7553 19.0321 14.0235 17.9999H18.9764C19.2446 19.0321 20.1869 19.7999 21.3 19.7999C22.413 19.7999 23.3554 19.0321 23.6235 17.9999H24.54C25.44 17.9999 26.1 17.3399 26.16 16.4399V14.0999C26.16 13.1999 25.44 12.5399 24.6 12.5399H23.322L21 9.2999C20.64 8.7599 20.04 8.45988 19.38 8.45988H16.7837C16.7015 8.42121 16.6061 8.3999 16.5 8.3999C16.3938 8.3999 16.2985 8.42128 16.2162 8.45988H13.6199C12.9599 8.45988 12.36 8.7599 11.9999 9.2999L9.67795 12.5399H8.45993ZM11.6999 18.5999C11.0399 18.5999 10.4999 18.0599 10.4999 17.3998C10.4999 16.7398 11.0399 16.1998 11.6999 16.1998C12.3599 16.1998 12.8999 16.7398 12.8999 17.3998C12.8999 18.0599 12.3599 18.5999 11.6999 18.5999ZM21.2999 18.5999C20.6399 18.5999 20.0999 18.0599 20.0999 17.3998C20.0999 16.7398 20.6399 16.1998 21.2999 16.1998C21.9599 16.1998 22.4999 16.7399 22.4999 17.3999C22.4999 18.0599 21.9599 18.5999 21.2999 18.5999ZM24.96 14.0999V16.4399C24.96 16.6199 24.78 16.7999 24.6 16.7999H23.64C23.34 15.7798 22.56 14.9999 21.42 14.9999C21.3981 14.9999 21.3764 15.0007 21.3547 15.0013C21.3365 15.0008 21.3183 14.9999 21.3 14.9999C20.1869 14.9999 19.2446 15.7677 18.9764 16.7999H14.1C13.7999 15.7798 12.8999 14.9999 11.76 14.9999C11.749 14.9999 11.7382 15.0004 11.7273 15.0006C11.7182 15.0005 11.7092 14.9999 11.7 14.9999C10.5869 14.9999 9.64462 15.7677 9.37645 16.7999H8.45993C8.27993 16.7999 8.09993 16.6199 8.09993 16.4399V14.0999C8.09993 13.9199 8.27993 13.7399 8.45993 13.7399H9.63007C9.70966 13.7777 9.79917 13.7998 9.89993 13.7998H23.0999C23.2007 13.7998 23.2902 13.7777 23.3698 13.7399H24.5999C24.78 13.7399 24.96 13.9199 24.96 14.0999ZM19.9799 9.89988L21.8573 12.5399H17.0999V9.59993H19.3199C19.6199 9.59986 19.8599 9.71988 19.9799 9.89988ZM12.8999 9.89988C13.0799 9.71988 13.3199 9.59986 13.56 9.59986H15.9V12.5398H11.0813L12.8999 9.89988Z" fill="#008751"/>
<path d="M16.5001 22.8H7.50012C7.14012 22.8 6.90015 23.04 6.90015 23.4C6.90015 23.76 7.14012 24 7.50012 24H16.5001C16.8601 24 17.1001 23.76 17.1001 23.4C17.1001 23.04 16.8601 22.8 16.5001 22.8Z" fill="#008751"/>
<path d="M16.5001 25.8H7.50012C7.14012 25.8 6.90015 26.04 6.90015 26.4C6.90015 26.76 7.14012 27 7.50012 27H16.5001C16.8601 27 17.1001 26.76 17.1001 26.4C17.1001 26.04 16.8601 25.8 16.5001 25.8Z" fill="#008751"/>
<path d="M16.5001 28.8H7.50012C7.14012 28.8 6.90015 29.04 6.90015 29.4C6.90015 29.76 7.14012 30 7.50012 30H16.5001C16.8601 30 17.1001 29.76 17.1001 29.4C17.1001 29.04 16.8601 28.8 16.5001 28.8Z" fill="#008751"/>
</g>
<defs>
<clipPath id="clip0_17_151">
<rect width="36" height="36" fill="white"/>
</clipPath>
</defs>
</svg>
