<svg width="36" height="36" viewBox="0 0 36 36" fill="none" xmlns="http://www.w3.org/2000/svg">
<path d="M22.903 7.8876C22.9037 9.08764 22.5485 10.2609 21.8822 11.259C21.2159 12.2571 20.2686 13.0352 19.16 13.4948C18.0515 13.9543 16.8315 14.0748 15.6545 13.8408C14.4774 13.6069 13.3963 13.0291 12.5477 12.1805C11.6991 11.3319 11.1213 10.2508 10.8874 9.07373C10.6534 7.89671 10.7739 6.67674 11.2334 5.56818C11.693 4.45961 12.4711 3.51227 13.4692 2.846C14.4673 2.17973 15.6405 1.82448 16.8406 1.8252" stroke="white" stroke-width="2" stroke-linecap="round" stroke-linejoin="round"/>
<path d="M23.0031 2L19 9H27L23.0031 2Z" fill="white"/>
<path d="M13.0102 12.5747H12.049C10.5621 12.5757 9.13643 13.167 8.08535 14.2188C7.03428 15.2705 6.44385 16.6966 6.44385 18.1835V21.2399H29.5558V18.1799C29.5549 16.6936 28.964 15.2685 27.9131 14.2175C26.8621 13.1665 25.4369 12.5757 23.9506 12.5747H20.6674" stroke="white" stroke-width="2" stroke-linecap="round" stroke-linejoin="round"/>
<path d="M33.8902 24.2138V26.9426C33.8902 27.7303 33.5773 28.4858 33.0203 29.0427C32.4633 29.5997 31.7079 29.9126 30.9202 29.9126H29.923C29.923 28.8576 29.5039 27.8458 28.7578 27.0998C28.0118 26.3537 27 25.9346 25.945 25.9346C24.8899 25.9346 23.8781 26.3537 23.1321 27.0998C22.3861 27.8458 21.967 28.8576 21.967 29.9126H14.0398C14.0398 28.8576 13.6207 27.8458 12.8746 27.0998C12.1286 26.3537 11.1168 25.9346 10.0618 25.9346C9.00675 25.9346 7.99493 26.3537 7.24891 27.0998C6.50289 27.8458 6.08378 28.8576 6.08378 29.9126H5.07938C4.29168 29.9126 3.53625 29.5997 2.97927 29.0427C2.42229 28.4858 2.10938 27.7303 2.10938 26.9426V24.2138C2.1089 23.8235 2.18538 23.4369 2.33442 23.0762C2.48347 22.7154 2.70216 22.3876 2.978 22.1114C3.25383 21.8352 3.5814 21.6161 3.94198 21.4667C4.30255 21.3172 4.68905 21.2402 5.07938 21.2402H30.9202C31.3105 21.2402 31.697 21.3172 32.0576 21.4667C32.4182 21.6161 32.7457 21.8352 33.0216 22.1114C33.2974 22.3876 33.5161 22.7154 33.6651 23.0762C33.8142 23.4369 33.8907 23.8235 33.8902 24.2138Z" stroke="white" stroke-width="2" stroke-linecap="round" stroke-linejoin="round"/>
<path d="M11.5777 33.5864C13.6075 32.7456 14.5714 30.4186 13.7306 28.3889C12.8899 26.3591 10.5629 25.3952 8.5331 26.236C6.50335 27.0767 5.53947 29.4037 6.38022 31.4335C7.22098 33.4632 9.54798 34.4271 11.5777 33.5864Z" stroke="white" stroke-width="2" stroke-linecap="round" stroke-linejoin="round"/>
<path d="M27.4679 33.5859C29.4976 32.7451 30.4615 30.4181 29.6207 28.3884C28.78 26.3586 26.453 25.3947 24.4232 26.2355C22.3935 27.0762 21.4296 29.4033 22.2704 31.433C23.1111 33.4628 25.4381 34.4266 27.4679 33.5859Z" stroke="white" stroke-width="2" stroke-linecap="round" stroke-linejoin="round"/>
<path d="M18 21.2436V13.8384" stroke="white" stroke-width="2" stroke-linecap="round" stroke-linejoin="round"/>
</svg>
