<svg width="22" height="22" viewBox="0 0 22 22" fill="none" xmlns="http://www.w3.org/2000/svg">
<path d="M12.6071 1.83337C13.6679 1.83337 14.5414 2.63543 14.6542 3.66621L16.2707 3.66671C17.3623 3.66671 18.2558 4.51477 18.3284 5.588L18.3332 5.72921V11.2292C18.3332 11.6089 18.0254 11.9167 17.6457 11.9167C17.2976 11.9167 17.01 11.6581 16.9644 11.3225L16.9582 11.2292V5.72921C16.9582 5.38115 16.6995 5.09351 16.364 5.04798L16.2707 5.04171L14.3166 5.04156C13.9467 5.59088 13.3191 5.95224 12.6071 5.95224H9.3926C8.68056 5.95224 8.05293 5.59088 7.68307 5.04156L5.729 5.04171C5.38095 5.04171 5.0933 5.30035 5.04778 5.63592L5.0415 5.72921V18.1084C5.0415 18.4565 5.30014 18.7441 5.63571 18.7896L5.82229 18.8022C6.15786 18.8477 6.4165 19.1354 6.4165 19.4834C6.4165 19.8631 6.1087 20.1709 5.729 20.1709C4.63738 20.1709 3.74383 19.3229 3.67126 18.2496L3.6665 18.1084V5.72921C3.6665 4.63758 4.51457 3.74403 5.58779 3.67147L5.729 3.66671L7.34549 3.66621C7.45831 2.63543 8.33179 1.83337 9.3926 1.83337H12.6071ZM15.8123 13.2917H16.729C18.6275 13.2917 20.1665 14.8307 20.1665 16.7292C20.1665 18.5664 18.7252 20.067 16.9144 20.1619L16.7322 20.1667L15.8155 20.1709C15.4358 20.1727 15.1266 19.8663 15.1248 19.4866C15.1232 19.1385 15.3806 18.8497 15.7159 18.8026L15.8092 18.7959L16.729 18.7917C17.8681 18.7917 18.7915 17.8683 18.7915 16.7292C18.7915 15.6376 17.9434 14.744 16.8702 14.6715L16.729 14.6667H15.8123C15.4326 14.6667 15.1248 14.3589 15.1248 13.9792C15.1248 13.6312 15.3835 13.3435 15.719 13.298L15.8123 13.2917ZM11.229 13.2917H12.1457C12.5254 13.2917 12.8332 13.5995 12.8332 13.9792C12.8332 14.3273 12.5745 14.6149 12.239 14.6604L12.1457 14.6667H11.229C10.0899 14.6667 9.1665 15.5901 9.1665 16.7292C9.1665 17.8208 10.0146 18.7144 11.0878 18.787L11.229 18.7917H12.1457C12.5254 18.7917 12.8332 19.0995 12.8332 19.4792C12.8332 19.8273 12.5745 20.1149 12.239 20.1604L12.1457 20.1667H11.229C9.33052 20.1667 7.7915 18.6277 7.7915 16.7292C7.7915 14.892 9.23283 13.3914 11.0464 13.2965L11.229 13.2917ZM11.229 16.0417H16.729C17.1087 16.0417 17.4165 16.3495 17.4165 16.7292C17.4165 17.0773 17.1579 17.3649 16.8223 17.4104L16.729 17.4167H11.229C10.8493 17.4167 10.5415 17.1089 10.5415 16.7292C10.5415 16.3812 10.8001 16.0935 11.1357 16.048L11.229 16.0417ZM12.6071 3.20837H9.3926C9.0146 3.20837 8.70817 3.5148 8.70817 3.89281C8.70817 4.27081 9.0146 4.57724 9.3926 4.57724H12.6071C12.9851 4.57724 13.2915 4.27081 13.2915 3.89281C13.2915 3.5148 12.9851 3.20837 12.6071 3.20837Z" fill="white" stroke="white" stroke-width="0.5"/>
</svg>
