<svg width="36" height="36" viewBox="0 0 36 36" fill="none" xmlns="http://www.w3.org/2000/svg">
<g clip-path="url(#clip0_18_765)">
<path d="M34.7569 13.8375L34.4154 13.2658H28.4025V16.0477H27.8008V12.0138H24.6846L22.7061 10.2595H19.4345V8.66373H20.4868V6.31592H12.1459V8.66373H13.1982V10.2595H9.79209L7.81363 12.0138H3.92281V13.1877V17.8449H2.34781V14.8485H0V23.1893H2.34781V20.1928H3.92281V24.85V26.024H9.79209L13.9201 29.684H27.8008V25.5747H28.4024V28.3566H34.4153L34.7569 27.7848C34.8841 27.572 36 25.5674 36 20.8111C36 16.0549 34.8842 14.0504 34.7569 13.8375ZM15.5462 8.66387H17.0867V10.2596H15.5462V8.66387ZM32.9715 26.0087H30.7503V23.2268H25.453V27.3362H14.8111L10.6831 23.6761H6.27069V14.3617H8.70471L10.6832 12.6074H21.8151L23.7935 14.3617H25.453V18.3956H30.7503V15.6137H32.9715C33.2438 16.4143 33.6522 18.0716 33.6522 20.8113C33.6523 23.551 33.2439 25.2082 32.9715 26.0087Z" fill="white"/>
<path d="M18.9897 14.7507L18.1328 19.2028L21.2375 19.2129L17.0112 25.2482L17.8685 20.3504L14.7638 20.3395L18.9897 14.7507ZM18.9901 14C18.9696 14 18.9491 14.0008 18.9289 14.0023C18.7949 14.0128 18.706 14.0575 18.6008 14.1273C18.5423 14.1656 18.4887 14.2129 18.4416 14.2674C18.4276 14.2835 18.4147 14.3004 18.4025 14.3177L14.1458 19.8873C13.9779 20.1153 13.9528 20.4157 14.082 20.6669C14.2111 20.9181 14.4717 21.0774 14.7577 21.0796L16.9504 21.0954L16.261 25.1112C16.1957 25.4563 16.3818 25.8002 16.7092 25.9388C16.8069 25.9801 16.9094 26 17.0104 26C17.2494 26 17.4453 25.8896 17.5927 25.6902L21.8544 19.6549C22.0223 19.427 22.047 19.1262 21.9182 18.8753C21.7891 18.6241 21.5285 18.4649 21.2425 18.463L19.0497 18.4593L19.7319 14.9287C19.7463 14.8719 19.7536 14.813 19.7536 14.7522C19.7536 14.3459 19.4265 14.0146 19.0171 14.0015C19.008 14.0011 18.9992 14.0011 18.9901 14.0011V14Z" fill="white" stroke="white" stroke-width="0.5"/>
</g>
<defs>
<clipPath id="clip0_18_765">
<rect width="36" height="36" fill="white"/>
</clipPath>
</defs>
</svg>
