<svg width="36" height="36" viewBox="0 0 36 36" fill="none" xmlns="http://www.w3.org/2000/svg">
<path d="M26.9792 23.8027C25.3492 23.8027 24.0215 25.1525 24.0215 26.8121C24.0215 28.5307 25.3196 29.8805 26.9792 29.8805C28.6388 29.8805 29.996 28.5012 29.996 26.8121C29.996 25.1525 28.6462 23.8027 26.9792 23.8027ZM26.9792 28.4053C26.1458 28.4053 25.4967 27.7046 25.4967 26.8121C25.4967 25.9639 26.1605 25.2779 26.9792 25.2779C27.8127 25.2779 28.5208 25.9786 28.5208 26.8121C28.5208 27.6898 27.8275 28.4053 26.9792 28.4053Z" fill="#008751"/>
<path d="M35.2034 26.8711H31.4786C31.0729 26.8711 30.741 27.203 30.741 27.6087C30.741 28.0144 31.0729 28.3463 31.4786 28.3463H35.2034C35.6091 28.3463 35.941 28.0144 35.941 27.6087C35.941 27.203 35.6091 26.8711 35.2034 26.8711Z" fill="#008751"/>
<path d="M35.2623 14.5901C35.2549 14.5901 35.2475 14.5901 35.2402 14.5901C35.0779 14.5828 34.9156 14.627 34.7755 14.7303L27.4586 20.0041C27.4291 20.0188 27.3996 20.0336 27.3701 20.0483L20.0531 21.5456C19.7728 21.6047 19.5516 21.8186 19.4852 22.0988L18.7623 25.1672C18.7328 25.3 18.7402 25.4328 18.7771 25.5582L19.4999 27.8299C19.5958 28.1397 19.8835 28.3463 20.2007 28.3463H22.4798C22.8855 28.3463 23.2174 28.0143 23.2174 27.6087C23.2174 27.203 22.8855 26.8711 22.4798 26.8711H20.7317L20.2375 25.3074L20.8055 22.8954L27.8495 21.4571C27.9011 21.4498 27.9454 21.435 27.9896 21.4129L35.1959 21.4719H35.2033C35.4246 21.4719 35.6237 21.376 35.7639 21.2137C35.9114 21.081 35.9999 20.8892 35.9999 20.6679V15.3277C35.9999 14.9221 35.668 14.5901 35.2623 14.5901ZM34.5247 19.9893L30.0401 19.9524L34.5247 16.7218V19.9893Z" fill="#008751"/>
<path d="M7.82387 24.5403C6.39294 24.5403 5.22754 25.7499 5.22754 27.2399C5.22754 28.6929 6.39294 29.8805 7.82387 29.8805C9.29168 29.8805 10.4866 28.7003 10.4792 27.2399C10.4792 25.7278 9.3138 24.5403 7.82387 24.5403ZM7.82387 28.4053C7.21904 28.4053 6.70273 27.8742 6.70273 27.2399C6.70273 26.5539 7.19691 26.0155 7.82387 26.0155C8.50245 26.0155 9.01139 26.5392 9.00402 27.2399C9.00402 27.8963 8.4877 28.4053 7.82387 28.4053Z" fill="#008751"/>
<path d="M3.68596 26.8711H0.742964C0.337288 26.8711 0.00537109 27.203 0.00537109 27.6087C0.00537109 28.0144 0.337288 28.3463 0.742964 28.3463H3.68596C4.09164 28.3463 4.42355 28.0144 4.42355 27.6087C4.42355 27.203 4.09164 26.8711 3.68596 26.8711Z" fill="#008751"/>
<path d="M15.9375 23.8322L7.53627 21.5751L1.05283 18.5289C0.68403 18.3518 0.241474 18.5141 0.071828 18.8829C-0.105194 19.2517 0.0570762 19.6943 0.425873 19.8639L6.96832 22.9323C7.01258 22.947 7.04946 22.9618 7.09371 22.9765L15.0155 25.1008V26.871H11.8512C11.4455 26.871 11.1136 27.203 11.1136 27.6086C11.1136 28.0143 11.4455 28.3462 11.8512 28.3462H15.7531C16.1587 28.3462 16.4907 28.0143 16.4833 27.616V24.5476C16.4833 24.2083 16.262 23.9207 15.9375 23.8322Z" fill="#008751"/>
<path d="M19.2786 13.5059L21.012 11.7283V13.8157C21.012 14.0812 21.1521 14.3246 21.3808 14.4574C21.6094 14.5828 21.8897 14.5828 22.1184 14.45L24.8253 12.8568L22.6199 16.5005C22.4134 16.8472 22.524 17.2971 22.8707 17.511C23.2174 17.7176 23.6673 17.6069 23.8812 17.2603L27.6061 11.1161C27.7831 10.8285 27.7388 10.4597 27.5028 10.2162C27.2668 9.97284 26.8906 9.92859 26.6029 10.0982L22.4945 12.5175V9.93597C22.4945 9.63355 22.3175 9.36064 22.0372 9.25C21.7643 9.13937 21.4398 9.20575 21.2333 9.41965L19.0426 11.6546L17.1691 6.60204C17.0511 6.28488 16.7413 6.0931 16.4094 6.12261C16.0849 6.15211 15.8119 6.40289 15.7529 6.72744L14.4253 14.214L10.8111 12.3405C10.5234 12.193 10.1694 12.2446 9.9407 12.4807C9.71205 12.7093 9.66779 13.0634 9.82269 13.351L12.8247 18.7576C12.9648 18.9936 13.2156 19.1338 13.4738 19.1338C13.5918 19.1338 13.7172 19.1042 13.8352 19.0379C14.1892 18.8387 14.322 18.3888 14.1229 18.0347L12.3084 14.7672L14.6392 15.9769C14.8457 16.0875 15.0891 16.0875 15.303 15.9842C15.5095 15.881 15.657 15.6818 15.7013 15.4532L16.7266 9.6483L18.0616 13.2478C18.1501 13.4838 18.3493 13.6608 18.6 13.7124C18.8435 13.7641 19.1016 13.6829 19.2786 13.5059Z" fill="#008751"/>
</svg>
