<svg width="120" height="85" viewBox="0 0 120 85" fill="none" xmlns="http://www.w3.org/2000/svg">
<g clip-path="url(#clip0_14_10)">
<path d="M83.5195 41.7199L83.5597 41.6593L83.553 41.6526L83.5195 41.7199Z" fill="#008751"/>
<path d="M115.227 50.0637C115.227 50.0637 114.001 48.3869 111.102 47.269C111.102 47.269 110.861 47.1949 110.487 47.0737C107.902 45.8548 105.452 45.0736 105.452 45.0736C104.93 44.885 104.474 44.6965 104.046 44.5146C102.299 43.6392 101.033 42.6358 101.033 42.6358C101.033 42.6358 101.02 42.6223 99.6742 41.2687C102.091 38.7501 103.865 35.329 104.421 32.0562C104.849 31.6117 105.285 30.8979 105.472 29.7598C105.82 28.4937 106.255 26.2781 105.485 25.2478C105.439 25.1939 105.398 25.1467 105.351 25.0996C106.075 22.4328 106.998 16.9241 103.718 13.1664C103.423 12.7893 101.589 10.5804 97.6523 9.40865L95.7777 8.75542C92.678 7.79242 90.7298 7.58365 90.6494 7.57018C90.5088 7.55672 90.3615 7.57018 90.2276 7.60386C90.1205 7.63753 89.7523 7.73181 89.4711 7.6914C88.728 7.58365 87.6166 7.96751 87.4158 8.04832C87.1614 8.14934 81.1627 10.567 79.3484 16.1834C79.181 16.6346 78.4512 19.0253 79.4153 24.8841C79.2747 24.9784 79.1475 25.0996 79.027 25.2478C78.2504 26.2781 78.6856 28.4802 79.0404 29.753C79.2212 30.8777 79.6563 31.5848 80.0781 32.036C80.5602 35.2684 82.1 38.3797 84.1285 40.7636C84.1285 40.7636 85.6684 43.4439 85.8625 43.6931C90.7431 50.9661 91.3591 64.987 91.4193 66.5628L91.426 66.6638L91.4193 66.7715C91.339 71.6741 88.9154 73.3779 87.6166 73.9436C86.9873 74.2264 86.3312 74.4756 85.6684 74.7315C85.9964 74.2466 86.3178 73.4049 86.3379 71.9166C86.3379 71.9166 85.8625 51.3163 81.7318 45.1679C81.7318 45.1679 80.5535 43.5516 77.7617 42.4809C77.7617 42.4809 77.534 42.4068 77.1658 42.2923C74.6887 41.1205 72.3321 40.373 72.3321 40.373C71.8299 40.1912 71.3814 40.0161 70.9797 39.8343C69.306 38.9925 68.0808 38.0295 68.0808 38.0295C68.0808 38.0295 68.0674 38.016 66.7753 36.7096C69.0984 34.2852 70.8056 30.9989 71.3345 27.8607C71.7563 27.4364 72.1714 26.7428 72.3522 25.6518C72.6802 24.4329 73.102 22.3049 72.3588 21.3149C72.3187 21.2678 72.2785 21.2206 72.2383 21.1735C72.9346 18.6077 73.8184 13.3146 70.665 9.69823C70.3772 9.34131 68.6097 7.21326 64.8337 6.08863L63.0261 5.46908C60.0536 4.54648 58.179 4.33771 58.0986 4.33098C57.9647 4.31751 57.8241 4.33098 57.6902 4.37138C57.5831 4.39832 57.235 4.4926 56.9605 4.45893C56.2508 4.35118 55.1796 4.72157 54.9922 4.79565C54.7512 4.88993 48.9868 7.21327 47.2395 12.6142C47.0788 13.0519 46.3825 15.3483 47.3064 20.9782C47.1658 21.0725 47.0453 21.187 46.9382 21.3284C46.195 22.3116 46.6168 24.4396 46.9449 25.6586C47.1256 26.7428 47.5407 27.4297 47.9491 27.8539C48.4111 30.9585 49.8907 33.9552 51.8456 36.2449L51.2899 37.1002L51.2765 37.0463L51.2564 37.1608C51.2631 37.1406 51.2832 37.1136 51.2899 37.1002L51.2832 37.1069L51.2564 37.1608C50.4731 39.6188 41.0868 42.4876 41.0868 42.4876C38.3017 43.5584 37.1234 45.1746 37.1234 45.1746C32.9993 51.323 32.5173 71.9166 32.5173 71.9166C32.5374 73.3914 32.852 74.2197 33.1667 74.7046C32.5307 74.4689 31.8813 74.2264 31.272 73.9571C29.9732 73.3914 27.543 71.6741 27.4693 66.7783V66.6705V66.5628C27.5296 64.987 28.1522 50.9796 32.9391 43.8277C33.2002 43.4641 34.0571 42.3866 35.6371 41.2754C35.6371 41.2754 35.6371 41.2687 35.6304 41.2687C38.0473 38.7501 39.8215 35.329 40.3772 32.0562C40.8056 31.6117 41.2408 30.8979 41.4349 29.7598C41.7831 28.4937 42.2183 26.2781 41.4416 25.2478C41.4015 25.1939 41.3546 25.1467 41.3144 25.0996C42.0375 22.4328 42.9614 16.9241 39.6809 13.1664C39.4064 12.7893 37.5653 10.5804 33.6287 9.40865L31.7541 8.75542C28.6543 7.79242 26.7061 7.58365 26.6258 7.57018C26.4852 7.55672 26.3379 7.57018 26.204 7.60386C26.0969 7.64426 25.7286 7.73854 25.4408 7.69814C24.7043 7.59039 23.5929 7.97424 23.3921 8.05505C23.1377 8.14934 17.1457 10.567 15.3247 16.1901C15.1573 16.6413 14.4343 19.032 15.3917 24.8908C15.2511 24.9851 15.1172 25.1063 15.0033 25.2545C14.2267 26.2848 14.6686 28.487 15.01 29.7598C15.1908 30.8844 15.626 31.5915 16.0478 32.0427C16.5298 35.2752 18.0696 38.3864 20.1049 40.7704L19.5291 41.6593L19.5157 41.5987L19.489 41.7199C19.4956 41.6997 19.5157 41.6728 19.5224 41.6526V41.6593L19.489 41.7199C18.6789 44.2789 8.91765 47.2622 8.91765 47.2622C6.01875 48.3801 4.79357 50.057 4.79357 50.057C0.50212 56.4546 0 70.6976 0 70.6976C0.0535595 73.9436 1.4528 74.287 1.4528 74.287C11.3144 78.7115 26.7931 79.4927 26.7931 79.4927C27.63 79.5196 28.3999 79.4725 29.1765 79.4253L29.1966 79.5061C29.1966 79.5061 35.0212 79.2031 41.7898 77.9572C49.9509 79.9439 58.2593 80.3681 58.2593 80.3681C59.056 80.3883 59.8058 80.3412 60.549 80.2941L60.5691 80.3749C60.5691 80.3749 69.239 79.9304 77.5608 77.8226C84.6106 79.1762 90.8101 79.4927 90.8101 79.4927C91.6403 79.5196 92.4169 79.4725 93.1935 79.4253L93.2136 79.5061C93.2136 79.5061 108.692 78.7182 118.554 74.3005C118.554 74.3005 119.946 73.9571 120 70.7044C120.02 70.7111 119.518 56.4681 115.227 50.0637Z" fill="#008751"/>
</g>
<defs>
<clipPath id="clip0_14_10">
<rect width="120" height="84.7059" fill="white"/>
</clipPath>
</defs>
</svg>
