<svg width="36" height="36" viewBox="0 0 36 36" fill="none" xmlns="http://www.w3.org/2000/svg">
<path d="M10.845 16.575H18L19.5 12.27H32.4L33.825 9.405L32.4 6.54H19.5L18 2.25H10.845C9.70588 2.24999 8.61315 2.70149 7.80624 3.5056C6.99932 4.3097 6.54401 5.40084 6.54004 6.54V12.27C6.54399 13.4105 6.99882 14.5032 7.80531 15.3097C8.6118 16.1162 9.7045 16.571 10.845 16.575Z" stroke="white" stroke-width="2" stroke-miterlimit="10"/>
<path d="M12.27 12.27V6.54004" stroke="white" stroke-width="2" stroke-miterlimit="10"/>
<path d="M28.02 9.40504V6.54004" stroke="white" stroke-width="2" stroke-miterlimit="10"/>
<path d="M23.73 9.40504V6.54004" stroke="white" stroke-width="2" stroke-miterlimit="10"/>
<path d="M19.5001 12.27L23.6851 16.5L21.6601 20.55L24.6601 23.55L27.6601 26.55L30.6601 29.55L29.6701 32.55L26.6701 33.57L17.5501 24.465L13.5001 26.67L8.50513 21.6C7.73368 20.8301 7.28419 19.7954 7.24798 18.7061C7.21176 17.6168 7.59152 16.5545 8.31013 15.735" stroke="white" stroke-width="2" stroke-miterlimit="10"/>
<path d="M15.5702 16.5752L12.5552 19.5752" stroke="white" stroke-width="2" stroke-miterlimit="10"/>
<path d="M25.71 28.6949L27.735 26.6699" stroke="white" stroke-width="2" stroke-miterlimit="10"/>
<path d="M22.6802 25.65L24.7052 23.625" stroke="white" stroke-width="2" stroke-miterlimit="10"/>
<path d="M7.33521 19.3952C6.00783 19.2419 4.77578 18.6295 3.85212 17.6639C2.92847 16.6984 2.37131 15.4404 2.27699 14.1075C2.18268 12.7746 2.55714 11.4507 3.33562 10.3647C4.11411 9.27871 5.24765 8.49892 6.54021 8.16021C7.5656 7.89715 8.64382 7.92328 9.65526 8.23572C10.6667 8.54815 11.5718 9.13467 12.2702 9.93021" stroke="white" stroke-width="2" stroke-miterlimit="10"/>
</svg>
