<svg width="36" height="36" viewBox="0 0 36 36" fill="none" xmlns="http://www.w3.org/2000/svg">
<g clip-path="url(#clip0_17_163)">
<path d="M17.3962 8.32956H17.3958V6.89916V4.03742H17.3962H18.6037V8.32956H18.6024V8.33042L17.9995 8.32956H17.3962ZM2.84219 22.7849L5.85424 22.254L7.06915 22.0399V22.039H7.06959L6.96339 21.4402L6.85977 20.8515H6.85934V20.8506L2.63216 21.5956L2.84219 22.7849ZM29.5512 12.1602L27.3792 13.4132V13.414L27.7142 13.995L27.9826 14.4586L31.6997 12.3128L31.0957 11.2674L29.5512 12.1602ZM10.7954 28.0895L10.3195 27.6903L7.56013 30.9776L8.48554 31.7539L9.68623 30.3227L11.2445 28.4658L10.7954 28.0895ZM31.0814 27.794L31.6845 26.7479L30.3878 25.9991L27.9683 24.6009V24.6018L27.6348 25.1786L27.3651 25.6466V25.6475L31.0814 27.794ZM2.63726 17.409L4.14476 17.6739L6.86372 18.1546V18.1537H6.86415L7.04379 17.1323L7.07289 16.965V16.9641L2.84593 16.2181L2.63726 17.409ZM33.1276 16.2505L31.9788 16.4526L28.9005 16.9945V16.9954H28.9L29.0554 17.876L29.1098 18.1835V18.1844L33.3374 17.4394L33.1276 16.2505ZM13.6053 9.20488V9.20575L14.5851 8.84834L14.7391 8.7923H14.7395L13.2721 4.7584L12.1375 5.17207L12.3466 5.74712L13.6053 9.20488ZM4.87272 27.7667L8.58937 25.6212V25.6203L8.12455 24.8155L7.98587 24.5751L4.26857 26.7207L4.87229 27.7663H4.87272V27.7667ZM24.7022 28.4854L27.4611 31.7743L28.3853 30.998V30.9971L25.6271 27.7089L24.9854 28.2475L24.7022 28.4854ZM4.2843 12.2866L8.00139 14.4333L8.5242 13.527L8.60468 13.3879V13.387L4.88759 11.2412L4.2843 12.2866ZM33.3315 21.6262L29.1047 20.8805L29.0598 21.1353L28.8949 22.0697L33.1221 22.8155L33.3315 21.6262ZM8.50811 7.26094L7.58349 8.03711L8.59728 9.24498L10.3427 11.325L10.8888 10.8663L11.2668 10.5493L11.2672 10.5484L8.50811 7.26094ZM22.3645 5.763L21.2578 8.80221L21.2586 8.80307L22.0146 9.07741L22.3926 9.2148H22.3931L23.8613 5.18191L22.7265 4.76933L22.3645 5.763ZM25.4157 11.1485L25.6501 11.3448L28.4095 8.05622L27.4845 7.28092H27.4841L24.7252 10.5684V10.5692L25.4157 11.1485ZM18 1.94165C8.07511 1.94165 0 10.0161 0 19.9418C0 25.6593 2.68253 30.7584 6.85208 34.0584H8.6743C4.09827 31.0251 1.07343 25.8309 1.07343 19.9418C1.07343 10.6083 8.66647 3.0153 17.9999 3.0153C27.3336 3.0153 34.9266 10.6083 34.9266 19.9418C34.9266 25.8309 31.9018 31.0251 27.3256 34.0584H29.148C33.317 30.7584 35.9999 25.6593 35.9999 19.9418C36 10.0165 27.9249 1.94165 18 1.94165ZM14.4863 27.8244C14.8639 27.8244 15.0522 27.4482 15.0522 26.6965C15.0522 25.9184 14.8677 25.5285 14.498 25.5285C14.1083 25.5285 13.9132 25.9239 13.9132 26.7156C13.9132 27.455 14.1045 27.8244 14.4863 27.8244ZM12.8728 24.1941H16.0741V29.2023H12.8728V24.1941ZM13.5932 26.7305C13.5932 27.1705 13.6687 27.506 13.8206 27.7387C13.9722 27.971 14.1833 28.0878 14.4543 28.0878C14.7439 28.0878 14.969 27.9655 15.1304 27.7226C15.2918 27.4784 15.3727 27.1262 15.3727 26.6638C15.3727 25.7307 15.0869 25.2639 14.5154 25.2639C14.2166 25.2639 13.9887 25.3867 13.8306 25.6356C13.6721 25.8827 13.5932 26.248 13.5932 26.7305ZM16.4948 24.1941H19.6387V29.2023H16.4948V24.1941ZM17.3207 27.9748C17.4455 28.0496 17.6339 28.0878 17.8864 28.0878C18.1861 28.0878 18.4224 28.0071 18.594 27.8457C18.7656 27.6843 18.8522 27.4711 18.8522 27.2069C18.8522 26.9521 18.7724 26.7508 18.6127 26.6038C18.4522 26.4577 18.2262 26.3838 17.934 26.3838C17.8627 26.3838 17.7856 26.3863 17.7017 26.3914V25.5912H18.7283V25.3092H17.4059V26.6795C17.6158 26.6642 17.7587 26.6566 17.8345 26.6566C18.0598 26.6566 18.2324 26.7067 18.3528 26.8069C18.4735 26.9072 18.5342 27.0473 18.5342 27.2257C18.5342 27.4067 18.4751 27.551 18.3566 27.6606C18.2384 27.7702 18.0831 27.8245 17.8901 27.8245C17.6969 27.8245 17.5074 27.7642 17.3203 27.6436V27.9748H17.3207ZM19.9645 24.1941H23.1265V29.2023H19.9645V24.1941ZM20.7506 26.7305C20.7506 27.1705 20.8263 27.506 20.9782 27.7387C21.1299 27.971 21.341 28.0878 21.6119 28.0878C21.9016 28.0878 22.1271 27.9655 22.2881 27.7226C22.4495 27.4784 22.5302 27.1262 22.5302 26.6638C22.5302 25.7307 22.2439 25.2639 21.6726 25.2639C21.3741 25.2639 21.146 25.3867 20.9876 25.6356C20.8297 25.8827 20.7506 26.248 20.7506 26.7305ZM21.6443 27.8244C22.0214 27.8244 22.2104 27.4482 22.2104 26.6965C22.2104 25.9184 22.0257 25.5285 21.6561 25.5285C21.2662 25.5285 21.0713 25.9239 21.0713 26.7156C21.0709 27.455 21.262 27.8244 21.6443 27.8244ZM18.5251 21.6084C18.4495 21.6084 18.3832 21.6356 18.3136 21.6501L10.0642 14.3722L17.4024 22.632C17.3975 22.6736 17.3767 22.711 17.3767 22.7522C17.3767 23.388 17.89 23.9019 18.5251 23.9019C19.1562 23.9019 19.6693 23.388 19.6693 22.7522C19.6701 22.1223 19.1563 21.6084 18.5251 21.6084Z" fill="#008751"/>
<path d="M25.6271 27.7089L28.3853 30.9971V30.998L27.4611 31.7743L24.7022 28.4854L24.9854 28.2475L25.6271 27.7089ZM25.6271 27.7089V27.7098M17.3962 8.32956H17.3958V6.89916V4.03742H17.3962H18.6037V8.32956H18.6024V8.33042L17.9995 8.32956H17.3962ZM2.84219 22.7849L5.85424 22.254L7.06915 22.0399V22.039H7.06959L6.96339 21.4402L6.85977 20.8515H6.85934V20.8506L2.63216 21.5956L2.84219 22.7849ZM29.5512 12.1602L27.3792 13.4132V13.414L27.7142 13.995L27.9826 14.4586L31.6997 12.3128L31.0957 11.2674L29.5512 12.1602ZM10.7954 28.0895L10.3195 27.6903L7.56013 30.9776L8.48554 31.7539L9.68623 30.3227L11.2445 28.4658L10.7954 28.0895ZM31.0814 27.794L31.6845 26.7479L30.3878 25.9991L27.9683 24.6009V24.6018L27.6348 25.1786L27.3651 25.6466V25.6475L31.0814 27.794ZM2.63726 17.409L4.14476 17.6739L6.86372 18.1546V18.1537H6.86415L7.04379 17.1323L7.07289 16.965V16.9641L2.84593 16.2181L2.63726 17.409ZM33.1276 16.2505L31.9788 16.4526L28.9005 16.9945V16.9954H28.9L29.0554 17.876L29.1098 18.1835V18.1844L33.3374 17.4394L33.1276 16.2505ZM13.6053 9.20488V9.20575L14.5851 8.84834L14.7391 8.7923H14.7395L13.2721 4.7584L12.1375 5.17207L12.3466 5.74712L13.6053 9.20488ZM4.87272 27.7667L8.58937 25.6212V25.6203L8.12455 24.8155L7.98587 24.5751L4.26857 26.7207L4.87229 27.7663H4.87272V27.7667ZM4.2843 12.2866L8.00139 14.4333L8.5242 13.527L8.60468 13.3879V13.387L4.88759 11.2412L4.2843 12.2866ZM33.3315 21.6262L29.1047 20.8805L29.0598 21.1353L28.8949 22.0697L33.1221 22.8155L33.3315 21.6262ZM8.50811 7.26094L7.58349 8.03711L8.59728 9.24498L10.3427 11.325L10.8888 10.8663L11.2668 10.5493L11.2672 10.5484L8.50811 7.26094ZM22.3645 5.763L21.2578 8.80221L21.2586 8.80307L22.0146 9.07741L22.3926 9.2148H22.3931L23.8613 5.18191L22.7265 4.76933L22.3645 5.763ZM25.4157 11.1485L25.6501 11.3448L28.4095 8.05622L27.4845 7.28092H27.4841L24.7252 10.5684V10.5692L25.4157 11.1485ZM18 1.94165C8.07511 1.94165 0 10.0161 0 19.9418C0 25.6593 2.68253 30.7584 6.85208 34.0584H8.6743C4.09827 31.0251 1.07343 25.8309 1.07343 19.9418C1.07343 10.6083 8.66647 3.0153 17.9999 3.0153C27.3336 3.0153 34.9266 10.6083 34.9266 19.9418C34.9266 25.8309 31.9018 31.0251 27.3256 34.0584H29.148C33.317 30.7584 35.9999 25.6593 35.9999 19.9418C36 10.0165 27.9249 1.94165 18 1.94165ZM14.4863 27.8244C14.8639 27.8244 15.0522 27.4482 15.0522 26.6965C15.0522 25.9184 14.8677 25.5285 14.498 25.5285C14.1083 25.5285 13.9132 25.9239 13.9132 26.7156C13.9132 27.455 14.1045 27.8244 14.4863 27.8244ZM12.8728 24.1941H16.0741V29.2023H12.8728V24.1941ZM13.5932 26.7305C13.5932 27.1705 13.6687 27.506 13.8206 27.7387C13.9722 27.971 14.1833 28.0878 14.4543 28.0878C14.7439 28.0878 14.969 27.9655 15.1304 27.7226C15.2918 27.4784 15.3727 27.1262 15.3727 26.6638C15.3727 25.7307 15.0869 25.2639 14.5154 25.2639C14.2166 25.2639 13.9887 25.3867 13.8306 25.6356C13.6721 25.8827 13.5932 26.248 13.5932 26.7305ZM16.4948 24.1941H19.6387V29.2023H16.4948V24.1941ZM17.3207 27.9748C17.4455 28.0496 17.6339 28.0878 17.8864 28.0878C18.1861 28.0878 18.4224 28.0071 18.594 27.8457C18.7656 27.6843 18.8522 27.4711 18.8522 27.2069C18.8522 26.9521 18.7724 26.7508 18.6127 26.6038C18.4522 26.4577 18.2262 26.3838 17.934 26.3838C17.8627 26.3838 17.7856 26.3863 17.7017 26.3914V25.5912H18.7283V25.3092H17.4059V26.6795C17.6158 26.6642 17.7587 26.6566 17.8345 26.6566C18.0598 26.6566 18.2324 26.7067 18.3528 26.8069C18.4735 26.9072 18.5342 27.0473 18.5342 27.2257C18.5342 27.4067 18.4751 27.551 18.3566 27.6606C18.2384 27.7702 18.0831 27.8245 17.8901 27.8245C17.6969 27.8245 17.5074 27.7642 17.3203 27.6436V27.9748H17.3207ZM19.9645 24.1941H23.1265V29.2023H19.9645V24.1941ZM20.7506 26.7305C20.7506 27.1705 20.8263 27.506 20.9782 27.7387C21.1299 27.971 21.341 28.0878 21.6119 28.0878C21.9016 28.0878 22.1271 27.9655 22.2881 27.7226C22.4495 27.4784 22.5302 27.1262 22.5302 26.6638C22.5302 25.7307 22.2439 25.2639 21.6726 25.2639C21.3741 25.2639 21.146 25.3867 20.9876 25.6356C20.8297 25.8827 20.7506 26.248 20.7506 26.7305ZM21.6443 27.8244C22.0214 27.8244 22.2104 27.4482 22.2104 26.6965C22.2104 25.9184 22.0257 25.5285 21.6561 25.5285C21.2662 25.5285 21.0713 25.9239 21.0713 26.7156C21.0709 27.455 21.262 27.8244 21.6443 27.8244ZM18.5251 21.6084C18.4495 21.6084 18.3832 21.6356 18.3136 21.6501L10.0642 14.3722L17.4024 22.632C17.3975 22.6736 17.3767 22.711 17.3767 22.7522C17.3767 23.388 17.89 23.9019 18.5251 23.9019C19.1562 23.9019 19.6693 23.388 19.6693 22.7522C19.6701 22.1223 19.1563 21.6084 18.5251 21.6084Z" stroke="#008751" stroke-width="0.5"/>
</g>
<defs>
<clipPath id="clip0_17_163">
<rect width="36" height="36" fill="white"/>
</clipPath>
</defs>
</svg>
