<svg width="36" height="36" viewBox="0 0 36 36" fill="none" xmlns="http://www.w3.org/2000/svg">
<path d="M10.6875 29.8125H25.3125" stroke="#008751" stroke-width="1.5" stroke-miterlimit="10" stroke-linecap="round" stroke-linejoin="round"/>
<path d="M9.5625 19.6875V21.9375C9.5625 22.5596 9.05962 23.0625 8.4375 23.0625H7.3125C6.69038 23.0625 6.1875 22.5596 6.1875 21.9375V19.6875" stroke="#008751" stroke-width="1.5" stroke-miterlimit="10" stroke-linecap="round" stroke-linejoin="round"/>
<path d="M29.8125 19.6875V21.9375C29.8125 22.5596 29.3096 23.0625 28.6875 23.0625H27.5625C26.9404 23.0625 26.4375 22.5596 26.4375 21.9375V19.6875" stroke="#008751" stroke-width="1.5" stroke-miterlimit="10" stroke-linecap="round" stroke-linejoin="round"/>
<path d="M28.4332 12.4335L26.5162 5.91525C26.2586 5.04225 25.5059 4.41225 24.6014 4.31325C23.1063 4.15013 20.6561 3.9375 17.9999 3.9375C15.3438 3.9375 12.8936 4.15013 11.3984 4.31325C10.4939 4.41225 9.74019 5.04225 9.48369 5.91525L7.57007 12.4245" stroke="#008751" stroke-width="1.5" stroke-miterlimit="10" stroke-linecap="round" stroke-linejoin="round"/>
<path d="M30.9375 19.6875H5.0625" stroke="#008751" stroke-width="1.5" stroke-miterlimit="10" stroke-linecap="round" stroke-linejoin="round"/>
<path d="M5.0625 16.875V15.1875C5.0625 12.4223 8.4375 11.8125 18 11.8125C27.5625 11.8125 30.9375 12.4684 30.9375 15.1875V16.524" stroke="#008751" stroke-width="1.5" stroke-miterlimit="10" stroke-linecap="round" stroke-linejoin="round"/>
<path d="M26.4375 17.4375V16.3125C26.4375 15.6904 26.9404 15.1875 27.5625 15.1875H30.9375V17.4375H26.4375Z" stroke="#008751" stroke-width="1.5" stroke-miterlimit="10" stroke-linecap="round" stroke-linejoin="round"/>
<path d="M5.0625 17.4375V15.1875H8.4375C9.05962 15.1875 9.5625 15.6904 9.5625 16.3125V17.4375H5.0625Z" stroke="#008751" stroke-width="1.5" stroke-miterlimit="10" stroke-linecap="round" stroke-linejoin="round"/>
<path d="M11.8125 17.4375C11.8125 16.1955 12.8205 15.1875 14.0625 15.1875H21.9375C23.1795 15.1875 24.1875 16.1955 24.1875 17.4375" stroke="#008751" stroke-width="1.5" stroke-miterlimit="10" stroke-linecap="round" stroke-linejoin="round"/>
<path d="M25.875 32.0625L27.5625 34.3125H32.0625L34.3125 32.0625H30.375L28.6875 29.8125L30.375 27.5625H34.3125L32.0625 25.3125H27.5625L25.875 27.5625H10.125L8.4375 25.3125H3.9375L1.6875 27.5625H5.625L7.3125 29.8125L5.625 32.0625H1.6875L3.9375 34.3125H8.4375L10.125 32.0625H25.875Z" stroke="#008751" stroke-width="1.5" stroke-miterlimit="10" stroke-linecap="round" stroke-linejoin="round"/>
</svg>
