<svg width="94" height="33" viewBox="0 0 94 33" fill="none" xmlns="http://www.w3.org/2000/svg">
<path d="M11.4027 14.61C10.3351 15.1371 8.9403 15.3992 7.22091 15.3992C4.97578 15.3992 3.21347 14.7274 1.92593 13.3838C0.643766 12.043 0 10.2543 0 8.01768C0 5.63636 0.721555 3.70291 2.16735 2.22278C3.61314 0.739913 5.48811 -0.000152588 7.79225 -0.000152588C9.21927 -0.000152588 10.4236 0.182816 11.4027 0.551483V3.77937C10.4236 3.18404 9.30779 2.88638 8.05781 2.88638C6.68444 2.88638 5.57662 3.32605 4.73168 4.20539C3.88942 5.08473 3.46561 6.27539 3.46561 7.77736C3.46561 9.27934 3.8626 10.3662 4.65926 11.221C5.45592 12.0758 6.52618 12.5045 7.87272 12.5045C9.21927 12.5045 10.3351 12.185 11.4027 11.5487V14.6127V14.61Z" fill="#A7A9AC"/>
<path d="M20.5752 15.1396H11.8629V0.248138H15.1568V12.4196H20.5725V15.1396H20.5752Z" fill="#A7A9AC"/>
<path d="M35.4475 15.1396H31.8558L30.8151 11.827H25.614L24.584 15.1396H21.0137L26.3409 0.248138H30.2464L35.4475 15.1396ZM30.0613 9.25182L28.4895 4.24613C28.3741 3.872 28.291 3.42687 28.2454 2.90527H28.1649C28.13 3.34221 28.0469 3.77369 27.9101 4.20244L26.3194 9.24908H30.064L30.0613 9.25182Z" fill="#A7A9AC"/>
<path d="M35.7649 14.5687V11.2452C36.3577 11.7505 36.9988 12.13 37.6936 12.3813C38.3883 12.6325 39.0884 12.7609 39.7938 12.7609C40.2096 12.7609 40.5717 12.7226 40.8802 12.6462C41.1887 12.5697 41.4489 12.4632 41.6554 12.3294C41.8619 12.1956 42.0175 12.0345 42.1194 11.8515C42.2214 11.6685 42.2723 11.4692 42.2723 11.2534C42.2723 10.9612 42.1919 10.7018 42.0282 10.4751C41.8646 10.2457 41.642 10.0355 41.3603 9.84158C41.0787 9.64769 40.7434 9.46199 40.3545 9.28175C39.9655 9.10152 39.5497 8.91855 39.0991 8.73012C37.9564 8.24675 37.1061 7.65415 36.5428 6.95505C35.9795 6.25595 35.7006 5.41211 35.7006 4.4208C35.7006 3.64524 35.8535 2.97891 36.1592 2.42181C36.465 1.86471 36.8808 1.40592 37.4092 1.04545C37.935 0.684975 38.5465 0.42008 39.2413 0.250767C39.9333 0.0814526 40.6683 -0.00320435 41.4435 -0.00320435C42.2187 -0.00320435 42.8786 0.0432204 43.4687 0.13607C44.0561 0.22892 44.5979 0.373656 45.0969 0.567547V3.67528C44.8528 3.50323 44.5845 3.3503 44.2948 3.21922C44.0051 3.08814 43.7074 2.97891 43.4016 2.89152C43.0958 2.80413 42.79 2.74132 42.4896 2.70036C42.1865 2.65939 41.8995 2.63755 41.6286 2.63755C41.2557 2.63755 40.9151 2.67305 40.6093 2.74678C40.3035 2.82052 40.0433 2.92156 39.8341 3.05264C39.6222 3.18372 39.4612 3.34211 39.3432 3.52508C39.2279 3.70805 39.1689 3.91559 39.1689 4.14226C39.1689 4.39077 39.2332 4.6147 39.362 4.81132C39.4907 5.00794 39.6758 5.19637 39.9119 5.37115C40.1506 5.54865 40.4376 5.7207 40.7783 5.89001C41.1189 6.05933 41.5025 6.2341 41.9317 6.41434C42.5164 6.66285 43.0422 6.92774 43.5089 7.20902C43.9756 7.4903 44.3753 7.80708 44.7079 8.15936C45.0405 8.51165 45.2954 8.91582 45.4724 9.36914C45.6494 9.82246 45.7379 10.3495 45.7379 10.953C45.7379 11.7832 45.5824 12.4823 45.2739 13.0449C44.9654 13.6102 44.5443 14.0662 44.0132 14.4158C43.4821 14.7653 42.8651 15.0166 42.1624 15.1695C41.4596 15.3224 40.7166 15.3989 39.9333 15.3989C39.1501 15.3989 38.3668 15.3306 37.6426 15.1914C36.9184 15.0521 36.2907 14.8445 35.7596 14.5687H35.7649Z" fill="#A7A9AC"/>
<path d="M46.2222 14.5687V11.2452C46.815 11.7505 47.456 12.13 48.1508 12.3813C48.8455 12.6325 49.5456 12.7609 50.2511 12.7609C50.6668 12.7609 51.0289 12.7226 51.3374 12.6462C51.6459 12.5697 51.9061 12.4632 52.1126 12.3294C52.3192 12.1956 52.4747 12.0345 52.5767 11.8515C52.6786 11.6685 52.7296 11.4692 52.7296 11.2534C52.7296 10.9612 52.6491 10.7018 52.4855 10.4751C52.3218 10.2457 52.0992 10.0355 51.8176 9.84158C51.5359 9.64769 51.2006 9.46199 50.8117 9.28175C50.4227 9.10152 50.007 8.91855 49.5563 8.73012C48.4136 8.24675 47.5633 7.65415 47 6.95505C46.4367 6.25595 46.1578 5.41211 46.1578 4.4208C46.1578 3.64524 46.3107 2.97891 46.6165 2.42181C46.9222 1.86471 47.338 1.40592 47.8664 1.04545C48.3922 0.684975 49.0038 0.42008 49.6985 0.250767C50.3905 0.0814526 51.1255 -0.00320435 51.9007 -0.00320435C52.6759 -0.00320435 53.3358 0.0432204 53.9259 0.13607C54.5133 0.22892 55.0552 0.373656 55.5541 0.567547V3.67528C55.31 3.50323 55.0417 3.3503 54.7521 3.21922C54.4624 3.08814 54.1646 2.97891 53.8588 2.89152C53.553 2.80413 53.2472 2.74132 52.9468 2.70036C52.6437 2.65939 52.3567 2.63755 52.0858 2.63755C51.7129 2.63755 51.3723 2.67305 51.0665 2.74678C50.7607 2.82052 50.5005 2.92156 50.2913 3.05264C50.0794 3.18372 49.9184 3.34211 49.8004 3.52508C49.6851 3.70805 49.6261 3.91559 49.6261 4.14226C49.6261 4.39077 49.6904 4.6147 49.8192 4.81132C49.9479 5.00794 50.133 5.19637 50.3691 5.37115C50.6078 5.54865 50.8948 5.7207 51.2355 5.89001C51.5761 6.05933 51.9597 6.2341 52.3889 6.41434C52.9736 6.66285 53.4994 6.92774 53.9661 7.20902C54.4329 7.4903 54.8325 7.80708 55.1651 8.15936C55.4977 8.51165 55.7526 8.91582 55.9296 9.36914C56.1066 9.82246 56.1952 10.3495 56.1952 10.953C56.1952 11.7832 56.0396 12.4823 55.7311 13.0449C55.4226 13.6102 55.0015 14.0662 54.4704 14.4158C53.9393 14.7653 53.3224 15.0166 52.6196 15.1695C51.9168 15.3224 51.1738 15.3989 50.3905 15.3989C49.6073 15.3989 48.824 15.3306 48.0998 15.1914C47.3756 15.0521 46.7479 14.8445 46.2168 14.5687H46.2222Z" fill="#A7A9AC"/>
<path d="M60.2324 15.1396H56.9384V0.248138H60.2324V15.1396Z" fill="#A7A9AC"/>
<path d="M72.3685 14.6097C71.3009 15.1367 69.9061 15.3989 68.1867 15.3989C65.9416 15.3989 64.1793 14.7271 62.8918 13.3835C61.6069 12.0399 60.9631 10.2512 60.9631 8.01463C60.9631 5.63331 61.6847 3.70259 63.1305 2.21972C64.5763 0.739592 66.4512 -0.00320435 68.7554 -0.00320435C70.1824 -0.00320435 71.3868 0.179764 72.3658 0.548431V3.77905C71.3868 3.18372 70.2709 2.88606 69.0209 2.88606C67.6476 2.88606 66.5398 3.32573 65.6948 4.20507C64.8526 5.08441 64.4287 6.27506 64.4287 7.77704C64.4287 9.27902 64.8257 10.3659 65.6224 11.2207C66.4191 12.0754 67.4893 12.5042 68.8359 12.5042C70.1824 12.5042 71.2983 12.1847 72.3658 11.5484V14.6124L72.3685 14.6097Z" fill="#A7A9AC"/>
<path d="M14.879 23.3845C14.584 18.7338 11.8051 16.4099 6.553 16.4099H0V32.5083H6.69249C8.32604 32.5083 9.76647 32.167 11.0138 31.487C12.2664 30.807 13.2267 29.8375 13.9 28.5813C14.4633 27.53 14.7932 26.3393 14.879 25.0176C14.9005 24.7663 14.9086 24.5123 14.9086 24.2556C14.9086 23.958 14.9005 23.6658 14.879 23.3845ZM8.82496 27.519C8.14632 28.3164 7.237 28.7124 6.09968 28.7124H4.76655V20.2058H5.98971C6.77296 20.2058 7.45964 20.3778 8.03903 20.7219C8.61842 21.066 9.06906 21.5493 9.38021 22.1774C9.68868 22.8055 9.84694 23.5128 9.84694 24.3021C9.84694 25.6457 9.50896 26.7189 8.82764 27.5163L8.82496 27.519Z" fill="#DFC128"/>
<path d="M20.0655 28.7097V26.3448H24.8401V22.5488H20.0655V20.203H25.1486V16.4099H15.3016V32.5083H25.5134V28.7124H20.0655V28.7097Z" fill="#DFC128"/>
<path d="M34.1455 16.1397C32.4341 16.1397 30.9186 16.5029 29.6042 17.2211C28.2872 17.9448 27.2706 18.9661 26.549 20.2933C26.152 21.0252 25.8623 21.8144 25.6907 22.6637C25.5431 23.3437 25.4707 24.0674 25.4707 24.8266C25.4707 25.3537 25.5056 25.8616 25.5807 26.345C25.7041 27.197 25.9401 27.9862 26.2915 28.7099C26.3076 28.7618 26.3344 28.8137 26.3639 28.8601C26.3854 28.912 26.4095 28.9584 26.4364 29.0076C27.0801 30.2173 28.0109 31.1486 29.2314 31.804C30.4545 32.4594 31.9057 32.7871 33.5875 32.7871C35.2694 32.7871 36.8144 32.5468 38.1207 32.0661V27.7432C38.0751 27.7677 38.0241 27.7896 37.9759 27.8114C36.8493 28.3685 35.7334 28.6443 34.6229 28.6443C33.3729 28.6443 32.3751 28.2702 31.6294 27.5274C30.8837 26.7819 30.5109 25.7633 30.5109 24.477C30.5109 23.1908 30.8837 22.1585 31.6294 21.4048C32.3751 20.6456 33.3944 20.2715 34.69 20.2715C35.3123 20.2715 35.9292 20.3452 36.5408 20.4954C37.139 20.6374 37.6459 20.8395 38.0778 21.1044C38.0939 21.1099 38.1073 21.1181 38.1207 21.1263V16.6449C36.8412 16.309 35.5161 16.1397 34.1508 16.1397H34.1455Z" fill="#DFC128"/>
<path d="M53.7624 23.8184C53.6953 22.4448 53.3734 21.2077 52.8047 20.0935C52.1529 18.8264 51.2302 17.8487 50.0366 17.1633C48.8429 16.4778 47.4883 16.1365 45.9728 16.1365C44.4572 16.1365 42.9954 16.4942 41.7615 17.2097C40.5249 17.9252 39.5673 18.9329 38.8833 20.2437C38.7572 20.4895 38.6419 20.7353 38.54 20.9947C38.5239 21.0302 38.5105 21.063 38.497 21.1012C38.0706 22.1881 37.8586 23.376 37.8586 24.6705C37.8586 25.8038 38.0357 26.8524 38.3951 27.8137C38.438 27.9338 38.4836 28.054 38.54 28.1769C38.6365 28.4145 38.7519 28.6466 38.8753 28.876C39.5485 30.1185 40.4954 31.0771 41.7105 31.7625C42.931 32.4425 44.2802 32.7893 45.7662 32.7893C47.2523 32.7893 48.6632 32.4371 49.889 31.7298C51.1175 31.0225 52.0725 30.0312 52.7538 28.7504C53.3546 27.6335 53.6899 26.3882 53.7624 25.0145C53.7758 24.8152 53.7784 24.6186 53.7784 24.4165C53.7784 24.2144 53.7731 24.015 53.7624 23.8212V23.8184ZM48.3654 26.735C48.124 27.3467 47.7807 27.8219 47.3408 28.1496C46.9009 28.4828 46.4046 28.6439 45.8494 28.6439C44.9481 28.6439 44.2319 28.2779 43.7062 27.5406C43.1804 26.8087 42.9176 25.7874 42.9176 24.4766C42.9176 23.1657 43.1804 22.1007 43.7089 21.3688C44.2373 20.637 44.9776 20.271 45.9272 20.271C46.7963 20.271 47.4776 20.6506 47.9765 21.4125C48.4754 22.1744 48.7249 23.2231 48.7249 24.5448C48.7249 25.3887 48.6069 26.1233 48.3601 26.735H48.3654Z" fill="#DFC128"/>
<path d="M60.1751 20.2034C60.9637 20.2034 61.645 20.3754 62.2271 20.7195C62.8065 21.0636 63.2517 21.547 63.5656 22.1751C63.8284 22.7048 63.9813 23.292 64.0216 23.9337H69.0886C69.0832 23.7453 69.0751 23.5623 69.0644 23.3821C68.7694 18.7314 65.9904 16.4075 60.7384 16.4075H54.188V32.5059H60.8805C62.5114 32.5059 63.9545 32.1646 65.2018 31.4846C66.4518 30.8046 67.4121 29.8351 68.0854 28.5789C68.6513 27.5276 68.9786 26.3369 69.0644 25.0152V24.9906H63.9974C63.9036 26.0174 63.5736 26.8612 63.0157 27.5166C62.3344 28.314 61.4251 28.71 60.2851 28.71H58.9519V20.2034H60.1751V20.2034Z" fill="#DFC128"/>
<path d="M69.4865 16.4099V23.9361H74.2503V20.203H79.3334V16.4099H69.4865ZM74.2503 28.7097V24.9902H69.4865V32.5056H79.6982V28.7097H74.2503V28.7097Z" fill="#DFC128"/>
<path d="M92.1331 28.4093C91.7817 27.4835 91.3847 26.779 90.934 26.3093C90.4888 25.8341 89.9362 25.4982 89.2656 25.2879V25.2415C90.4754 24.9056 91.39 24.3621 92.0043 23.6166C92.6186 22.8656 92.927 21.9399 92.927 20.8311C92.927 19.3565 92.3986 18.2505 91.3444 17.5131C90.2903 16.7758 88.6567 16.4099 86.4411 16.4099H80.1134V32.5083H84.8773V26.85H85.0624C85.4889 26.85 85.8832 27.0439 86.248 27.4316C86.6128 27.8249 86.9078 28.3574 87.1358 29.0401L88.3161 32.5083H93.6835L92.1304 28.4093H92.1331ZM87.2807 22.8957C86.8917 23.2616 86.374 23.4473 85.7356 23.4473H84.8773V19.7634H85.859C86.5484 19.7634 87.058 19.9217 87.3799 20.2385C87.7072 20.5526 87.8654 20.9786 87.8654 21.5193C87.8654 22.06 87.6696 22.5325 87.2807 22.8984V22.8957Z" fill="#DFC128"/>
<path d="M78.5965 24.4546L75.2114 27.901V21.0137L77.9232 23.7692L78.5965 24.4546Z" fill="#ED1C24"/>
</svg>
