<svg width="36" height="36" viewBox="0 0 36 36" fill="none" xmlns="http://www.w3.org/2000/svg">
<g clip-path="url(#clip0_7664_314)">
<path d="M23.4585 19.1437C25.608 17.499 27 14.9152 27 12C27 7.02975 22.9702 3 18 3C13.0297 3 9 7.02975 9 12C9 14.9152 10.392 17.499 12.5415 19.1437C7.38 21.3982 3.75 26.7487 3.75 33H32.25C32.25 26.7487 28.62 21.3982 23.4585 19.1437ZM12 12C12 8.69175 14.6918 6 18 6C21.3083 6 24 8.69175 24 12C24 15.3082 21.3083 18 18 18C14.6918 18 12 15.3082 12 12ZM18 21C23.2327 21 27.642 24.8302 28.8938 30H7.10625C8.358 24.8302 12.7673 21 18 21Z" fill="white"/>
</g>
<defs>
<clipPath id="clip0_7664_314">
<rect width="36" height="36" fill="white"/>
</clipPath>
</defs>
</svg>
