<svg width="23" height="23" viewBox="0 0 23 23" fill="none" xmlns="http://www.w3.org/2000/svg">
<path d="M18.2083 18.209H4.79167V7.66732H18.2083M15.3333 0.958984V2.87565H7.66667V0.958984H5.75V2.87565H4.79167C3.72792 2.87565 2.875 3.72857 2.875 4.79232V18.209C2.875 18.7173 3.07693 19.2048 3.43638 19.5643C3.79582 19.9237 4.28333 20.1257 4.79167 20.1257H18.2083C18.7167 20.1257 19.2042 19.9237 19.5636 19.5643C19.9231 19.2048 20.125 18.7173 20.125 18.209V4.79232C20.125 4.28399 19.9231 3.79647 19.5636 3.43703C19.2042 3.07758 18.7167 2.87565 18.2083 2.87565H17.25V0.958984M16.2917 11.5007H11.5V16.2923H16.2917V11.5007Z" fill="#231F20"/>
</svg>
