<svg width="36" height="36" viewBox="0 0 36 36" fill="none" xmlns="http://www.w3.org/2000/svg">
<path d="M31.2 1.20002H23.4C23.4 0.54 22.86 0 22.2 0H13.8C13.14 0 12.6 0.54 12.6 1.20002H4.8C3.77998 1.20002 3 1.98 3 3.00002V34.2C3 35.22 3.77998 36 4.8 36H31.2C32.22 36 33 35.22 33 34.2V3.00002C33 1.98 32.22 1.20002 31.2 1.20002ZM13.8 5.99998H22.2C22.86 5.99998 23.4 5.45998 23.4 4.79995H29.4V32.4H6.6V4.80002H12.6C12.6 5.45998 13.14 5.99998 13.8 5.99998ZM13.8 1.20002H22.2V1.8V4.19998V4.79995H13.8V4.19998V1.8V1.20002ZM31.8 34.2C31.8 34.56 31.56 34.8 31.2 34.8H4.8C4.44 34.8 4.20002 34.56 4.20002 34.2V3.00002C4.20002 2.64002 4.44 2.40005 4.8 2.40005H12.6V3.6H6.6C5.93998 3.6 5.39998 4.14 5.39998 4.80002V32.4C5.39998 33.06 5.93998 33.6 6.6 33.6H29.4C30.06 33.6 30.6 33.06 30.6 32.4V4.80002C30.6 4.14 30.06 3.6 29.4 3.6H23.4V2.39998H31.2C31.56 2.39998 31.7999 2.63995 31.7999 2.99995V34.2H31.8Z" fill="white"/>
<path d="M27.36 23.5205C27.06 23.2805 26.7 23.4004 26.52 23.6405L24.0269 27.1308L23.34 26.1004C23.16 25.8004 22.8 25.7404 22.5 25.9204C22.2 26.1004 22.14 26.4604 22.32 26.7605L23.4593 28.4694C23.5034 28.5522 23.5659 28.6249 23.64 28.6805C23.6895 28.7052 23.7389 28.7297 23.7884 28.7502C23.8257 28.767 23.864 28.7797 23.9029 28.7883C23.9066 28.7891 23.9103 28.79 23.9141 28.7908C23.9244 28.7928 23.9346 28.7947 23.9449 28.796C23.9632 28.7986 23.9816 28.8004 24 28.8004C24.0825 28.8004 24.1649 28.7869 24.2416 28.7559C24.2811 28.7471 24.3205 28.7405 24.36 28.7405C24.5162 28.6467 24.6067 28.504 24.6328 28.3465L27.48 24.3604C27.72 24.0605 27.6 23.7005 27.36 23.5205Z" fill="white"/>
<path d="M9.96041 12.5405C9.06041 12.5405 8.40039 13.2605 8.40039 14.1005V16.4405C8.40039 17.3405 9.06041 18.0005 9.96041 18.0005H10.8769C11.145 19.0326 12.0874 19.8005 13.2004 19.8005C14.3135 19.8005 15.2558 19.0326 15.524 18.0005H20.4769C20.7451 19.0326 21.6874 19.8005 22.8005 19.8005C23.9135 19.8005 24.8558 19.0326 25.124 18.0005H26.0405C26.9405 18.0005 27.6005 17.3405 27.6605 16.4405V14.1005C27.6605 13.2005 26.9405 12.5405 26.1004 12.5405H24.8655L22.5004 9.24041C22.1404 8.70041 21.5405 8.40039 20.8804 8.40039H15.1204C14.4604 8.40039 13.8604 8.70041 13.5004 9.24041L11.1354 12.5404H9.96041V12.5405ZM13.2004 18.6004C12.5404 18.6004 12.0004 18.0604 12.0004 17.4004C12.0004 16.7404 12.5404 16.2004 13.2004 16.2004C13.8604 16.2004 14.4004 16.7404 14.4004 17.4004C14.4004 18.0604 13.8604 18.6004 13.2004 18.6004ZM22.8005 18.6004C22.1404 18.6004 21.6004 18.0604 21.6004 17.4004C21.6004 16.7404 22.1404 16.2004 22.8005 16.2004C23.4605 16.2004 24.0005 16.7404 24.0005 17.4004C24.0005 18.0604 23.4604 18.6004 22.8005 18.6004ZM26.4604 14.1004V16.4404C26.4604 16.6204 26.2804 16.8004 26.1004 16.8004H25.1405C24.8404 15.7804 24.0605 15.0004 22.9205 15.0004C22.8986 15.0004 22.8769 15.0013 22.8552 15.0018C22.837 15.0014 22.8188 15.0004 22.8005 15.0004C21.6875 15.0004 20.7451 15.7683 20.4769 16.8004H15.6005C15.3004 15.7804 14.4004 15.0004 13.2605 15.0004C13.2495 15.0004 13.2387 15.001 13.2278 15.0011C13.2187 15.001 13.2097 15.0004 13.2005 15.0004C12.0875 15.0004 11.1451 15.7683 10.8769 16.8004H9.96048C9.78048 16.8004 9.60048 16.6204 9.60048 16.4404V14.1004C9.60048 13.9204 9.78048 13.7404 9.96048 13.7404H11.4005H24.6005H26.1004C26.2804 13.7404 26.4604 13.9204 26.4604 14.1004ZM21.4804 9.84046L23.4004 12.5405H18.6004V9.54044H20.8204C21.1204 9.54044 21.3605 9.66046 21.4804 9.84046ZM14.4004 9.84046C14.5804 9.66046 14.8204 9.54044 15.0605 9.54044H17.4005V12.5405H12.5405L14.4004 9.84046Z" fill="white"/>
<path d="M18.0004 22.7998H9.00037C8.64037 22.7998 8.40039 23.0398 8.40039 23.3998C8.40039 23.7598 8.64037 23.9998 9.00037 23.9998H18.0004C18.3604 23.9998 18.6003 23.7598 18.6003 23.3998C18.6003 23.0398 18.3604 22.7998 18.0004 22.7998Z" fill="white"/>
<path d="M18.0004 25.7998H9.00037C8.64037 25.7998 8.40039 26.0398 8.40039 26.3998C8.40039 26.7598 8.64037 26.9998 9.00037 26.9998H18.0004C18.3604 26.9998 18.6003 26.7599 18.6003 26.3999C18.6003 26.0399 18.3604 25.7998 18.0004 25.7998Z" fill="white"/>
<path d="M18.0004 28.7998H9.00037C8.64037 28.7998 8.40039 29.0398 8.40039 29.3998C8.40039 29.7598 8.64037 29.9998 9.00037 29.9998H18.0004C18.3604 29.9998 18.6003 29.7598 18.6003 29.3998C18.6003 29.0398 18.3604 28.7998 18.0004 28.7998Z" fill="white"/>
</svg>
