<svg width="36" height="36" viewBox="0 0 36 36" fill="none" xmlns="http://www.w3.org/2000/svg">
<path d="M15 13.5C15 12.9067 15.176 12.3266 15.5057 11.8333C15.8352 11.3399 16.3038 10.9554 16.8519 10.7284C17.4002 10.5013 18.0033 10.4419 18.5853 10.5576C19.1671 10.6734 19.7017 10.9591 20.1213 11.3787C20.5408 11.7982 20.8266 12.3328 20.9424 12.9147C21.0581 13.4967 20.9987 14.0999 20.7717 14.6481C20.5446 15.1962 20.16 15.6648 19.6667 15.9943C19.1733 16.324 18.5934 16.5 18 16.5V18M21.375 28.5L19.2 31.4C18.6 32.2001 17.4 32.2001 16.8 31.4L14.625 28.5H10.5C7.18629 28.5 4.5 25.8137 4.5 22.5V10.5C4.5 7.18629 7.18629 4.5 10.5 4.5H25.5C28.8137 4.5 31.5 7.18629 31.5 10.5V22.5C31.5 25.8137 28.8137 28.5 25.5 28.5H21.375Z" stroke="white" stroke-width="2" stroke-linecap="round" stroke-linejoin="round"/>
<path d="M18 24C18.8284 24 19.5 23.3284 19.5 22.5C19.5 21.6716 18.8284 21 18 21C17.1716 21 16.5 21.6716 16.5 22.5C16.5 23.3284 17.1716 24 18 24Z" fill="white"/>
</svg>
