<svg width="37" height="36" viewBox="0 0 37 36" fill="none" xmlns="http://www.w3.org/2000/svg">
<path d="M32.8496 9.53914L21.669 3.22871C20.1474 2.36956 17.5321 2.36859 16.0076 3.22871L4.827 9.53914C3.97172 10.0225 3.50195 10.6986 3.50195 11.4444C3.50195 12.1902 3.97269 12.8663 4.827 13.3486L16.0076 19.66C16.7689 20.0901 17.7743 20.3264 18.8378 20.3264C19.9023 20.3264 20.9077 20.0891 21.669 19.66L32.8496 13.3486C33.7049 12.8663 34.1756 12.1902 34.1756 11.4444C34.1756 10.6986 33.7039 10.0225 32.8496 9.53914ZM32.3401 12.4478L21.1595 18.7593C19.9604 19.4363 17.7152 19.4373 16.5161 18.7593L5.33551 12.4478C4.82797 12.1611 4.53739 11.795 4.53739 11.4444C4.53739 11.0928 4.82797 10.7276 5.33551 10.4399L16.5161 4.12854C17.1156 3.78953 17.9622 3.59581 18.8368 3.59581C19.7125 3.59581 20.559 3.7905 21.1586 4.12854L32.3391 10.4399C32.8467 10.7266 33.1382 11.0928 33.1382 11.4444C33.1392 11.795 32.8486 12.1611 32.3401 12.4478Z" fill="white" stroke="white"/>
<path d="M32.8486 16.1612C32.6006 16.0208 32.2849 16.1079 32.1425 16.3578C32.002 16.6068 32.0902 16.9225 32.3391 17.063C32.8467 17.3497 33.1382 17.7158 33.1382 18.0665C33.1382 18.4171 32.8467 18.7832 32.3391 19.0699L21.1586 25.3813C19.9013 26.0913 17.7743 26.0923 16.5151 25.3813L5.33453 19.0699C4.82698 18.7832 4.5364 18.4171 4.5364 18.0665C4.5364 17.7158 4.82698 17.3497 5.33453 17.063C5.58346 16.9225 5.6716 16.6068 5.53116 16.3578C5.38974 16.1079 5.07301 16.0198 4.82505 16.1612C3.96977 16.6436 3.5 17.3206 3.5 18.0665C3.5 18.8123 3.96977 19.4893 4.82505 19.9717L16.0056 26.2831C16.7989 26.7306 17.8179 26.9553 18.8359 26.9553C19.8548 26.9553 20.8738 26.7316 21.6671 26.2831L32.8476 19.9717C33.7029 19.4893 34.1736 18.8123 34.1736 18.0665C34.1736 17.3206 33.7029 16.6436 32.8486 16.1612Z" fill="white" stroke="white"/>
<path d="M32.8496 22.6561C32.6016 22.5157 32.2859 22.6028 32.1435 22.8527C32.003 23.1017 32.0912 23.4174 32.3401 23.5579C32.8476 23.8446 33.1392 24.2107 33.1392 24.5614C33.1392 24.912 32.8476 25.2781 32.3401 25.5658L21.1595 31.8772C19.9023 32.5872 17.7753 32.5882 16.5161 31.8772L5.33551 25.5648C4.82797 25.2781 4.53739 24.912 4.53739 24.5604C4.53739 24.2098 4.82797 23.8436 5.33551 23.5569C5.58444 23.4165 5.67259 23.1007 5.53214 22.8518C5.39072 22.6028 5.07399 22.5137 4.82603 22.6552C3.97269 23.1385 3.50195 23.8146 3.50195 24.5614C3.50195 25.3082 3.97172 25.9842 4.827 26.4666L16.0076 32.778C16.8008 33.2255 17.8198 33.4502 18.8378 33.4502C19.8568 33.4502 20.8757 33.2265 21.669 32.778L32.8496 26.4666C33.7049 25.9833 34.1756 25.3072 34.1756 24.5614C34.1756 23.8155 33.7039 23.1385 32.8496 22.6561Z" fill="white" stroke="white"/>
</svg>
