<svg width="36" height="36" viewBox="0 0 36 36" fill="none" xmlns="http://www.w3.org/2000/svg">
<g clip-path="url(#clip0_7664_288)">
<path d="M3.20178 31.4477C1.44776 31.4477 0 30.0278 0 28.246V3.27209C0 1.51807 1.41992 0.0703125 3.20178 0.0703125H26.7001C28.4541 0.0703125 29.9018 1.49023 29.9018 3.27209V15.0769L29.7905 15.0491C29.3172 14.9099 28.8717 14.8542 28.3705 14.8542H28.3427L28.3149 14.7707H28.2313V3.27209C28.2313 2.46469 27.5075 1.74081 26.7001 1.74081H3.20178C2.39437 1.74081 1.67049 2.46469 1.67049 3.27209V28.246C1.67049 29.0534 2.39437 29.7773 3.20178 29.7773H15.5356L15.5634 29.8051C15.8697 30.2227 15.7026 30.529 15.5913 30.7517C15.4799 30.9466 15.4242 31.0858 15.6191 31.2807L15.7862 31.4477H3.20178Z" fill="white"/>
<path d="M5.01191 6.19493C4.70565 6.19493 4.45508 5.80514 4.45508 5.33184C4.45508 4.85853 4.70565 4.46875 5.01191 4.46875H14.478C14.7843 4.46875 15.0349 4.85853 15.0349 5.33184C15.0349 5.80514 14.7843 6.19493 14.478 6.19493H5.01191Z" fill="white"/>
<path d="M14.478 4.55273H5.01191C4.76134 4.55273 4.5386 4.88683 4.5386 5.3323C4.5386 5.77776 4.76134 6.11186 5.01191 6.11186H14.478C14.7286 6.11186 14.9513 5.77776 14.9513 5.3323C14.9513 4.88683 14.7565 4.55273 14.478 4.55273ZM4.90054 10.65C4.64997 10.65 4.45508 10.2881 4.45508 9.78695C4.45508 9.2858 4.64997 8.92386 4.90054 8.92386H11.6939C11.9445 8.92386 12.1393 9.2858 12.1393 9.78695C12.1393 10.2881 11.9445 10.65 11.6939 10.65H4.90054Z" fill="white"/>
<path d="M11.6938 9.00737H4.9005C4.70561 9.00737 4.56641 9.34147 4.56641 9.78693C4.56641 10.2324 4.70561 10.5665 4.9005 10.5665H11.6938C11.8887 10.5665 12.0279 10.2324 12.0279 9.78693C12.0279 9.34147 11.8609 9.00737 11.6938 9.00737ZM25.726 35.9302C24.7515 35.9302 23.6936 35.8745 22.3293 35.7631C20.3526 35.5961 18.5429 34.6773 16.7888 32.9789L8.88185 25.239C7.0443 23.4571 6.96078 21.1184 8.60343 19.3366C9.29947 18.6127 10.3853 18.1672 11.5546 18.1672C12.724 18.1672 13.782 18.6127 14.4502 19.3923C14.478 19.4201 14.5337 19.4758 14.645 19.5315C14.6729 19.5593 14.7286 19.5872 14.7564 19.615V15.8842V14.0467C14.7564 12.6268 14.7564 11.179 14.7843 9.75909C14.8121 7.64313 16.4547 6.02832 18.6264 6.02832H18.6542C20.7423 6.02832 22.3293 7.55961 22.4407 9.64772C22.4685 10.121 22.4685 10.6222 22.4407 11.1233V11.7637H22.8583C24.3061 11.7637 25.4197 12.2648 26.2271 13.3228C26.255 13.3785 26.422 13.4342 26.6448 13.4342C26.7283 13.4342 26.8118 13.4342 26.8675 13.4063C27.1181 13.3785 27.3686 13.3507 27.5914 13.3507C28.705 13.3507 29.6795 13.7961 30.5147 14.7149C30.6539 14.8541 30.9602 14.9655 31.2386 14.9655H31.35C31.5449 14.9376 31.7676 14.9098 31.9625 14.9098C34.0506 14.9098 35.7211 16.3854 35.7489 18.3064C35.8325 21.8423 35.8882 25.3225 35.4984 28.7749C35.0251 32.9511 32.7977 35.1784 28.4545 35.7353C27.6471 35.8745 26.7283 35.9302 25.726 35.9302ZM11.4154 19.7542C10.8308 19.7542 10.2739 19.9769 9.8563 20.3667C9.35515 20.8679 9.07674 21.4525 9.07674 22.0929C9.07674 22.7611 9.383 23.4293 9.93983 23.9861L10.9978 25.0441C13.3087 27.3271 15.703 29.6658 18.0974 31.9767C19.2667 33.0903 20.6031 33.8142 22.0787 34.0926C23.2202 34.3153 24.3617 34.4267 25.4754 34.4267C26.4777 34.4267 27.48 34.3432 28.4545 34.1483C31.9903 33.5079 33.6051 31.8096 33.9392 28.5243C34.2455 25.3782 34.2177 22.1486 34.162 19.0303V18.5292C34.1341 17.3877 33.3267 16.6081 32.1852 16.6081C31.879 16.6081 31.6006 16.6638 31.2943 16.7752V21.1184C31.2943 21.5082 31.2943 22.2599 30.5147 22.2599H30.4869C30.2363 22.2599 30.0414 22.2043 29.9301 22.0651C29.7073 21.8423 29.6795 21.4247 29.6795 21.0906V20.9236C29.6795 19.6428 29.7073 18.3343 29.6795 17.0257C29.6516 15.8842 28.8442 15.0768 27.7306 15.0768C27.4522 15.0768 27.1737 15.1325 26.9232 15.216V19.7264C26.9232 20.1161 26.8396 20.4224 26.6448 20.6173C26.5056 20.7565 26.3107 20.84 26.0601 20.84H26.0322C25.2805 20.8122 25.2805 20.0326 25.2805 19.7542V17.9167V15.578C25.2805 15.049 25.0578 14.4922 24.6402 14.0745C24.2504 13.6847 23.7214 13.462 23.1924 13.462C22.9697 13.462 22.7191 13.4899 22.4964 13.5734V15.578C22.4964 16.5246 22.4964 17.5269 22.4407 18.5013C22.4128 18.7519 22.1901 18.9468 21.9674 19.1417C21.8839 19.2252 21.7725 19.3087 21.689 19.3923L21.6054 19.4758L21.5498 19.3366C21.4941 19.2531 21.4105 19.1695 21.327 19.1139C21.16 18.919 20.9651 18.7241 20.8537 18.5013C20.7702 18.3343 20.798 18.1394 20.798 17.9723V17.7496V15.3274C20.798 13.5455 20.798 11.708 20.7702 9.8983C20.7702 8.5619 19.9071 7.67097 18.6542 7.64313C17.29 7.64313 16.3712 8.61759 16.3712 10.0375V23.1509L16.0093 23.3736L15.9814 23.3179C15.7309 23.0395 15.4525 22.7611 15.2019 22.4827C14.6172 21.8702 14.0047 21.202 13.3922 20.5895C12.8353 20.0605 12.1393 19.7542 11.4154 19.7542Z" fill="white"/>
</g>
<defs>
<clipPath id="clip0_7664_288">
<rect width="36" height="36" fill="white"/>
</clipPath>
</defs>
</svg>
