<svg width="36" height="36" viewBox="0 0 36 36" fill="none" xmlns="http://www.w3.org/2000/svg">
<path d="M6.01312 7.03095C5.8921 7.13586 5.79486 7.2654 5.72793 7.41091C5.661 7.55642 5.6259 7.71454 5.625 7.8747V31.4997C5.625 31.7981 5.74353 32.0842 5.95451 32.2952C6.16548 32.5062 6.45163 32.6247 6.75 32.6247C7.04837 32.6247 7.33452 32.5062 7.54549 32.2952C7.75647 32.0842 7.875 31.7981 7.875 31.4997V25.2799C11.6423 22.3042 14.888 23.9088 18.6258 25.7594C20.932 26.8999 23.4155 28.1289 26.0789 28.1289C28.0378 28.1289 30.0923 27.461 32.2411 25.5977C32.3621 25.4928 32.4594 25.3632 32.5263 25.2177C32.5932 25.0722 32.6283 24.9141 32.6292 24.7539V7.8747C32.6287 7.65877 32.5661 7.44754 32.4488 7.26624C32.3315 7.08494 32.1645 6.94123 31.9677 6.85227C31.771 6.76331 31.5527 6.73285 31.3392 6.76453C31.1256 6.79622 30.9256 6.8887 30.7631 7.03095C26.8256 10.4383 23.49 8.78736 19.6242 6.87345C15.6192 4.88783 11.0784 2.64205 6.01312 7.03095ZM30.375 24.2224C26.6077 27.198 23.362 25.592 19.6242 23.7428C16.1086 22.0061 12.1978 20.0683 7.875 22.5616V8.40767C11.6423 5.43205 14.888 7.03658 18.6258 8.8858C22.1414 10.6225 26.0536 12.5603 30.375 10.067V24.2224Z" fill="white"/>
</svg>
