<svg width="37" height="36" viewBox="0 0 37 36" fill="none" xmlns="http://www.w3.org/2000/svg">
<g clip-path="url(#clip0_7664_308)">
<path d="M9.00664 6.38577C14.8986 1.55727 23.6061 1.89327 29.1066 7.39377C34.9641 13.2513 34.9641 22.7493 29.1066 28.6068C23.2491 34.4643 13.7511 34.4643 7.89364 28.6068C6.09609 26.8117 4.78426 24.5892 4.08133 22.1479C3.37841 19.7067 3.30746 17.1269 3.87514 14.6508L3.99064 14.1813L6.89164 14.9463C6.17246 17.6797 6.44118 20.5792 7.65046 23.1338C8.85974 25.6885 10.9319 27.7343 13.5019 28.9108C16.0718 30.0872 18.9746 30.3188 21.6985 29.5646C24.4225 28.8105 26.7928 27.119 28.3918 24.7884C29.9908 22.4578 30.7158 19.6375 30.439 16.8247C30.1622 14.0118 28.9015 11.3869 26.8789 9.41263C24.8564 7.43831 22.2019 6.24127 19.3832 6.03247C16.5645 5.82367 13.7625 6.61651 11.4711 8.27127L11.1396 8.52027L12.6651 10.0458L5.77114 11.6358L7.36114 4.74177L9.00664 6.38577ZM20.0001 9.00027V12.0003H23.7501V15.0003H15.5001C15.3127 14.9999 15.132 15.0698 14.9935 15.196C14.855 15.3223 14.7688 15.4959 14.7518 15.6825C14.7349 15.8692 14.7885 16.0554 14.902 16.2045C15.0155 16.3537 15.1807 16.4549 15.3651 16.4883L15.5001 16.5003H21.5001C22.4947 16.5003 23.4485 16.8954 24.1518 17.5986C24.8551 18.3019 25.2501 19.2557 25.2501 20.2503C25.2501 21.2448 24.8551 22.1987 24.1518 22.9019C23.4485 23.6052 22.4947 24.0003 21.5001 24.0003H20.0001V27.0003H17.0001V24.0003H13.2501V21.0003H21.5001C21.6876 21.0006 21.8683 20.9308 22.0068 20.8045C22.1453 20.6782 22.2315 20.5047 22.2485 20.318C22.2654 20.1314 22.2118 19.9452 22.0983 19.796C21.9848 19.6469 21.8196 19.5457 21.6351 19.5123L21.5001 19.5003H15.5001C14.5056 19.5003 13.5518 19.1052 12.8485 18.4019C12.1452 17.6987 11.7501 16.7448 11.7501 15.7503C11.7501 14.7557 12.1452 13.8019 12.8485 13.0986C13.5518 12.3954 14.5056 12.0003 15.5001 12.0003H17.0001V9.00027H20.0001Z" fill="white"/>
</g>
<defs>
<clipPath id="clip0_7664_308">
<rect width="36" height="36" fill="white" transform="translate(0.5)"/>
</clipPath>
</defs>
</svg>
