<svg width="36" height="36" viewBox="0 0 36 36" fill="none" xmlns="http://www.w3.org/2000/svg">
<path d="M32.7438 23.4391C32.0726 23.1524 30.1587 22.4833 27.8604 22.8645C26.5256 23.0887 18.956 24.3982 18.4781 24.3982C17.999 24.3982 17.999 24.3982 17.999 24.3982C17.999 24.3982 17.999 24.3982 17.52 24.3982C17.0409 24.3982 9.47258 23.0887 8.13776 22.8645C5.83939 22.4833 3.92562 23.1524 3.25435 23.4391C0.43742 24.6476 1.38228 27.4689 2.00961 28.5148C2.87094 29.9507 6.15144 33.7235 9.38251 34.1629C13.5946 34.7375 17.2333 31.4834 17.9991 31.4834C18.7649 31.4834 22.4024 34.7375 26.6157 34.1629C29.8467 33.7235 33.1272 29.9508 33.9886 28.5148C34.6159 27.4689 35.5618 24.6476 32.7438 23.4391ZM9.24737 29.7596C7.88619 28.3983 8.11358 27.036 9.70222 26.9229C11.2909 26.8086 13.9704 27.492 14.0155 28.3983C14.1275 30.6681 10.6097 31.1219 9.24737 29.7596ZM26.7508 29.7596C25.3885 31.1219 21.8707 30.6681 21.9827 28.3983C22.0278 27.4919 24.7073 26.8086 26.296 26.9229C27.8846 27.036 28.1131 28.3983 26.7508 29.7596Z" fill="white"/>
<path d="M33.4725 14.4014L33.5548 14.9015L34.0494 15.0117C34.3893 15.0874 34.6925 15.3246 34.9238 15.6533C35.1658 15.9972 35.25 16.3278 35.25 16.4505V16.4543V16.4581V16.462V16.466V16.47V16.4741V16.4783V16.4825V16.4868V16.4912V16.4956V16.5001V16.5047V16.5093V16.514V16.5187V16.5236V16.5284V16.5334V16.5384V16.5434V16.5485V16.5537V16.5589V16.5642V16.5696V16.575V16.5805V16.586V16.5916V16.5973V16.603V16.6088V16.6146V16.6205V16.6264V16.6324V16.6385V16.6446V16.6507V16.657V16.6632V16.6696V16.676V16.6824V16.6889V16.6955V16.7021V16.7087V16.7154V16.7222V16.729V16.7359V16.7428V16.7498V16.7568V16.7638V16.771V16.7781V16.7854V16.7926V16.8V16.8073V16.8148V16.8222V16.8297V16.8373V16.8449V16.8526V16.8603V16.868V16.8758V16.8837V16.8916V16.8995V16.9075V16.9155V16.9236V16.9317V16.9399V16.9481V16.9563V16.9646V16.973V16.9813V16.9898V16.9982V17.0067V17.0153V17.0239V17.0325V17.0412V17.0499V17.0586V17.0674V17.0762V17.0851V17.094V17.103V17.112V17.121V17.13V17.1391V17.1483V17.1574V17.1666V17.1759V17.1852V17.1945V17.2038V17.2132V17.2227V17.2321V17.2416V17.2511V17.2607V17.2703V17.2799V17.2896V17.2993V17.309V17.3187V17.3285V17.3383V17.3482V17.3581V17.368V17.3779V17.3879V17.3979V17.4079V17.418V17.4281V17.4382V17.4483V17.4585V17.4687V17.4789V17.4892V17.4995V17.5098V17.5201V17.5305V17.5409V17.5513V17.5617V17.5722V17.5827V17.5932V17.6037V17.6143V17.6248V17.6354V17.6461V17.6567V17.6674V17.6781V17.6888V17.6995V17.7103V17.7211V17.7318V17.7427V17.7535V17.7644V17.7752V17.7861V17.797V17.808V17.8189V17.8299V17.8409V17.8519V17.8629V17.8739V17.885V17.896V17.9071V17.9182V17.9293V17.9405V17.9516V17.9628V17.9739V17.9851V17.9963V18.0075V18.0187V18.03V18.0412V18.0525V18.0637V18.075V18.0863V18.0976V18.1089V18.1203V18.1316V18.1429V18.1543V18.1657V18.177V18.1884V18.1998V18.2112V18.2226V18.234V18.2454V18.2569V18.2683V18.2797V18.2912V18.3026V18.3141V18.3255V18.337V18.3484V18.3599V18.3714V18.3829V18.3944V18.4058V18.4173V18.4288V18.4403V18.4518V18.4633V18.4748V18.4863V18.4978V18.5093V18.5208V18.5323V18.5438V18.5553V18.5668V18.5782V18.5897V18.6012V18.6127V18.6242V18.6357V18.6472V18.6586V18.6701V18.6816V18.693V18.7045V18.7159V18.7274V18.7388V18.7503V18.7617V18.7731V18.7845V18.7959V18.8073V18.8187V18.8301V18.8415V18.8529V18.8642V18.8756V18.8869V18.8982V18.9096V18.9209V18.9322V18.9435V18.9548V18.966V18.9773V18.9885V18.9998V19.011V19.0222V19.0334V19.0446V19.0557V19.0669V19.078V19.0891V19.1003V19.1114V19.1224V19.1335V19.1445V19.1556V19.1666V19.1776V19.1886V19.1995V19.2105V19.2214V19.2323V19.2432V19.2541V19.2649V19.2757V19.2866V19.2974V19.3081V19.3189V19.3296V19.3403V19.351V19.3617V19.3723V19.3829V19.3935V19.4041V19.4147V19.4252V19.4357V19.4462V19.4566V19.4671V19.4775V19.4878V19.4982V19.5085V19.5188V19.5291V19.5394V19.5496V19.5598V19.5699V19.5801V19.5902V19.6003V19.6103V19.6203V19.6303V19.6403V19.6502V19.6601V19.67V19.6799V19.6897V19.6995V19.7092V19.7189V19.7286V19.7383V19.7479V19.7575V19.767V19.7765V19.786V19.7955V19.8049V19.8143V19.8236V19.8329V19.8422V19.8514V19.8606V19.8698V19.8789V19.888V19.8971V19.9061V19.9126H0.75V19.9061V19.8971V19.888V19.8789V19.8698V19.8606V19.8514V19.8422V19.8329V19.8236V19.8143V19.8049V19.7955V19.786V19.7765V19.767V19.7575V19.7479V19.7383V19.7286V19.7189V19.7092V19.6995V19.6897V19.6799V19.67V19.6601V19.6502V19.6403V19.6303V19.6203V19.6103V19.6003V19.5902V19.5801V19.5699V19.5598V19.5496V19.5394V19.5291V19.5188V19.5085V19.4982V19.4878V19.4775V19.4671V19.4566V19.4462V19.4357V19.4252V19.4147V19.4041V19.3935V19.3829V19.3723V19.3617V19.351V19.3403V19.3296V19.3189V19.3081V19.2974V19.2866V19.2757V19.2649V19.2541V19.2432V19.2323V19.2214V19.2105V19.1995V19.1886V19.1776V19.1666V19.1556V19.1445V19.1335V19.1224V19.1114V19.1003V19.0891V19.078V19.0669V19.0557V19.0446V19.0334V19.0222V19.011V18.9998V18.9885V18.9773V18.966V18.9548V18.9435V18.9322V18.9209V18.9096V18.8982V18.8869V18.8756V18.8642V18.8529V18.8415V18.8301V18.8187V18.8073V18.7959V18.7845V18.7731V18.7617V18.7503V18.7388V18.7274V18.7159V18.7045V18.693V18.6816V18.6701V18.6586V18.6472V18.6357V18.6242V18.6127V18.6012V18.5897V18.5782V18.5668V18.5553V18.5438V18.5323V18.5208V18.5093V18.4978V18.4863V18.4748V18.4633V18.4518V18.4403V18.4288V18.4173V18.4058V18.3944V18.3829V18.3714V18.3599V18.3484V18.337V18.3255V18.3141V18.3026V18.2912V18.2797V18.2683V18.2569V18.2454V18.234V18.2226V18.2112V18.1998V18.1884V18.177V18.1657V18.1543V18.1429V18.1316V18.1203V18.1089V18.0976V18.0863V18.075V18.0637V18.0525V18.0412V18.03V18.0187V18.0075V17.9963V17.9851V17.9739V17.9628V17.9516V17.9405V17.9293V17.9182V17.9071V17.896V17.885V17.8739V17.8629V17.8519V17.8409V17.8299V17.8189V17.808V17.797V17.7861V17.7752V17.7644V17.7535V17.7427V17.7318V17.7211V17.7103V17.6995V17.6888V17.6781V17.6674V17.6567V17.6461V17.6354V17.6248V17.6143V17.6037V17.5932V17.5827V17.5722V17.5617V17.5513V17.5409V17.5305V17.5201V17.5098V17.4995V17.4892V17.4789V17.4687V17.4585V17.4483V17.4382V17.4281V17.418V17.4079V17.3979V17.3879V17.3779V17.368V17.3581V17.3482V17.3383V17.3285V17.3187V17.309V17.2993V17.2896V17.2799V17.2703V17.2607V17.2511V17.2416V17.2321V17.2227V17.2132V17.2038V17.1945V17.1852V17.1759V17.1666V17.1574V17.1483V17.1391V17.13V17.121V17.112V17.103V17.094V17.0851V17.0762V17.0674V17.0586V17.0499V17.0412V17.0325V17.0239V17.0153V17.0067V16.9982V16.9898V16.9813V16.973V16.9646V16.9563V16.9481V16.9399V16.9317V16.9236V16.9155V16.9075V16.8995V16.8916V16.8837V16.8758V16.868V16.8603V16.8526V16.8449V16.8373V16.8297V16.8222V16.8148V16.8073V16.8V16.7926V16.7854V16.7781V16.771V16.7638V16.7568V16.7498V16.7428V16.7359V16.729V16.7222V16.7154V16.7087V16.7021V16.6955V16.6889V16.6824V16.676V16.6696V16.6632V16.657V16.6507V16.6446V16.6385V16.6324V16.6264V16.6205V16.6146V16.6088V16.603V16.5973V16.5916V16.586V16.5805V16.575V16.5696V16.5642V16.5589V16.5537V16.5485V16.5434V16.5384V16.5334V16.5284V16.5236V16.5187V16.514V16.5093V16.5047V16.5001V16.4956V16.4912V16.4868V16.4825V16.4783V16.4741V16.47V16.466V16.462V16.4581V16.4543V16.4505C0.75 16.3278 0.83419 15.9972 1.07617 15.6533C1.30745 15.3246 1.61063 15.0874 1.95052 15.0117L2.44526 14.9016L2.52754 14.4014C3.31551 9.6115 5.96764 6.66323 9.02622 4.89199C12.1109 3.10567 15.6123 2.51953 18 2.51953C20.3882 2.51953 23.8894 3.10567 26.9738 4.89197C30.0321 6.66318 32.684 9.61146 33.4725 14.4014Z" stroke="white" stroke-width="1.5"/>
</svg>
