<svg width="36" height="36" viewBox="0 0 36 36" fill="none" xmlns="http://www.w3.org/2000/svg">
<path d="M32.3607 17.1022V9.92223C32.3607 6.4525 29.5479 3.63973 26.0782 3.63973H9.9232C6.45347 3.63973 3.6407 6.4525 3.6407 9.92223V26.0772C3.6407 29.547 6.45347 32.3597 9.9232 32.3597H18.8982C20.3852 32.3597 21.5907 31.1543 21.5907 29.6672V26.0772C21.5907 22.6075 24.4035 19.7947 27.8732 19.7947H29.6682C31.1552 19.7947 32.3607 18.5893 32.3607 17.1022ZM32.229 20.7878C31.5028 21.2933 30.6201 21.5897 29.6682 21.5897H27.8732C25.3948 21.5897 23.3857 23.5989 23.3857 26.0772V29.6672C23.3857 30.4252 23.1978 31.1393 22.8659 31.7655C27.7817 30.2516 31.4967 25.9983 32.229 20.7878ZM9.9232 1.84473H26.0782C30.5393 1.84473 34.1557 5.46115 34.1557 9.92223V18.8972C34.1557 27.3237 27.3247 34.1547 18.8982 34.1547H9.9232C5.46212 34.1547 1.8457 30.5383 1.8457 26.0772V9.92223C1.8457 5.46115 5.46212 1.84473 9.9232 1.84473Z" fill="white"/>
<path d="M20.4286 10.6453L19.3629 7.4474C19.2083 6.98192 18.911 6.57699 18.5131 6.29016C18.1152 6.00332 17.6371 5.84917 17.1466 5.84961H10.0434C9.5529 5.84917 9.07476 6.00332 8.67688 6.29016C8.27901 6.57699 7.98165 6.98192 7.82705 7.4474L6.76134 10.6453C6.47825 10.7641 6.23649 10.9638 6.06632 11.2193C5.89616 11.4748 5.80515 11.7749 5.80469 12.0819V15.977C5.80469 16.5636 6.13422 17.0692 6.6141 17.3349C6.60397 17.3863 6.58372 17.433 6.58372 17.4868V19.0931C6.58372 19.2997 6.66579 19.4979 6.81189 19.644C6.95799 19.7901 7.15614 19.8722 7.36275 19.8722H8.14178C8.34839 19.8722 8.54654 19.7901 8.69264 19.644C8.83873 19.4979 8.92081 19.2997 8.92081 19.0931V17.5351H18.2692V19.0931C18.2692 19.2997 18.3512 19.4979 18.4973 19.644C18.6434 19.7901 18.8416 19.8722 19.0482 19.8722H19.8272C20.0338 19.8722 20.232 19.7901 20.3781 19.644C20.5242 19.4979 20.6063 19.2997 20.6063 19.0931V17.4868C20.6063 17.433 20.586 17.3855 20.5759 17.3349C20.82 17.2017 21.0239 17.0055 21.1663 16.7667C21.3087 16.5278 21.3843 16.2551 21.3853 15.977V12.0819C21.3853 11.436 20.9895 10.8814 20.4286 10.6453ZM7.36275 15.977V12.0819H19.8272L19.8288 15.977H7.36275ZM10.0434 7.40767H17.1458C17.4816 7.40767 17.7792 7.62112 17.8851 7.94053L18.7467 10.5238H8.44326L9.30409 7.94053C9.35578 7.78534 9.455 7.65036 9.5877 7.55472C9.72039 7.45908 9.87982 7.40763 10.0434 7.40767Z" fill="white"/>
<path d="M9.31112 15.1984C9.95649 15.1984 10.4797 14.6752 10.4797 14.0299C10.4797 13.3845 9.95649 12.8613 9.31112 12.8613C8.66575 12.8613 8.14258 13.3845 8.14258 14.0299C8.14258 14.6752 8.66575 15.1984 9.31112 15.1984Z" fill="white"/>
<path d="M17.8795 15.1984C18.5249 15.1984 19.048 14.6752 19.048 14.0299C19.048 13.3845 18.5249 12.8613 17.8795 12.8613C17.2341 12.8613 16.7109 13.3845 16.7109 14.0299C16.7109 14.6752 17.2341 15.1984 17.8795 15.1984Z" fill="white"/>
<path d="M6.95312 23H19.5081" stroke="white" stroke-width="1.5" stroke-linecap="round"/>
<path d="M24 11H30" stroke="white" stroke-width="1.5" stroke-linecap="round"/>
<path d="M24 15H30" stroke="white" stroke-width="1.5" stroke-linecap="round"/>
<path d="M6.95312 27H19.5081" stroke="white" stroke-width="1.5" stroke-linecap="round"/>
</svg>
